<?xml version="1.0" encoding="UTF-8"?><svg id="Layer_2" xmlns="http://www.w3.org/2000/svg" viewBox="0 0 89.84 89.84"><defs><style>.cls-1{fill:#00a19b;}</style></defs><g id="Capa_1"><path class="cls-1" d="M42.81,38.94c-2.46,.87-4.23,3.23-4.23,5.99,0,3.5,2.85,6.35,6.35,6.35,2.76,0,5.11-1.77,5.99-4.23h10.95c1.17,0,2.12-.95,2.12-2.12s-.95-2.12-2.12-2.12h-10.95c-.64-1.8-2.07-3.23-3.87-3.87v-15.18c0-1.17-.95-2.12-2.12-2.12s-2.12,.95-2.12,2.12v15.18Zm2.12,8.1c-1.17,0-2.12-.95-2.12-2.12s.95-2.12,2.12-2.12,2.12,.95,2.12,2.12-.95,2.12-2.12,2.12h0Z"/><path class="cls-1" d="M44.92,17.4c1.17,0,2.12-.95,2.12-2.12v-4.23c0-1.17-.95-2.12-2.12-2.12s-2.12,.95-2.12,2.12v4.23c0,1.17,.95,2.12,2.12,2.12h0Z"/><path class="cls-1" d="M42.81,74.56v4.23c0,1.17,.95,2.12,2.12,2.12s2.12-.95,2.12-2.12v-4.23c0-1.17-.95-2.12-2.12-2.12s-2.12,.95-2.12,2.12h0Z"/><path class="cls-1" d="M11.05,42.81c-1.17,0-2.12,.95-2.12,2.12s.95,2.12,2.12,2.12h4.23c1.17,0,2.12-.95,2.12-2.12s-.95-2.12-2.12-2.12h-4.23Z"/><path class="cls-1" d="M78.79,47.04c1.17,0,2.12-.95,2.12-2.12s-.95-2.12-2.12-2.12h-4.23c-1.17,0-2.12,.95-2.12,2.12s.95,2.12,2.12,2.12h4.23Z"/><path class="cls-1" d="M19.47,70.37c.83,.83,2.17,.83,2.99,0l3-3c.83-.83,.83-2.17,0-2.99-.83-.83-2.17-.83-2.99,0l-3,3c-.83,.83-.83,2.17,0,2.99h0Z"/><path class="cls-1" d="M70.37,19.47c-.83-.83-2.17-.83-2.99,0l-3,3c-.83,.83-.83,2.17,0,2.99,.83,.83,2.17,.83,2.99,0l3-3c.83-.83,.83-2.17,0-2.99h0Z"/><path class="cls-1" d="M67.37,64.38c-.83-.83-2.17-.83-2.99,0-.83,.83-.83,2.17,0,2.99l3,3c.83,.83,2.17,.83,2.99,0,.83-.83,.83-2.17,0-2.99l-3-3Z"/><path class="cls-1" d="M22.47,25.46c.83,.83,2.17,.83,2.99,0,.83-.83,.83-2.17,0-2.99l-3-3c-.83-.83-2.17-.83-2.99,0-.83,.83-.83,2.17,0,2.99l3,3Z"/><path class="cls-1" d="M44.92,89.84C20.15,89.84,0,69.69,0,44.92S20.15,0,44.92,0s44.92,20.15,44.92,44.92-20.15,44.92-44.92,44.92Zm0-85.4C22.6,4.45,4.45,22.6,4.45,44.92s18.16,40.48,40.48,40.48,40.48-18.16,40.48-40.48S67.24,4.45,44.92,4.45Z"/></g></svg>