<?xml version="1.0" encoding="UTF-8"?><svg id="Layer_2" xmlns="http://www.w3.org/2000/svg" viewBox="0 0 43.77 53.6"><defs><style>.cls-1,.cls-2{fill:#fd0;}.cls-2{stroke:#fd0;stroke-miterlimit:10;}</style></defs><g id="Capa_1"><g><path class="cls-2" d="M42.47,43.23h-8.26c-.45,0-.81-.36-.81-.81V19.73l-7.76-7.76H9.57c-.45,0-.81-.36-.81-.81V1.31c0-.45,.36-.81,.81-.81h24.68c.21,0,.42,.09,.57,.24l8.22,8.22c.15,.15,.24,.36,.24,.57V42.43c0,.45-.36,.81-.81,.81Zm-7.46-1.61h6.65V9.86l-7.74-7.74H10.38V10.36h15.6c.21,0,.42,.09,.57,.24l8.23,8.23c.15,.15,.24,.36,.24,.57v22.22Z"/><path class="cls-2" d="M42.47,10.34h-8.22c-.45,0-.81-.36-.81-.81V1.31c0-.33,.2-.62,.5-.75,.3-.12,.65-.06,.88,.17l8.22,8.22c.23,.23,.3,.58,.17,.88s-.42,.5-.75,.5Zm-7.42-1.61h5.47l-5.47-5.47v5.47Z"/><path class="cls-2" d="M34.2,53.1H1.31c-.45,0-.81-.36-.81-.81V11.16c0-.45,.36-.81,.81-.81H25.97c.21,0,.42,.09,.57,.24l8.23,8.23c.15,.15,.24,.36,.24,.57V52.29c0,.45-.36,.81-.81,.81Zm-32.09-1.61h31.28V19.73l-7.76-7.76H2.11V51.49Z"/><path class="cls-2" d="M34.2,20.2h-8.22c-.45,0-.81-.36-.81-.81V11.17c0-.33,.2-.62,.5-.75,.3-.12,.65-.06,.88,.17l8.22,8.22c.23,.23,.3,.58,.17,.88s-.42,.5-.75,.5Zm-7.42-1.61h5.47l-5.47-5.47v5.47Z"/><path class="cls-1" d="M9.95,26.99h15.41c1.61,0,1.61-2.5,0-2.5H9.95c-1.61,0-1.61,2.5,0,2.5h0Z"/><path class="cls-1" d="M9.95,32.99h15.41c1.61,0,1.61-2.5,0-2.5H9.95c-1.61,0-1.61,2.5,0,2.5h0Z"/></g></g></svg>