<?xml version="1.0" encoding="UTF-8"?><svg id="Layer_2" xmlns="http://www.w3.org/2000/svg" viewBox="0 0 183.24 36.39"><defs><style>.cls-1{fill:#1d1d1b;}</style></defs><g id="Capa_1"><g><path class="cls-1" d="M54.72,12.28c.95-.57,2.04-.86,3.22-.86,.96,0,1.86,.18,2.67,.53,.81,.35,1.53,.87,2.15,1.54,.07,.08,.17,.13,.27,.15,.15,.03,.29-.02,.38-.12l.52-.5c.12-.12,.17-.24,.17-.38,0-.12-.06-.23-.14-.29-1.63-1.71-3.68-2.58-6.09-2.58-1.45,0-2.8,.36-4.02,1.08-1.22,.72-2.19,1.73-2.89,3.01-.7,1.28-1.05,2.73-1.05,4.32s.36,3.08,1.08,4.38c.72,1.3,1.71,2.33,2.96,3.05,1.25,.72,2.64,1.09,4.15,1.09,1.15,0,2.2-.21,3.13-.63,.92-.41,1.81-1.04,2.67-1.86,.19-.19,.2-.47-.01-.68l-.55-.48c-.1-.1-.24-.15-.38-.12-.11,.02-.2,.08-.26,.16-.71,.65-1.42,1.15-2.09,1.47-.67,.32-1.53,.48-2.56,.48-1.18,0-2.28-.29-3.25-.87-.97-.58-1.75-1.4-2.32-2.43-.57-1.04-.86-2.24-.86-3.56s.28-2.49,.84-3.52c.56-1.02,1.32-1.83,2.28-2.4Z"/><path class="cls-1" d="M134.19,12.28c.95-.57,2.04-.86,3.22-.86,.96,0,1.86,.18,2.67,.53,.81,.35,1.53,.87,2.15,1.54,.07,.08,.17,.13,.27,.15,.15,.03,.29-.02,.38-.12l.52-.5c.12-.12,.17-.24,.17-.38,0-.12-.06-.23-.14-.29-1.63-1.71-3.68-2.58-6.09-2.58-1.45,0-2.8,.36-4.02,1.08-1.22,.72-2.19,1.73-2.89,3.01-.7,1.28-1.05,2.73-1.05,4.32s.36,3.08,1.08,4.38c.72,1.3,1.71,2.33,2.96,3.05,1.25,.72,2.64,1.09,4.15,1.09,1.15,0,2.2-.21,3.13-.63,.92-.41,1.81-1.04,2.67-1.86,.19-.19,.2-.47-.01-.68l-.55-.48c-.1-.1-.24-.15-.38-.12-.11,.02-.2,.08-.26,.16-.71,.65-1.42,1.15-2.09,1.47-.67,.32-1.53,.48-2.56,.48-1.18,0-2.28-.29-3.25-.87-.97-.58-1.75-1.4-2.32-2.43-.57-1.04-.86-2.24-.86-3.56s.28-2.49,.84-3.52c.56-1.02,1.32-1.83,2.28-2.4Z"/><path class="cls-1" d="M83.27,10.03h-.74c-.28,0-.47,.19-.47,.47v6.88h-9.07v-6.88c0-.28-.19-.47-.47-.47h-.74c-.28,0-.47,.19-.47,.47v15.48c0,.28,.19,.47,.47,.47h.74c.28,0,.47-.19,.47-.47v-7.06h9.07v7.06c0,.28,.19,.47,.47,.47h.74c.28,0,.47-.19,.47-.47V10.5c0-.28-.19-.47-.47-.47Z"/><path class="cls-1" d="M161.89,10.03h-.74c-.28,0-.47,.19-.47,.47v6.88h-9.07v-6.88c0-.28-.19-.47-.47-.47h-.74c-.28,0-.47,.19-.47,.47v15.48c0,.28,.19,.47,.47,.47h.74c.28,0,.47-.19,.47-.47v-7.06h9.07v7.06c0,.28,.19,.47,.47,.47h.74c.28,0,.47-.19,.47-.47V10.5c0-.28-.19-.47-.47-.47Z"/><path class="cls-1" d="M183.19,25.78l-6.25-15.41c-.07-.22-.24-.35-.46-.35h-.5c-.16,0-.3,.09-.44,.32l-6.76,15.42c-.08,.16-.08,.34,.02,.47,.09,.13,.23,.21,.4,.21h.77c.24,0,.42-.14,.48-.35l2.03-4.61h7.16l1.89,4.65c.1,.2,.27,.31,.46,.31h.79c.32,0,.47-.22,.47-.43,0-.09-.02-.17-.06-.24Zm-4.15-5.81h-5.92l3.08-7.13,2.84,7.13Z"/><path class="cls-1" d="M102.24,10.93c-1.25-.7-2.74-1.06-4.41-1.06s-3.13,.35-4.38,1.06c-1.26,.7-2.24,1.71-2.93,2.99-.68,1.28-1.03,2.77-1.03,4.43s.34,3.15,1.02,4.4c.68,1.26,1.66,2.25,2.92,2.94,1.25,.68,2.73,1.03,4.4,1.03s3.15-.35,4.4-1.03c1.26-.69,2.24-1.68,2.92-2.94,.68-1.25,1.02-2.73,1.02-4.4s-.34-3.16-1.02-4.43c-.68-1.28-1.66-2.29-2.92-2.99Zm-4.41,14.13c-1.34,0-2.52-.28-3.52-.82-.99-.54-1.76-1.32-2.3-2.32-.54-1.01-.82-2.21-.82-3.56s.28-2.58,.82-3.61c.54-1.01,1.31-1.81,2.3-2.37,.99-.56,2.18-.84,3.51-.84s2.52,.28,3.51,.84c.99,.56,1.76,1.35,2.3,2.37,.54,1.02,.82,2.24,.82,3.61s-.28,2.55-.82,3.56c-.54,1-1.31,1.78-2.3,2.32-.99,.54-2.17,.82-3.52,.82Z"/><path class="cls-1" d="M123.42,17.86c.69-.84,1.04-1.86,1.04-3.03,0-.96-.23-1.81-.69-2.54s-1.12-1.29-1.96-1.68c-.83-.39-1.79-.58-2.87-.58h-5.89c-.28,0-.47,.19-.47,.47v15.48c0,.28,.19,.47,.47,.47h.74c.28,0,.47-.19,.47-.47v-6.23h4.67c.13,0,.24,0,.33,0l3.22,6.38c.05,.2,.22,.33,.44,.33h.83c.32,0,.47-.22,.47-.43,0-.1-.02-.19-.07-.26l-3.18-6.31c1-.31,1.82-.84,2.43-1.59Zm-9.16-6.19h4.67c1.18,0,2.13,.3,2.83,.91,.69,.6,1.03,1.36,1.03,2.32s-.34,1.73-1.03,2.32c-.7,.6-1.65,.91-2.83,.91h-4.67v-6.46Z"/><path class="cls-1" d="M109.15,32.38c.28,.13,.5,.3,.65,.51,.14,.2,.24,.43,.29,.7,.04,.18,.06,.47,.06,.88h-3.13c.01,.4,.12,.73,.31,.97s.49,.37,.89,.37c.37,0,.67-.12,.9-.35,.13-.13,.22-.29,.27-.46h.71c-.02,.15-.08,.31-.19,.49-.11,.18-.22,.33-.35,.44-.22,.2-.49,.33-.81,.4-.17,.04-.37,.06-.59,.06-.53,0-.98-.18-1.35-.54s-.55-.87-.55-1.51,.19-1.16,.56-1.56c.37-.4,.86-.6,1.46-.6,.3,0,.6,.07,.88,.2Zm.26,1.56c-.03-.29-.1-.52-.2-.7-.2-.32-.53-.48-.99-.48-.33,0-.61,.11-.83,.33-.22,.22-.34,.5-.35,.84h2.37Z"/><path class="cls-1" d="M113.3,32.27h.68v.57c.2-.23,.42-.4,.64-.5,.23-.1,.48-.15,.75-.15,.61,0,1.02,.2,1.23,.59,.12,.22,.18,.52,.18,.93v2.55h-.73v-2.51c0-.24-.04-.44-.12-.59-.13-.25-.36-.37-.69-.37-.17,0-.31,.02-.42,.05-.2,.05-.37,.16-.52,.33-.12,.13-.2,.27-.23,.41s-.05,.34-.05,.6v2.08h-.72v-3.98Z"/><path class="cls-1" d="M120.26,31.16h.73v1.11h.68v.55h-.68v2.6c0,.14,.05,.23,.15,.28,.06,.03,.15,.04,.28,.04,.03,0,.07,0,.11,0,.04,0,.09,0,.14,0v.53c-.08,.02-.17,.04-.26,.05-.09,.01-.19,.02-.29,.02-.34,0-.56-.08-.68-.24-.12-.16-.18-.37-.18-.62v-2.63h-.58v-.55h.58v-1.11Z"/><path class="cls-1" d="M127.31,32.38c.29,.13,.5,.3,.65,.51,.14,.2,.24,.43,.29,.7,.04,.18,.06,.47,.06,.88h-3.13c.01,.4,.12,.73,.31,.97,.19,.24,.49,.37,.89,.37,.37,0,.67-.12,.9-.35,.13-.13,.22-.29,.27-.46h.71c-.02,.15-.08,.31-.19,.49-.11,.18-.22,.33-.35,.44-.22,.2-.49,.33-.81,.4-.17,.04-.37,.06-.59,.06-.53,0-.98-.18-1.35-.54s-.55-.87-.55-1.51,.19-1.16,.56-1.56,.86-.6,1.46-.6c.3,0,.6,.07,.88,.2Zm.26,1.56c-.03-.29-.1-.52-.2-.7-.2-.32-.53-.48-.99-.48-.33,0-.6,.11-.83,.33s-.34,.5-.35,.84h2.37Z"/><path class="cls-1" d="M131.48,32.27h.68v.69c.06-.13,.19-.3,.41-.49s.47-.29,.75-.29c.01,0,.04,0,.07,0s.09,0,.16,.01v.7s-.08-.01-.12-.01c-.03,0-.07,0-.12,0-.36,0-.64,.11-.83,.33-.19,.22-.29,.47-.29,.75v2.29h-.72v-3.98Z"/><path class="cls-1" d="M136.6,31.16h.73v1.11h.68v.55h-.68v2.6c0,.14,.05,.23,.15,.28,.06,.03,.15,.04,.28,.04,.03,0,.07,0,.11,0s.09,0,.14,0v.53c-.08,.02-.17,.04-.26,.05-.09,.01-.18,.02-.29,.02-.34,0-.56-.08-.68-.24-.12-.16-.18-.37-.18-.62v-2.63h-.58v-.55h.58v-1.11Z"/><path class="cls-1" d="M143.28,33.84c.17-.02,.28-.08,.33-.19,.03-.06,.05-.14,.05-.26,0-.23-.09-.39-.26-.5-.18-.1-.42-.15-.75-.15-.37,0-.64,.09-.8,.28-.09,.1-.14,.26-.17,.47h-.67c.01-.49,.18-.83,.51-1.02,.33-.19,.71-.29,1.14-.29,.5,0,.91,.09,1.23,.27,.31,.18,.47,.46,.47,.83v2.29c0,.07,.02,.12,.05,.17,.03,.04,.1,.06,.19,.06,.03,0,.07,0,.11,0s.08,0,.13-.02v.49c-.11,.03-.2,.05-.25,.06s-.14,.01-.24,.01c-.25,0-.43-.08-.54-.24-.06-.09-.1-.21-.12-.37-.15,.18-.36,.33-.63,.46-.27,.13-.58,.2-.91,.2-.4,0-.72-.11-.97-.34s-.38-.5-.38-.84c0-.37,.12-.65,.37-.86,.25-.2,.57-.33,.97-.38l1.14-.13Zm-1.51,1.81c.15,.11,.33,.17,.54,.17,.25,0,.5-.05,.73-.16,.4-.18,.6-.48,.6-.89v-.54c-.09,.05-.2,.1-.34,.13-.14,.03-.27,.06-.41,.07l-.43,.05c-.26,.03-.46,.08-.59,.15-.22,.12-.33,.3-.33,.56,0,.19,.08,.35,.23,.46Z"/><path class="cls-1" d="M147.81,30.79h.73v.76h-.73v-.76Zm0,1.5h.73v3.96h-.73v-3.96Z"/><path class="cls-1" d="M151.89,32.27h.68v.57c.2-.23,.42-.4,.64-.5,.23-.1,.48-.15,.75-.15,.61,0,1.02,.2,1.23,.59,.12,.22,.18,.52,.18,.93v2.55h-.73v-2.51c0-.24-.04-.44-.12-.59-.13-.25-.36-.37-.69-.37-.17,0-.31,.02-.42,.05-.2,.05-.37,.16-.52,.33-.12,.13-.2,.27-.23,.41s-.05,.34-.05,.6v2.08h-.72v-3.98Z"/><path class="cls-1" d="M158.7,32.27h.71v.57c.17-.2,.33-.34,.46-.43,.24-.15,.51-.23,.81-.23,.34,0,.61,.08,.82,.23,.12,.09,.22,.22,.32,.39,.16-.21,.35-.37,.56-.47s.46-.15,.73-.15c.57,0,.96,.19,1.17,.58,.11,.21,.17,.49,.17,.84v2.65h-.75v-2.76c0-.27-.07-.45-.21-.55-.14-.1-.32-.15-.52-.15-.28,0-.53,.09-.73,.26-.2,.18-.3,.47-.3,.88v2.31h-.73v-2.6c0-.27-.03-.47-.1-.59-.11-.19-.31-.28-.61-.28-.27,0-.52,.1-.74,.29-.22,.2-.33,.55-.33,1.06v2.11h-.72v-3.98Z"/><path class="cls-1" d="M170.44,32.38c.28,.13,.5,.3,.65,.51,.14,.2,.24,.43,.29,.7,.04,.18,.06,.47,.06,.88h-3.13c.01,.4,.12,.73,.31,.97,.19,.24,.49,.37,.89,.37,.38,0,.67-.12,.9-.35,.13-.13,.22-.29,.27-.46h.71c-.02,.15-.08,.31-.18,.49-.11,.18-.22,.33-.35,.44-.22,.2-.49,.33-.81,.4-.17,.04-.37,.06-.59,.06-.53,0-.98-.18-1.35-.54s-.56-.87-.56-1.51,.19-1.16,.56-1.56c.37-.4,.86-.6,1.46-.6,.3,0,.6,.07,.88,.2Zm.26,1.56c-.03-.29-.1-.52-.2-.7-.2-.32-.52-.48-.98-.48-.33,0-.61,.11-.83,.33s-.34,.5-.35,.84h2.37Z"/><path class="cls-1" d="M174.59,32.27h.68v.57c.2-.23,.42-.4,.64-.5s.48-.15,.75-.15c.61,0,1.02,.2,1.23,.59,.12,.22,.18,.52,.18,.93v2.55h-.73v-2.51c0-.24-.04-.44-.12-.59-.13-.25-.36-.37-.69-.37-.17,0-.31,.02-.42,.05-.2,.05-.37,.16-.52,.33-.12,.13-.2,.27-.23,.41-.03,.14-.05,.34-.05,.6v2.08h-.72v-3.98Z"/><path class="cls-1" d="M181.54,31.16h.72v1.11h.68v.55h-.68v2.6c0,.14,.05,.23,.15,.28,.06,.03,.15,.04,.28,.04,.03,0,.07,0,.11,0,.04,0,.09,0,.14,0v.53c-.08,.02-.17,.04-.26,.05-.09,.01-.19,.02-.29,.02-.34,0-.56-.08-.68-.24-.12-.16-.18-.37-.18-.62v-2.63h-.58v-.55h.58v-1.11Z"/><path class="cls-1" d="M18.33,36.27L0,18.1,18.1,0,50.15,31.87l-9.01,.1-4.82-4.94h-8.87l-9.11,9.23ZM2.13,18.1l16.19,16.04,8.49-8.61h10.13l4.82,4.94,4.78-.06L18.11,2.12,2.13,18.1Z"/><path class="cls-1" d="M18.19,29.46L6.71,18.16,18.13,6.86l15.99,15.51h-8.85l-7.08,7.08Zm-9.33-11.3l9.33,9.18,6.47-6.46h5.76l-12.27-11.9-9.28,9.19Z"/></g></g></svg>