<?xml version="1.0" encoding="UTF-8"?><svg id="Layer_2" xmlns="http://www.w3.org/2000/svg" viewBox="0 0 104.84 92.44"><defs><style>.cls-1{fill:#2d2a26;}</style></defs><g id="Capa_1"><g><path class="cls-1" d="M10.97,74.05c.13,.04,.38-.2,.78-.62,6.24-6.54,12.77-9.39,20.4-10.72,6.42-1.11,12.79-1.11,19.09,.55,5.88,1.55,11.25,4.87,17.31,5.62,8.58,1.07,20.77-2.33,25.41-16.28,.2-.62,.37-1.07,.52-1.73,.1-.41,.02-.93-.44-.15-.3,.51-.51,.87-1.06,1.73-2.82,4.38-9,12.19-19.08,12.84-6.56,.43-13.01-3.74-19.21-5.09-31.78-6.89-41.16,7.57-43.43,12.69-.46,1.03-.38,1.12-.29,1.16Z"/><path class="cls-1" d="M31.18,55.43c-.45,.74-1.63,3.14-.7,3.14s2.53-1.83,6.93-2.62c5.4-.97,11.86-3.97,13.86-9.9,1.42-4.19-5.39-5.92-6.93-6.26-5.84-1.3-9.38,.67-9.38,.67-3.28-1.88-6.52-.81-6.76-.35-.23,.47,1.11,1.43,1.46,1.76,.35,.33-.14,.21-2.16,1.82-1.83,1.46-2.48,3.05-2.76,4.2-.22,.9,.32,.48,.93-.42,.97-1.44,4.03-3.84,6.53-4.54,2.5-.7,3.67-.18,3.56,.51-.18,1.17,.61,6.05,2.26,6.58,.16,.05,.45,.11-.06-.76-.42-.72-1.04-2.89-.68-4.64,1-4.88,11.73-2.62,11.73,0,0,4.08-4.45,7.77-11.12,9.64-4.22,1.19-9.41-1.44-12.21-3.59-2.8-2.15-3.73-2.39-3.44-3.2,.29-.82,.99-.79,1.46-2.24,.53-1.66,0-3.7-2.74-5.68-2.74-1.98-3.26-3.38-3.84-3.15-.58,.23-.58,4.49,.29,6.52,.87,2.04,1.63,2.71,1.63,2.71,0,0-4.74,.04-5.33,.62-.58,.58,1.83,3.54,5.27,3.54s3.78,.12,5.94,1.86c2.16,1.75,3.65,2.43,4.08,2.62,1.36,.59,2.43,.7,2.15,1.16Z"/><path class="cls-1" d="M41.78,44.96c0-.64,.51-1.15,1.15-1.15s1.15,.51,1.15,1.15-.51,1.15-1.15,1.15-1.15-.51-1.15-1.15Z"/><path class="cls-1" d="M48.51,28.48c0,.85-.69,1.54-1.54,1.54s-1.54-.69-1.54-1.54,.69-1.54,1.54-1.54,1.54,.69,1.54,1.54Z"/><path class="cls-1" d="M40.14,27.72c-1.94-.81-.61-5.42-.06-6.67,2.19-5.02,7.37-7.96,12.31-9.67,3.9-1.34,7.92-1.98,12.02-1.58,3.85,.37,7.54,1.89,11.42,1.76,5.57-.18,13.53-4.59,13.48-11.35-.01-1.61-1.13,6.45-10.49,8.58-4.07,.93-8.58-.59-12.56-1.24-7.47-1.21-15.64,.77-21.93,4.98-3.66,2.46-6.77,6.23-7.48,10.68-.4,2.51-.03,5.81,2.62,6.91,.51,.21,.36-.53,.62-.84,.5-.59,1-1.17,.04-1.57h0Z"/><path class="cls-1" d="M69.18,42.28c1-1.61-5.1-2.75-6.56-2.05-.45,.22-.11,.29,.49,.27,.94-.04,2.98,.51,4.1,1.38,1.12,.87,1.79,.7,1.97,.4Z"/><path class="cls-1" d="M69.57,38.33c1-1.61-5.09-2.75-6.56-2.05-.45,.22-.11,.29,.49,.27,.94-.04,2.98,.51,4.1,1.38,1.12,.87,1.79,.7,1.97,.4Z"/><path class="cls-1" d="M68.48,45.97c1-1.61-5.1-2.75-6.56-2.05-.45,.22-.11,.29,.49,.27,.94-.04,2.98,.51,4.1,1.38,1.12,.87,1.78,.7,1.97,.4Z"/><path class="cls-1" d="M72.52,14.17s-.02-.01-.03-.02c-1.84-.8-7.59-3.59-13.54-2.75-8.2,1.14-16.59,8.37-21.02,16.6-.61,1.13-6.22,9.71-4.79,9.9,.44,.06,3.2-2.44,5.55-3.44-.4,.43-.84,.98-.97,1.46-.06,.18,.05,.33,.48,.4,.36,.06,.75,.06,1.6,.01,5.3-.32,20.78-3.38,24.84-2.04,.28,.09,1.99,1.08,2.04,1.11,3.89,2.16,2.02,9.01-1.03,11.95-1.16,1.11-.54,2.11-.03,1.81,1-.6,1.86-1.35,2.6-2.21,.74,1.09,2.57,1.81,4.35,2.12-2.28,1.37-4.74,2.42-7.18,3.17-.57-.8-.3-1.63-1.67-3-1.72-1.71-4.47-1.11-9.02,.83-4.32,1.84-6,.83-6.08,1.7-.08,.87,5.18,3.57,8.25,3.78,3.08,.21,2.27,2.05,2.27,2.05,0,0-.85,3.55-.5,4.64,.35,1.09,5.54-.01,7.73-4.27,.95-1.85,1.08-2.97,.85-3.71,8.67-3.04,16.6-10.11,18.49-19.34,2.05-10.03-4.58-16.91-13.19-20.76Zm1.25,34.15c-1.18-.33-2.52-.92-3.39-1.66-.52-.44-1-.63-1.4-.7,.45-.66,.83-1.37,1.13-2.1,2.38,1.05,6.49,.44,9.31-.69-1.57,2.01-3.51,3.73-5.65,5.15Zm9.35-13.21c-.45,2.41-1.37,4.59-2.62,6.53-1.87,.64-5.6,.96-8.07,.22-.64-.19-1.19-.25-1.67-.24,.18-.95,.23-1.92,.15-2.88,3.7,.57,9.42-2.21,12.39-4.89-.04,.41-.1,.83-.18,1.26Zm-9.96,.34c-1.24-.03-2.17,.23-2.86,.57-.32-.82-.75-1.59-1.31-2.31,.04-.02,.07-.05,.11-.08,3.51-2.28,7.38-7.5,7.91-10.22,.24-1.22-.42-.65-1.25,.57-1.31,1.93-5.6,5.32-8.97,6.26-1.86,.52-3.08,.39-3.96,.16,2.71-2.13,4.92-6.59,3.79-9.43-.75-1.88-3.15-3.19-3.61-3-.24,.1,2.82,1.43,2.13,5.11-.57,3.01-4.1,5.88-6.06,7.43-1.45,.7-3.45,1.83-7.27,2.4-2.18,.32-4.4,.23-6.25-.1-.35,.14-.86,.25-1.6,.33-.67,.07-1.29,.16-1.82,.15-.54,0-.72,0-1-.06-.15-.03-.35-.17-.33-.25,0-.01,.01-.03,.02-.04,0-.01,.01-.03,.02-.04,.11-.29,.38-.62,.61-.86-1.51,.55-3.32,1.99-3.59,1.93-.85-.17,4.59-7.44,5.51-8.75,.03-.04,.06-.09,.09-.13,0,0,.01-.02,.02-.03h0c3.38-4.92,9.79-10.21,15.73-11.02,9.22-1.26,23.94,6.65,24.16,18.19-1.98,1.48-6.74,3.29-10.2,3.21Z"/><path class="cls-1" d="M18.23,69.09v4.76h-3.49v-1.92l-.74,.29c-.66,.49-.98,1.62-.98,3.39v13.95h-3.49v-13.95c0-2.98,.82-5.06,2.46-6.24,.52-.36,1.05-.61,1.57-.76,.52-.15,1.06-.22,1.62-.22,.49,0,.84,.02,1.06,.05,.21,.03,.48,.12,.81,.25l1.18,.39Z"/><path class="cls-1" d="M29.37,89.07l-1.18,.39c-.1,.03-.32,.09-.66,.17-.34,.08-.76,.12-1.25,.12-.56,0-1.1-.07-1.62-.22-.52-.15-1.03-.4-1.52-.76-1.64-1.18-2.46-3.24-2.46-6.19v-13.5l1.18-.39c.2-.07,.49-.13,.88-.2,.39-.07,.74-.1,1.03-.1,.52,0,1.05,.07,1.57,.22,.52,.15,1.05,.4,1.57,.76,1.64,1.18,2.46,3.26,2.46,6.24v13.45Zm-3.49-2.85v-10.61c0-1.77-.33-2.9-.98-3.39l-.74-.29v10.66c0,1.74,.33,2.85,.98,3.34l.74,.29Z"/><path class="cls-1" d="M40.52,69.09v4.76h-3.49v-1.92l-.74,.29c-.66,.49-.98,1.62-.98,3.39v6.97c0,1.74,.33,2.85,.98,3.34l.74,.29v-1.92h3.49v4.76l-1.18,.39c-.1,.03-.32,.09-.66,.17-.34,.08-.76,.12-1.25,.12-.56,0-1.1-.07-1.62-.22-.52-.15-1.03-.4-1.52-.76-1.64-1.18-2.46-3.24-2.46-6.19v-6.97c0-2.98,.82-5.06,2.46-6.24,.52-.36,1.05-.61,1.57-.76,.52-.15,1.06-.22,1.62-.22,.49,0,.84,.02,1.06,.05,.21,.03,.48,.12,.81,.25l1.18,.39Z"/><path class="cls-1" d="M51.66,84.31v4.76l-1.18,.39c-.1,.03-.32,.09-.66,.17-.34,.08-.76,.12-1.25,.12-.56,0-1.1-.07-1.62-.22-.52-.15-1.03-.4-1.52-.76-1.64-1.18-2.46-3.24-2.46-6.19v-13.5l1.18-.39c.2-.07,.49-.13,.88-.2,.39-.07,.74-.1,1.03-.1,.52,0,1.05,.07,1.57,.22,.52,.15,1.05,.4,1.57,.76,1.64,1.18,2.46,3.26,2.46,6.24s-.82,5.01-2.46,6.19c-.92,.62-1.83,.93-2.75,.93,0,1.64,.33,2.7,.98,3.19l.74,.29v-1.92h3.49Zm-4.47-5.35c.65-.49,.98-1.6,.98-3.34s-.33-2.9-.98-3.39l-.74-.29v7.32l.74-.29Z"/><path class="cls-1" d="M68.07,69.09v20.48h-3.49v-17.63l-.74,.29c-.66,.49-.98,1.62-.98,3.39v13.95h-3.49v-13.95c0-1.7-.34-2.83-1.03-3.39-.16-.13-.41-.23-.74-.29v17.63h-3.49v-20.48l1.18-.39c.2-.07,.49-.13,.88-.2,.39-.07,.74-.1,1.03-.1,.52,0,1.05,.07,1.57,.22,.52,.15,1.05,.4,1.57,.76l.74,.64,.74-.64c.49-.36,1.01-.61,1.55-.76,.54-.15,1.09-.22,1.65-.22,.49,0,.84,.02,1.06,.05,.21,.03,.48,.12,.81,.25l1.18,.39Z"/><path class="cls-1" d="M79.21,89.07l-1.18,.39c-.1,.03-.32,.09-.66,.17-.34,.08-.76,.12-1.25,.12-.56,0-1.1-.07-1.62-.22-.52-.15-1.03-.4-1.52-.76-1.64-1.18-2.46-3.24-2.46-6.19s.82-5.06,2.46-6.24c.92-.62,1.83-.93,2.75-.93,0-1.67-.33-2.73-.98-3.19l-.74-.29v1.92h-3.49v-4.76l1.18-.39c.2-.07,.49-.13,.88-.2,.39-.07,.74-.1,1.03-.1,.52,0,1.05,.07,1.57,.22,.52,.15,1.05,.4,1.57,.76,1.64,1.18,2.46,3.26,2.46,6.24v13.45Zm-4.22-9.87c-.66,.49-.98,1.62-.98,3.39s.33,2.85,.98,3.34l.74,.29v-7.32l-.74,.29Z"/><path class="cls-1" d="M90.36,69.09v4.76h-3.49v-1.92l-.74,.29c-.66,.49-.98,1.62-.98,3.39v13.95h-3.49v-13.95c0-2.98,.82-5.06,2.46-6.24,.52-.36,1.05-.61,1.57-.76,.52-.15,1.06-.22,1.62-.22,.49,0,.84,.02,1.06,.05,.21,.03,.48,.12,.81,.25l1.18,.39Z"/><path class="cls-1" d="M88.85,83.84c.2-.28,.39-.48,.57-.61,.18-.13,.4-.19,.65-.19,.58,0,.98,.26,1.22,.77s.36,1.35,.36,2.5c0,1.3-.13,2.2-.38,2.67-.25,.48-.65,.71-1.19,.71-.24,0-.44-.05-.6-.16-.16-.11-.37-.32-.61-.65h-.03v3.56h-1.21v-9.31h1.18v.71h.03Zm.72,4.81c.29,0,.5-.17,.62-.51,.12-.34,.18-.89,.18-1.64,0-.88-.06-1.51-.17-1.88-.11-.37-.32-.56-.63-.56-.29,0-.48,.15-.58,.46-.1,.31-.16,.83-.16,1.57,0,.92,.04,1.57,.12,1.97,.08,.39,.29,.59,.62,.59Z"/><path class="cls-1" d="M94.34,89.58h-1.21v-9.73h1.21v9.73Z"/><path class="cls-1" d="M99.83,87.55c0,.75-.15,1.3-.45,1.63-.3,.33-.8,.5-1.48,.5s-1.19-.16-1.5-.49c-.31-.33-.46-.85-.46-1.58v-4.49h1.2v4.51c0,.71,.26,1.07,.77,1.07,.27,0,.46-.09,.57-.27,.11-.18,.17-.48,.17-.91v-4.4h1.2v4.44Z"/><path class="cls-1" d="M104.52,84.23c-.37-.15-.69-.23-.95-.23s-.46,.06-.62,.19c-.16,.13-.23,.3-.23,.53,0,.18,.07,.35,.19,.53,.13,.17,.4,.43,.8,.79,.41,.35,.69,.67,.86,.94,.17,.28,.25,.59,.25,.92,0,.51-.17,.93-.52,1.26s-.78,.5-1.31,.5c-.34,0-.75-.09-1.21-.27v-1c.45,.18,.83,.27,1.14,.27,.23,0,.41-.06,.54-.19,.13-.13,.2-.3,.2-.51,0-.2-.09-.41-.26-.63-.17-.22-.48-.5-.9-.85-.62-.5-.92-1.07-.92-1.71,0-.51,.17-.93,.51-1.27,.34-.34,.76-.51,1.26-.51,.31,0,.7,.08,1.17,.24v.98Z"/><path class="cls-1" d="M7.69,78.45c0,2.08-.72,3.54-2.17,4.38-.81,.44-1.62,.66-2.43,.66v6.05H0v-20.64l1.04-.28c.17-.05,.43-.09,.78-.14,.35-.05,.65-.07,.91-.07,.46,0,.93,.05,1.39,.16,.46,.1,.93,.28,1.39,.54,1.45,.83,2.17,2.3,2.17,4.41v4.93Zm-3.95-7.33l-.65-.21v10.11l.65-.21c.58-.35,.87-1.13,.87-2.36v-4.93c0-1.25-.29-2.05-.87-2.4Z"/></g></g></svg>