<?xml version="1.0" encoding="UTF-8"?><svg id="Layer_2" xmlns="http://www.w3.org/2000/svg" viewBox="0 0 171.37 64.79"><defs><style>.cls-1{fill:#2d2a26;}</style></defs><g id="Capa_1"><g><path class="cls-1" d="M78.34,54.06c.76,0,1.43,.08,2,.23,.57,.15,1.06,.36,1.46,.61,.41,.26,.74,.54,1,.86,.26,.32,.47,.64,.63,.98,.36,.79,.52,1.68,.48,2.69-.06,1-.29,1.9-.7,2.69-.18,.34-.4,.67-.66,.98-.27,.32-.59,.6-.99,.85s-.85,.45-1.38,.61c-.53,.15-1.14,.23-1.84,.23h-3.48c.21,0,.37-.05,.48-.15,.12-.1,.2-.21,.24-.34,.06-.14,.09-.31,.1-.49v-8.77c0-.18-.04-.35-.1-.49-.05-.12-.13-.24-.24-.34-.12-.1-.28-.15-.48-.15h3.48Zm0,10.49c.46,0,.86-.07,1.21-.22,.35-.15,.65-.34,.91-.58,.26-.24,.47-.51,.65-.81,.18-.31,.32-.62,.43-.94,.27-.75,.42-1.6,.46-2.56-.04-.95-.19-1.81-.46-2.56-.11-.32-.26-.63-.43-.94-.18-.31-.39-.58-.65-.82-.26-.24-.56-.43-.91-.58-.35-.15-.75-.22-1.21-.22h-.71v10.24h.71Z"/><path class="cls-1" d="M88.94,54.3v4.81h.73c.34,0,.59-.07,.78-.22,.18-.15,.31-.31,.4-.48,.1-.2,.16-.44,.18-.72v3.09c-.02-.27-.08-.5-.18-.71-.08-.17-.22-.34-.41-.48-.19-.15-.45-.22-.78-.22h-.71v5.19h1.93c.56,0,.99-.12,1.29-.35,.3-.23,.52-.48,.66-.76,.17-.33,.26-.7,.28-1.12v2.47h-6.92c.21,0,.38-.05,.49-.15,.11-.1,.19-.21,.24-.33,.06-.14,.09-.31,.1-.49v-8.8c0-.17-.04-.33-.1-.48-.05-.12-.13-.24-.24-.34s-.28-.15-.49-.15h6.92v2.36c-.02-.39-.11-.74-.27-1.06-.13-.27-.34-.51-.63-.73s-.7-.33-1.23-.33h-2.04Z"/><path class="cls-1" d="M102.46,64.79h-7.12c.21,0,.38-.05,.48-.15,.11-.1,.19-.2,.24-.31,.06-.13,.09-.29,.11-.46v-9.04c-.02-.14-.06-.27-.11-.38-.06-.09-.14-.18-.24-.26-.11-.08-.27-.12-.48-.12h3.59c-.21,0-.36,.04-.47,.12-.11,.08-.19,.17-.24,.28-.07,.11-.1,.24-.11,.38v9.7h2.01c.29,0,.55-.05,.77-.15,.22-.1,.42-.23,.58-.38s.3-.34,.41-.54c.11-.2,.2-.41,.28-.62,.17-.49,.27-1.06,.29-1.7v3.64Z"/><path class="cls-1" d="M69.99,58.6v.07c-.11,.01-.22,.02-.33,.04-.22,.03-.38,.14-.47,.36-.1,.25-.21,.5-.32,.75-.15,.35-.33,.69-.55,1.01-.01,.02-.02,.05-.01,.07,.19,.27,.39,.54,.64,.76,.11,.1,.24,.18,.39,.21,.15,.02,.27-.03,.35-.15,.09-.13,.12-.29,.13-.45,0-.2,0-.41,0-.61,0-.02,0-.05,0-.08h.08s0,.02,0,.03c0,.24,0,.48-.01,.72-.01,.24-.09,.47-.25,.65-.19,.22-.45,.3-.73,.33-.54,.05-.97-.16-1.31-.57-.02-.03-.05-.06-.08-.09-.08,.07-.15,.13-.23,.2-.43,.34-.92,.5-1.47,.47-.6-.04-1.09-.46-1.24-1.07-.18-.78,.06-1.43,.67-1.93,.17-.14,.37-.25,.55-.38,.03-.02,.07-.04,.11-.06-.02-.05-.04-.11-.07-.16-.13-.31-.25-.62-.31-.95-.07-.38-.06-.74,.15-1.08,.23-.38,.57-.58,1-.65,.26-.04,.51-.03,.75,.08,.53,.24,.76,.85,.53,1.38-.13,.29-.34,.51-.59,.7-.15,.11-.3,.2-.46,.31,.41,.78,.82,1.55,1.32,2.3,.11-.19,.22-.37,.31-.55,.18-.35,.33-.71,.41-1.1,.01-.07,.02-.14,.02-.22,0-.11-.05-.18-.16-.21-.1-.02-.2-.03-.3-.04-.06,0-.13,0-.19,0v-.08h1.65Zm-2.51,2.97c-.61-.81-1.07-1.7-1.5-2.62-.4,.23-.62,.56-.61,1.03,0,.35,.11,.68,.25,1,.13,.29,.3,.56,.54,.78,.15,.14,.32,.25,.54,.23,.32-.02,.55-.21,.77-.42Zm-.58-3.15c.15-.12,.31-.22,.44-.35,.39-.37,.54-.82,.41-1.35-.09-.36-.34-.58-.68-.6-.3-.02-.54,.12-.62,.43-.05,.17-.05,.34-.02,.51,.07,.47,.26,.91,.47,1.37Z"/><path class="cls-1" d="M89.4,0l-3.99,2.32L81.4,0l-18.1,10.45V31.35l18.1,10.45,4.01-2.32,3.99,2.32,17.99-10.45V10.45L89.4,0Zm-.7,1.92v2.29l-1.98-1.14,1.98-1.15Zm0,34.15l-3.29,1.9-3.27-1.9V5.73l3.27-1.9,3.29,1.9v30.34Zm1.31-29.58l8.17,4.72V30.6l-8.17,4.72V6.49Zm-9.18,28.82l-8.11-4.71V11.21l8.11-4.71v28.81Zm1.31-31.09V1.95l1.96,1.13-1.96,1.14Zm-17.54,6.99L80.83,1.84v3.14l-9.42,5.48V31.35l.33,.19,9.1,5.29v3.14l-16.23-9.37V11.21Zm17.54,28.65v-2.27l1.96,1.14-1.96,1.13Zm6.56-2.27v2.29l-1.98-1.15,1.98-1.14Zm17.38-6.99l-16.07,9.34v-3.1l9.49-5.48V10.45l-9.49-5.48V1.87l16.07,9.34V30.6Z"/><path class="cls-1" d="M7.25,54.27c.1,0,.19-.04,.25-.12,.07-.08,.11-.16,.14-.26,.04-.11,.06-.24,.06-.37h.08v4.01h-.18c0-.6-.05-1.15-.17-1.66-.06-.22-.13-.44-.22-.65-.09-.22-.2-.42-.34-.61-.14-.19-.3-.36-.5-.5-.19-.15-.42-.25-.67-.33-.47-.12-.88-.15-1.23-.07-.35,.08-.65,.23-.9,.44-.25,.22-.47,.49-.64,.81-.17,.33-.31,.67-.42,1.03-.25,.85-.39,1.85-.4,3.01,0,.98,.14,1.86,.4,2.64,.1,.33,.24,.66,.42,.97,.17,.32,.39,.6,.64,.84s.56,.44,.9,.59c.35,.15,.76,.23,1.23,.23,.2,0,.39-.03,.57-.09,.18-.06,.35-.12,.5-.2,.15-.08,.27-.15,.37-.23,.1-.07,.17-.13,.22-.17-.06,.05-.16,.13-.32,.25s-.34,.23-.57,.34c-.22,.11-.47,.22-.76,.31s-.58,.14-.89,.14c-.9-.05-1.71-.29-2.42-.7-.3-.18-.6-.4-.89-.67-.29-.27-.55-.6-.78-1-.23-.4-.41-.86-.54-1.4-.14-.53-.2-1.15-.2-1.86s.07-1.31,.2-1.84c.14-.53,.32-1,.54-1.4s.49-.73,.78-1c.29-.27,.59-.49,.89-.67,.71-.41,1.51-.65,2.42-.7,.39,0,.72,.05,1,.14,.28,.09,.51,.19,.7,.3,.19,.11,.34,.21,.45,.3,.11,.09,.2,.13,.27,.13Z"/><path class="cls-1" d="M13,53.99v4.86h.74c.34,0,.6-.08,.78-.23,.18-.15,.32-.31,.4-.49,.1-.21,.17-.45,.18-.73v3.12c-.02-.27-.08-.51-.18-.71-.08-.18-.22-.34-.41-.49-.19-.15-.45-.23-.79-.23h-.72v5.25h1.95c.57,0,1-.12,1.31-.35,.31-.23,.53-.49,.67-.77,.17-.33,.26-.71,.28-1.13v2.5h-7c.22,0,.38-.05,.49-.15,.11-.1,.19-.21,.24-.33,.06-.14,.09-.31,.1-.5v-8.9c0-.18-.04-.34-.1-.48-.05-.12-.13-.24-.24-.34s-.28-.16-.49-.16h7v2.39c-.02-.39-.11-.75-.27-1.07-.13-.27-.34-.52-.64-.74s-.71-.33-1.24-.33h-2.06Z"/><path class="cls-1" d="M27.48,63.2c0,.4,.05,.67,.16,.81,.11,.13,.23,.17,.36,.11,.13-.06,.25-.2,.36-.4,.11-.21,.16-.45,.16-.73,0,.46-.08,.8-.23,1.05-.16,.24-.33,.42-.52,.54-.23,.13-.48,.21-.75,.22-.28-.02-.54-.09-.76-.2-.19-.1-.36-.26-.52-.47-.16-.21-.24-.52-.24-.91v-2.83c0-.21-.05-.41-.14-.62-.09-.21-.26-.32-.51-.34h-2.52v4.18c0,.2,.03,.37,.1,.51,.05,.12,.13,.24,.25,.34,.12,.1,.29,.16,.5,.16h-3.71c.22,0,.38-.05,.49-.16s.19-.22,.25-.34c.06-.14,.09-.32,.11-.51v-8.99c-.02-.19-.06-.36-.11-.51-.06-.13-.14-.26-.25-.36s-.27-.16-.49-.16h4.91c.57,.03,1.07,.16,1.53,.37,.19,.09,.38,.21,.56,.35,.18,.14,.35,.31,.5,.52,.15,.21,.26,.45,.35,.73,.09,.28,.13,.6,.13,.96,0,.47-.05,.85-.16,1.14-.11,.3-.25,.54-.42,.74s-.36,.35-.57,.47-.43,.22-.64,.31c.45,0,.8,.07,1.05,.19,.24,.13,.42,.27,.54,.43,.13,.19,.21,.39,.24,.61v2.83Zm-3.1-4.02c.23-.03,.43-.14,.61-.34,.15-.17,.29-.43,.42-.79,.13-.36,.2-.88,.2-1.55s-.06-1.19-.19-1.55c-.13-.36-.27-.62-.43-.78-.18-.19-.38-.3-.61-.33h-2.05v5.34h2.05Z"/><path class="cls-1" d="M33.16,53.99v4.86h.74c.34,0,.6-.08,.78-.23,.18-.15,.32-.31,.4-.49,.1-.21,.17-.45,.18-.73v3.12c-.02-.27-.08-.51-.18-.71-.08-.18-.22-.34-.41-.49-.19-.15-.45-.23-.79-.23h-.72v5.25h1.95c.57,0,1-.12,1.31-.35,.31-.23,.53-.49,.67-.77,.17-.33,.26-.71,.28-1.13v2.5h-7c.22,0,.38-.05,.49-.15,.11-.1,.19-.21,.24-.33,.06-.14,.09-.31,.1-.5v-8.9c0-.18-.04-.34-.1-.48-.05-.12-.13-.24-.24-.34s-.28-.16-.49-.16h7v2.39c-.02-.39-.11-.75-.27-1.07-.13-.27-.34-.52-.64-.74s-.71-.33-1.24-.33h-2.06Z"/><path class="cls-1" d="M45.1,64.35c.29,0,.55-.05,.78-.14s.42-.21,.59-.36,.31-.32,.42-.52c.11-.2,.21-.4,.28-.61,.17-.49,.27-1.04,.3-1.65v3.53h-7.27l4.94-10.62h-2.56c-.3,0-.56,.05-.78,.14s-.41,.22-.58,.37-.3,.33-.42,.53-.21,.4-.28,.61c-.17,.49-.27,1.03-.3,1.63v-3.53h7.25l-4.94,10.62h2.56Z"/><path class="cls-1" d="M54.92,53.56c.68,0,1.32,.15,1.91,.44s1.11,.7,1.56,1.2c.44,.51,.79,1.1,1.05,1.78,.26,.68,.39,1.41,.39,2.18s-.13,1.51-.39,2.19c-.26,.68-.61,1.28-1.05,1.79-.44,.51-.96,.91-1.56,1.2-.59,.3-1.23,.44-1.91,.44s-1.32-.15-1.91-.44c-.59-.29-1.11-.7-1.56-1.2-.44-.51-.79-1.1-1.05-1.79-.26-.68-.39-1.41-.39-2.19s.13-1.5,.39-2.18c.26-.68,.61-1.27,1.05-1.78,.44-.51,.96-.91,1.56-1.2,.59-.3,1.23-.44,1.91-.44Zm0,10.98c.41,0,.79-.14,1.15-.42,.36-.28,.67-.66,.93-1.15s.47-1.06,.63-1.71c.16-.65,.23-1.35,.23-2.1s-.08-1.44-.23-2.09c-.16-.65-.37-1.21-.63-1.7s-.57-.87-.93-1.15c-.36-.28-.74-.42-1.15-.42s-.79,.14-1.15,.42c-.36,.28-.67,.66-.93,1.15s-.47,1.05-.63,1.7-.23,1.34-.23,2.09,.08,1.44,.23,2.1,.37,1.22,.63,1.71,.57,.87,.93,1.15c.36,.28,.74,.42,1.15,.42Z"/><path class="cls-1" d="M114.3,54.21c.1,0,.19-.04,.25-.12,.07-.08,.11-.16,.14-.26,.04-.11,.06-.24,.06-.37h.09v4.02h-.18c0-.6-.05-1.16-.17-1.67-.06-.22-.13-.44-.22-.65s-.2-.42-.34-.62c-.14-.19-.3-.36-.5-.51-.19-.15-.42-.25-.67-.33-.47-.12-.88-.15-1.23-.07-.35,.08-.65,.23-.91,.44-.26,.22-.47,.49-.65,.82-.17,.33-.31,.67-.42,1.04-.26,.85-.39,1.86-.4,3.02,0,.99,.14,1.87,.4,2.65,.1,.33,.24,.66,.42,.97,.18,.32,.39,.6,.65,.84,.25,.24,.56,.44,.91,.59,.35,.15,.76,.23,1.23,.23,.2,0,.39-.03,.57-.09,.18-.06,.35-.12,.5-.2,.15-.08,.27-.15,.37-.23,.1-.07,.17-.13,.22-.17-.06,.05-.16,.13-.32,.25-.16,.11-.35,.23-.57,.34s-.47,.22-.76,.31c-.28,.09-.58,.14-.89,.14-.91-.05-1.71-.29-2.42-.7-.3-.18-.6-.4-.89-.67-.29-.27-.55-.6-.78-1-.23-.4-.41-.87-.55-1.4s-.21-1.15-.21-1.86,.07-1.31,.21-1.84,.32-1,.55-1.4c.23-.4,.49-.73,.78-1,.29-.27,.59-.49,.89-.67,.71-.42,1.52-.65,2.42-.7,.39,0,.72,.05,1,.14s.51,.19,.7,.3,.34,.21,.45,.3c.11,.09,.2,.13,.27,.13Z"/><path class="cls-1" d="M120.99,64.6c.22,0,.37-.05,.45-.15,.08-.1,.13-.21,.15-.34,.02-.14,0-.31-.06-.5l-1.08-3h-4.04l-1.05,2.91c-.03,.21-.02,.39,.03,.55,.05,.13,.14,.26,.28,.37s.36,.16,.66,.16h-2.24c.17,0,.32-.06,.45-.17,.13-.11,.25-.24,.34-.39,.1-.17,.19-.35,.27-.56l3.46-9.76h1.49l3.56,9.93c.07,.19,.15,.35,.26,.48,.09,.11,.19,.22,.31,.32,.12,.1,.27,.15,.45,.15h-3.69Zm-.62-4.25l-1.94-5.39-1.93,5.39h3.87Z"/><path class="cls-1" d="M131.34,59.99c.26,.42,.43,.85,.52,1.29,.08,.44,.07,.87-.04,1.29-.11,.42-.32,.79-.64,1.12-.32,.33-.75,.59-1.29,.79-.54,.2-1.21,.3-2.01,.3-.33,0-.61-.03-.85-.09-.24-.06-.44-.13-.61-.21-.17-.08-.32-.15-.44-.21-.12-.06-.23-.09-.33-.09-.11,0-.21,.03-.28,.09-.07,.06-.13,.13-.16,.2-.04,.09-.07,.19-.09,.3h-.09v-3.8h.18c.03,.66,.14,1.26,.33,1.77,.09,.22,.19,.43,.32,.65,.13,.21,.28,.4,.47,.57,.18,.17,.4,.3,.65,.4s.54,.15,.87,.15c.56,0,1-.13,1.33-.39,.33-.26,.54-.58,.63-.95,.09-.37,.06-.77-.1-1.2-.16-.43-.44-.81-.86-1.15l-1.57-1.35c-.62-.49-1.1-.98-1.44-1.47-.34-.49-.55-.97-.65-1.43-.09-.46-.07-.89,.06-1.28s.37-.72,.69-1c.33-.27,.74-.48,1.24-.61,.5-.13,1.07-.17,1.7-.11,.28,.02,.53,.06,.74,.13,.21,.07,.4,.14,.57,.21,.17,.07,.31,.13,.43,.19s.23,.08,.33,.08c.11,0,.21-.03,.28-.09,.07-.06,.13-.13,.16-.22,.04-.09,.07-.2,.1-.31h.07v3.64h-.18c.03-.58-.04-1.11-.2-1.59-.07-.2-.16-.4-.28-.6-.12-.2-.27-.38-.45-.54s-.4-.3-.66-.42c-.26-.12-.56-.19-.91-.22-.64-.07-1.12-.02-1.43,.17s-.49,.44-.53,.75c-.04,.31,.04,.66,.24,1.04,.2,.38,.5,.73,.9,1.05l2.23,2.04c.42,.33,.75,.71,1.01,1.13Z"/><path class="cls-1" d="M141.24,57.24c-.02-.6-.11-1.15-.28-1.63-.08-.2-.17-.39-.27-.59s-.24-.37-.4-.53-.35-.28-.56-.37c-.21-.09-.46-.14-.74-.14h-1.19v9.71c0,.18,.04,.33,.1,.47,.05,.11,.13,.22,.24,.31,.11,.09,.28,.14,.5,.14h-3.64c.22,0,.38-.05,.49-.14,.11-.09,.19-.2,.25-.31,.06-.13,.09-.29,.11-.47v-9.71h-1.28c-.27,0-.52,.05-.72,.14-.21,.09-.39,.22-.55,.37-.16,.16-.29,.33-.39,.53-.1,.2-.19,.39-.26,.59-.16,.49-.25,1.03-.27,1.63v-3.52h8.86v3.52Z"/><path class="cls-1" d="M144.61,64.1c.05,.13,.13,.24,.24,.34,.11,.1,.28,.16,.5,.16h-3.64c.22,0,.38-.05,.49-.16,.11-.1,.19-.22,.25-.34,.06-.14,.09-.31,.11-.5v-8.89c-.02-.19-.06-.35-.11-.5-.06-.13-.14-.24-.25-.34-.11-.1-.27-.16-.49-.16h3.64c-.22,0-.38,.05-.5,.16-.11,.1-.19,.22-.24,.34-.06,.14-.09,.31-.1,.5v8.89c0,.19,.04,.35,.1,.5Z"/><path class="cls-1" d="M153.39,64.6h-7.21c.22,0,.38-.05,.49-.15,.11-.1,.19-.21,.25-.32,.06-.13,.09-.29,.11-.47v-9.17c-.02-.14-.06-.28-.11-.39-.06-.09-.14-.18-.25-.26-.11-.08-.27-.12-.49-.12h3.64c-.21,0-.37,.04-.48,.12-.11,.08-.19,.18-.25,.28-.07,.11-.1,.24-.11,.39v9.84h2.04c.29,0,.55-.05,.78-.15,.23-.1,.42-.23,.59-.39s.3-.34,.42-.55c.11-.2,.21-.41,.28-.63,.17-.5,.27-1.07,.3-1.73v3.69Z"/><path class="cls-1" d="M161.06,64.6h-7.21c.22,0,.38-.05,.49-.15,.11-.1,.19-.21,.25-.32,.06-.13,.09-.29,.11-.47v-9.17c-.02-.14-.06-.28-.11-.39-.06-.09-.14-.18-.25-.26-.11-.08-.27-.12-.49-.12h3.64c-.21,0-.37,.04-.48,.12-.11,.08-.19,.18-.25,.28-.07,.11-.1,.24-.11,.39v9.84h2.04c.29,0,.55-.05,.78-.15,.23-.1,.42-.23,.59-.39s.3-.34,.42-.55c.11-.2,.21-.41,.28-.63,.17-.5,.27-1.07,.3-1.73v3.69Z"/><path class="cls-1" d="M166.45,53.53c.68,0,1.32,.15,1.91,.44s1.11,.7,1.56,1.21c.44,.51,.8,1.1,1.06,1.78,.26,.68,.39,1.41,.39,2.19s-.13,1.51-.39,2.19c-.26,.68-.61,1.28-1.06,1.79-.44,.51-.96,.91-1.56,1.21-.6,.3-1.23,.44-1.91,.44s-1.32-.15-1.91-.44c-.6-.3-1.11-.7-1.56-1.21-.44-.51-.8-1.11-1.06-1.79-.26-.69-.39-1.42-.39-2.19s.13-1.51,.39-2.19c.26-.68,.61-1.27,1.06-1.78,.44-.51,.96-.91,1.56-1.21s1.23-.44,1.91-.44Zm0,11.01c.41,0,.79-.14,1.15-.42,.36-.28,.67-.66,.94-1.15s.47-1.06,.63-1.71c.16-.65,.23-1.35,.23-2.1s-.08-1.45-.23-2.09c-.16-.65-.37-1.22-.63-1.7s-.58-.87-.94-1.15c-.36-.28-.74-.42-1.15-.42s-.79,.14-1.15,.42c-.36,.28-.67,.66-.94,1.15-.27,.49-.48,1.06-.63,1.7-.16,.65-.23,1.35-.23,2.09s.08,1.45,.23,2.1c.16,.65,.37,1.22,.63,1.71,.26,.49,.58,.87,.94,1.15,.36,.28,.74,.42,1.15,.42Z"/></g></g></svg>