<?xml version="1.0" encoding="UTF-8"?><svg id="Layer_2" xmlns="http://www.w3.org/2000/svg" viewBox="0 0 125.56 106.72"><defs><style>.cls-1{fill:#2d2a26;}</style></defs><g id="Capa_1"><g><path class="cls-1" d="M5.23,101.31l.03-.03c.46,.02,.81,.03,1.06,.03,.28,0,.66,0,1.14-.03,.18,0,.3,0,.38,0,.63,0,1.06,.11,1.28,.34s.34,.5,.34,.81c0,.21-.05,.41-.16,.62-.11,.2-.27,.37-.48,.52-.21,.14-.51,.25-.89,.32,.07,.1,.2,.26,.38,.5l.53,.7c.17,.23,.36,.48,.55,.73s.32,.4,.38,.44c.06,.03,.11,.05,.15,.06s.11,.01,.2,.01l.03,.03v.18l-.03,.03c-.12-.02-.26-.02-.43-.02-.18,0-.37,0-.58,.02-.17-.21-.44-.57-.81-1.09-.43-.6-.87-1.15-1.31-1.66l.04-.11c.13,0,.23,.01,.3,.01,.43,0,.77-.1,1.01-.31,.24-.21,.37-.49,.37-.86,0-.33-.11-.58-.33-.74-.22-.17-.52-.25-.89-.25-.26,0-.51,.04-.74,.11-.04,.05-.06,.52-.06,1.4v2.46c0,.28,.01,.46,.03,.55s.03,.14,.05,.16c.02,.03,.07,.05,.14,.07,.07,.02,.23,.03,.5,.04l.03,.02v.19l-.03,.03s-.23,0-.66-.02c-.18,0-.32,0-.41,0-.08,0-.43,.01-1.07,.03l-.03-.03v-.19l.03-.02c.23-.01,.39-.02,.46-.04,.08-.01,.13-.03,.16-.06,.03-.02,.05-.07,.06-.15,.02-.08,.03-.25,.03-.52v-3.24c0-.28-.01-.47-.02-.55-.01-.08-.03-.14-.05-.16-.02-.03-.07-.05-.14-.07-.07-.02-.23-.03-.5-.04l-.03-.03v-.19Z"/><path class="cls-1" d="M10.46,101.31l.03-.03c.85,.02,1.4,.02,1.64,.02,.82,0,1.54,0,2.18-.02l.02,.03c-.06,.24-.11,.61-.14,1.12l-.02,.03h-.18l-.03-.03s0-.04,0-.06c0-.21-.02-.41-.05-.61-.16-.07-.37-.11-.65-.14s-.49-.03-.63-.03c-.2,0-.45,.01-.75,.04l-.02,.6v.68l-.02,.76c.27,.02,.52,.02,.74,.02s.42,0,.57-.02c.15-.02,.24-.03,.27-.05,.03-.02,.05-.05,.06-.09s.03-.13,.04-.24v-.23l.04-.03h.17l.03,.03c0,.27-.01,.54-.02,.82l.02,.84-.03,.03h-.17l-.03-.03-.03-.22c-.02-.17-.04-.28-.05-.31-.01-.03-.03-.06-.07-.09-.04-.02-.13-.04-.28-.06s-.36-.02-.62-.02c-.14,0-.36,0-.66,.02-.01,.21-.02,.56-.02,1.04,0,.52,0,.91,.02,1.15h.69c.61,0,.98,0,1.13-.02,.15-.02,.3-.05,.43-.11,.02-.06,.06-.19,.11-.4,.05-.21,.08-.34,.09-.39l.04-.03h.18l.03,.03c-.02,.11-.04,.29-.07,.56s-.03,.49-.03,.68l-.03,.03c-.48-.02-1.1-.02-1.87-.02h-1.02c-.24,0-.48,0-.74,.02l-.03-.03v-.12l.03-.04c.15-.07,.23-.12,.25-.14s.04-.24,.05-.65c.01-.42,.02-.73,.02-.95v-2.22c0-.18,0-.33-.01-.45,0-.12-.01-.2-.03-.25-.01-.05-.03-.08-.04-.1s-.04-.04-.08-.05c-.04-.01-.1-.03-.19-.04l-.28-.02-.03-.03v-.19Z"/><path class="cls-1" d="M15.15,105.28l.03-.03h.18l.03,.03c.01,.32,.03,.51,.05,.58,.02,.07,.09,.14,.2,.22,.11,.08,.26,.14,.45,.19s.38,.07,.57,.07c.26,0,.5-.05,.71-.15,.21-.1,.37-.24,.49-.43s.18-.4,.18-.63c0-.16-.03-.31-.08-.43s-.13-.22-.23-.29-.22-.13-.35-.16c-.13-.04-.32-.07-.58-.12-.25-.04-.44-.08-.58-.11-.14-.03-.28-.08-.42-.15s-.26-.15-.35-.25c-.09-.1-.17-.23-.22-.38s-.08-.31-.08-.48c0-.47,.16-.85,.48-1.15,.32-.3,.76-.45,1.3-.45,.22,0,.45,.03,.71,.08s.49,.13,.7,.24l.03,.04c-.05,.23-.09,.56-.1,.98l-.03,.03h-.2l-.03-.03c0-.3-.01-.49-.02-.56,0-.08-.12-.17-.34-.29s-.45-.17-.71-.17c-.21,0-.41,.04-.59,.13-.18,.09-.32,.22-.42,.4-.09,.18-.14,.37-.14,.56,0,.15,.03,.28,.09,.39,.06,.11,.13,.2,.22,.27,.09,.07,.2,.12,.32,.15s.34,.07,.66,.12c.44,.06,.76,.14,.96,.23,.2,.09,.36,.23,.48,.42s.18,.42,.18,.7c0,.53-.22,.97-.65,1.33s-.96,.53-1.57,.53c-.52,0-.97-.09-1.36-.28l-.02-.05c.02-.16,.04-.52,.05-1.1Z"/><path class="cls-1" d="M23.37,101.29l.03,.03c-.02,.22-.03,.61-.03,1.17l-.03,.03h-.18l-.03-.04-.04-.34c-.02-.18-.04-.3-.05-.34-.01-.04-.03-.07-.05-.09-.02-.02-.11-.04-.24-.05s-.29-.02-.46-.02h-.71c-.02,.56-.03,.89-.03,.97v2.9c0,.28,.02,.46,.03,.55s.03,.14,.05,.16c.02,.03,.07,.05,.14,.07,.07,.02,.23,.03,.5,.04l.03,.02v.19l-.03,.03c-.64-.02-.99-.03-1.07-.03-.08,0-.43,.01-1.06,.03l-.03-.03v-.19l.03-.02c.23-.01,.39-.02,.47-.04,.08-.01,.13-.03,.15-.06,.03-.02,.05-.07,.07-.15,.02-.08,.03-.25,.03-.52v-2.96s0-.36-.02-.97h-.56c-.23,0-.43,0-.59,.02-.17,0-.26,.04-.29,.08s-.05,.18-.07,.4l-.04,.34-.03,.04h-.17l-.03-.03c0-.6-.02-.99-.04-1.17l.04-.03c.43,.02,1.15,.03,2.16,.03s1.75-.01,2.17-.03Z"/><path class="cls-1" d="M23.23,106.59l-.03-.03v-.19l.03-.03c.18,0,.3-.01,.35-.03,.05-.02,.1-.05,.14-.1s.12-.21,.25-.48l.39-.85,1.02-2.3c.19-.45,.38-.9,.57-1.35h.24l1.59,3.75,.21,.5c.06,.14,.13,.3,.21,.46,.08,.17,.14,.27,.17,.29,.03,.03,.07,.05,.12,.07,.05,.02,.15,.02,.31,.03l.03,.03v.19l-.03,.03c-.26-.02-.5-.03-.71-.03-.41,.01-.83,.02-1.24,.03l-.03-.03v-.19l.03-.03c.28,0,.45-.02,.52-.04,.07-.02,.1-.06,.1-.13,0-.05-.02-.13-.05-.22l-.46-1.14h-2.16l-.41,.96c-.07,.17-.11,.3-.11,.38,0,.06,.03,.11,.1,.14,.07,.03,.24,.05,.51,.05l.03,.03v.19l-.03,.03c-.32-.02-.6-.03-.84-.03-.27,0-.55,.01-.83,.03Zm1.7-2.09h1.89l-.94-2.25-.95,2.25Z"/><path class="cls-1" d="M29.12,101.31l.03-.03c.62,.02,.97,.03,1.07,.03,.09,0,.44-.01,1.07-.03l.03,.03v.19l-.03,.03c-.17,0-.3,.01-.4,.02-.09,.01-.16,.03-.2,.06s-.07,.09-.08,.19-.02,.24-.02,.42v2.05c0,.39,0,.68,.02,.86,.02,.18,.05,.34,.11,.46,.05,.13,.13,.23,.24,.32,.11,.09,.27,.16,.47,.22,.2,.06,.44,.09,.69,.09,.27,0,.53-.04,.77-.11,.24-.08,.42-.19,.54-.33,.12-.14,.21-.33,.24-.57s.06-.56,.06-.98v-1.15c0-.19,0-.46,0-.8s-.02-.54-.04-.59c-.02-.05-.07-.09-.13-.12s-.24-.04-.53-.05l-.03-.03v-.18l.03-.03c.37,.02,.66,.03,.89,.03,.19,0,.48-.01,.88-.03l.03,.03v.18l-.03,.03c-.23,0-.39,.01-.46,.03-.07,.01-.12,.04-.15,.06-.03,.03-.05,.07-.06,.13-.01,.06-.02,.22-.03,.49v1.97c-.01,.45-.03,.81-.06,1.07-.04,.26-.11,.48-.23,.64-.12,.17-.26,.31-.43,.42-.17,.11-.38,.2-.64,.26s-.53,.09-.81,.09c-.35,0-.66-.04-.92-.12-.27-.08-.48-.18-.63-.31s-.27-.26-.33-.4c-.07-.14-.11-.31-.13-.5s-.03-.48-.03-.87v-2.16c-.01-.28-.02-.47-.03-.55-.01-.08-.03-.14-.05-.16-.02-.03-.07-.05-.14-.07-.07-.02-.23-.03-.5-.04l-.03-.03v-.19Z"/><path class="cls-1" d="M35.12,101.31l.03-.03c.46,.02,.81,.03,1.06,.03,.28,0,.66,0,1.14-.03,.18,0,.3,0,.38,0,.63,0,1.06,.11,1.28,.34s.34,.5,.34,.81c0,.21-.05,.41-.16,.62-.11,.2-.27,.37-.48,.52-.21,.14-.51,.25-.89,.32,.07,.1,.2,.26,.38,.5l.53,.7c.17,.23,.36,.48,.55,.73s.32,.4,.38,.44c.06,.03,.11,.05,.15,.06s.11,.01,.2,.01l.03,.03v.18l-.03,.03c-.12-.02-.26-.02-.43-.02-.18,0-.37,0-.58,.02-.17-.21-.44-.57-.81-1.09-.43-.6-.87-1.15-1.31-1.66l.04-.11c.13,0,.23,.01,.3,.01,.43,0,.77-.1,1.01-.31,.24-.21,.37-.49,.37-.86,0-.33-.11-.58-.33-.74-.22-.17-.52-.25-.89-.25-.26,0-.51,.04-.74,.11-.04,.05-.06,.52-.06,1.4v2.46c0,.28,.01,.46,.03,.55s.03,.14,.05,.16c.02,.03,.07,.05,.14,.07,.07,.02,.23,.03,.5,.04l.03,.02v.19l-.03,.03s-.23,0-.66-.02c-.18,0-.32,0-.41,0-.08,0-.43,.01-1.07,.03l-.03-.03v-.19l.03-.02c.23-.01,.39-.02,.46-.04,.08-.01,.13-.03,.16-.06,.03-.02,.05-.07,.06-.15,.02-.08,.03-.25,.03-.52v-3.24c0-.28-.01-.47-.02-.55-.01-.08-.03-.14-.05-.16-.02-.03-.07-.05-.14-.07-.07-.02-.23-.03-.5-.04l-.03-.03v-.19Z"/><path class="cls-1" d="M40.23,106.59l-.03-.03v-.19l.03-.03c.18,0,.3-.01,.35-.03,.05-.02,.1-.05,.14-.1s.12-.21,.25-.48l.39-.85,1.02-2.3c.19-.45,.38-.9,.57-1.35h.24l1.59,3.75,.21,.5c.06,.14,.13,.3,.21,.46,.08,.17,.14,.27,.17,.29,.03,.03,.07,.05,.12,.07,.05,.02,.15,.02,.31,.03l.03,.03v.19l-.03,.03c-.26-.02-.5-.03-.71-.03-.41,.01-.83,.02-1.24,.03l-.03-.03v-.19l.03-.03c.28,0,.45-.02,.52-.04,.07-.02,.1-.06,.1-.13,0-.05-.02-.13-.05-.22l-.46-1.14h-2.16l-.41,.96c-.07,.17-.11,.3-.11,.38,0,.06,.03,.11,.1,.14,.07,.03,.24,.05,.51,.05l.03,.03v.19l-.03,.03c-.32-.02-.6-.03-.84-.03-.27,0-.55,.01-.83,.03Zm1.7-2.09h1.89l-.94-2.25-.95,2.25Z"/><path class="cls-1" d="M46.26,106.59l-.03-.03v-.17l.03-.03c.15,0,.27-.01,.36-.03,.09-.02,.15-.04,.18-.07,.03-.04,.04-.09,.05-.17,0-.08,.02-.25,.03-.52s.01-.47,.01-.58v-3.02c0-.13-.02-.22-.07-.28s-.11-.1-.19-.12c-.08-.02-.21-.02-.41-.03l-.03-.03v-.18l.03-.03c.34,.01,.57,.02,.68,.02,.25,0,.46,0,.62-.02l1.19,1.55,1.75,2.2c.21,.27,.43,.52,.64,.76v-2.89c0-.09,0-.28-.01-.57s-.02-.48-.03-.56-.03-.13-.07-.16c-.03-.03-.09-.05-.18-.06s-.2-.02-.35-.02l-.03-.03v-.17l.03-.03c.2,.01,.49,.02,.86,.02,.34,0,.59,0,.74-.02l.03,.03v.17l-.03,.03c-.16,0-.29,.01-.38,.03s-.15,.04-.17,.08c-.02,.04-.04,.09-.05,.16,0,.07-.02,.24-.03,.52s-.01,.47-.01,.59v2.8c0,.34,.01,.67,.02,1.01-.13-.04-.34-.09-.65-.16l-.27-.31-.8-.97-2.53-3.16v2.86c0,.11,0,.32,.01,.61,0,.29,.02,.47,.03,.54,.01,.06,.03,.1,.05,.13,.02,.02,.06,.05,.13,.07s.2,.03,.41,.03l.03,.03v.18l-.03,.03c-.13-.02-.34-.03-.63-.03-.37,0-.7,0-.97,.03Z"/><path class="cls-1" d="M56.88,101.29l.03,.03c-.02,.22-.03,.61-.03,1.17l-.03,.03h-.18l-.03-.04-.04-.34c-.02-.18-.04-.3-.05-.34-.01-.04-.03-.07-.05-.09-.02-.02-.11-.04-.24-.05s-.29-.02-.46-.02h-.71c-.02,.56-.03,.89-.03,.97v2.9c0,.28,.02,.46,.03,.55s.03,.14,.05,.16c.02,.03,.07,.05,.14,.07,.07,.02,.23,.03,.5,.04l.03,.02v.19l-.03,.03c-.64-.02-.99-.03-1.07-.03-.08,0-.43,.01-1.06,.03l-.03-.03v-.19l.03-.02c.23-.01,.39-.02,.47-.04,.08-.01,.13-.03,.15-.06,.03-.02,.05-.07,.07-.15,.02-.08,.03-.25,.03-.52v-2.96s0-.36-.02-.97h-.56c-.23,0-.43,0-.59,.02-.17,0-.26,.04-.29,.08s-.05,.18-.07,.4l-.04,.34-.03,.04h-.17l-.03-.03c0-.6-.02-.99-.04-1.17l.04-.03c.43,.02,1.15,.03,2.16,.03s1.75-.01,2.17-.03Z"/><path class="cls-1" d="M57.33,101.31l.03-.03c.85,.02,1.4,.02,1.64,.02,.82,0,1.54,0,2.18-.02l.02,.03c-.06,.24-.11,.61-.14,1.12l-.02,.03h-.18l-.03-.03s0-.04,0-.06c0-.21-.02-.41-.05-.61-.16-.07-.37-.11-.65-.14s-.49-.03-.63-.03c-.2,0-.45,.01-.75,.04l-.02,.6v.68l-.02,.76c.27,.02,.52,.02,.74,.02s.42,0,.57-.02c.15-.02,.24-.03,.27-.05,.03-.02,.05-.05,.06-.09s.03-.13,.04-.24v-.23l.04-.03h.17l.03,.03c0,.27-.01,.54-.02,.82l.02,.84-.03,.03h-.17l-.03-.03-.03-.22c-.02-.17-.04-.28-.05-.31-.01-.03-.03-.06-.07-.09-.04-.02-.13-.04-.28-.06s-.36-.02-.62-.02c-.14,0-.36,0-.66,.02-.01,.21-.02,.56-.02,1.04,0,.52,0,.91,.02,1.15h.69c.61,0,.98,0,1.13-.02,.15-.02,.3-.05,.43-.11,.02-.06,.06-.19,.11-.4,.05-.21,.08-.34,.09-.39l.04-.03h.18l.03,.03c-.02,.11-.04,.29-.07,.56s-.03,.49-.03,.68l-.03,.03c-.48-.02-1.1-.02-1.87-.02h-1.02c-.24,0-.48,0-.74,.02l-.03-.03v-.12l.03-.04c.15-.07,.23-.12,.25-.14s.04-.24,.05-.65c.01-.42,.02-.73,.02-.95v-2.22c0-.18,0-.33-.01-.45,0-.12-.01-.2-.03-.25-.01-.05-.03-.08-.04-.1s-.04-.04-.08-.05c-.04-.01-.1-.03-.19-.04l-.28-.02-.03-.03v-.19Z"/><path class="cls-1" d="M66.21,106.63c-.04-.11-.19-.53-.47-1.25l-1.27-3.14c-.14-.36-.23-.56-.27-.61-.04-.05-.19-.08-.45-.1l-.03-.03v-.17l.03-.03c.38,.02,.7,.03,.97,.03,.25,0,.58-.01,.99-.03l.03,.03v.2l-.03,.03c-.3,0-.48,0-.54,.03-.06,.02-.09,.05-.09,.11,0,.03,.04,.16,.12,.4s.15,.43,.21,.59l1.17,2.95,.97-2.45c.07-.17,.17-.44,.3-.81,.13-.37,.19-.59,.19-.67,0-.06-.03-.1-.09-.12-.06-.02-.24-.04-.55-.06l-.03-.03v-.18l.03-.03c.44,.02,.71,.03,.83,.03,.1,0,.35-.01,.75-.03l.03,.03v.18l-.03,.03c-.18,0-.29,.02-.32,.04-.04,.02-.07,.06-.1,.12-.03,.06-.12,.25-.27,.59l-1.16,2.87c-.26,.64-.45,1.14-.56,1.49h-.38Z"/><path class="cls-1" d="M69.43,101.31l.03-.03c.85,.02,1.4,.02,1.64,.02,.82,0,1.54,0,2.18-.02l.02,.03c-.06,.24-.11,.61-.14,1.12l-.02,.03h-.18l-.03-.03s0-.04,0-.06c0-.21-.02-.41-.05-.61-.16-.07-.37-.11-.65-.14s-.49-.03-.63-.03c-.2,0-.45,.01-.75,.04l-.02,.6v.68l-.02,.76c.27,.02,.52,.02,.74,.02s.42,0,.57-.02c.15-.02,.24-.03,.27-.05,.03-.02,.05-.05,.06-.09s.03-.13,.04-.24v-.23l.04-.03h.17l.03,.03c0,.27-.01,.54-.02,.82l.02,.84-.03,.03h-.17l-.03-.03-.03-.22c-.02-.17-.04-.28-.05-.31-.01-.03-.03-.06-.07-.09-.04-.02-.13-.04-.28-.06s-.36-.02-.62-.02c-.14,0-.36,0-.66,.02-.01,.21-.02,.56-.02,1.04,0,.52,0,.91,.02,1.15h.69c.61,0,.98,0,1.13-.02,.15-.02,.3-.05,.43-.11,.02-.06,.06-.19,.11-.4,.05-.21,.08-.34,.09-.39l.04-.03h.18l.03,.03c-.02,.11-.04,.29-.07,.56s-.03,.49-.03,.68l-.03,.03c-.48-.02-1.1-.02-1.87-.02h-1.02c-.24,0-.48,0-.74,.02l-.03-.03v-.12l.03-.04c.15-.07,.23-.12,.25-.14s.04-.24,.05-.65c.01-.42,.02-.73,.02-.95v-2.22c0-.18,0-.33-.01-.45,0-.12-.01-.2-.03-.25-.01-.05-.03-.08-.04-.1s-.04-.04-.08-.05c-.04-.01-.1-.03-.19-.04l-.28-.02-.03-.03v-.19Z"/><path class="cls-1" d="M79.42,104.53v.11l-.02,.04-.18,.11s-.07,.05-.08,.06-.02,.09-.03,.22c-.01,.13-.02,.3-.02,.49,0,.22,.01,.45,.04,.71l-.02,.04c-.68,.26-1.38,.39-2.1,.39-.55,0-1.05-.11-1.5-.31s-.8-.52-1.06-.93c-.26-.41-.39-.9-.39-1.46,0-.86,.29-1.54,.88-2.05,.59-.51,1.36-.76,2.31-.76,.7,0,1.32,.12,1.88,.36l.03,.04c-.05,.17-.1,.52-.16,1.05l-.03,.03h-.17l-.03-.03-.02-.39c0-.13-.02-.21-.02-.23,0-.02-.04-.05-.08-.09-.04-.04-.16-.09-.34-.17-.19-.08-.37-.14-.56-.17-.19-.04-.39-.05-.6-.05-.45,0-.86,.09-1.21,.28s-.62,.47-.79,.83c-.18,.36-.27,.77-.27,1.21s.09,.88,.29,1.28c.19,.39,.47,.7,.82,.92,.36,.22,.78,.33,1.25,.33,.21,0,.42-.02,.63-.06,.21-.04,.39-.1,.53-.17,.02-.08,.03-.24,.03-.48v-.41c0-.2-.01-.32-.04-.37-.02-.05-.09-.08-.18-.1-.1-.02-.31-.03-.64-.04l-.03-.03v-.16l.03-.03h.23c.39,.02,.71,.03,.96,.03,.14,0,.35,0,.62-.02l.04,.03Z"/><path class="cls-1" d="M79.94,101.31l.03-.03c.85,.02,1.4,.02,1.64,.02,.82,0,1.54,0,2.18-.02l.02,.03c-.06,.24-.11,.61-.14,1.12l-.02,.03h-.18l-.03-.03s0-.04,0-.06c0-.21-.02-.41-.05-.61-.16-.07-.37-.11-.65-.14s-.49-.03-.63-.03c-.2,0-.45,.01-.75,.04l-.02,.6v.68l-.02,.76c.27,.02,.52,.02,.74,.02s.42,0,.57-.02c.15-.02,.24-.03,.27-.05,.03-.02,.05-.05,.06-.09s.03-.13,.04-.24v-.23l.04-.03h.17l.03,.03c0,.27-.01,.54-.02,.82l.02,.84-.03,.03h-.17l-.03-.03-.03-.22c-.02-.17-.04-.28-.05-.31-.01-.03-.03-.06-.07-.09-.04-.02-.13-.04-.28-.06s-.36-.02-.62-.02c-.14,0-.36,0-.66,.02-.01,.21-.02,.56-.02,1.04,0,.52,0,.91,.02,1.15h.69c.61,0,.98,0,1.13-.02,.15-.02,.3-.05,.43-.11,.02-.06,.06-.19,.11-.4,.05-.21,.08-.34,.09-.39l.04-.03h.18l.03,.03c-.02,.11-.04,.29-.07,.56s-.03,.49-.03,.68l-.03,.03c-.48-.02-1.1-.02-1.87-.02h-1.02c-.24,0-.48,0-.74,.02l-.03-.03v-.12l.03-.04c.15-.07,.23-.12,.25-.14s.04-.24,.05-.65c.01-.42,.02-.73,.02-.95v-2.22c0-.18,0-.33-.01-.45,0-.12-.01-.2-.03-.25-.01-.05-.03-.08-.04-.1s-.04-.04-.08-.05c-.04-.01-.1-.03-.19-.04l-.28-.02-.03-.03v-.19Z"/><path class="cls-1" d="M88.84,101.29l.03,.03c-.02,.22-.03,.61-.03,1.17l-.03,.03h-.18l-.03-.04-.04-.34c-.02-.18-.04-.3-.05-.34-.01-.04-.03-.07-.05-.09-.02-.02-.11-.04-.24-.05s-.29-.02-.46-.02h-.71c-.02,.56-.03,.89-.03,.97v2.9c0,.28,.02,.46,.03,.55s.03,.14,.05,.16c.02,.03,.07,.05,.14,.07,.07,.02,.23,.03,.5,.04l.03,.02v.19l-.03,.03c-.64-.02-.99-.03-1.07-.03-.08,0-.43,.01-1.06,.03l-.03-.03v-.19l.03-.02c.23-.01,.39-.02,.47-.04,.08-.01,.13-.03,.15-.06,.03-.02,.05-.07,.07-.15,.02-.08,.03-.25,.03-.52v-2.96s0-.36-.02-.97h-.56c-.23,0-.43,0-.59,.02-.17,0-.26,.04-.29,.08s-.05,.18-.07,.4l-.04,.34-.03,.04h-.17l-.03-.03c0-.6-.02-.99-.04-1.17l.04-.03c.43,.02,1.15,.03,2.16,.03s1.75-.01,2.17-.03Z"/><path class="cls-1" d="M88.7,106.59l-.03-.03v-.19l.03-.03c.18,0,.3-.01,.35-.03,.05-.02,.1-.05,.14-.1s.12-.21,.25-.48l.39-.85,1.02-2.3c.19-.45,.38-.9,.57-1.35h.24l1.59,3.75,.21,.5c.06,.14,.13,.3,.21,.46,.08,.17,.14,.27,.17,.29,.03,.03,.07,.05,.12,.07,.05,.02,.15,.02,.31,.03l.03,.03v.19l-.03,.03c-.26-.02-.5-.03-.71-.03-.41,.01-.83,.02-1.24,.03l-.03-.03v-.19l.03-.03c.28,0,.45-.02,.52-.04,.07-.02,.1-.06,.1-.13,0-.05-.02-.13-.05-.22l-.46-1.14h-2.16l-.41,.96c-.07,.17-.11,.3-.11,.38,0,.06,.03,.11,.1,.14,.07,.03,.24,.05,.51,.05l.03,.03v.19l-.03,.03c-.32-.02-.6-.03-.84-.03-.27,0-.55,.01-.83,.03Zm1.7-2.09h1.89l-.94-2.25-.95,2.25Z"/><path class="cls-1" d="M94.64,101.31l.03-.03c.46,.02,.81,.03,1.06,.03,.28,0,.66,0,1.14-.03,.18,0,.3,0,.38,0,.63,0,1.06,.11,1.28,.34s.34,.5,.34,.81c0,.21-.05,.41-.16,.62-.11,.2-.27,.37-.48,.52-.21,.14-.51,.25-.89,.32,.07,.1,.2,.26,.38,.5l.53,.7c.17,.23,.36,.48,.55,.73s.32,.4,.38,.44c.06,.03,.11,.05,.15,.06s.11,.01,.2,.01l.03,.03v.18l-.03,.03c-.12-.02-.26-.02-.43-.02-.18,0-.37,0-.58,.02-.17-.21-.44-.57-.81-1.09-.43-.6-.87-1.15-1.31-1.66l.04-.11c.13,0,.23,.01,.3,.01,.43,0,.77-.1,1.01-.31,.24-.21,.37-.49,.37-.86,0-.33-.11-.58-.33-.74-.22-.17-.52-.25-.89-.25-.26,0-.51,.04-.74,.11-.04,.05-.06,.52-.06,1.4v2.46c0,.28,.01,.46,.03,.55s.03,.14,.05,.16c.02,.03,.07,.05,.14,.07,.07,.02,.23,.03,.5,.04l.03,.02v.19l-.03,.03s-.23,0-.66-.02c-.18,0-.32,0-.41,0-.08,0-.43,.01-1.07,.03l-.03-.03v-.19l.03-.02c.23-.01,.39-.02,.46-.04,.08-.01,.13-.03,.16-.06,.03-.02,.05-.07,.06-.15,.02-.08,.03-.25,.03-.52v-3.24c0-.28-.01-.47-.02-.55-.01-.08-.03-.14-.05-.16-.02-.03-.07-.05-.14-.07-.07-.02-.23-.03-.5-.04l-.03-.03v-.19Z"/><path class="cls-1" d="M99.81,101.29l.47,.02c.3,0,.51,.02,.6,.02,.08,0,.44-.01,1.07-.03l.03,.03v.19l-.03,.03c-.17,0-.3,.01-.4,.02-.09,.01-.16,.03-.2,.06-.04,.03-.07,.09-.08,.19s-.02,.24-.02,.42v3.31c0,.28,0,.46,.02,.55s.03,.14,.05,.16c.02,.03,.07,.05,.14,.07,.07,.02,.23,.03,.5,.04l.03,.02v.19l-.03,.03s-.23,0-.66-.02c-.18,0-.32,0-.41,0-.08,0-.43,.01-1.07,.03l-.03-.03v-.19l.03-.02c.23-.01,.39-.02,.46-.04,.08-.01,.13-.03,.16-.06,.03-.02,.05-.07,.06-.15,.02-.08,.03-.25,.03-.52v-3.24c0-.28-.01-.47-.02-.55-.01-.08-.03-.14-.05-.16-.02-.03-.07-.05-.14-.07-.07-.02-.23-.03-.5-.04l-.03-.03v-.19l.03-.03Z"/><path class="cls-1" d="M102.33,106.59l-.03-.03v-.19l.03-.03c.18,0,.3-.01,.35-.03,.05-.02,.1-.05,.14-.1s.12-.21,.25-.48l.39-.85,1.02-2.3c.19-.45,.38-.9,.57-1.35h.24l1.59,3.75,.21,.5c.06,.14,.13,.3,.21,.46,.08,.17,.14,.27,.17,.29,.03,.03,.07,.05,.12,.07,.05,.02,.15,.02,.31,.03l.03,.03v.19l-.03,.03c-.26-.02-.5-.03-.71-.03-.41,.01-.83,.02-1.24,.03l-.03-.03v-.19l.03-.03c.28,0,.45-.02,.52-.04,.07-.02,.1-.06,.1-.13,0-.05-.02-.13-.05-.22l-.46-1.14h-2.16l-.41,.96c-.07,.17-.11,.3-.11,.38,0,.06,.03,.11,.1,.14,.07,.03,.24,.05,.51,.05l.03,.03v.19l-.03,.03c-.32-.02-.6-.03-.84-.03-.27,0-.55,.01-.83,.03Zm1.7-2.09h1.89l-.94-2.25-.95,2.25Z"/><path class="cls-1" d="M108.36,106.59l-.03-.03v-.17l.03-.03c.15,0,.27-.01,.36-.03,.09-.02,.15-.04,.18-.07,.03-.04,.04-.09,.05-.17,0-.08,.02-.25,.03-.52s.01-.47,.01-.58v-3.02c0-.13-.02-.22-.07-.28s-.11-.1-.19-.12c-.08-.02-.21-.02-.41-.03l-.03-.03v-.18l.03-.03c.34,.01,.57,.02,.68,.02,.25,0,.46,0,.62-.02l1.19,1.55,1.75,2.2c.21,.27,.43,.52,.64,.76v-2.89c0-.09,0-.28-.01-.57s-.02-.48-.03-.56-.03-.13-.07-.16c-.03-.03-.09-.05-.18-.06s-.2-.02-.35-.02l-.03-.03v-.17l.03-.03c.2,.01,.49,.02,.86,.02,.34,0,.59,0,.74-.02l.03,.03v.17l-.03,.03c-.16,0-.29,.01-.38,.03s-.15,.04-.17,.08c-.02,.04-.04,.09-.05,.16,0,.07-.02,.24-.03,.52s-.01,.47-.01,.59v2.8c0,.34,.01,.67,.02,1.01-.13-.04-.34-.09-.65-.16l-.27-.31-.8-.97-2.53-3.16v2.86c0,.11,0,.32,.01,.61,0,.29,.02,.47,.03,.54,.01,.06,.03,.1,.05,.13,.02,.02,.06,.05,.13,.07s.2,.03,.41,.03l.03,.03v.18l-.03,.03c-.13-.02-.34-.03-.63-.03-.37,0-.7,0-.97,.03Z"/><path class="cls-1" d="M114.65,103.99c0-.37,.05-.72,.16-1.05s.29-.62,.55-.9c.26-.27,.57-.49,.93-.64,.36-.15,.77-.23,1.23-.23,.85,0,1.52,.23,2.03,.69,.5,.46,.75,1.09,.75,1.89,0,.56-.12,1.07-.37,1.52-.25,.45-.6,.8-1.06,1.05s-.97,.37-1.55,.37c-.41,0-.78-.07-1.12-.2-.34-.14-.63-.34-.87-.61-.24-.27-.41-.58-.52-.93s-.16-.68-.16-.97Zm.78-.25c0,.3,.05,.63,.15,.98,.1,.35,.24,.65,.44,.9,.2,.25,.42,.44,.68,.56,.25,.12,.55,.18,.87,.18,.39,0,.73-.09,1.03-.27,.3-.18,.53-.45,.69-.82s.23-.79,.23-1.25c0-.5-.09-.96-.27-1.36-.18-.41-.43-.7-.77-.88s-.7-.28-1.1-.28c-.61,0-1.08,.19-1.43,.57-.35,.38-.52,.94-.52,1.68Z"/><path class="cls-1" d="M60.28,78.85l.69,6.43c.16,1.38,.24,2.26,.3,3.15h.06c.32-.77,.68-1.61,1.28-2.93l3.07-6.66h1.92l-4.46,9.09c-1.27,2.59-2.46,4.69-3.98,6.29-1.25,1.35-2.57,1.92-3.18,2.06l-.35-1.76c.46-.18,1.25-.51,2-1.15,.75-.62,1.56-1.59,2.19-2.76,.1-.2,.1-.33,.08-.54l-1.49-11.23h1.88Z"/><path class="cls-1" d="M77.28,83.55c-.21,3.69-2.73,7.53-6.27,7.53-2.64,0-3.99-2.22-3.84-4.91,.22-3.95,2.84-7.59,6.27-7.59,2.84,0,3.99,2.44,3.85,4.97Zm-8.25,2.54c-.11,1.94,.77,3.37,2.31,3.37,2.13,0,3.92-3.13,4.07-5.91,.08-1.4-.38-3.34-2.27-3.34-2.28,0-3.96,3.14-4.11,5.89Z"/><path class="cls-1" d="M84.51,83.33l-.35,1.6h-5.21l.35-1.6h5.21Z"/><path class="cls-1" d="M106.56,90.81l3.92-17.56h1.81l-1.74,7.71h.04c.99-1.45,2.31-2.38,3.9-2.38,1.2,0,2.58,.82,2.44,3.2-.03,.64-.15,1.42-.28,2.02l-1.56,7h-1.8l1.54-6.91c.1-.44,.2-.99,.23-1.65,.06-1.1-.36-1.96-1.53-1.96-1.4,0-3.25,1.86-3.84,4.53l-1.32,5.99h-1.8Z"/><path class="cls-1" d="M123.76,75.64l-.72,3.21h2.52l-.37,1.61h-2.52l-1.29,5.81c-.15,.67-.28,1.29-.31,1.91-.04,.72,.23,1.16,.93,1.16,.32,0,.62-.03,.85-.1l-.18,1.62c-.33,.14-.88,.22-1.41,.22-1.59,0-2.16-1.1-2.09-2.32,.04-.7,.15-1.38,.36-2.24l1.36-6.05h-1.51l.36-1.61h1.51l.6-2.7,1.9-.52Z"/><path class="cls-1" d="M33.9,69.55c.04-.06,.05-.13,.03-.19-.29-.97-.66-1.71-1.1-2.21,1.18-2.33,2.1-4.15,2.76-5.47,.63-1.24,1.05-2.06,1.25-2.42,.18-.07,.34-.12,.48-.15,.21-.05,.35-.12,.44-.21,.78-.81,1.41-2.18,1.92-4.19,.09-.28,.11-.64,.05-1.06-.08-.49-.27-.74-.56-.74-.16,0-.29,.11-.36,.18l-1.14,.99c-.32,.28-.59,.51-.84,.74-.68,.87-1.55,2.57-2.67,5.2-.09,.11-.15,.18-.17,.2-.95,.92-2.35,1.97-4.17,3.1-1.82,1.13-4.09,2.38-6.75,3.7-3.18,1.59-6.05,2.78-8.54,3.53-2.39,.72-4.52,1.09-6.32,1.09-.06,0-.13,0-.19,0-2.29-.03-4.01-.44-5.11-1.22-1.09-.77-1.62-1.88-1.62-3.39,0-.94,.2-2.06,.61-3.32,1.55-4.64,5.91-9.03,12.98-13.04,6.92-3.94,13.67-5.93,20.06-5.93h.91c.3,0,.59,.01,.89,.04,2.06,.21,3.7,.93,4.87,2.12,.29,.31,.57,.67,.85,1.07,.27,.39,.51,.84,.73,1.35,.11,.27,.26,.42,.46,.47,.17,.04,.29-.02,.35-.07,.06-.05,.14-.15,.14-.33s-.05-.34-.14-.51c-.51-1.65-1.39-3.06-2.63-4.18-1.33-1.22-2.92-1.88-4.7-1.97-6.71-.42-13.98,1.52-21.58,5.74-7.86,4.4-12.75,9.41-14.52,14.87-.2,.56-.34,1.13-.42,1.7-.08,.57-.13,1.11-.13,1.61,0,2.14,.82,3.8,2.42,4.92,.73,.51,1.59,.9,2.56,1.17,.96,.27,2.05,.37,3.21,.32,1.75-.03,3.75-.36,5.94-.98,2.19-.63,4.66-1.58,7.33-2.85,2.19-1.04,4.28-2.16,6.21-3.33s3.78-2.38,5.5-3.62c.01,0,.02-.01,.03-.02-.01,.03-.03,.07-.05,.11-.88,1.88-1.67,3.54-2.36,4.99-.65,1.37-1.22,2.62-1.7,3.73-2.71,.5-5.02,.96-6.88,1.37-1.86,.41-3.17,.72-3.99,.93h0c-4.58,1.31-7.74,2.89-9.39,4.71-1.08,1.22-1.63,2.59-1.63,4.05s.57,2.79,1.7,3.74c1.16,.97,2.75,1.47,4.73,1.47,.1,0,.21,0,.32,0,1.92-.06,4.31-1.05,7.12-2.94,2.52-1.64,5.69-5.86,9.43-12.55,1.61-.47,1.95-.59,2.06-.65,.03-.02,.06-.04,.08-.06,.25-.3,.48-.59,.7-.85,.22-.26,.41-.52,.56-.75Zm-1.39-.47c-.02,.46-.17,.78-.42,.97-.3,.17-.57,.31-.8,.43-.04,.02-.08,.04-.12,.06,.25-.52,.47-.97,.67-1.34,.2-.37,.37-.72,.51-1.02,.15,.25,.2,.55,.17,.9Zm-22.81,10.05c1.54-1.35,4.04-2.66,7.42-3.89,1.15-.41,2.42-.8,3.75-1.16,1.35-.36,2.81-.73,4.38-1.12l3.19-.72c-2.99,5.63-5.66,9.4-7.94,11.2-2.02,1.62-4.26,2.48-6.65,2.56-.07,0-.15,0-.22,0-1.8,0-3.23-.33-4.23-.98-.89-.7-1.32-1.54-1.32-2.55,0-1.22,.55-2.35,1.62-3.35Z"/><path class="cls-1" d="M48.6,62.61c.2-.26,.71-.4,1.47-.4,.57,0,.86-.16,.86-.48,0-.27-.31-.33-.85-.4-1.16-.03-2.19-.06-3.08-.08-.87-.03-1.62-.05-2.25-.08-.03-.01-.05-.03-.07-.04-.05-.04-.11-.07-.15-.09-.85-.56-1.51-.82-2-.78-.67,.03-1.33,.36-1.93,.94-.22,.13-.32,.14-.34,.14-.03,0-.55,.01-1.58,.04-.77,.03-1.13,.14-1.27,.36-.11,.18-.16,.32-.16,.45,0,.25,.15,.48,.47,.71,.25,.18,.51,.35,.77,.49h.02v.02c-3.72,4.56-5.55,7.92-5.61,10.3,0,.27,.08,.52,.22,.75,.14,.21,.31,.4,.51,.56,.2,.15,.43,.27,.67,.35h0c.18,.06,.35,.08,.52,.08,.07,0,.14,0,.2-.01,2.46-.36,5.36-1.97,8.61-4.78,1.67-1.42,2.93-2.75,3.75-3.96,.83-1.23,1.3-2.4,1.39-3.51,0-.09-.03-.19-.05-.28l-.12-.28Zm-14.05,11.73c-.1-.09-.15-.23-.15-.44,0-.27,.07-.53,.23-.82,1.58-3.76,3.86-7.04,6.75-9.71,.38-.25,.52-.32,.56-.33,.03,.02,.07,0,.1-.02,.48-.19,1-.31,1.56-.38,.56-.07,1.17-.06,1.81,.02,.67,.07,1.1,.25,1.29,.52,.12,.17,.14,.38,.08,.65-.4,1.95-1.98,4.17-4.69,6.59-2.58,2.36-4.81,3.71-6.64,4-.43,.08-.74,.06-.89-.07Z"/><path class="cls-1" d="M118.89,29.57c-2.44-2.02-5.47-3.04-9.01-3.04-2.14,0-4.33,.39-6.5,1.17-1.87,.65-3.74,1.57-5.6,2.71-.63-.85-1.4-1.68-2.33-2.46-3.07-2.65-6.68-3.9-10.77-3.66-11.75,.75-22.88,12.86-33.09,36.01-.01,.03-.02,.06-.02,.09v.07c-.68,1.6-1.23,3.19-1.61,4.74-.39,1.57-.56,3.11-.51,4.56,.03,1.34,.32,2.37,.88,3.06,.56,.69,1.28,1.11,2.14,1.22,.18,.02,.36,.04,.55,.04,.7,0,1.46-.17,2.27-.51,.5-.21,.99-.47,1.49-.79,0,.11-.03,.22-.03,.33,0,.75,.31,1.64,1.77,1.64,.13,0,.29-.03,.5-.1,1.78-.72,4.09-2.37,6.86-4.89,1.22-1.05,2.31-2.1,3.25-3.1,.92-.99,1.76-1.95,2.5-2.86,.04-.05,.07-.07,.06-.07,.03,0,.04,0,.05,0,0,.02,.03,.11-.06,.38-1.63,4.29-2.42,7.18-2.42,8.82,0,.41,.05,.79,.16,1.14,.1,.35,.23,.65,.41,.92,.28,.31,.55,.41,.78,.41,.15,0,.28-.04,.39-.1,.16-.05,.3-.17,.45-.4,.07-.15,.09-.29,.04-.41-.03-.07-.1-.18-.29-.25-.14-.03-.27-.05-.39-.06-.08-.01-.15-.02-.23-.04-.14-.17-.14-.25-.14-.25-.03-2.85,1.26-6.82,3.83-11.82,.59-1.16,1.2-2.31,1.82-3.41,.58-1.05,1.17-2.07,1.75-3.08,.42,.02,.85,.03,1.28,.03h1.49c10.62,0,21.62-2.63,32.7-7.81,3-1.39,5.33-3.14,6.92-5.21,1.43-1.85,2.16-3.85,2.16-5.94,0-2.74-1.17-5.13-3.48-7.1Zm-46.77,30.29c-.78-.14-1.39-.14-2.01,0-.3,.07-.58,.15-.84,.24-2.09,.84-4.64,2.66-7.57,5.43-2.33,2.21-3.8,4.08-4.49,5.67-.52,.35-1.06,.66-1.63,.89-.72,.3-1.39,.42-1.99,.34-.59-.07-1.06-.37-1.45-.9-.39-.53-.57-1.43-.51-2.67,.02-1.11,.2-2.38,.51-3.79,.3-1.36,.68-2.68,1.13-3.93,4.14-.79,8.26-1.76,12.25-2.88,3.14-.88,6.27-1.92,9.37-3.04,.05,.01,.09,.05,.14,.05,.21,.06,.42,.1,.63,.13l.29,.04c-.29,.49-.58,1-.88,1.51l-.39,.67c-.47,.81-.95,1.64-1.44,2.49-.41-.12-.78-.2-1.11-.27Zm2.37-6.25c0-.24,.07-.43,.23-.59,.56-.67,1.27-1.27,2.1-1.77,.69-.43,1.52-.79,2.46-1.08-.37,.59-.75,1.19-1.14,1.82-.2,.32-.41,.66-.62,.99-.91,.37-1.85,.73-2.79,1.09-.19-.12-.24-.29-.24-.44Zm23.72-17.34c-.05,.46-.13,.9-.24,1.32h0c-.1,.41-.25,.84-.44,1.26-2.26,4.57-8.11,8.95-17.41,13.02h-.01c5.58-8.85,11.4-15.43,17.39-19.66,.62,1.27,.86,2.63,.71,4.06Zm-14.12,7.01c-.66,.83-1.33,1.73-2,2.68-.67,.95-1.4,2.01-2.17,3.16h0c-2.77,.59-4.86,1.64-6.21,3.13-.24,.24-.36,.53-.36,.87,0,.45,.16,.88,.44,1.29-2.04,.74-4.13,1.45-6.28,2.09-4.31,1.3-8.95,2.48-13.8,3.5l.16-.41s.01-.07,0-.11c1.5-3.47,3.13-6.82,4.87-9.95,1.75-3.16,3.7-6.22,5.78-9.11,6.8-9.59,13.59-14.6,20.16-14.9,3.9-.15,7.21,.95,9.91,3.22,.9,.73,1.62,1.5,2.19,2.31-4.27,2.81-8.53,6.89-12.7,12.23Zm36.9-7.6c0,3.59-2.86,7.06-8.5,10.32-9.8,5.7-20.56,8.58-31.98,8.58h-1.28c-.25,0-.51,0-.76-.02,.17-.29,.34-.56,.51-.84,10.64-4.18,17.32-8.74,19.85-13.55,.48-.98,.79-2.03,.93-3.15,.16-1.95-.27-3.79-1.25-5.5,1.75-1.16,3.52-2.12,5.29-2.88,1.86-.79,3.83-1.18,5.83-1.18,3.03,0,5.71,.82,7.99,2.44,2.24,1.52,3.38,3.46,3.38,5.77Zm-55.01,32.59c-1.73,1.51-3.51,2.87-5.31,4.04-.19,.12-.36,.17-.54,.17-.16,0-.47,0-.47-.68,0-.29,.06-.56,.19-.82,.7-1.73,2.12-3.67,4.21-5.76,1.06-1.04,2.04-1.88,2.9-2.51,.84-.61,1.61-1,2.3-1.16,.34-.08,.68-.12,1.02-.12,1.26,0,1.26,.52,1.26,.72,0,.24-.15,.57-.44,.92-1.67,1.94-3.39,3.69-5.11,5.19Z"/><path class="cls-1" d="M105.7,71.72c-.23,0-.48,.06-.74,.19-.4,.19-.49,.44-.49,.63s.12,.36,.4,.36c.12,0,.25,.02,.4,.05,.12,.03,.23,.09,.32,.19,.1,.1,.12,.29,.12,.43,0,1.27-1.3,3.02-3.85,5.21-2.34,1.99-4.31,3.21-5.84,3.64-.34,.1-.72,.16-1.13,.16-.88,0-1.57-.27-2.11-.84-.59-.64-.83-1.57-.73-2.77,.11-1.9,.93-4.49,2.42-7.7,1.56-3.26,3.34-6.18,5.27-8.65,.31-.38,.43-.67,.36-.92-.04-.13-.14-.3-.4-.39-.42-.2-.97-.14-1.63,.16-.32,.12-.69,.35-1.07,.68-.76,.3-2.13,1.26-4.21,2.92-.86,.69-1.73,1.43-2.6,2.18-.85,.74-1.67,1.49-2.45,2.24-.08,.09-.2,.21-.32,.21-.04,0-.1,0-.1-.22,0-.17,.04-.29,.11-.39,.01-.02,.02-.03,.03-.05,.55-1.23,1.2-2.45,1.95-3.63,.74-1.18,1.65-2.39,2.68-3.58,.13-.13,.2-.28,.2-.46,0-.06-.03-.13-.07-.17-.11-.1-.26-.1-.49-.06-.07,.01-.12,.03-.18,.04,0,0,0-.01-.01-.02-.12-.07-.37-.13-.63,.24-.31,.29-.76,.58-1.34,.87-.57,.29-1.13,.46-1.68,.52-.43,.05-.96,.1-1.58,.12-.62,.03-1.29,.05-2,.06-.72,.01-1.47,.02-2.27,.02h-.21c.61-.19,1.19-.41,1.72-.67,1.12-.54,1.9-1.23,2.34-2.04,.27-.45,.39-.96,.34-1.51-.04-.53-.19-1.01-.45-1.44-.26-.44-.62-.78-1.07-1-.47-.24-1-.26-1.6-.07-.99,.39-2.1,1.08-3.31,2.04-1.21,.96-2.38,2.11-3.47,3.43-1.1,1.33-2.05,2.77-2.8,4.29-.77,1.54-1.2,3.1-1.29,4.65-.03,.6,.1,1.16,.4,1.68,.29,.51,.65,.95,1.09,1.33,.43,.38,.92,.66,1.44,.85,.37,.13,.72,.2,1.04,.2,.15,0,.3-.02,.44-.04,.51-.09,1.05-.24,1.6-.45,.54-.21,1.07-.44,1.58-.69,.5-.25,.97-.51,1.39-.78,.43-.27,.79-.51,1.08-.72,.13-.08,.31-.22,.33-.42,0-.11-.04-.22-.13-.3-.14-.12-.38-.21-.77,.03-.73,.41-1.62,.81-2.64,1.19-1.01,.38-1.98,.64-2.86,.77-.33,.03-.67,0-.99-.06-.3-.06-.57-.18-.81-.37-.23-.18-.41-.45-.55-.79-.14-.36-.2-.82-.17-1.4,.03-.64,.15-1.27,.36-1.86,.21-.6,.47-1.19,.77-1.77,.3-.57,.62-1.11,.96-1.61,.31-.47,.61-.9,.9-1.28h2.78c1.1,0,2.22-.01,3.32-.04,1.1-.03,2.12-.05,3.04-.08,.95-.03,1.64-.09,2.12-.17,.42-.06,.82-.17,1.2-.32-.13,.17-.25,.33-.38,.51-.65,.89-1.33,1.89-2.03,2.97-1.52,2.31-2.61,4.17-3.24,5.53-.08,.15-.29,.59-.09,.88,.03,.09,.08,.16,.16,.22,.13,.1,.33,.12,.6,.07,1.2-.27,1.94-.59,2.24-.99,1.61-1.88,3.21-3.59,4.77-5.08,1.55-1.48,3.12-2.78,4.67-3.86,.18-.12,.36-.17,.54-.17,.43,0,.51,.17,.51,.43,0,.11-.02,.2-.08,.28-.79,1.09-1.55,2.24-2.27,3.43-.7,1.17-1.38,2.41-2.01,3.68-1.58,3.03-2.47,5.58-2.64,7.59-.14,1.83,.2,3.2,1.02,4.08,.66,.67,1.49,1,2.47,1,.15,0,.3,0,.45-.02,3.13-.34,6.08-1.85,8.76-4.5,.97-.98,1.79-1.92,2.43-2.8,.65-.9,1.11-1.77,1.36-2.59,.17-.52,.26-.95,.26-1.28,0-1.03-.59-1.19-.94-1.19Zm-22.49-10.76c-.55,.4-1.17,.76-1.84,1.07-.67,.31-1.4,.55-2.15,.71-.56,.12-1.11,.2-1.63,.23,.82-.87,1.69-1.72,2.59-2.54,1.04-.94,2.07-1.7,3.06-2.26,.38-.2,.72-.31,1-.33h.06c.22,0,.38,.06,.48,.17,.12,.13,.17,.32,.14,.59-.02,.29-.17,.65-.42,1.05-.31,.47-.75,.91-1.29,1.31Z"/><path class="cls-1" d="M48.33,52.17s6.43-13.9,13.06-21.38c6.63-7.47,10.22-10.51,18.44-15s12.26-5.08,16.44-5.93c4.19-.85,9.27-1.35,12.26-1.4,2.99-.05,4.14-.05,4.14-.05,0,0-7.77-2.09-15.8-1.79-8.02,.3-17.19,1.79-25.26,6.78-8.07,4.98-14.25,11.01-14.25,11.01l-.7,.7s.55-2.19,4.29-6.93c3.74-4.73,5.58-5.53,8.32-7.08s5.43-2.84,7.13-3.29,5.08-1.49,5.08-1.49c0,0-8.22,1-13.95,3.49-5.73,2.49-8.77,5.18-11.11,7.42s-2.79,2.69-2.79,2.69c0,0,.1-6.33,.65-9.37,.55-3.04,2.29-7.97,2.74-9.02s.55-1.54,.55-1.54c0,0-4.29,3.64-6.93,9.82-2.64,6.18-2.79,12.31-2.79,12.31,0,0-2.79-2.39-5.23-4.09-2.44-1.69-9.62-.8-9.62-.8,0,0,4.78,.75,7.82,3.99,3.04,3.24,3.89,5.53,3.89,5.53,0,0-1.1-1.4-6.28-1.79s-8.77,.1-8.77,.1c0,0,8.07,2.04,13.06,6.93s5.63,20.18,5.63,20.18Z"/><path class="cls-1" d="M90.49,75.08l.41-1.83h-1.81l-3.93,17.56h1.8l2.53-11.29c0-.18,0-.34,0-.53,.09-1.13,.45-2.45,.99-3.9Z"/><path class="cls-1" d="M90.15,90.81h1.8l1.41-6.32c-.63,0-1.2-.15-1.71-.4l-1.5,6.72Z"/><path class="cls-1" d="M93.92,82.02l.71-3.17h-1.8l-.32,1.43c.1,.48,.28,.89,.56,1.2,.24,.25,.53,.43,.85,.55Z"/><path class="cls-1" d="M93.34,75.51c-.05,.73,.33,1.28,.97,1.28,.7,0,1.23-.57,1.3-1.38,.04-.75-.35-1.29-1.01-1.29s-1.22,.6-1.27,1.39Z"/><path class="cls-1" d="M97.3,81.47c1.15-.57,2.49-1.5,3.99-2.74-1.62,.36-2.99,1.38-3.99,2.74Z"/><path class="cls-1" d="M102.45,80.24c.63,.04,1.17,.23,1.45,.39l-.9,3.98c-.52,2.33-2.21,4.56-3.77,4.56s-1.94-1.54-1.86-2.87c.06-1.07,.37-2.15,.85-3.1-.74,.35-1.48,.64-2.25,.85-.28,.84-.46,1.72-.51,2.61-.11,2.12,.86,4.14,2.98,4.14,1.46,0,2.79-.83,3.81-2.54h.05l-.45,1.79c-.8,3.24-2.25,4.26-4.03,4.26-1.11,0-2.14-.32-2.75-.78l-.6,1.61c.63,.51,1.83,.84,3.11,.84,1.2,0,2.64-.29,3.76-1.33,1.16-1.07,1.86-2.82,2.42-5.36l2.17-9.88c-.52-.29-1.25-.54-2.03-.69-.33,.37-.67,.75-1.05,1.13-.14,.14-.28,.26-.42,.38Z"/></g></g></svg>