<?xml version="1.0" encoding="UTF-8"?><svg id="Layer_2" xmlns="http://www.w3.org/2000/svg" viewBox="0 0 139.91 75.72"><defs><style>.cls-1{fill:#2d2a26;}</style></defs><g id="Capa_1"><g><path class="cls-1" d="M51.57,35.6c1.47-3.37,5.15-4.8,8.49-3.3,3.43,1.54,4.85,5.1,3.37,8.47-1.43,3.29-5.15,4.74-8.5,3.32-3.35-1.42-4.82-5.14-3.36-8.5Z"/><path class="cls-1" d="M71.95,14.65c1.16-2.67,4.08-3.8,6.73-2.62,2.72,1.22,3.84,4.04,2.68,6.72-1.14,2.61-4.08,3.76-6.74,2.63-2.66-1.12-3.82-4.08-2.66-6.74Z"/><path class="cls-1" d="M87.47,38.99c1.72-4.7-.59-9.66-5.28-11.33-.38-.13-.76-.23-1.14-.32-.38-.1-.77-.18-1.17-.24-6.49-.86-10.6-4.23-12.8-10.24-.38-1.04-.96-1.78-1.67-2.31-.58-.59-1.3-1.06-2.14-1.36-2.99-1.06-6.13,.39-7.2,3.32-1.01,2.75,.09,5.49,2.62,6.83,.49,.31,1.06,.6,1.71,.87,5.45,2.24,9.01,6.12,9.77,12.22,.06,.47,.15,.9,.27,1.32,.57,2.84,2.59,5.25,5.71,6.43,4.68,1.77,9.59-.48,11.32-5.2Z"/><path class="cls-1" d="M96.44,43.35c-.38,1.04-1.46,1.54-2.5,1.15-1.06-.4-1.55-1.45-1.17-2.49,.37-1.02,1.46-1.52,2.5-1.15,1.03,.37,1.54,1.46,1.16,2.5Z"/><path class="cls-1" d="M43.37,42.7c.31-.72,1.1-1.02,1.81-.7,.73,.33,1.03,1.09,.72,1.81-.31,.7-1.1,1.01-1.81,.71-.71-.3-1.03-1.1-.72-1.81Z"/><path class="cls-1" d="M67.14,1.81c.68-1.57,2.4-2.23,3.95-1.54,1.6,.72,2.26,2.37,1.57,3.95-.67,1.53-2.4,2.21-3.96,1.55-1.56-.66-2.24-2.39-1.56-3.96Z"/><path class="cls-1" d="M6.34,63.39c-.27-.08-.58-.14-.91-.18-.34-.04-.82-.08-1.43-.12h-.07c-.57-.02-1.02-.05-1.33-.09-.31-.03-.58-.09-.82-.16-.28-.08-.5-.2-.63-.34-.14-.15-.21-.34-.21-.57,0-.43,.21-.79,.65-1.06,.43-.27,1.01-.42,1.73-.46,.06,0,.17,0,.3,0,.66,0,1.27,.11,1.82,.32,.56,.21,.96,.5,1.2,.85,.08,.1,.18,.14,.34,.06,.07-.04,.11-.1,.11-.18,0-.04-.01-.08-.03-.1-.28-.42-.74-.75-1.36-1-.62-.25-1.32-.38-2.07-.38-.15,0-.25,0-.32,0-.57,.02-1.08,.12-1.51,.29-.43,.17-.76,.4-1,.68-.23,.28-.35,.61-.35,.96,0,.33,.1,.61,.28,.83,.19,.22,.49,.4,.89,.53,.25,.07,.54,.13,.84,.16,.31,.03,.79,.07,1.44,.11h.07c.62,.04,1.07,.07,1.38,.11,.31,.04,.59,.09,.83,.17,.3,.1,.52,.24,.65,.39,.14,.16,.21,.38,.21,.63,0,.31-.13,.6-.38,.84-.25,.24-.6,.42-1.05,.55-.44,.13-.97,.19-1.56,.19-.56,0-1.09-.06-1.57-.17-.49-.11-.9-.27-1.23-.46-.33-.2-.55-.42-.64-.67-.02-.04-.05-.08-.09-.11-.04-.03-.09-.04-.15-.04-.04,0-.06,0-.07,0-.05,.02-.09,.05-.12,.09-.03,.04-.04,.08-.04,.13,0,.04,0,.06,0,.06,.11,.31,.36,.59,.72,.83,.37,.25,.83,.44,1.39,.58,.55,.14,1.16,.21,1.8,.21,.71,0,1.34-.09,1.86-.26,.52-.17,.93-.41,1.2-.72,.27-.31,.41-.67,.41-1.07,0-.68-.39-1.15-1.19-1.44Z"/><path class="cls-1" d="M6.38,63.26c-.28-.08-.59-.14-.94-.18-.34-.04-.83-.08-1.44-.12h-.07c-.57-.02-1.01-.05-1.32-.09-.3-.03-.57-.09-.79-.16-.26-.08-.45-.18-.57-.3-.12-.12-.17-.28-.17-.48,0-.38,.19-.69,.58-.94,.41-.25,.97-.4,1.67-.44,.06,0,.16,0,.29,0,.64,0,1.24,.1,1.77,.31,.53,.2,.91,.47,1.14,.8,.08,.1,.19,.15,.31,.15,.06,0,.13-.02,.21-.06,.12-.07,.18-.17,.18-.3,0-.08-.02-.14-.06-.19-.29-.43-.77-.79-1.41-1.04-.64-.26-1.35-.39-2.13-.39-.15,0-.26,0-.33,0-.59,.03-1.11,.13-1.55,.3-.45,.18-.8,.42-1.05,.72-.25,.31-.38,.66-.38,1.05,0,.37,.11,.68,.32,.92,.21,.24,.53,.44,.96,.57,.26,.07,.55,.13,.87,.16,.31,.03,.79,.07,1.45,.11h.07c.61,.04,1.06,.07,1.36,.11,.3,.04,.57,.09,.8,.16,.27,.09,.47,.21,.59,.35,.12,.14,.17,.32,.17,.54,0,.28-.11,.52-.34,.74-.23,.22-.57,.4-1,.52-.43,.12-.94,.19-1.52,.19-.55,0-1.07-.06-1.54-.16-.48-.11-.88-.26-1.19-.44-.31-.18-.5-.38-.58-.6-.03-.07-.08-.13-.15-.18-.07-.04-.14-.06-.22-.06-.04,0-.08,0-.11,.01-.08,.03-.14,.08-.18,.14-.05,.06-.07,.14-.07,.21,0,.04,0,.08,.01,.11,.13,.34,.39,.64,.77,.9,.38,.26,.86,.46,1.43,.6,.56,.14,1.18,.21,1.83,.21,.72,0,1.37-.09,1.91-.27,.54-.18,.97-.43,1.26-.76,.3-.33,.45-.72,.45-1.16,0-.74-.43-1.26-1.28-1.57Zm.78,2.69c-.29,.32-.7,.57-1.23,.74-.54,.18-1.16,.26-1.89,.26-.65,0-1.26-.07-1.82-.21-.56-.14-1.03-.33-1.41-.59s-.63-.54-.75-.87c0-.02,0-.05,0-.08,0-.06,.02-.12,.06-.17,.04-.05,.09-.09,.15-.12,.02,0,.05,0,.09,0,.07,0,.13,.02,.19,.05,.05,.03,.09,.08,.12,.14,.08,.23,.29,.45,.61,.64,.32,.19,.73,.34,1.21,.45s1,.17,1.56,.17c.59,0,1.1-.06,1.54-.19,.44-.13,.78-.3,1.02-.54,.24-.23,.36-.49,.36-.79,0-.24-.06-.44-.19-.59-.13-.15-.34-.28-.62-.37-.24-.07-.51-.13-.81-.17s-.76-.07-1.37-.11h-.08c-.65-.04-1.13-.07-1.44-.11s-.6-.09-.86-.16c-.41-.14-.72-.32-.92-.55-.2-.23-.3-.53-.3-.88,0-.38,.12-.71,.36-1.01,.24-.3,.58-.53,1.02-.7s.95-.27,1.53-.3c.07,0,.18,0,.33,0,.77,0,1.47,.13,2.1,.38,.63,.26,1.1,.6,1.38,1.02,.03,.04,.05,.09,.05,.15,0,.1-.05,.18-.14,.24-.06,.03-.12,.05-.17,.05-.1,0-.19-.04-.26-.13-.23-.34-.62-.61-1.17-.82s-1.15-.31-1.8-.31c-.13,0-.23,0-.3,0-.71,.04-1.28,.19-1.7,.45-.42,.26-.62,.6-.62,1,0,.22,.06,.39,.19,.53,.13,.14,.33,.24,.6,.32,.23,.07,.5,.13,.8,.16,.31,.03,.75,.06,1.32,.09h.08c.61,.04,1.09,.08,1.44,.12,.34,.04,.65,.1,.93,.18,.82,.3,1.23,.8,1.23,1.5,0,.42-.14,.8-.43,1.12Z"/><path class="cls-1" d="M6.36,63.33c-.27-.08-.58-.14-.93-.18-.34-.04-.82-.08-1.44-.12h-.08c-.57-.02-1.01-.05-1.32-.09-.31-.03-.57-.09-.8-.16-.27-.08-.48-.19-.6-.32-.13-.14-.19-.31-.19-.53,0-.41,.2-.74,.62-1,.42-.26,.98-.41,1.7-.45,.06,0,.16,0,.3,0,.65,0,1.25,.1,1.8,.31s.94,.48,1.17,.82c.07,.09,.16,.13,.26,.13,.05,0,.11-.02,.17-.05,.1-.06,.14-.14,.14-.24,0-.06-.02-.11-.05-.15-.29-.42-.75-.76-1.38-1.02-.63-.26-1.33-.38-2.1-.38-.15,0-.25,0-.33,0-.58,.02-1.09,.12-1.53,.3s-.78,.41-1.02,.7c-.24,.3-.36,.63-.36,1.01,0,.35,.1,.64,.3,.88,.2,.23,.51,.42,.92,.55,.26,.07,.55,.13,.86,.16s.79,.07,1.44,.11h.08c.61,.04,1.06,.07,1.37,.11s.58,.09,.81,.17c.29,.1,.49,.22,.62,.37,.13,.15,.19,.35,.19,.59,0,.3-.12,.56-.36,.79-.24,.23-.58,.41-1.02,.54-.44,.13-.95,.19-1.54,.19-.55,0-1.07-.06-1.56-.17s-.89-.26-1.21-.45c-.32-.19-.52-.4-.61-.64-.03-.06-.07-.11-.12-.14-.05-.03-.12-.05-.19-.05-.04,0-.07,0-.09,0-.06,.02-.11,.06-.15,.12-.04,.05-.06,.11-.06,.17,0,.04,0,.06,0,.08,.12,.33,.37,.62,.75,.87s.85,.45,1.41,.59c.56,.14,1.17,.21,1.82,.21,.72,0,1.35-.09,1.89-.26,.54-.18,.95-.42,1.23-.74,.29-.32,.43-.69,.43-1.12,0-.71-.41-1.21-1.23-1.5Zm.75,2.58c-.28,.31-.68,.55-1.2,.72-.53,.17-1.15,.26-1.86,.26-.64,0-1.25-.07-1.8-.21-.55-.14-1.02-.33-1.39-.58-.36-.24-.61-.52-.72-.83,0,0,0-.02,0-.06,0-.05,.01-.09,.04-.13,.03-.04,.07-.07,.12-.09,0,0,.02,0,.07,0,.06,0,.11,.01,.15,.04,.04,.03,.07,.06,.09,.11,.09,.25,.3,.47,.64,.67,.33,.19,.74,.35,1.23,.46,.49,.11,1.02,.17,1.57,.17,.59,0,1.12-.06,1.56-.19,.45-.13,.8-.31,1.05-.55,.26-.24,.38-.53,.38-.84,0-.25-.07-.47-.21-.63-.14-.16-.35-.29-.65-.39-.24-.07-.52-.13-.83-.17-.31-.04-.76-.07-1.38-.11h-.07c-.65-.04-1.13-.07-1.44-.11-.31-.03-.59-.09-.84-.16-.4-.13-.7-.31-.89-.53-.19-.22-.28-.5-.28-.83,0-.36,.12-.68,.35-.96,.23-.29,.57-.51,1-.68,.43-.17,.94-.27,1.51-.29,.07,0,.17,0,.32,0,.75,0,1.45,.13,2.07,.38,.62,.25,1.07,.58,1.36,1,.02,.02,.03,.06,.03,.1,0,.08-.03,.14-.11,.18-.16,.08-.26,.04-.34-.06-.24-.35-.64-.63-1.2-.85-.55-.21-1.17-.32-1.82-.32-.13,0-.24,0-.3,0-.72,.04-1.31,.19-1.73,.46-.44,.27-.66,.63-.65,1.06,0,.23,.07,.43,.21,.57,.14,.14,.35,.26,.63,.34,.23,.08,.51,.13,.82,.16,.31,.03,.75,.06,1.33,.09h.07c.61,.04,1.09,.08,1.43,.12,.34,.04,.65,.1,.91,.18,.8,.29,1.19,.76,1.19,1.44,0,.41-.14,.77-.41,1.07Z"/><path class="cls-1" d="M22.13,60.88c0,1.48,0,3.08,0,4.8v.9c0,.06,.02,.11,.07,.16,.11,.1,.26,.09,.35,0,.04-.05,.07-.1,.07-.16,0-.1,0-.43,0-1,0-.84,0-1.57,0-2.19v-3.2s-.03-.07-.05-.11c-.04-.05-.1-.07-.18-.07-.07,0-.13,.02-.16,.05l-1.82,1.47s-.05,.04-.09,.08c-.05,.04-.12,.1-.21,.18l-1.57,1.28-3.77-2.98s-.11-.05-.18-.05c-.09,0-.15,.03-.2,.08-.02,.03-.05,.08-.05,.21v6.25c-.01,.07,0,.12,.05,.17,.09,.09,.25,.1,.35,0,.05-.04,.07-.1,.08-.16,0-.61,0-2.53,0-5.7v-.14l3.54,2.78s.04,.03,.12,.05c0,0,.03,0,.07,0,.06,0,.11-.02,.16-.06l.96-.78,1.69-1.37c.22-.17,.45-.36,.67-.55l.11-.1v.15Z"/><path class="cls-1" d="M22.12,66.84c.16,.15,.4,.14,.53,0,.07-.07,.11-.16,.11-.25,0-.09,0-.42,0-1,0-.84,0-1.58,0-2.19v-3.2c0-.06-.03-.12-.08-.19-.06-.09-.16-.13-.29-.13-.11,0-.19,.03-.25,.09l-1.77,1.43h-.03s-.07,.06-.12,.11c-.05,.04-.12,.1-.2,.17l-1.49,1.21-3.69-2.91c-.08-.05-.16-.08-.26-.08-.13,0-.23,.04-.3,.12-.06,.06-.08,.16-.08,.3v6.24c-.02,.11,.02,.2,.09,.27,.07,.07,.17,.11,.27,.11,.1,0,.19-.03,.26-.1,.07-.07,.11-.15,.12-.25,0-.61,0-2.48,0-5.56l3.31,2.6s.09,.06,.17,.08c.03,0,.06,.01,.11,.01,.09,0,.18-.03,.24-.09l2.65-2.15c.19-.15,.38-.3,.56-.46,0,1.43,0,2.99,0,4.65v.9c0,.1,.04,.19,.12,.26Zm-.73-5.4l-.61,.5h-.02l-1.06,.87-.15,.13-.54,.43-.27,.22c-.06,.05-.12,.07-.2,.07-.04,0-.07,0-.09,0-.07-.02-.12-.04-.14-.06l-3.43-2.69c0,3.18,0,5.08,0,5.7,0,.08-.04,.15-.1,.2-.06,.06-.13,.08-.22,.08-.09,0-.16-.03-.23-.09s-.09-.13-.08-.22v-6.25c0-.12,.03-.21,.08-.26,.06-.07,.14-.1,.25-.1,.08,0,.16,.02,.22,.06l3.73,2.94,.61-.5,.16-.13,.34-.29,.41-.33c.09-.07,.16-.13,.21-.18,.05-.04,.08-.07,.11-.09h0l1.79-1.45c.05-.05,.12-.07,.21-.07,.11,0,.19,.03,.24,.1,.04,.06,.06,.1,.06,.15v3.2c.02,.62,.02,1.34,.02,2.19,0,.57,0,.9,0,1,0,.08-.03,.15-.09,.21s-.13,.09-.22,.09c-.08,0-.16-.03-.22-.09s-.1-.13-.1-.21v-.9c0-1.72,0-3.32,0-4.8-.22,.19-.44,.38-.67,.55Z"/><path class="cls-1" d="M22.07,65.68v.9c0,.08,.03,.15,.1,.21s.14,.09,.22,.09c.09,0,.16-.03,.22-.09s.09-.13,.09-.21c0-.09,0-.42,0-1,0-.84,0-1.57,0-2.19v-3.2s-.03-.09-.07-.15c-.05-.07-.13-.1-.24-.1-.09,0-.16,.02-.21,.07l-1.79,1.45h0s-.06,.05-.11,.09c-.05,.04-.12,.1-.21,.18l-.41,.33-.34,.29-.16,.13-.61,.5-3.73-2.94c-.06-.04-.14-.06-.22-.06-.11,0-.19,.03-.25,.1-.04,.05-.07,.14-.07,.26v6.25c-.02,.09,.01,.16,.07,.22s.14,.09,.23,.09c.08,0,.15-.03,.22-.08,.06-.06,.09-.12,.1-.2,0-.62,0-2.52,0-5.7l3.43,2.69s.07,.05,.14,.06c.02,0,.05,0,.09,0,.08,0,.14-.02,.2-.07l.27-.22,.54-.43,.15-.13,1.06-.86h.02l.61-.51c.23-.18,.45-.36,.67-.55,0,1.48,0,3.08,0,4.8Zm-.72-4.3l-1.69,1.37-.96,.78s-.1,.06-.16,.06c-.04,0-.06,0-.07,0-.08-.02-.11-.04-.12-.05l-3.54-2.78v.14c0,3.17,0,5.08,0,5.7,0,.06-.03,.11-.08,.16-.1,.09-.25,.09-.35,0-.05-.04-.07-.1-.06-.17v-6.25c0-.13,.04-.19,.06-.21,.04-.05,.11-.08,.2-.08,.07,0,.13,.02,.18,.05l3.77,2.98,1.57-1.28c.09-.07,.16-.13,.21-.18,.04-.03,.07-.06,.09-.08l1.82-1.47s.09-.05,.16-.05c.09,0,.15,.02,.18,.07,.03,.04,.05,.08,.05,.11v3.2c.02,.62,.02,1.34,.02,2.19,0,.57,0,.9,0,1,0,.06-.02,.11-.07,.16-.09,.09-.24,.1-.35,0-.05-.05-.07-.1-.07-.16v-.9c0-1.72,0-3.32,0-4.8v-.15l-.11,.1c-.22,.19-.44,.38-.67,.55Z"/><path class="cls-1" d="M36.73,65.36c-.1-.18-.16-.28-.18-.31l-.17-.3s-.05-.05-.46-.75l-.65-1.09c-.11-.18-.34-.58-.7-1.17-.35-.59-.67-1.13-.93-1.61-.05-.09-.11-.13-.21-.13s-.17,.04-.22,.12l-.16,.28c-.13,.19-.32,.52-.58,.99-.53,.88-1.39,2.33-2.56,4.3l-.44,.75s-.04,.08-.04,.12c0,.07,.04,.13,.12,.18,.08,.05,.16,.05,.25,0,.04-.02,.07-.05,.09-.08l1.03-1.75h4.98l.05,.1,.35,.58,.64,1.09s.05,.05,.09,.07c.09,.05,.17,.04,.24,0,.08-.05,.12-.11,.12-.19,0-.04,0-.08-.03-.11-.25-.44-.46-.8-.64-1.1Zm-4.24-.89c-.34,0-.73,0-1.17,0h-.12l2.22-3.75,.06,.1c.31,.54,.85,1.45,1.64,2.78h0l.52,.88h-3.15Z"/><path class="cls-1" d="M36.85,65.29c-.1-.18-.16-.29-.18-.31l-.18-.31s-.08-.12-.45-.74l-.65-1.09c-.11-.18-.34-.58-.7-1.17-.35-.59-.67-1.13-.93-1.6-.07-.13-.18-.2-.33-.2s-.26,.06-.34,.18l-.16,.28c-.13,.19-.32,.52-.59,.99-.53,.88-1.39,2.33-2.56,4.3l-.44,.75c-.04,.06-.06,.13-.06,.19,0,.12,.06,.22,.19,.3,.12,.07,.25,.08,.38,0,.06-.03,.11-.08,.14-.13l.99-1.68h4.83l.99,1.67v.03c.05,.05,.1,.09,.17,.13,.06,.03,.13,.05,.19,.05s.12-.02,.18-.05c.12-.07,.19-.18,.19-.31,0-.07-.02-.13-.05-.18-.25-.44-.46-.8-.64-1.1Zm.47,1.53s-.09,.04-.14,.04-.1-.01-.16-.04c-.05-.03-.1-.06-.13-.11h0l-.63-1.08-.36-.6h0l-.02-.04h-4.91l-1.01,1.71s-.06,.08-.11,.11-.1,.04-.15,.04c-.06,0-.11-.02-.16-.05-.1-.06-.15-.14-.15-.24,0-.06,.02-.11,.05-.16l.44-.75c1.17-1.98,2.02-3.41,2.55-4.3,.26-.47,.46-.8,.58-.99l.16-.29c.06-.1,.16-.15,.28-.15s.21,.06,.27,.17c.26,.47,.57,1.01,.93,1.61,.36,.6,.59,.99,.7,1.17l.39,.66,.26,.43c.27,.46,.43,.71,.46,.75l.17,.3s.08,.14,.18,.31c.19,.3,.4,.67,.64,1.1,.03,.04,.04,.09,.04,.15,0,.1-.05,.19-.15,.25Z"/><path class="cls-1" d="M33.41,60.85l-.47,.78-1.63,2.76c.44,0,.83,0,1.17,0h3.03l-.46-.78c-.78-1.3-1.33-2.23-1.65-2.78Zm-.92,3.49c-.31,0-.66,0-1.05,0l1.57-2.66,.41-.68c.32,.55,.84,1.43,1.59,2.68l.4,.67h-2.91Z"/><path class="cls-1" d="M36.79,65.32c-.1-.18-.16-.28-.18-.31l-.17-.3s-.19-.29-.46-.75l-.26-.43-.39-.66c-.11-.18-.34-.58-.7-1.17-.36-.6-.67-1.13-.93-1.61-.06-.11-.15-.17-.27-.17s-.21,.05-.28,.15l-.16,.29c-.13,.19-.32,.52-.58,.99-.54,.89-1.39,2.32-2.55,4.3l-.44,.75s-.05,.1-.05,.16c0,.1,.05,.18,.15,.24,.05,.03,.1,.05,.16,.05,.05,0,.1-.01,.15-.04s.09-.06,.11-.11l1.01-1.72h4.91l.02,.04h0l.36,.61,.63,1.07h0c.03,.05,.08,.09,.13,.12,.05,.03,.11,.04,.16,.04s.1-.01,.14-.04c.1-.06,.15-.14,.15-.25,0-.06-.01-.1-.04-.15-.24-.43-.46-.8-.64-1.1Zm.49,1.44c-.07,.04-.15,.04-.24,0-.04-.02-.07-.04-.09-.07l-.64-1.09-.35-.58-.05-.09h-4.98l-1.03,1.74s-.05,.06-.09,.08c-.09,.05-.17,.04-.25,0-.08-.05-.12-.11-.12-.18,0-.04,.01-.08,.04-.12l.44-.75c1.16-1.97,2.02-3.42,2.56-4.3,.26-.47,.46-.8,.58-.99l.16-.28c.05-.08,.12-.12,.22-.12s.16,.04,.21,.13c.26,.47,.57,1.02,.93,1.61,.36,.6,.59,.99,.7,1.17l.65,1.09c.41,.7,.45,.74,.46,.75l.17,.3s.08,.13,.18,.31c.18,.3,.39,.65,.64,1.1,.02,.03,.03,.07,.03,.11,0,.08-.04,.14-.12,.19Z"/><path class="cls-1" d="M35.12,63.59c-.8-1.33-1.34-2.23-1.64-2.78l-.06-.1-2.22,3.75h.12c.44,0,.83,.01,1.17,.01h3.15l-.52-.88h0Zm-1.68,.81h-.95c-.34,0-.73,0-1.17,0l1.63-2.76,.47-.78c.31,.55,.86,1.47,1.65,2.78l.46,.78h-2.08Z"/><path class="cls-1" d="M50.76,66.7c.06-.05,.09-.11,.09-.18,0-.05-.01-.09-.05-.14-.13-.17-.35-.5-.7-1.02l-.03-.03-.63-.9,.08-.03c.16-.06,.31-.14,.44-.25,.3-.23,.53-.52,.68-.86,.14-.33,.21-.68,.21-1.03,0-.39-.09-.78-.26-1.14-.17-.35-.4-.61-.68-.78-.28-.17-.7-.3-1.24-.37-.78-.11-1.87-.12-3.21-.07l-1,.03c-.07,0-.12,.02-.16,.05-.04,.04-.07,.08-.08,.13-.02,.05-.02,.07-.02,.08,0,.68,0,1.71,0,3.09,0,1.38,0,2.5-.01,3.33,0,.07,.02,.12,.07,.17,.11,.1,.26,.09,.35,0,.04-.05,.07-.1,.07-.17,0-.14,0-.75,0-1.82v-.07l.95,.02h1.06c.81,0,1.46-.03,1.94-.11l.31-.05,.03,.03c.14,.18,.38,.5,.69,.97l.03,.03c.38,.56,.62,.91,.72,1.03,.09,.1,.23,.13,.35,.05Zm-2.19-2.52c-.45,.07-1.07,.11-1.84,.11h-1.08l-.96-.03v-.07c0-1.21,0-2.45,0-3.75v-.07l.79-.02c1.28-.05,2.37-.03,3.13,.07,.46,.06,.81,.16,1.03,.29,.23,.13,.41,.34,.54,.62,.13,.29,.2,.6,.2,.92,0,.29-.06,.57-.17,.84-.14,.32-.34,.56-.59,.73-.25,.16-.61,.28-1.07,.35Z"/><path class="cls-1" d="M50.84,66.81c.1-.08,.15-.18,.15-.29,0-.08-.02-.15-.07-.22-.13-.17-.35-.5-.7-1.02l-.55-.78c.14-.06,.27-.14,.4-.24,.32-.24,.56-.55,.72-.91,.15-.35,.23-.71,.23-1.09,0-.41-.09-.82-.27-1.2-.18-.37-.43-.66-.73-.84-.3-.18-.73-.31-1.29-.39-.79-.11-1.88-.12-3.24-.07l-1,.03c-.1,0-.18,.03-.25,.09-.07,.06-.11,.13-.12,.2-.02,.04-.02,.08-.02,.11,0,.68,0,1.71,0,3.09,0,1.38,0,2.49-.01,3.33,0,.11,.04,.2,.12,.27h0c.08,.07,.17,.11,.27,.11,.11,0,.2-.04,.27-.11,.07-.07,.11-.16,.11-.26,0-.13,0-.71,0-1.75l.81,.02h1.06c.82,0,1.48-.03,1.96-.11l.23-.04c.14,.18,.36,.49,.66,.94l.03,.03c.38,.56,.62,.91,.72,1.04,.14,.15,.34,.2,.53,.07Zm-1.23-1.19c-.32-.47-.55-.8-.69-.97l-.27,.05c-.48,.08-1.14,.12-1.95,.12h-1.06l-.88-.03c0,1.08,0,1.68,0,1.82,0,.09-.03,.16-.09,.22-.06,.06-.13,.09-.22,.09-.08,0-.16-.03-.22-.09-.06-.06-.1-.13-.1-.22,0-.84,.01-1.95,.01-3.33s0-2.41,0-3.09c0-.02,0-.06,.02-.09,.01-.07,.05-.12,.1-.17,.05-.05,.12-.07,.21-.07l1-.03c.5-.02,.96-.03,1.39-.03,.73,0,1.34,.03,1.84,.1,.55,.07,.97,.2,1.26,.38,.29,.18,.53,.45,.71,.81,.18,.38,.27,.77,.27,1.17,0,.37-.07,.72-.22,1.06-.15,.36-.39,.65-.7,.89-.14,.11-.29,.2-.46,.26l.57,.82,.03,.04c.34,.5,.57,.84,.7,1.02,.04,.06,.06,.11,.06,.18,0,.09-.04,.17-.12,.24-.06,.04-.12,.06-.18,.06-.1,0-.19-.04-.26-.12-.1-.12-.33-.47-.72-1.03l-.03-.04Z"/><path class="cls-1" d="M50.17,63.08c.11-.26,.16-.53,.16-.81,0-.32-.06-.62-.19-.9-.13-.27-.3-.47-.52-.59-.22-.12-.55-.22-1-.28-.47-.07-1.06-.1-1.75-.1-.43,0-.88,0-1.37,.03l-.73,.02c0,1.29,0,2.54,0,3.75l.89,.02h1.08c.77,0,1.38-.03,1.83-.1,.45-.07,.8-.18,1.04-.34,.24-.16,.43-.39,.56-.7Zm-.6,.64c-.23,.15-.57,.26-1.02,.33-.44,.07-1.05,.11-1.82,.11h-1.08l-.82-.03c0-1.16,0-2.37,0-3.61l.66-.02c1.27-.05,2.35-.03,3.11,.07,.44,.06,.77,.15,.98,.27,.2,.12,.37,.3,.49,.56,.12,.27,.18,.56,.18,.87,0,.27-.05,.54-.16,.78-.13,.29-.31,.52-.54,.67Z"/><path class="cls-1" d="M50.23,63.11c.11-.27,.17-.55,.17-.84,0-.33-.07-.64-.2-.92-.13-.28-.32-.49-.54-.62-.22-.13-.57-.22-1.03-.29-.76-.11-1.85-.12-3.13-.07l-.79,.02v.07c0,1.29,0,2.54,0,3.75v.07l.96,.02h1.08c.77,0,1.39-.03,1.84-.1,.46-.07,.82-.19,1.07-.35,.25-.16,.45-.41,.59-.73Zm-1.67,1.01c-.45,.07-1.06,.11-1.83,.11h-1.08l-.89-.03c0-1.21,0-2.45,0-3.75l.73-.02c.48-.02,.94-.03,1.37-.03,.7,0,1.28,.03,1.75,.1,.45,.06,.79,.15,1,.28,.22,.12,.39,.32,.52,.59,.13,.28,.19,.58,.19,.9,0,.28-.05,.55-.16,.81-.13,.31-.32,.54-.56,.7-.24,.16-.59,.27-1.04,.34Z"/><path class="cls-1" d="M50.62,66.82c.06,0,.12-.02,.18-.06,.08-.07,.12-.15,.12-.24,0-.06-.02-.12-.06-.18-.13-.17-.36-.51-.7-1.02l-.03-.04-.57-.82c.17-.06,.32-.15,.46-.26,.31-.23,.55-.53,.7-.89,.15-.34,.22-.69,.22-1.06,0-.41-.09-.8-.27-1.17-.18-.36-.42-.63-.71-.81-.29-.18-.71-.3-1.26-.38-.5-.07-1.11-.1-1.84-.1-.43,0-.89,0-1.39,.03l-1,.03c-.08,0-.15,.02-.21,.07-.05,.05-.09,.1-.1,.17-.01,.04-.02,.07-.02,.09,0,.68,0,1.71,0,3.09s0,2.5-.01,3.33c0,.09,.03,.16,.1,.22,.06,.06,.14,.09,.22,.09,.09,0,.16-.03,.22-.09,.06-.06,.09-.13,.09-.22,0-.14,0-.74,0-1.82l.88,.02h1.06c.82,0,1.47-.03,1.95-.11l.27-.05c.14,.17,.37,.5,.69,.97l.03,.04c.38,.57,.62,.91,.72,1.03,.07,.08,.16,.12,.26,.12Zm-.95-1.23c-.32-.47-.55-.8-.69-.97l-.03-.03-.31,.05c-.48,.08-1.13,.12-1.94,.12h-1.06l-.95-.03v.07c0,1.07,0,1.68,0,1.82,0,.07-.02,.12-.07,.17-.09,.09-.24,.1-.35,0-.05-.05-.07-.1-.07-.17,0-.84,.01-1.95,.01-3.33,0-1.38,0-2.41,0-3.09,0-.01,0-.03,.02-.08,0-.05,.04-.1,.08-.13,.04-.04,.1-.05,.16-.05l1-.03c1.35-.05,2.43-.03,3.21,.07,.54,.07,.95,.2,1.24,.37,.28,.17,.51,.43,.68,.78,.17,.36,.26,.75,.26,1.14,0,.36-.07,.71-.21,1.03-.15,.34-.37,.63-.68,.86-.13,.11-.28,.19-.44,.25l-.08,.03,.63,.9,.03,.03c.34,.51,.57,.85,.7,1.02,.03,.04,.05,.09,.05,.14,0,.07-.03,.13-.09,.18-.12,.08-.26,.05-.35-.05-.1-.12-.34-.47-.72-1.03l-.03-.03Z"/><path class="cls-1" d="M61.44,60.57h3.49c.06,0,.12-.01,.17-.06,.05-.05,.07-.1,.07-.16s-.02-.11-.07-.16c-.05-.05-.1-.07-.17-.07h-4.62c-.85,0-1.82,0-2.89,.02-.07,0-.12,.02-.17,.07-.05,.04-.07,.09-.06,.15,0,.07,.02,.12,.07,.17,.05,.05,.1,.07,.17,.07,1.41-.02,2.57-.03,3.45-.03h.07v.07c0,2.67,0,4.69,.03,6.02,0,.07,.02,.12,.07,.16,.1,.09,.26,.09,.35,0,.04-.05,.07-.1,.07-.17-.02-1.32-.03-3.34-.03-6.01v-.07Z"/><path class="cls-1" d="M64.93,60.71c.1,0,.19-.04,.26-.11,.07-.07,.11-.16,.11-.26s-.04-.18-.11-.26h0c-.07-.07-.16-.11-.26-.11h-4.62c-.85,0-1.83,0-2.89,.02-.1,0-.19,.04-.26,.11-.08,.07-.11,.16-.1,.26,0,.1,.04,.19,.11,.26,.07,.07,.16,.11,.27,.11,1.37-.02,2.51-.03,3.38-.03,0,2.64,0,4.64,.03,5.95,0,.11,.04,.19,.11,.26,.07,.07,.16,.1,.27,.1s.2-.04,.27-.11c.07-.07,.11-.16,.11-.27-.02-1.31-.03-3.3-.03-5.94h3.36Zm-3.48,6.16c-.06,.06-.13,.09-.22,.09s-.16-.03-.23-.08-.09-.13-.09-.21c-.02-1.33-.03-3.33-.03-6.02-.89,0-2.04,0-3.45,.03-.08,0-.15-.03-.22-.09-.06-.06-.09-.13-.09-.21,0-.08,.02-.15,.08-.21s.13-.09,.22-.09c1.06-.02,2.03-.03,2.89-.03h1.68l1.48,.02h1.45c.08,0,.15,.02,.22,.08,.06,.06,.09,.13,.09,.21s-.03,.15-.09,.21-.13,.09-.22,.09h-3.43c0,2.67,0,4.68,.03,6,0,.09-.03,.16-.09,.22Z"/><path class="cls-1" d="M64.93,60.64c.08,0,.15-.03,.22-.09s.09-.13,.09-.21-.03-.15-.09-.21c-.06-.06-.13-.09-.22-.09h-4.62c-.86,0-1.82,0-2.89,.02-.08,0-.15,.03-.22,.09s-.09,.13-.08,.21c0,.08,.03,.15,.09,.21,.06,.06,.13,.09,.22,.09,1.41-.02,2.56-.03,3.45-.03,0,2.68,0,4.69,.03,6.02,0,.09,.03,.16,.09,.21s.14,.08,.23,.08,.16-.03,.22-.09c.06-.06,.09-.13,.09-.22-.02-1.32-.03-3.33-.03-6.01h3.43Zm-3.53,6.18c-.09,.09-.26,.09-.35,0-.05-.04-.07-.1-.07-.16-.02-1.32-.03-3.35-.03-6.02v-.07h-.07c-.88,0-2.04,0-3.45,.03-.06,0-.12-.02-.17-.07-.05-.05-.07-.1-.07-.17,0-.06,.01-.11,.06-.15,.05-.05,.1-.07,.17-.07,1.06-.02,2.04-.03,2.89-.03l3.17,.02h1.45c.06,0,.12,.01,.17,.06,.05,.05,.07,.1,.07,.16s-.02,.12-.07,.16c-.05,.05-.1,.07-.17,.07h-3.49v.06c0,2.67,0,4.69,.03,6.01,0,.07-.02,.12-.07,.17Z"/><path class="cls-1" d="M86.2,61.68c-.3-.52-.71-.9-1.23-1.13-.26-.12-.51-.21-.74-.26-.23-.06-.46-.1-.69-.12-.23-.02-.56-.03-.96-.03-.46,0-.85,0-1.17,0-.39,0-.9,0-1.54,0-.08,0-.13,.03-.18,.08-.05,.06-.07,.12-.07,.19l.05,6.15c0,.07,.03,.13,.09,.19h0c.06,.06,.13,.1,.21,.11h.75c1.35,0,2.32-.03,2.87-.07,.6-.04,1.1-.14,1.47-.29,.47-.2,.85-.57,1.14-1.12,.29-.55,.44-1.18,.44-1.88s-.15-1.29-.45-1.81Zm-.41,3.46c-.16,.3-.34,.54-.53,.69-.19,.16-.43,.27-.69,.34-.26,.07-.6,.11-1.03,.15-.64,.05-1.57,.07-2.77,.07h-.63l-.04-5.77h.07c.5,0,.92,0,1.23,0,.4,0,.84,0,1.32,0s.87,.03,1.15,.09c.28,.06,.58,.16,.88,.29,.47,.21,.83,.56,1.08,1.05,.21,.44,.32,.94,.32,1.5,0,.59-.12,1.14-.37,1.63Z"/><path class="cls-1" d="M86.31,61.61c-.31-.54-.75-.94-1.29-1.19-.27-.12-.53-.22-.77-.27-.23-.06-.47-.1-.71-.13-.24-.02-.57-.03-.97-.03-.46,0-.85,0-1.17,0-.39,0-.9,0-1.54,0-.12,0-.21,.04-.28,.13-.07,.08-.1,.17-.1,.28l.05,6.15c0,.11,.04,.2,.13,.28,.08,.08,.18,.13,.3,.14h.76c1.36,0,2.33-.02,2.88-.07,.62-.04,1.13-.14,1.51-.3,.5-.21,.9-.61,1.21-1.18,.3-.57,.46-1.23,.46-1.95s-.16-1.33-.47-1.88Zm-.05,3.79c-.3,.56-.69,.95-1.18,1.15-.38,.15-.88,.25-1.49,.3-.56,.05-1.52,.07-2.88,.07h-.76c-.1-.01-.18-.05-.25-.12-.07-.07-.11-.15-.11-.24l-.05-6.15c0-.09,.03-.16,.09-.23,.06-.07,.13-.1,.23-.1,.63,0,1.14,0,1.54,0,.31,0,.7,0,1.17,0,.41,0,.73,.01,.97,.03,.24,.02,.47,.06,.7,.12,.24,.06,.49,.14,.76,.27,.54,.24,.96,.63,1.26,1.16,.31,.53,.46,1.15,.46,1.84s-.15,1.35-.45,1.91Z"/><path class="cls-1" d="M84.73,61.03c-.3-.13-.59-.22-.87-.28-.28-.06-.66-.09-1.14-.09s-.93,0-1.32,0c-.31,0-.72,0-1.23,0l.04,5.64h.56c1.2,0,2.12-.02,2.76-.07,.42-.03,.76-.08,1.01-.14,.25-.06,.48-.17,.66-.32,.19-.15,.36-.37,.51-.67,.24-.48,.36-1.01,.36-1.6,0-.55-.11-1.04-.32-1.47-.24-.47-.58-.81-1.04-1.02Zm.93,4.05c-.15,.29-.31,.5-.49,.65-.18,.14-.39,.25-.64,.31-.25,.06-.59,.11-1,.14-.64,.05-1.57,.07-2.76,.07h-.5l-.04-5.5c.47,0,.87,0,1.17,0,.4,0,.83,0,1.32,0s.85,.03,1.12,.09c.28,.06,.56,.15,.86,.28,.44,.2,.78,.53,1.01,.98,.2,.42,.31,.9,.31,1.44,0,.57-.12,1.1-.36,1.57Z"/><path class="cls-1" d="M84.76,60.97c-.3-.13-.6-.23-.88-.29-.28-.06-.67-.09-1.15-.09s-.93,0-1.32,0c-.32,0-.73,0-1.23,0h-.07l.04,5.77h.63c1.2,0,2.13-.02,2.77-.07,.42-.03,.77-.08,1.03-.15,.26-.07,.5-.18,.69-.34,.19-.16,.37-.39,.53-.69,.25-.49,.37-1.04,.37-1.63,0-.55-.11-1.06-.32-1.5-.24-.49-.6-.84-1.08-1.05Zm.97,4.14c-.15,.3-.32,.52-.51,.67-.19,.15-.41,.26-.66,.32-.26,.06-.59,.11-1.01,.14-.64,.05-1.57,.07-2.76,.07h-.56l-.04-5.64c.51,0,.92,0,1.23,0,.4,0,.84,0,1.32,0s.86,.03,1.14,.09c.28,.06,.57,.15,.87,.28,.46,.2,.81,.54,1.04,1.02,.21,.43,.32,.92,.32,1.47,0,.58-.12,1.12-.36,1.6Z"/><path class="cls-1" d="M86.26,61.64c-.31-.53-.73-.92-1.26-1.16-.27-.12-.52-.21-.76-.27-.23-.06-.46-.1-.7-.12-.24-.02-.56-.03-.97-.03-.47,0-.86,0-1.17,0-.4,0-.91,0-1.54,0-.1,0-.17,.03-.23,.1-.06,.07-.09,.14-.09,.23l.05,6.15c0,.09,.04,.16,.11,.24,.07,.07,.16,.11,.25,.12h.76c1.36,0,2.32-.02,2.88-.07,.61-.04,1.11-.14,1.49-.3,.48-.2,.88-.59,1.18-1.15,.3-.56,.45-1.2,.45-1.91s-.15-1.31-.46-1.84Zm-.05,3.72c-.29,.55-.68,.92-1.14,1.12-.37,.15-.87,.25-1.47,.29-.56,.05-1.52,.07-2.87,.07h-.75c-.08,0-.15-.04-.21-.11h0c-.06-.06-.09-.12-.09-.19l-.05-6.15c0-.07,.02-.13,.07-.19,.04-.05,.1-.08,.18-.08,.64,0,1.15,0,1.54,0,.32,0,.71,0,1.17,0,.4,0,.73,.01,.96,.03,.23,.02,.46,.06,.69,.12,.23,.05,.48,.14,.74,.26,.52,.23,.93,.61,1.23,1.13,.3,.52,.45,1.13,.45,1.81s-.15,1.33-.44,1.88Z"/><path class="cls-1" d="M99.4,66.34s-.1-.07-.17-.07h-5.3v-2.05h1.89c.25,0,.56,0,.94,0,.3,0,.5,0,.6,0,.06,0,.11-.02,.16-.07,.05-.05,.08-.11,.08-.17,0-.06-.02-.11-.07-.16-.05-.04-.11-.07-.18-.07-.1,0-.3,0-.59,0-.38,0-.69,0-.94,0h-1.89v-.07c0-1.29,0-2.32,0-3.05v-.07h.07c.63,0,1.55,0,2.73,0h2.53c.06,0,.12-.03,.17-.08,.05-.05,.07-.1,.07-.16,0-.07-.02-.12-.07-.16-.05-.04-.11-.06-.18-.06h-3.98c-.5,0-1.02,.01-1.55,.02-.08,0-.15,.02-.2,.06-.05,.04-.07,.09-.07,.15v.12c0,1.83,0,3.82,0,5.98,0,.08,0,.14,0,.17,.02,.07,.07,.15,.28,.15s.39,0,.56,0h4.93c.07,0,.13-.02,.18-.07,.05-.05,.07-.1,.07-.16s-.02-.11-.07-.16Z"/><path class="cls-1" d="M99.49,66.75c.07-.07,.11-.16,.11-.26s-.04-.18-.11-.26c-.07-.07-.16-.11-.26-.11h-5.17v-1.77h1.75c.25,0,.56,0,.94,0,.29,0,.49,0,.59,0,.1,0,.19-.04,.26-.11,.07-.07,.11-.16,.12-.26,0-.11-.04-.19-.11-.26-.07-.07-.16-.1-.27-.1h0c-.1,0-.3,0-.6,0-.38,0-.69,0-.94,0h-1.75c0-1.22,0-2.2,0-2.91,.63,0,1.52,0,2.66,0h2.53c.1,0,.19-.05,.26-.12,.07-.07,.11-.16,.11-.26,0-.11-.04-.19-.11-.26-.07-.07-.16-.1-.27-.1h-3.98c-.5,0-1.02,.01-1.55,.02-.11,0-.21,.03-.28,.09-.08,.07-.12,.15-.12,.25v.12c0,1.83,0,3.82,0,5.98,0,.09,0,.15,.01,.2h0c.03,.12,.13,.26,.41,.26,.2,0,.39,0,.56,0h4.93c.11,0,.2-.04,.27-.11Zm-2.88,.04h-2.33c-.17,0-.36,0-.56,0-.19,0-.31-.07-.34-.2,0-.04,0-.1,0-.18,0-2.16,0-4.15,0-5.98v-.12c0-.08,.03-.15,.1-.2,.06-.05,.14-.08,.24-.08,.53,0,1.05,0,1.55,0h3.98c.09,0,.16,.02,.23,.07,.06,.06,.09,.13,.09,.21,0,.08-.03,.15-.09,.21-.06,.06-.13,.09-.22,.09h-2.53c-1.19,0-2.1,.01-2.73,.02,0,.73,0,1.75,0,3.05h1.82c.25,0,.56,0,.94,0,.3,0,.5,0,.59,0,.09,0,.16,.03,.22,.08s.09,.13,.09,.21c0,.08-.04,.15-.1,.21s-.13,.09-.22,.09c-.1,0-.29,0-.59,0-.38,0-.69,0-.94,0h-1.82v1.91h5.23c.08,0,.15,.03,.22,.09,.06,.06,.09,.13,.09,.21s-.03,.15-.09,.21c-.06,.06-.14,.09-.23,.09h-2.6Z"/><path class="cls-1" d="M99.54,66.49c0-.08-.03-.15-.09-.21-.06-.06-.13-.09-.22-.09h-5.23v-1.91h1.82c.25,0,.56,0,.94,0,.3,0,.5,0,.59,0,.08,0,.15-.03,.22-.09s.09-.13,.1-.21c0-.09-.03-.16-.09-.21s-.14-.08-.22-.08c-.1,0-.29,0-.59,0-.38,0-.69,0-.94,0h-1.82c0-1.3,0-2.31,0-3.05,.62,0,1.53,0,2.73,0h2.53c.08,0,.15-.04,.22-.1,.06-.06,.09-.13,.09-.21,0-.09-.03-.16-.09-.21-.06-.06-.14-.08-.23-.08h-3.98c-.5,0-1.02,.01-1.55,.02-.1,0-.18,.03-.24,.08-.06,.05-.1,.12-.1,.2v.12c0,1.83,0,3.82,0,5.98,0,.09,0,.15,0,.18,.04,.14,.15,.2,.34,.2,.2,0,.39,0,.56,0h4.93c.09,0,.16-.03,.23-.09,.06-.06,.09-.13,.09-.21Zm-.32,.24h-4.93c-.17,0-.36,0-.56,0s-.26-.08-.28-.15c0-.03,0-.09,0-.17,0-2.16,0-4.15,0-5.98v-.12c0-.06,.02-.11,.07-.15,.05-.04,.12-.06,.2-.06,.53,0,1.05,0,1.55,0h3.98c.07,0,.13,.01,.18,.06,.05,.04,.07,.1,.07,.16,0,.06-.02,.12-.07,.16-.05,.05-.1,.07-.17,.07h-2.53c-1.18,0-2.1,.01-2.73,.02h-.07v.07c0,.73-.01,1.75-.01,3.05v.07h1.89c.25,0,.56,0,.94,0,.29,0,.49,0,.59,0,.07,0,.13,.02,.18,.07,.05,.04,.07,.1,.07,.16,0,.06-.03,.12-.08,.17-.05,.05-.1,.07-.16,.07-.1,0-.3,0-.6,0-.38,0-.69,0-.94,0h-1.89v2.05h5.3c.07,0,.12,.02,.17,.07,.05,.05,.07,.1,.07,.16s-.02,.12-.07,.16c-.05,.05-.11,.07-.18,.07Z"/><path class="cls-1" d="M112.39,66.34s-.1-.07-.17-.07h-5.3v-2.05h1.89c.25,0,.56,0,.94,0,.3,0,.5,0,.6,0,.06,0,.12-.02,.16-.07,.05-.05,.08-.11,.08-.17,0-.06-.02-.11-.07-.16-.05-.04-.11-.07-.18-.07-.1,0-.3,0-.59,0-.38,0-.69,0-.94,0h-1.89v-.07c0-1.29,0-2.32,0-3.05v-.07h.07c.63,0,1.55,0,2.73,0h2.53c.06,0,.12-.03,.17-.08s.07-.1,.07-.16c0-.07-.02-.12-.07-.16-.05-.04-.11-.07-.18-.07h-3.98c-.5,0-1.02,.01-1.55,.02-.08,0-.15,.02-.2,.06-.05,.04-.07,.09-.07,.15v.12c0,1.83,0,3.82,0,5.98,0,.08,0,.14,0,.17,.02,.07,.07,.15,.28,.15s.39,0,.56,0h4.93c.07,0,.13-.02,.18-.07,.05-.05,.07-.1,.07-.16s-.02-.11-.07-.16Z"/><path class="cls-1" d="M112.49,66.75c.07-.07,.11-.16,.11-.26s-.04-.18-.11-.26c-.07-.07-.16-.11-.26-.11h-5.17v-1.77h1.75c.25,0,.56,0,.94,0,.29,0,.49,0,.59,0,.1,0,.19-.04,.26-.11,.07-.07,.11-.16,.12-.26,0-.11-.04-.19-.11-.26-.07-.07-.16-.1-.27-.1h0c-.1,0-.3,0-.6,0-.38,0-.69,0-.94,0h-1.75c0-1.22,0-2.2,0-2.91,.63,0,1.52,0,2.66,0h2.53c.1,0,.19-.05,.26-.12,.07-.07,.11-.16,.11-.26,0-.11-.04-.19-.11-.26-.07-.07-.16-.1-.27-.1h-3.98c-.5,0-1.02,.01-1.55,.02-.11,0-.21,.03-.28,.09-.08,.07-.12,.15-.12,.25v.12c0,1.83,0,3.82,0,5.98,0,.09,0,.15,.01,.2h0c.03,.12,.13,.26,.41,.26,.2,0,.39,0,.56,0h4.93c.11,0,.2-.04,.27-.11Zm-2.88,.04h-2.32c-.17,0-.36,0-.56,0-.19,0-.31-.07-.34-.2,0-.04,0-.1,0-.18,0-2.16,0-4.15,0-5.98v-.12c0-.08,.03-.15,.1-.2,.06-.05,.14-.08,.24-.08,.53,0,1.05,0,1.55,0h3.98c.09,0,.16,.02,.22,.07,.06,.06,.09,.13,.09,.21,0,.08-.03,.15-.09,.21s-.13,.09-.22,.09h-2.53c-1.19,0-2.1,.01-2.73,.02,0,.73,0,1.75,0,3.05h1.82c.25,0,.56,0,.94,0,.3,0,.5,0,.59,0,.09,0,.16,.03,.23,.08s.09,.13,.09,.21c0,.08-.04,.15-.1,.21s-.13,.09-.22,.09c-.1,0-.29,0-.59,0-.38,0-.69,0-.94,0h-1.82v1.91h5.23c.08,0,.15,.03,.22,.09s.09,.13,.09,.21-.03,.15-.09,.21c-.06,.06-.14,.09-.22,.09h-2.6Z"/><path class="cls-1" d="M112.53,66.49c0-.08-.03-.15-.09-.21s-.13-.09-.22-.09h-5.23v-1.91h1.82c.25,0,.56,0,.94,0,.3,0,.5,0,.59,0,.08,0,.15-.03,.22-.09s.09-.13,.1-.21c0-.09-.03-.16-.09-.21s-.14-.08-.23-.08c-.1,0-.29,0-.59,0-.38,0-.69,0-.94,0h-1.82c0-1.3,0-2.31,0-3.05,.63,0,1.53,0,2.73,0h2.53c.08,0,.15-.04,.22-.1s.09-.13,.09-.21c0-.09-.03-.16-.09-.21-.06-.06-.14-.08-.22-.08h-3.98c-.5,0-1.02,.01-1.55,.02-.1,0-.18,.03-.24,.08-.06,.05-.1,.12-.1,.2v.12c0,1.83,0,3.82,0,5.98,0,.09,0,.15,0,.18,.04,.14,.15,.2,.34,.2,.2,0,.39,0,.56,0h4.93c.09,0,.16-.03,.22-.09,.06-.06,.09-.13,.09-.21Zm-.32,.24h-4.93c-.17,0-.36,0-.56,0s-.26-.08-.28-.15c0-.03,0-.09,0-.17,0-2.16,0-4.15,0-5.98v-.12c0-.06,.02-.11,.07-.15,.05-.04,.12-.06,.2-.06,.53,0,1.05,0,1.55,0h3.98c.07,0,.13,.01,.18,.06,.05,.04,.07,.1,.07,.16,0,.06-.02,.12-.07,.16s-.1,.07-.17,.07h-2.53c-1.18,0-2.1,.01-2.73,.02h-.07v.07c0,.73-.01,1.75-.01,3.05v.07h1.89c.25,0,.56,0,.94,0,.29,0,.49,0,.59,0,.07,0,.13,.02,.18,.07,.05,.04,.07,.1,.07,.16,0,.06-.03,.12-.08,.17-.05,.05-.1,.07-.16,.07-.1,0-.3,0-.6,0-.38,0-.69,0-.94,0h-1.89v2.05h5.3c.06,0,.12,.02,.17,.07,.05,.05,.07,.1,.07,.16s-.02,.12-.07,.16c-.05,.05-.11,.07-.18,.07Z"/><path class="cls-1" d="M126.59,60.11h-4.62c-.85,0-1.82,0-2.89,.02-.07,0-.12,.02-.17,.07-.05,.04-.07,.09-.06,.15,0,.07,.02,.12,.07,.17,.05,.05,.1,.07,.17,.07,1.41-.02,2.57-.03,3.45-.03h.07v.07c0,2.67,0,4.69,.03,6.02,0,.07,.02,.12,.07,.16,.09,.09,.26,.09,.35,0,.04-.05,.07-.1,.07-.17-.02-1.32-.03-3.34-.03-6.01v-.07h3.49c.06,0,.12-.01,.17-.06s.07-.1,.07-.16-.02-.11-.07-.16c-.05-.05-.1-.07-.17-.07Z"/><path class="cls-1" d="M126.86,60.08c-.07-.07-.16-.11-.26-.11h-4.62c-.85,0-1.83,0-2.89,.02-.1,0-.19,.04-.26,.11-.08,.07-.11,.16-.1,.26,0,.1,.04,.19,.11,.26,.07,.07,.16,.11,.27,.11,1.37-.02,2.51-.03,3.38-.03,0,2.64,0,4.64,.03,5.95,0,.11,.04,.19,.11,.26,.07,.07,.16,.1,.27,.1s.2-.04,.27-.11c.07-.07,.11-.16,.11-.27-.02-1.31-.03-3.3-.03-5.94h3.36c.1,0,.19-.03,.26-.1,.07-.07,.11-.16,.11-.26s-.04-.18-.11-.26h0Zm-.05,.47c-.06,.06-.13,.09-.22,.09h-3.43c0,2.67,0,4.68,.03,6,0,.09-.03,.16-.09,.22-.06,.06-.13,.09-.22,.09s-.16-.03-.23-.08-.09-.13-.09-.21c-.02-1.33-.03-3.33-.03-6.02-.89,0-2.04,0-3.45,.03-.08,0-.15-.03-.22-.09-.06-.06-.09-.13-.09-.21,0-.08,.02-.15,.08-.21s.13-.09,.22-.09c1.06-.02,2.03-.03,2.89-.03h1.68l1.48,.02h1.45c.08,0,.15,.02,.22,.08,.06,.06,.09,.13,.09,.21s-.03,.15-.09,.21Z"/><path class="cls-1" d="M126.59,60.04h-4.62c-.86,0-1.82,0-2.89,.02-.08,0-.15,.03-.22,.09s-.09,.13-.08,.21c0,.08,.03,.15,.09,.21,.06,.06,.13,.09,.22,.09,1.41-.02,2.56-.03,3.45-.03,0,2.68,0,4.69,.03,6.02,0,.09,.03,.16,.09,.21s.14,.08,.23,.08,.16-.03,.22-.09c.06-.06,.09-.13,.09-.22-.02-1.32-.03-3.33-.03-6.01h3.43c.08,0,.15-.02,.22-.08s.09-.13,.09-.21-.03-.15-.09-.21c-.06-.06-.13-.09-.22-.09Zm.17,.46s-.1,.07-.17,.07h-3.49v.06c0,2.67,0,4.69,.03,6.01,0,.07-.02,.12-.07,.17-.09,.09-.26,.09-.35,0-.05-.04-.07-.1-.07-.16-.02-1.32-.03-3.35-.03-6.02v-.07h-.07c-.88,0-2.04,0-3.45,.03-.06,0-.12-.02-.17-.07-.05-.05-.07-.1-.07-.17,0-.06,.01-.11,.06-.15,.05-.05,.1-.07,.17-.07,1.06-.02,2.04-.03,2.89-.03l3.17,.02h1.45c.06,0,.12,.01,.17,.06,.05,.05,.07,.1,.07,.16s-.02,.12-.07,.16Z"/><path class="cls-1" d="M138.59,63.39c-.27-.08-.58-.14-.91-.18-.34-.04-.82-.08-1.43-.12h-.07c-.57-.02-1.02-.05-1.33-.09-.31-.03-.58-.09-.82-.16-.28-.08-.5-.2-.63-.34-.14-.15-.21-.34-.21-.57,0-.43,.21-.79,.65-1.06,.43-.27,1.01-.42,1.73-.46,.06,0,.17,0,.3,0,.66,0,1.27,.11,1.82,.32,.56,.21,.96,.5,1.2,.85,.08,.1,.18,.14,.34,.06,.07-.04,.11-.1,.11-.18,0-.04-.01-.08-.03-.1-.28-.42-.74-.75-1.36-1-.62-.25-1.32-.38-2.07-.38-.15,0-.25,0-.32,0-.57,.02-1.08,.12-1.51,.29-.43,.17-.76,.4-1,.68-.23,.28-.35,.61-.35,.96,0,.33,.1,.61,.28,.83,.19,.22,.49,.4,.89,.53,.25,.07,.54,.13,.84,.16,.31,.03,.79,.07,1.44,.11h.07c.62,.04,1.07,.07,1.38,.11,.31,.04,.59,.09,.83,.17,.3,.1,.52,.24,.65,.39,.14,.16,.21,.38,.21,.63,0,.31-.13,.6-.38,.84-.25,.24-.6,.42-1.05,.55-.44,.13-.97,.19-1.56,.19-.56,0-1.09-.06-1.57-.17-.49-.11-.9-.27-1.23-.46-.33-.2-.55-.42-.64-.67-.02-.04-.05-.08-.09-.11-.04-.03-.09-.04-.15-.04-.04,0-.06,0-.07,0-.05,.02-.09,.05-.12,.09-.03,.04-.04,.08-.04,.13,0,.04,0,.06,0,.06,.11,.31,.36,.59,.72,.83,.37,.25,.83,.44,1.38,.58,.55,.14,1.16,.21,1.8,.21,.71,0,1.34-.09,1.86-.26,.52-.17,.93-.41,1.2-.72,.27-.31,.41-.67,.41-1.07,0-.68-.39-1.15-1.19-1.44Z"/><path class="cls-1" d="M138.63,63.26c-.28-.08-.59-.14-.94-.18-.34-.04-.83-.08-1.44-.12h-.07c-.57-.02-1.01-.05-1.32-.09-.3-.03-.57-.09-.79-.16-.26-.08-.45-.18-.57-.3-.12-.12-.17-.28-.17-.48,0-.38,.19-.69,.58-.94,.41-.25,.97-.4,1.67-.44,.06,0,.16,0,.29,0,.64,0,1.24,.1,1.77,.31,.53,.2,.91,.47,1.14,.8,.08,.1,.19,.15,.31,.15,.06,0,.13-.02,.21-.06,.12-.07,.18-.17,.18-.3,0-.08-.02-.14-.06-.19-.29-.43-.77-.79-1.41-1.04-.64-.26-1.36-.39-2.13-.39-.15,0-.26,0-.33,0-.58,.03-1.11,.13-1.55,.3-.45,.18-.8,.42-1.05,.72-.25,.31-.38,.66-.38,1.05,0,.37,.11,.68,.32,.92,.21,.24,.53,.44,.96,.57,.26,.07,.55,.13,.87,.16,.31,.03,.79,.07,1.45,.11h.07c.61,.04,1.06,.07,1.36,.11,.3,.04,.57,.09,.8,.16,.27,.09,.47,.21,.59,.35,.12,.14,.18,.32,.18,.54,0,.28-.11,.52-.34,.74-.23,.22-.57,.4-1,.52-.43,.12-.94,.19-1.52,.19-.55,0-1.07-.06-1.54-.16-.48-.11-.88-.26-1.19-.44-.31-.18-.5-.38-.58-.6-.03-.07-.08-.13-.15-.18-.07-.04-.14-.06-.22-.06-.04,0-.08,0-.11,.01-.08,.03-.14,.08-.18,.14-.05,.06-.07,.14-.07,.21,0,.04,0,.08,.01,.11,.13,.34,.39,.64,.77,.9,.38,.26,.86,.46,1.43,.6,.56,.14,1.18,.21,1.83,.21,.72,0,1.37-.09,1.91-.27,.54-.18,.97-.43,1.26-.76,.3-.33,.45-.72,.45-1.16,0-.74-.43-1.26-1.28-1.57Zm.78,2.69c-.29,.32-.7,.57-1.23,.74-.54,.18-1.16,.26-1.89,.26-.65,0-1.26-.07-1.82-.21-.56-.14-1.03-.33-1.41-.59s-.63-.54-.75-.87c0-.02,0-.05,0-.08,0-.06,.02-.12,.06-.17,.04-.05,.09-.09,.15-.12,.02,0,.05,0,.09,0,.07,0,.13,.02,.19,.05,.05,.03,.09,.08,.12,.14,.08,.23,.29,.45,.61,.64,.32,.19,.73,.34,1.21,.45s1,.17,1.56,.17c.59,0,1.1-.06,1.54-.19,.44-.13,.78-.3,1.02-.54,.24-.23,.36-.49,.36-.79,0-.24-.06-.44-.19-.59-.13-.15-.34-.28-.62-.37-.24-.07-.51-.13-.81-.17s-.76-.07-1.37-.11h-.08c-.65-.04-1.13-.07-1.44-.11s-.6-.09-.86-.16c-.41-.14-.72-.32-.92-.55-.2-.23-.3-.53-.3-.88,0-.38,.12-.71,.36-1.01,.24-.3,.58-.53,1.02-.7s.95-.27,1.53-.3c.07,0,.18,0,.33,0,.77,0,1.47,.13,2.1,.38,.63,.26,1.1,.6,1.38,1.02,.03,.04,.05,.09,.05,.15,0,.1-.05,.18-.14,.24-.06,.03-.12,.05-.17,.05-.1,0-.19-.04-.26-.13-.23-.34-.62-.61-1.17-.82s-1.15-.31-1.8-.31c-.13,0-.23,0-.3,0-.71,.04-1.28,.19-1.7,.45-.42,.26-.62,.6-.62,1,0,.22,.06,.39,.19,.53,.13,.14,.33,.24,.6,.32,.23,.07,.5,.13,.8,.16,.31,.03,.75,.06,1.32,.09h.08c.61,.04,1.09,.08,1.44,.12,.34,.04,.65,.1,.93,.18,.82,.3,1.23,.8,1.23,1.5,0,.42-.14,.8-.43,1.12Z"/><path class="cls-1" d="M138.61,63.33c-.27-.08-.58-.14-.93-.18-.34-.04-.82-.08-1.44-.12h-.08c-.57-.02-1.01-.05-1.32-.09-.31-.03-.57-.09-.8-.16-.27-.08-.48-.19-.6-.32-.13-.14-.19-.31-.19-.53,0-.41,.2-.74,.62-1,.42-.26,.98-.41,1.7-.45,.06,0,.16,0,.3,0,.65,0,1.25,.1,1.8,.31s.94,.48,1.17,.82c.07,.09,.16,.13,.26,.13,.05,0,.11-.02,.17-.05,.1-.06,.14-.14,.14-.24,0-.06-.02-.11-.05-.15-.29-.42-.75-.76-1.38-1.02-.63-.26-1.33-.38-2.1-.38-.15,0-.25,0-.33,0-.58,.02-1.09,.12-1.53,.3s-.78,.41-1.02,.7c-.24,.3-.36,.63-.36,1.01,0,.35,.1,.64,.3,.88,.2,.23,.51,.42,.92,.55,.26,.07,.55,.13,.86,.16s.79,.07,1.44,.11h.08c.61,.04,1.06,.07,1.37,.11s.58,.09,.81,.17c.29,.1,.49,.22,.62,.37,.13,.15,.19,.35,.19,.59,0,.3-.12,.56-.36,.79-.24,.23-.58,.41-1.02,.54-.44,.13-.95,.19-1.54,.19-.55,0-1.07-.06-1.56-.17s-.89-.26-1.21-.45c-.32-.19-.52-.4-.61-.64-.03-.06-.07-.11-.12-.14-.05-.03-.12-.05-.19-.05-.04,0-.07,0-.09,0-.06,.02-.11,.06-.15,.12-.04,.05-.06,.11-.06,.17,0,.04,0,.06,0,.08,.12,.33,.37,.62,.75,.87s.85,.45,1.41,.59c.56,.14,1.17,.21,1.82,.21,.72,0,1.35-.09,1.89-.26,.54-.18,.95-.42,1.23-.74,.29-.32,.43-.69,.43-1.12,0-.71-.41-1.21-1.23-1.5Zm.75,2.58c-.28,.31-.68,.55-1.2,.72-.53,.17-1.15,.26-1.86,.26-.64,0-1.25-.07-1.8-.21-.55-.14-1.02-.33-1.38-.58-.36-.24-.61-.52-.72-.83,0,0,0-.02,0-.06,0-.05,.01-.09,.04-.13,.03-.04,.07-.07,.12-.09,0,0,.02,0,.07,0,.06,0,.11,.01,.15,.04,.04,.03,.07,.06,.09,.11,.09,.25,.3,.47,.64,.67,.33,.19,.74,.35,1.23,.46,.49,.11,1.02,.17,1.57,.17,.59,0,1.12-.06,1.56-.19,.45-.13,.8-.31,1.05-.55,.26-.24,.38-.53,.38-.84,0-.25-.07-.47-.21-.63-.14-.16-.35-.29-.65-.39-.24-.07-.52-.13-.83-.17-.31-.04-.76-.07-1.38-.11h-.07c-.65-.04-1.13-.07-1.44-.11-.31-.03-.59-.09-.84-.16-.4-.13-.7-.31-.89-.53-.19-.22-.28-.5-.28-.83,0-.36,.12-.68,.35-.96,.23-.29,.57-.51,1-.68,.43-.17,.94-.27,1.51-.29,.07,0,.17,0,.32,0,.75,0,1.45,.13,2.07,.38,.62,.25,1.07,.58,1.36,1,.02,.02,.03,.06,.03,.1,0,.08-.03,.14-.11,.18-.16,.08-.26,.04-.34-.06-.24-.35-.64-.63-1.2-.85-.55-.21-1.17-.32-1.82-.32-.13,0-.24,0-.3,0-.72,.04-1.31,.19-1.73,.46-.44,.27-.66,.63-.65,1.06,0,.23,.07,.43,.21,.57,.14,.14,.35,.26,.63,.34,.23,.08,.51,.13,.82,.16,.31,.03,.75,.06,1.33,.09h.07c.61,.04,1.09,.08,1.43,.12,.34,.04,.65,.1,.91,.18,.8,.29,1.19,.76,1.19,1.44,0,.41-.14,.77-.41,1.07Z"/><rect class="cls-1" x="52.74" y="71.24" width=".26" height=".42"/><path class="cls-1" d="M52.6,71.81h.54v-.71h-.54v.71Zm.07-.64h.4v.57h-.4v-.57Z"/><path class="cls-1" d="M53.07,71.17h-.4v.57h.4v-.57Zm-.07,.5h-.26v-.42h.26v.42Z"/><path class="cls-1" d="M14.77,72.21c-.16-.17-.36-.31-.6-.41-.24-.1-.52-.15-.84-.15h-1.34v3.88h1.34c.3,0,.56-.05,.8-.14,.23-.09,.44-.22,.6-.39,.17-.17,.3-.37,.39-.61,.09-.24,.14-.51,.14-.8,0-.27-.04-.52-.12-.76-.08-.23-.2-.44-.36-.61Zm.11,2.05c-.07,.21-.18,.4-.32,.55-.14,.16-.31,.28-.52,.37-.21,.09-.45,.13-.71,.13h-1.07v-3.46h1.07c.26,0,.5,.04,.7,.13,.2,.08,.38,.21,.52,.36,.14,.15,.25,.34,.32,.55,.07,.21,.11,.44,.11,.69s-.04,.47-.11,.68Z"/><path class="cls-1" d="M14.88,72.11c-.17-.19-.39-.34-.65-.45-.26-.11-.56-.16-.9-.16h-1.49v4.16h1.49c.31,0,.6-.05,.85-.15,.25-.1,.47-.24,.65-.42,.18-.18,.32-.4,.42-.66,.1-.25,.15-.54,.15-.85,0-.28-.04-.55-.13-.8-.09-.25-.22-.48-.39-.66Zm.31,2.29c-.09,.25-.23,.46-.4,.63-.17,.18-.38,.31-.63,.41-.24,.1-.52,.14-.82,.14h-1.41v-4.02h1.41c.33,0,.62,.05,.87,.16,.25,.11,.46,.25,.62,.43s.29,.39,.38,.64c.08,.24,.13,.5,.13,.78,0,.31-.05,.58-.14,.83Z"/><path class="cls-1" d="M14.5,72.39c-.13-.15-.3-.26-.5-.34-.2-.08-.42-.12-.67-.12h-1v3.32h1c.26,0,.49-.04,.68-.13s.36-.2,.5-.35c.13-.15,.23-.32,.3-.53s.1-.42,.1-.66-.04-.46-.11-.67c-.07-.2-.17-.38-.31-.52Zm.24,1.83c-.07,.19-.16,.36-.29,.5-.13,.14-.28,.25-.47,.33-.19,.08-.41,.12-.66,.12h-.93v-3.18h.93c.24,0,.46,.04,.65,.12,.19,.08,.34,.19,.47,.32,.13,.14,.23,.31,.29,.5,.07,.19,.1,.41,.1,.64s-.03,.44-.1,.64Z"/><path class="cls-1" d="M14.82,72.16c-.17-.18-.37-.32-.62-.43-.25-.11-.54-.16-.87-.16h-1.41v4.02h1.41c.31,0,.58-.05,.82-.14,.24-.1,.45-.23,.63-.41,.17-.18,.31-.39,.4-.63,.09-.25,.14-.52,.14-.83,0-.28-.04-.54-.13-.78-.08-.24-.21-.46-.38-.64Zm.29,2.22c-.09,.24-.22,.44-.39,.61-.17,.17-.37,.3-.6,.39-.23,.09-.5,.14-.8,.14h-1.34v-3.88h1.34c.32,0,.61,.05,.84,.15,.24,.1,.44,.24,.6,.41,.16,.17,.28,.38,.36,.61,.08,.23,.12,.49,.12,.76,0,.3-.05,.57-.14,.8Z"/><path class="cls-1" d="M14.55,72.34c-.14-.15-.32-.28-.52-.36-.2-.08-.44-.13-.7-.13h-1.07v3.46h1.07c.27,0,.51-.04,.71-.13,.21-.09,.38-.21,.52-.37,.14-.16,.25-.34,.32-.55,.07-.21,.11-.44,.11-.68s-.04-.48-.11-.69c-.07-.21-.18-.4-.32-.55Zm.26,1.9c-.07,.2-.17,.38-.3,.53-.13,.15-.3,.27-.5,.35s-.43,.13-.68,.13h-1v-3.32h1c.25,0,.48,.04,.67,.12,.2,.08,.36,.2,.5,.34,.14,.15,.24,.32,.31,.52,.07,.2,.11,.42,.11,.67s-.03,.46-.1,.66Z"/><path class="cls-1" d="M21.23,75.09v-1.33c0-.34-.1-.62-.31-.81-.2-.19-.49-.29-.85-.29-.34,0-.69,.11-1.06,.34l.07,.13c.15-.1,.3-.17,.45-.23,.17-.06,.34-.1,.51-.1,.29,0,.52,.08,.68,.25s.25,.39,.25,.67v.37l-.1-.04c-.12-.05-.26-.08-.41-.11-.16-.03-.31-.04-.46-.04-.18,0-.35,.02-.5,.06-.15,.04-.28,.1-.38,.17-.1,.07-.19,.16-.24,.26-.06,.1-.08,.21-.08,.32s.02,.23,.07,.33c.05,.1,.11,.19,.2,.27,.09,.08,.19,.14,.3,.18,.11,.04,.24,.07,.38,.07,.24,0,.46-.05,.66-.14,.2-.09,.37-.22,.5-.39l.12-.15,.02,.42c0,.07,.02,.12,.07,.15,.04,.04,.11,.06,.19,.06,.02,0,.05,0,.08,0v-.22c-.09-.03-.15-.1-.15-.22Zm-.26-.37s-.01,.09-.03,.14c-.02,.05-.05,.09-.09,.13-.09,.13-.23,.23-.42,.31-.18,.08-.38,.12-.6,.12-.11,0-.22-.02-.31-.06-.1-.04-.18-.09-.25-.15-.07-.07-.13-.14-.17-.23-.04-.09-.06-.19-.06-.29,0-.21,.1-.38,.3-.51,.19-.12,.43-.18,.73-.18,.15,0,.3,.01,.45,.04,.15,.03,.29,.07,.43,.12l.05,.02v.53Z"/><path class="cls-1" d="M20.05,74.09c-.28,0-.51,.06-.69,.17-.18,.11-.26,.26-.26,.45,0,.09,.02,.18,.06,.25,.04,.08,.09,.15,.15,.21,.06,.06,.14,.1,.23,.14,.09,.03,.19,.05,.29,.05,.21,0,.4-.04,.57-.11,.17-.08,.31-.18,.4-.3,.04-.03,.06-.07,.08-.11s.03-.08,.03-.11v-.48c-.13-.05-.27-.09-.41-.11-.14-.03-.29-.04-.44-.04Zm.78,.63s0,.05-.02,.08c-.01,.03-.04,.06-.07,.1-.08,.11-.21,.21-.37,.28-.16,.07-.35,.11-.54,.11-.09,0-.18-.02-.26-.05-.08-.03-.15-.07-.21-.12-.06-.05-.1-.11-.14-.18-.03-.07-.05-.15-.05-.22,0-.16,.08-.29,.23-.39,.16-.11,.38-.16,.65-.16,.14,0,.29,.01,.42,.04,.12,.02,.24,.05,.36,.09v.43Z"/><path class="cls-1" d="M21.37,75.09v-1.33c0-.38-.12-.69-.35-.91-.23-.22-.55-.33-.95-.33s-.78,.13-1.19,.4l-.06,.04,.21,.38,.06-.04c.16-.11,.33-.19,.48-.25,.16-.06,.31-.09,.46-.09,.25,0,.44,.07,.58,.21,.14,.14,.21,.33,.21,.57v.16c-.1-.03-.22-.06-.35-.08-.36-.06-.73-.06-1.02,.03-.16,.05-.31,.11-.43,.19-.12,.09-.22,.19-.28,.31-.07,.12-.1,.25-.1,.39s.03,.27,.08,.39c.05,.12,.13,.23,.23,.32,.1,.09,.21,.16,.35,.21,.13,.05,.27,.08,.43,.08,.26,0,.5-.05,.72-.15,.17-.07,.31-.17,.44-.3v.06c0,.11,.05,.19,.12,.25,.07,.06,.17,.09,.28,.09,.04,0,.09,0,.16-.02h.06v-.48h-.07c-.05,0-.08-.01-.08-.09Zm.08,.5c-.07,.01-.12,.02-.15,.02-.1,0-.18-.02-.24-.07-.06-.05-.09-.12-.09-.2v-.23c-.15,.18-.33,.31-.54,.41s-.44,.14-.69,.14c-.14,0-.28-.02-.4-.07-.12-.05-.23-.11-.32-.2s-.16-.18-.21-.29c-.05-.11-.08-.23-.08-.36s.03-.25,.09-.36c.06-.11,.15-.2,.26-.28,.11-.08,.25-.14,.4-.18,.16-.04,.33-.07,.52-.07,.16,0,.32,.01,.48,.04s.3,.06,.43,.11v-.27c0-.26-.08-.47-.23-.62s-.36-.23-.63-.23c-.16,0-.32,.03-.48,.09-.16,.06-.33,.15-.5,.26l-.14-.25c.4-.26,.78-.39,1.15-.39s.68,.1,.9,.31c.22,.21,.33,.49,.33,.86v1.33c0,.11,.05,.16,.15,.16v.34Z"/><path class="cls-1" d="M21.3,75.09v-1.33c0-.37-.11-.65-.33-.86-.22-.21-.52-.31-.9-.31s-.76,.13-1.15,.39l.14,.25c.17-.11,.33-.2,.5-.26,.16-.06,.33-.09,.48-.09,.27,0,.48,.08,.63,.23s.23,.36,.23,.62v.27c-.13-.05-.27-.09-.43-.11s-.32-.04-.48-.04c-.19,0-.36,.02-.52,.07-.16,.04-.29,.1-.4,.18-.11,.08-.2,.17-.26,.28-.06,.11-.09,.23-.09,.36s.03,.25,.08,.36c.05,.11,.12,.21,.21,.29s.2,.15,.32,.2c.12,.05,.26,.07,.4,.07,.25,0,.48-.05,.69-.14s.39-.23,.53-.41v.23c.02,.09,.05,.15,.1,.2,.06,.05,.14,.07,.24,.07,.04,0,.09,0,.15-.02v-.34c-.1,0-.15-.05-.15-.16Zm.08,.44s-.06,0-.08,0c-.08,0-.15-.02-.19-.06-.04-.04-.06-.09-.07-.15l-.02-.42-.12,.15c-.13,.17-.3,.3-.5,.39-.2,.09-.43,.14-.66,.14-.14,0-.26-.02-.38-.07-.11-.04-.22-.1-.3-.18-.08-.08-.15-.17-.2-.27-.05-.1-.07-.21-.07-.33s.03-.22,.08-.32c.06-.1,.14-.19,.24-.26,.11-.07,.24-.13,.38-.17,.15-.04,.32-.06,.5-.06,.15,0,.31,.01,.46,.04,.16,.03,.29,.06,.41,.11l.1,.04v-.37c0-.28-.08-.5-.25-.67s-.4-.25-.68-.25c-.16,0-.33,.03-.51,.1-.15,.05-.3,.13-.45,.23l-.07-.13c.36-.22,.72-.34,1.06-.34,.36,0,.65,.1,.85,.29,.2,.19,.31,.47,.31,.81v1.33c0,.12,.05,.2,.15,.22v.22Z"/><path class="cls-1" d="M20.5,74.05c-.15-.03-.3-.04-.45-.04-.29,0-.54,.06-.73,.18-.2,.13-.3,.3-.3,.51,0,.1,.02,.2,.06,.29,.04,.09,.1,.16,.17,.23,.07,.06,.16,.12,.25,.15,.1,.04,.2,.06,.31,.06,.22,0,.42-.04,.6-.12,.19-.08,.33-.19,.42-.31,.04-.04,.07-.08,.09-.13,.02-.05,.03-.09,.03-.14v-.53l-.05-.02c-.14-.05-.28-.09-.43-.12Zm.4,.66s0,.07-.03,.11-.04,.08-.08,.11c-.09,.12-.22,.22-.4,.3-.17,.08-.36,.11-.57,.11-.1,0-.2-.02-.29-.05-.09-.03-.17-.08-.23-.14-.06-.06-.12-.13-.15-.21-.04-.08-.06-.16-.06-.25,0-.18,.09-.33,.26-.45,.18-.11,.4-.17,.69-.17,.15,0,.29,.01,.44,.04,.14,.03,.28,.06,.41,.11v.48Z"/><path class="cls-1" d="M26.3,75.28c-.09,.04-.2,.06-.33,.06-.11,0-.21-.03-.29-.09-.09-.06-.14-.16-.15-.29v-2.08h.7v-.16h-.7v-1h-.26v1h-.42v.16h.42v2.18c0,.08,.02,.16,.05,.22,.03,.06,.07,.11,.12,.15,.05,.04,.11,.07,.18,.09,.14,.04,.31,.04,.45,.01,.07-.01,.14-.03,.19-.05,.06-.02,.11-.04,.15-.05l.04-.02-.06-.17s-.06,.02-.1,.04Z"/><path class="cls-1" d="M26.4,75.08s-.04,.03-.15,.07c-.08,.03-.17,.05-.27,.05-.08,0-.15-.02-.21-.06-.05-.04-.08-.1-.09-.18v-1.93h.7v-.45h-.7v-1h-.54v1h-.42v.45h.42v2.04c0,.11,.02,.2,.06,.28,.04,.08,.09,.15,.16,.2,.07,.05,.14,.09,.23,.12,.08,.02,.17,.04,.27,.04,.09,0,.17,0,.25-.02,.08-.02,.15-.03,.21-.05,.06-.02,.11-.04,.16-.06,.05-.02,.08-.03,.11-.05l.06-.03-.16-.46-.08,.05Zm.04,.42s-.1,.04-.16,.06c-.06,.02-.13,.04-.2,.05-.07,.02-.15,.02-.23,.02s-.17-.01-.25-.03c-.08-.02-.15-.06-.21-.1-.06-.05-.11-.11-.14-.18-.04-.07-.05-.15-.05-.25v-2.11h-.42v-.31h.42v-1h.4v1h.7v.31h-.7v2c0,.11,.05,.19,.12,.24,.07,.05,.16,.08,.25,.08,.11,0,.21-.02,.3-.05,.09-.04,.14-.06,.16-.08l.11,.31s-.06,.03-.1,.05Z"/><path class="cls-1" d="M26.27,75.21c-.09,.04-.19,.05-.3,.05-.09,0-.18-.03-.25-.08-.07-.05-.11-.13-.12-.24v-2h.7v-.31h-.7v-1h-.4v1h-.42v.31h.42v2.11c0,.09,.02,.18,.05,.25,.04,.07,.08,.13,.14,.18,.06,.05,.13,.08,.21,.1,.08,.02,.16,.03,.25,.03s.16,0,.23-.02c.07-.02,.14-.03,.2-.05,.06-.02,.11-.04,.16-.06,.04-.02,.08-.03,.1-.05l-.11-.31s-.08,.04-.16,.08Zm.14,.21s-.09,.04-.15,.05c-.06,.02-.12,.03-.19,.05-.14,.03-.3,.03-.45-.01-.07-.02-.13-.05-.18-.09-.05-.04-.09-.09-.12-.15-.03-.06-.05-.13-.05-.22v-2.18h-.42v-.16h.42v-1h.26v1h.7v.16h-.7v2.08c0,.13,.06,.23,.15,.29,.08,.06,.18,.09,.29,.09,.12,0,.23-.02,.33-.06,.04-.02,.07-.03,.1-.04l.06,.17-.04,.02Z"/><path class="cls-1" d="M32.24,75.09v-1.33c0-.34-.1-.62-.31-.81-.2-.19-.49-.29-.85-.29-.34,0-.69,.11-1.06,.34l.07,.13c.15-.1,.3-.17,.45-.23,.17-.06,.34-.1,.51-.1,.29,0,.52,.08,.68,.25s.25,.39,.25,.67v.37l-.1-.04c-.12-.05-.26-.08-.41-.11-.16-.03-.31-.04-.46-.04-.18,0-.35,.02-.5,.06-.15,.04-.28,.1-.38,.17-.1,.07-.19,.16-.24,.26-.06,.1-.08,.21-.08,.32s.02,.23,.07,.33c.05,.1,.11,.19,.2,.27,.08,.08,.19,.14,.3,.18,.11,.04,.24,.07,.38,.07,.24,0,.46-.05,.66-.14,.2-.09,.37-.22,.5-.39l.12-.15,.02,.42c0,.07,.02,.12,.07,.15,.04,.04,.11,.06,.19,.06,.02,0,.04,0,.08,0v-.22c-.09-.02-.15-.1-.15-.22Zm-.26-.37s-.01,.09-.03,.14c-.02,.05-.05,.09-.09,.13-.09,.13-.23,.23-.42,.31-.18,.08-.38,.12-.6,.12-.11,0-.22-.02-.31-.06-.1-.04-.18-.09-.25-.15-.07-.06-.13-.14-.17-.23-.04-.09-.06-.18-.06-.29,0-.21,.1-.38,.3-.51,.19-.12,.43-.18,.73-.18,.15,0,.3,.01,.45,.04,.15,.03,.29,.07,.43,.12l.05,.02v.53Z"/><path class="cls-1" d="M31.06,74.09c-.28,0-.51,.06-.69,.17s-.26,.26-.26,.45c0,.09,.02,.18,.06,.25,.04,.08,.09,.15,.15,.21s.14,.1,.23,.14c.09,.03,.19,.05,.29,.05,.21,0,.4-.04,.57-.11,.17-.08,.31-.18,.4-.3,.04-.03,.06-.07,.08-.11,.02-.04,.03-.08,.03-.11v-.48c-.13-.05-.27-.09-.41-.11-.14-.03-.29-.04-.44-.04Zm.78,.63s0,.05-.02,.08c-.01,.03-.03,.06-.07,.1-.08,.11-.21,.21-.37,.28-.16,.07-.35,.11-.54,.11-.09,0-.18-.02-.26-.05-.08-.03-.15-.07-.21-.12-.06-.05-.1-.11-.14-.18-.03-.07-.05-.14-.05-.22,0-.16,.08-.29,.23-.39,.16-.11,.38-.16,.65-.16,.14,0,.29,.01,.42,.04,.12,.02,.24,.05,.36,.09v.43Z"/><path class="cls-1" d="M32.38,75.09v-1.33c0-.38-.12-.69-.35-.91-.23-.22-.55-.33-.95-.33s-.78,.13-1.19,.4l-.06,.04,.21,.38,.06-.04c.16-.11,.33-.19,.48-.25,.16-.06,.31-.09,.46-.09,.25,0,.45,.07,.58,.21,.14,.14,.21,.33,.21,.57v.16c-.1-.03-.22-.06-.35-.08-.36-.06-.72-.05-1.02,.03-.16,.05-.31,.11-.43,.19-.12,.08-.22,.19-.29,.31-.07,.12-.1,.25-.1,.39s.03,.27,.08,.39c.05,.12,.13,.23,.23,.32,.1,.09,.21,.16,.35,.21,.13,.05,.27,.08,.43,.08,.26,0,.5-.05,.72-.15,.17-.07,.31-.17,.44-.3v.06c0,.11,.05,.19,.12,.25,.07,.06,.17,.09,.28,.09,.04,0,.1,0,.16-.02h.06v-.48h-.07c-.05,0-.08-.01-.08-.09Zm.08,.5c-.07,.01-.12,.02-.15,.02-.1,0-.18-.02-.24-.07s-.09-.12-.09-.2v-.23c-.15,.18-.33,.31-.54,.41s-.44,.14-.69,.14c-.14,0-.28-.02-.4-.07-.12-.05-.23-.11-.32-.2s-.16-.18-.21-.29c-.05-.11-.08-.23-.08-.36s.03-.25,.09-.36c.06-.11,.15-.2,.26-.28,.11-.08,.25-.14,.4-.18,.16-.04,.33-.07,.52-.07,.16,0,.31,.01,.48,.04s.3,.06,.43,.11v-.27c0-.26-.08-.47-.23-.62s-.36-.23-.63-.23c-.16,0-.32,.03-.48,.09s-.33,.15-.5,.26l-.14-.25c.4-.26,.78-.39,1.15-.39s.68,.1,.9,.31c.22,.21,.33,.49,.33,.86v1.33c0,.11,.05,.16,.15,.16v.34Z"/><path class="cls-1" d="M31.51,74.05c-.15-.03-.3-.04-.45-.04-.29,0-.54,.06-.73,.18-.2,.13-.3,.3-.3,.51,0,.1,.02,.2,.06,.29,.04,.09,.1,.17,.17,.23,.07,.06,.16,.12,.25,.15,.1,.04,.2,.06,.31,.06,.22,0,.42-.04,.6-.12,.18-.08,.33-.19,.42-.31,.04-.04,.07-.09,.09-.13,.02-.05,.03-.1,.03-.14v-.53l-.05-.02c-.14-.05-.28-.09-.43-.12Zm.4,.66s0,.07-.03,.11c-.02,.04-.04,.08-.08,.11-.09,.12-.22,.22-.4,.3-.17,.08-.37,.11-.57,.11-.1,0-.2-.02-.29-.05-.09-.03-.17-.08-.23-.14s-.12-.13-.15-.21c-.04-.08-.06-.16-.06-.25,0-.18,.09-.33,.26-.45s.4-.17,.69-.17c.15,0,.29,.01,.44,.04,.14,.03,.28,.06,.41,.11v.48Z"/><path class="cls-1" d="M32.31,75.09v-1.33c0-.37-.11-.65-.33-.86-.22-.21-.52-.31-.9-.31s-.76,.13-1.15,.39l.14,.25c.17-.11,.33-.2,.5-.26s.32-.09,.48-.09c.27,0,.48,.08,.63,.23s.23,.36,.23,.62v.27c-.13-.05-.27-.09-.43-.11s-.32-.04-.48-.04c-.19,0-.36,.02-.52,.07-.16,.04-.29,.1-.4,.18-.11,.08-.2,.17-.26,.28-.06,.11-.09,.23-.09,.36s.03,.25,.08,.36c.05,.11,.12,.21,.21,.29s.2,.15,.32,.2c.12,.05,.26,.07,.4,.07,.25,0,.48-.05,.69-.14s.39-.23,.53-.41v.23c.02,.09,.05,.15,.1,.2s.14,.07,.24,.07c.04,0,.09,0,.15-.02v-.34c-.1,0-.15-.05-.15-.16Zm.08,.44s-.07,0-.08,0c-.08,0-.15-.02-.19-.06-.04-.04-.06-.09-.07-.15l-.02-.42-.12,.15c-.13,.17-.3,.3-.5,.39-.2,.09-.43,.14-.66,.14-.14,0-.26-.02-.38-.07-.11-.04-.22-.1-.3-.18-.08-.08-.15-.17-.2-.27-.05-.1-.07-.21-.07-.33s.03-.22,.08-.32c.06-.1,.14-.19,.24-.26,.11-.07,.23-.13,.38-.17,.15-.04,.32-.06,.5-.06,.15,0,.31,.01,.46,.04,.16,.03,.3,.06,.41,.11l.1,.04v-.37c0-.28-.08-.5-.25-.67s-.4-.25-.68-.25c-.16,0-.33,.03-.51,.1-.15,.05-.3,.13-.45,.23l-.07-.13c.36-.22,.72-.34,1.06-.34,.36,0,.65,.1,.85,.29,.2,.19,.31,.46,.31,.81v1.33c0,.12,.05,.2,.15,.22v.22Z"/><path class="cls-1" d="M43.48,72.21c-.16-.17-.36-.31-.6-.41-.24-.1-.52-.15-.84-.15h-1.34v3.88h1.34c.3,0,.56-.05,.8-.14,.23-.09,.44-.22,.6-.39,.17-.17,.3-.37,.39-.61,.09-.24,.14-.51,.14-.8,0-.27-.04-.52-.12-.76-.08-.23-.2-.44-.36-.61Zm.11,2.05c-.07,.21-.18,.4-.32,.55-.14,.16-.31,.28-.52,.37-.21,.09-.45,.13-.71,.13h-1.07v-3.46h1.07c.26,0,.5,.04,.7,.13,.2,.08,.38,.21,.52,.36,.14,.15,.25,.34,.32,.55,.07,.21,.11,.44,.11,.69s-.04,.47-.11,.68Z"/><path class="cls-1" d="M43.21,72.39c-.13-.15-.3-.26-.5-.34-.2-.08-.42-.12-.67-.12h-1v3.32h1c.26,0,.49-.04,.68-.13s.36-.2,.5-.35c.13-.15,.23-.32,.3-.53s.1-.42,.1-.66-.04-.46-.11-.67c-.07-.2-.17-.38-.31-.52Zm.24,1.83c-.07,.19-.16,.36-.29,.5-.13,.14-.28,.25-.47,.33-.19,.08-.41,.12-.66,.12h-.93v-3.18h.93c.24,0,.46,.04,.65,.12,.19,.08,.34,.19,.47,.32,.13,.14,.23,.31,.29,.5,.07,.19,.1,.41,.1,.64s-.03,.44-.1,.64Z"/><path class="cls-1" d="M43.59,72.11c-.17-.19-.39-.34-.65-.45-.26-.11-.56-.16-.9-.16h-1.49v4.16h1.49c.31,0,.6-.05,.85-.15,.25-.1,.47-.24,.65-.42,.18-.18,.32-.4,.42-.66,.1-.25,.15-.54,.15-.85,0-.28-.04-.55-.13-.8-.09-.25-.22-.48-.39-.66Zm.31,2.29c-.09,.25-.23,.46-.4,.63-.17,.18-.38,.31-.63,.41-.24,.1-.52,.14-.82,.14h-1.41v-4.02h1.41c.33,0,.62,.05,.87,.16,.25,.11,.46,.25,.62,.43s.29,.39,.38,.64c.08,.24,.13,.5,.13,.78,0,.31-.05,.58-.14,.83Z"/><path class="cls-1" d="M43.26,72.34c-.14-.15-.32-.28-.52-.36-.2-.08-.44-.13-.7-.13h-1.07v3.46h1.07c.27,0,.51-.04,.71-.13,.21-.09,.38-.21,.52-.37,.14-.16,.25-.34,.32-.55,.07-.21,.11-.44,.11-.68s-.04-.48-.11-.69c-.07-.21-.18-.4-.32-.55Zm.26,1.9c-.07,.2-.17,.38-.3,.53-.13,.15-.3,.27-.5,.35s-.43,.13-.68,.13h-1v-3.32h1c.25,0,.48,.04,.67,.12,.2,.08,.36,.2,.5,.34,.14,.15,.24,.32,.31,.52,.07,.2,.11,.42,.11,.67s-.03,.46-.1,.66Z"/><path class="cls-1" d="M43.53,72.16c-.17-.18-.37-.32-.62-.43-.25-.11-.54-.16-.87-.16h-1.41v4.02h1.41c.31,0,.58-.05,.82-.14,.24-.1,.45-.23,.63-.41,.17-.18,.31-.39,.4-.63,.09-.25,.14-.52,.14-.83,0-.28-.04-.54-.13-.78-.08-.24-.21-.46-.38-.64Zm.29,2.22c-.09,.24-.22,.44-.39,.61-.17,.17-.37,.3-.6,.39-.23,.09-.5,.14-.8,.14h-1.34v-3.88h1.34c.32,0,.61,.05,.84,.15,.24,.1,.44,.24,.6,.41,.16,.17,.28,.38,.36,.61,.08,.23,.12,.49,.12,.76,0,.3-.05,.57-.14,.8Z"/><path class="cls-1" d="M48.11,73.38l-.14,.27v-.94h-.23v2.81h.26v-1.79c.09-.25,.24-.45,.45-.6,.19-.13,.42-.21,.67-.22v-.22c-.2,0-.4,.06-.58,.18s-.33,.29-.43,.5Z"/><path class="cls-1" d="M49.12,72.55c-.23,0-.45,.07-.66,.2-.13,.09-.25,.2-.35,.34v-.52h-.52v3.09h.54v-1.89c.08-.22,.21-.39,.39-.51,.19-.13,.41-.2,.67-.2h.07v-.48h-.06s-.05-.02-.09-.02Zm.08,.43c-.27,0-.51,.08-.7,.21s-.34,.32-.42,.56v1.83h-.4v-2.95h.38v.71c.11-.23,.27-.4,.46-.53s.4-.19,.62-.19c.03,0,.06,0,.08,0v.35Z"/><path class="cls-1" d="M48.51,72.82c-.19,.13-.34,.31-.46,.53v-.71h-.38v2.95h.4v-1.83c.08-.24,.22-.42,.42-.56s.43-.21,.7-.21v-.35s-.05,0-.08,0c-.22,0-.42,.06-.62,.19Zm.62,.1c-.25,.02-.48,.09-.67,.22-.21,.14-.36,.34-.45,.6v1.79h-.26v-2.81h.23v.94l.14-.27c.11-.21,.25-.38,.43-.5s.38-.18,.58-.18v.22Z"/><rect class="cls-1" x="52.74" y="72.71" width=".26" height="2.81"/><path class="cls-1" d="M52.6,75.66h.54v-3.09h-.54v3.09Zm.07-3.02h.4v2.95h-.4v-2.95Z"/><path class="cls-1" d="M53.07,72.64h-.4v2.95h.4v-2.95Zm-.07,2.88h-.26v-2.81h.26v2.81Z"/><polygon class="cls-1" points="56.92 72.71 56.66 72.71 57.85 75.52 58.17 75.52 59.35 72.71 59.12 72.71 58.02 75.42 56.92 72.71"/><path class="cls-1" d="M58.02,75.05l-1-2.48h-.57l1.3,3.09h.51l1.3-3.09h-.54l-1.01,2.48Zm1.44-2.4l-1.24,2.95h-.42l-1.24-2.95h.41l1.05,2.59,1.06-2.59h.39Z"/><path class="cls-1" d="M56.97,72.64h-.41l1.24,2.95h.42l1.24-2.95h-.39l-1.06,2.59-1.05-2.59Zm2.16,.07h.23l-1.18,2.81h-.32l-1.18-2.81h.25l1.1,2.71,1.1-2.71Z"/><path class="cls-1" d="M65.2,73.09c-.13-.13-.28-.24-.46-.31-.18-.08-.37-.12-.58-.12s-.4,.04-.58,.12c-.18,.08-.33,.18-.46,.31-.13,.13-.23,.29-.3,.46-.07,.17-.11,.36-.11,.56s.04,.39,.11,.57c.07,.18,.18,.33,.31,.47,.13,.13,.29,.24,.46,.32,.18,.08,.37,.12,.58,.12,.14,0,.28-.02,.41-.05,.13-.03,.25-.08,.36-.15,.11-.06,.2-.14,.28-.22,.06-.06,.11-.13,.15-.2l-.21-.05c-.04,.07-.08,.13-.14,.19-.07,.07-.15,.13-.24,.18-.09,.05-.18,.09-.29,.11-.26,.07-.53,.05-.76-.05-.14-.06-.26-.14-.37-.24-.11-.1-.2-.23-.26-.37-.07-.14-.11-.3-.12-.46v-.08h2.62v-.08c0-.19-.04-.38-.11-.55-.07-.17-.17-.33-.3-.46Zm-2.23,.94v-.08c.02-.16,.06-.32,.12-.45,.06-.14,.15-.26,.26-.36,.11-.1,.23-.18,.37-.24,.28-.11,.62-.11,.9,0,.14,.06,.26,.14,.37,.23,.11,.1,.19,.22,.26,.36,.07,.14,.11,.29,.12,.46v.08h-2.4Z"/><path class="cls-1" d="M65.3,72.99c-.14-.15-.31-.26-.5-.35-.39-.17-.88-.17-1.28,0-.2,.08-.37,.2-.51,.34-.14,.14-.25,.31-.33,.5-.08,.19-.12,.4-.12,.61s.04,.43,.12,.62c.08,.19,.19,.36,.33,.51,.14,.15,.31,.27,.51,.35,.19,.08,.41,.13,.64,.13,.15,0,.3-.02,.45-.06,.14-.04,.27-.09,.39-.16,.12-.07,.22-.15,.32-.24,.09-.09,.16-.2,.21-.32l.03-.08-.49-.13-.02,.06c-.03,.07-.08,.14-.14,.2-.06,.06-.13,.11-.21,.16-.08,.04-.16,.08-.25,.1-.23,.06-.47,.04-.67-.04-.12-.05-.23-.12-.33-.21-.09-.09-.17-.2-.23-.33-.05-.1-.08-.22-.1-.34h2.59v-.05s.02-.05,.02-.08v-.09c0-.21-.04-.42-.12-.6-.08-.19-.19-.36-.33-.5Zm.37,1.2s0,.05,0,.06h-2.62c.01,.16,.05,.3,.11,.44s.15,.25,.25,.35c.1,.1,.22,.17,.35,.23,.13,.05,.27,.08,.42,.08,.1,0,.2-.01,.29-.04,.1-.03,.19-.06,.27-.11,.08-.05,.16-.1,.22-.17,.07-.07,.12-.14,.15-.22l.35,.09c-.05,.11-.11,.21-.2,.3-.09,.09-.19,.17-.3,.23s-.24,.12-.38,.15c-.14,.04-.28,.05-.43,.05-.22,0-.43-.04-.61-.12-.19-.08-.35-.19-.48-.33-.14-.14-.24-.3-.32-.49-.08-.18-.11-.38-.11-.59s.04-.4,.11-.59c.08-.18,.18-.34,.32-.48,.13-.14,.3-.25,.48-.33,.19-.08,.39-.12,.61-.12s.43,.04,.61,.12c.19,.08,.35,.19,.48,.33,.13,.14,.24,.3,.31,.48,.07,.18,.11,.37,.11,.58v.09Z"/><path class="cls-1" d="M64.93,73.19c-.1-.09-.22-.17-.35-.22-.13-.05-.27-.08-.42-.08s-.29,.03-.42,.08-.25,.13-.35,.22-.18,.21-.24,.34c-.06,.13-.1,.28-.11,.43h2.25c-.01-.16-.05-.3-.11-.43s-.15-.24-.25-.34Zm-1.81,.7c.02-.12,.05-.23,.09-.33,.06-.12,.13-.23,.22-.32s.2-.16,.33-.21c.25-.1,.54-.1,.79,0,.12,.05,.23,.12,.32,.21,.09,.09,.17,.19,.23,.32,.05,.1,.08,.21,.1,.33h-2.09Z"/><path class="cls-1" d="M65.24,73.5c-.07-.14-.16-.26-.26-.36-.11-.1-.23-.18-.37-.23-.28-.11-.61-.11-.9,0-.14,.06-.27,.14-.37,.24-.11,.1-.19,.22-.26,.36-.06,.14-.1,.29-.11,.45v.08h2.4v-.08c-.02-.17-.06-.32-.13-.46Zm-2.2,.46c.01-.15,.05-.3,.11-.43,.06-.13,.14-.25,.24-.34s.22-.17,.35-.22,.27-.08,.42-.08,.29,.03,.42,.08c.13,.05,.25,.13,.35,.22,.1,.09,.18,.21,.25,.34s.1,.27,.11,.43h-2.25Z"/><path class="cls-1" d="M65.25,73.04c-.13-.14-.29-.25-.48-.33-.19-.08-.39-.12-.61-.12s-.42,.04-.61,.12c-.19,.08-.35,.19-.48,.33-.14,.14-.24,.3-.32,.48-.08,.18-.11,.38-.11,.59s.04,.41,.11,.59c.08,.19,.18,.35,.32,.49,.14,.14,.3,.25,.48,.33,.19,.08,.39,.12,.61,.12,.15,0,.29-.02,.43-.05,.14-.04,.26-.09,.38-.15s.21-.14,.3-.23c.09-.09,.15-.19,.2-.3l-.35-.09c-.04,.08-.09,.15-.15,.22-.07,.07-.14,.12-.22,.17-.08,.05-.17,.08-.27,.11-.1,.03-.2,.04-.29,.04-.15,0-.29-.03-.42-.08-.13-.05-.25-.13-.35-.23-.1-.1-.18-.21-.25-.35s-.1-.28-.11-.44h2.62s0-.03,0-.06v-.09c0-.2-.04-.4-.11-.58-.07-.18-.18-.34-.31-.48Zm.35,1.14h-2.63v.08c.02,.17,.06,.32,.13,.46,.07,.14,.16,.27,.26,.37,.11,.1,.23,.19,.37,.24,.23,.1,.5,.12,.76,.05,.1-.03,.2-.07,.29-.11,.09-.05,.17-.11,.24-.18,.06-.06,.1-.12,.14-.19l.21,.05c-.04,.07-.09,.14-.15,.2-.08,.08-.18,.16-.28,.22-.11,.06-.23,.11-.36,.15-.13,.03-.27,.05-.41,.05-.21,0-.41-.04-.58-.12-.18-.08-.33-.18-.46-.32-.13-.13-.23-.29-.31-.47-.07-.17-.11-.37-.11-.57s.04-.39,.11-.56c.07-.17,.17-.33,.3-.46,.13-.13,.28-.24,.46-.31,.18-.08,.37-.12,.58-.12s.41,.04,.58,.12c.18,.08,.33,.18,.46,.31,.13,.13,.23,.29,.3,.46,.07,.17,.11,.36,.11,.55v.08Z"/><path class="cls-1" d="M71.53,72.97c-.06-.1-.15-.17-.25-.23-.11-.05-.24-.08-.4-.08-.26,0-.5,.06-.73,.19-.22,.13-.39,.29-.51,.49l-.13,.23v-.86h-.22v2.81h.26v-1.75c.04-.13,.1-.25,.18-.36,.08-.11,.18-.2,.28-.28,.11-.08,.22-.14,.34-.19,.13-.04,.25-.07,.38-.07,.25,0,.43,.09,.56,.27,.12,.17,.17,.44,.17,.8v1.58h.26v-1.66c0-.19-.02-.36-.05-.51-.03-.15-.08-.28-.14-.38Z"/><path class="cls-1" d="M71.65,72.9c-.08-.12-.18-.21-.31-.28-.13-.07-.28-.1-.46-.1-.28,0-.55,.07-.8,.21-.17,.1-.31,.22-.43,.36v-.51h-.51v3.09h.54v-1.87c.03-.11,.09-.21,.16-.3,.07-.1,.16-.18,.25-.25,.09-.07,.2-.13,.31-.17,.11-.04,.22-.06,.33-.06,.2,0,.34,.07,.44,.21,.1,.15,.15,.39,.15,.72v1.72h.54v-1.8c0-.2-.02-.38-.05-.54-.03-.17-.09-.31-.16-.43Zm.14,2.69h-.4v-1.65c0-.35-.05-.61-.16-.76-.11-.16-.27-.24-.5-.24-.12,0-.23,.02-.35,.06-.12,.04-.23,.1-.33,.18-.1,.08-.19,.17-.27,.27-.08,.1-.14,.22-.17,.34v1.81h-.4v-2.95h.36v.67c.13-.22,.3-.39,.54-.52,.23-.13,.49-.2,.76-.2,.17,0,.31,.03,.43,.09s.21,.15,.28,.25c.07,.11,.12,.24,.15,.4,.03,.16,.05,.33,.05,.53v1.73Z"/><path class="cls-1" d="M71.59,72.94c-.07-.11-.16-.19-.28-.25s-.26-.09-.43-.09c-.27,0-.53,.07-.76,.2-.23,.13-.41,.31-.54,.52v-.67h-.36v2.95h.4v-1.81c.04-.12,.09-.23,.17-.34,.08-.1,.17-.19,.27-.27,.1-.08,.21-.13,.33-.18,.12-.04,.23-.06,.35-.06,.22,0,.39,.08,.5,.24,.11,.16,.16,.41,.16,.76v1.65h.4v-1.73c0-.19-.02-.37-.05-.53-.03-.16-.08-.29-.15-.4Zm.13,2.58h-.26v-1.58c0-.37-.06-.63-.17-.8-.12-.18-.31-.27-.56-.27-.12,0-.25,.02-.38,.07-.12,.04-.24,.11-.34,.19-.11,.08-.2,.18-.28,.28-.08,.11-.14,.23-.18,.36v1.75h-.26v-2.81h.22v.86l.13-.23c.12-.2,.29-.37,.51-.49,.22-.13,.47-.19,.73-.19,.16,0,.29,.03,.4,.08,.11,.05,.19,.13,.25,.23,.07,.1,.11,.23,.14,.38,.03,.15,.05,.33,.05,.51v1.66Z"/><path class="cls-1" d="M82.51,73.84c-.12-.08-.27-.15-.44-.2-.18-.06-.38-.11-.59-.15-.2-.04-.38-.08-.52-.13-.15-.04-.28-.09-.38-.15-.1-.06-.18-.14-.23-.23-.05-.09-.08-.2-.08-.33,0-.25,.09-.45,.28-.6,.18-.14,.47-.22,.85-.22,.26,0,.49,.04,.7,.12,.17,.07,.32,.16,.43,.26l.12-.19c-.16-.12-.33-.22-.52-.29-.21-.08-.45-.12-.72-.12-.21,0-.41,.02-.58,.07-.17,.05-.32,.12-.45,.21-.12,.09-.22,.2-.29,.34-.07,.13-.1,.29-.1,.46,0,.15,.03,.28,.08,.38,.05,.1,.13,.19,.23,.26,.11,.07,.24,.14,.4,.19,.16,.05,.35,.1,.57,.15,.21,.05,.39,.09,.55,.14,.16,.05,.3,.1,.41,.17,.12,.07,.2,.15,.26,.24,.06,.1,.09,.21,.09,.35,0,.26-.11,.46-.31,.58-.2,.12-.47,.18-.82,.18-.16,0-.32-.01-.47-.04-.15-.03-.29-.07-.42-.12-.13-.05-.25-.11-.36-.19-.08-.05-.15-.11-.21-.16l-.12,.2c.44,.35,.97,.53,1.58,.53,.21,0,.41-.02,.59-.06,.18-.04,.33-.11,.45-.19,.12-.08,.22-.19,.29-.31,.07-.12,.1-.28,.1-.45s-.03-.31-.09-.42c-.06-.11-.15-.21-.27-.28Z"/><path class="cls-1" d="M82.59,73.72c-.13-.09-.29-.16-.47-.22-.18-.06-.38-.11-.61-.15-.2-.04-.37-.08-.51-.12-.14-.04-.26-.09-.34-.14-.08-.05-.15-.11-.18-.18-.04-.07-.06-.15-.06-.26,0-.21,.07-.37,.23-.49,.15-.12,.41-.19,.76-.19,.24,0,.46,.04,.64,.11,.19,.08,.33,.17,.44,.29l.06,.07,.28-.45-.05-.04c-.18-.15-.39-.27-.61-.35-.22-.08-.48-.13-.77-.13-.22,0-.43,.03-.62,.08-.19,.05-.35,.13-.49,.23-.14,.1-.25,.23-.33,.39-.08,.15-.12,.33-.12,.53,0,.17,.03,.32,.09,.44,.06,.12,.16,.23,.28,.31,.12,.08,.26,.15,.44,.21,.17,.05,.36,.11,.58,.15,.2,.04,.39,.09,.54,.13,.15,.04,.28,.1,.38,.15,.1,.06,.17,.12,.21,.2,.05,.07,.07,.17,.07,.28,0,.21-.08,.36-.25,.46-.17,.11-.42,.16-.74,.16-.15,0-.3-.01-.44-.04-.14-.03-.27-.07-.39-.12-.12-.05-.23-.11-.33-.17-.1-.07-.19-.13-.26-.21l-.06-.06-.29,.45,.05,.04c.48,.4,1.06,.6,1.72,.6,.22,0,.43-.02,.62-.07,.19-.05,.36-.12,.5-.21,.14-.1,.25-.22,.33-.36,.08-.15,.12-.32,.12-.52s-.04-.36-.11-.49c-.07-.13-.18-.24-.31-.33Zm.24,1.3c-.07,.14-.18,.25-.31,.34-.13,.09-.29,.16-.48,.2s-.39,.07-.6,.07c-.65,0-1.2-.19-1.67-.58l.21-.32c.07,.08,.16,.15,.27,.22,.1,.07,.22,.13,.35,.18,.13,.05,.26,.09,.41,.12,.14,.03,.3,.04,.46,.04,.33,0,.59-.06,.78-.17,.19-.11,.28-.29,.28-.52,0-.12-.03-.23-.08-.31-.05-.08-.13-.16-.24-.22-.11-.06-.24-.12-.39-.16-.16-.05-.34-.09-.55-.14-.22-.05-.41-.1-.58-.15s-.3-.12-.42-.2c-.11-.08-.2-.17-.26-.29s-.09-.25-.09-.41c0-.18,.04-.35,.11-.5,.07-.15,.18-.27,.31-.36,.13-.1,.29-.17,.47-.22s.38-.08,.6-.08c.28,0,.53,.04,.74,.12,.22,.08,.41,.2,.59,.34l-.2,.32c-.12-.13-.27-.23-.47-.31-.2-.08-.42-.12-.67-.12-.37,0-.64,.07-.8,.2s-.25,.32-.25,.55c0,.12,.02,.22,.07,.3s.11,.14,.21,.2c.09,.06,.21,.11,.36,.15,.15,.04,.32,.08,.52,.12,.22,.05,.42,.1,.6,.15s.33,.13,.45,.21,.22,.19,.29,.31c.07,.12,.1,.27,.1,.45s-.04,.35-.11,.48Z"/><path class="cls-1" d="M82.55,73.78c-.13-.08-.28-.16-.45-.21s-.38-.11-.6-.15c-.2-.04-.37-.08-.52-.12-.15-.04-.27-.09-.36-.15-.09-.06-.16-.12-.21-.2s-.07-.18-.07-.3c0-.23,.08-.41,.25-.55s.44-.2,.8-.2c.25,0,.47,.04,.67,.12,.2,.08,.35,.18,.47,.31l.2-.32c-.18-.15-.37-.26-.59-.34-.22-.08-.46-.12-.74-.12-.22,0-.42,.03-.6,.08s-.34,.12-.47,.22c-.13,.1-.24,.22-.31,.36-.07,.15-.11,.31-.11,.5,0,.16,.03,.3,.09,.41s.14,.21,.26,.29c.11,.08,.25,.15,.42,.2s.36,.1,.58,.15c.21,.05,.39,.09,.55,.14,.16,.05,.29,.1,.39,.16,.11,.06,.19,.14,.24,.22,.05,.08,.08,.19,.08,.31,0,.23-.09,.41-.28,.52-.19,.12-.44,.17-.78,.17-.16,0-.31-.01-.46-.04-.14-.03-.28-.07-.41-.12-.13-.05-.24-.11-.35-.18-.1-.07-.19-.14-.27-.22l-.21,.32c.47,.39,1.03,.58,1.67,.58,.22,0,.42-.02,.6-.07s.34-.11,.48-.2c.13-.09,.24-.2,.31-.34,.07-.14,.11-.3,.11-.48s-.03-.33-.1-.45c-.07-.12-.16-.22-.29-.31Zm.21,1.21c-.07,.13-.17,.23-.29,.31-.12,.09-.28,.15-.45,.19-.18,.04-.38,.06-.59,.06-.6,0-1.13-.18-1.58-.53l.12-.2c.06,.06,.13,.11,.21,.16,.11,.07,.23,.13,.36,.19,.13,.05,.27,.09,.42,.12,.15,.03,.31,.04,.47,.04,.34,0,.62-.06,.82-.18,.21-.13,.31-.32,.31-.58,0-.14-.03-.26-.09-.35-.06-.09-.15-.18-.26-.24-.11-.07-.25-.12-.41-.17-.16-.05-.34-.09-.55-.14-.22-.05-.41-.1-.57-.15-.16-.05-.29-.11-.4-.19-.1-.07-.18-.16-.23-.26-.05-.1-.08-.23-.08-.38,0-.17,.03-.33,.1-.46,.07-.13,.16-.25,.29-.34,.12-.09,.27-.16,.45-.21,.17-.05,.37-.07,.58-.07,.27,0,.51,.04,.72,.12,.19,.07,.36,.17,.52,.29l-.12,.19c-.11-.11-.26-.19-.43-.26-.2-.08-.44-.12-.7-.12-.38,0-.67,.07-.85,.22-.19,.15-.28,.35-.28,.6,0,.13,.03,.25,.08,.33,.05,.09,.13,.16,.23,.23,.1,.06,.23,.11,.38,.15,.15,.04,.32,.08,.52,.13,.22,.04,.42,.1,.59,.15,.17,.05,.32,.12,.44,.2,.12,.08,.2,.17,.27,.28,.06,.11,.09,.25,.09,.42s-.03,.32-.1,.45Z"/><path class="cls-1" d="M88.85,73.1c-.13-.13-.28-.24-.46-.32-.18-.08-.37-.12-.58-.12s-.4,.04-.58,.12c-.17,.08-.33,.19-.46,.32-.13,.13-.23,.29-.3,.46-.07,.18-.11,.37-.11,.56s.04,.38,.11,.56c.07,.18,.17,.33,.3,.46,.13,.13,.28,.24,.46,.32,.35,.15,.82,.15,1.17,0,.18-.08,.33-.18,.46-.32,.13-.13,.23-.29,.3-.46,.07-.18,.11-.36,.11-.56s-.04-.39-.11-.56c-.07-.18-.17-.33-.3-.46Zm.06,1.51c-.06,.15-.15,.29-.26,.4-.11,.11-.23,.2-.38,.27-.14,.07-.3,.1-.46,.1s-.32-.03-.46-.1c-.14-.06-.27-.15-.38-.27-.11-.11-.19-.25-.25-.39-.06-.15-.09-.31-.09-.49s.03-.34,.09-.49c.06-.15,.15-.29,.25-.4,.11-.12,.23-.21,.37-.27,.28-.13,.63-.13,.92,0,.14,.07,.27,.16,.38,.27,.11,.11,.19,.25,.26,.4,.06,.15,.09,.32,.09,.49s-.03,.34-.09,.49Z"/><path class="cls-1" d="M88.95,73c-.14-.15-.31-.26-.5-.35-.39-.17-.89-.17-1.27,0-.19,.09-.36,.2-.5,.35-.14,.15-.25,.32-.33,.51-.08,.19-.12,.4-.12,.62s.04,.42,.12,.61c.08,.19,.19,.36,.33,.51,.14,.15,.31,.26,.5,.35,.19,.08,.41,.13,.64,.13s.45-.04,.64-.13c.19-.08,.36-.2,.5-.35,.14-.15,.25-.32,.33-.51,.08-.19,.12-.4,.12-.61s-.04-.42-.12-.62c-.08-.19-.19-.36-.33-.51Zm.27,1.71c-.07,.18-.18,.35-.31,.49-.14,.14-.3,.25-.48,.33-.19,.08-.39,.12-.61,.12s-.43-.04-.61-.12c-.18-.08-.34-.19-.48-.33-.14-.14-.24-.3-.31-.49-.07-.18-.11-.38-.11-.58s.04-.4,.11-.59c.08-.18,.18-.35,.32-.49,.14-.14,.29-.25,.48-.33s.39-.12,.6-.12,.42,.04,.61,.12,.35,.19,.48,.33c.14,.14,.24,.3,.32,.49,.08,.19,.11,.38,.11,.59s-.04,.4-.11,.58Z"/><path class="cls-1" d="M88.6,73.28c-.1-.11-.22-.19-.35-.25-.14-.06-.28-.09-.43-.09s-.3,.03-.43,.09-.25,.15-.35,.26c-.1,.11-.18,.24-.24,.38-.06,.15-.09,.3-.09,.47s.03,.32,.09,.46c.06,.14,.14,.27,.24,.37s.22,.19,.35,.25c.14,.06,.28,.09,.43,.09s.3-.03,.43-.09c.13-.06,.25-.15,.35-.25,.1-.11,.18-.23,.24-.38,.06-.14,.09-.3,.09-.46s-.03-.32-.09-.46c-.06-.15-.14-.27-.24-.38Zm.18,1.28c-.06,.13-.13,.25-.23,.36-.09,.1-.21,.18-.33,.24-.25,.12-.55,.11-.8,0-.13-.06-.24-.14-.33-.24-.09-.1-.17-.22-.22-.35-.05-.13-.08-.28-.08-.43s.03-.31,.08-.44c.05-.14,.13-.26,.23-.36,.1-.1,.21-.18,.33-.24,.12-.06,.26-.09,.4-.09s.28,.03,.4,.09c.13,.06,.24,.14,.33,.24,.09,.1,.17,.22,.23,.36,.05,.14,.08,.28,.08,.43s-.03,.3-.08,.44Z"/><path class="cls-1" d="M88.65,73.23c-.11-.11-.23-.2-.38-.27-.29-.13-.64-.13-.92,0-.14,.07-.27,.16-.37,.27-.11,.12-.19,.25-.25,.4-.06,.15-.09,.32-.09,.49s.03,.34,.09,.49c.06,.15,.15,.28,.25,.39,.11,.11,.23,.2,.38,.27,.14,.06,.3,.1,.46,.1s.32-.03,.46-.1c.14-.07,.27-.16,.38-.27,.11-.11,.19-.25,.26-.4,.06-.15,.09-.32,.09-.49s-.03-.33-.09-.49c-.06-.15-.15-.29-.26-.4Zm.19,1.35c-.06,.14-.14,.27-.24,.38-.1,.11-.22,.19-.35,.25-.14,.06-.28,.09-.43,.09s-.3-.03-.43-.09c-.13-.06-.25-.14-.35-.25s-.18-.23-.24-.37c-.06-.14-.09-.3-.09-.46s.03-.32,.09-.47c.06-.15,.14-.27,.24-.38,.1-.11,.22-.2,.35-.26s.28-.09,.43-.09,.3,.03,.43,.09c.13,.06,.25,.15,.35,.25,.1,.11,.18,.23,.24,.38,.06,.15,.09,.3,.09,.46s-.03,.32-.09,.46Z"/><path class="cls-1" d="M88.9,73.05c-.13-.14-.3-.25-.48-.33s-.39-.12-.61-.12-.42,.04-.6,.12-.34,.19-.48,.33c-.13,.14-.24,.3-.32,.49-.08,.19-.11,.38-.11,.59s.04,.4,.11,.58c.07,.18,.18,.35,.31,.49,.13,.14,.29,.25,.48,.33,.18,.08,.39,.12,.61,.12s.43-.04,.61-.12c.19-.08,.35-.19,.48-.33,.13-.14,.24-.3,.31-.49,.07-.18,.11-.38,.11-.58s-.04-.4-.11-.59c-.08-.18-.18-.35-.32-.49Zm.25,1.63c-.07,.18-.17,.33-.3,.46-.13,.13-.28,.24-.46,.32-.35,.15-.82,.15-1.17,0-.17-.08-.33-.18-.46-.32-.13-.13-.23-.29-.3-.46-.07-.18-.11-.36-.11-.56s.04-.39,.11-.56c.07-.18,.17-.33,.3-.46,.13-.13,.28-.24,.46-.32,.17-.08,.37-.12,.58-.12s.4,.04,.58,.12c.18,.08,.33,.19,.46,.32,.13,.13,.23,.29,.3,.46,.07,.17,.11,.36,.11,.56s-.04,.38-.11,.56Z"/><path class="cls-1" d="M93.88,75.33c-.06,.01-.12,.02-.17,.02-.13,0-.24-.04-.31-.11-.08-.08-.11-.18-.11-.31v-3.39h-.26v3.52c0,.16,.04,.28,.14,.37,.09,.09,.22,.13,.39,.13,.07,0,.16,0,.27-.03,.08-.01,.14-.03,.2-.05l-.04-.17s-.06,.02-.1,.02Z"/><path class="cls-1" d="M94,75.15s-.1,.03-.15,.04c-.19,.04-.28,.01-.35-.06-.05-.05-.07-.12-.07-.21v-3.54h-.54v3.67c0,.2,.06,.36,.18,.47,.12,.11,.28,.17,.48,.17,.08,0,.18,0,.29-.03,.11-.02,.21-.05,.29-.08l.06-.02-.1-.45-.08,.03Zm-.18,.45c-.11,.02-.2,.03-.28,.03-.18,0-.33-.05-.43-.15-.11-.1-.16-.24-.16-.42v-3.6h.4v3.47c0,.11,.03,.2,.09,.26,.06,.06,.15,.09,.26,.09,.04,0,.09,0,.15-.02,.06-.01,.11-.03,.16-.05l.07,.31c-.07,.03-.17,.05-.27,.07Z"/><path class="cls-1" d="M93.86,75.26c-.06,.01-.11,.02-.15,.02-.11,0-.2-.03-.26-.09-.06-.06-.09-.15-.09-.26v-3.47h-.4v3.6c0,.18,.05,.32,.16,.42,.11,.1,.25,.15,.43,.15,.08,0,.17,0,.28-.03,.11-.02,.2-.04,.27-.07l-.07-.31c-.05,.02-.11,.03-.16,.05Zm-.05,.27c-.1,.02-.19,.03-.27,.03-.17,0-.29-.04-.39-.13-.09-.09-.14-.21-.14-.37v-3.52h.26v3.39c0,.13,.04,.23,.11,.31,.08,.08,.18,.11,.31,.11,.05,0,.1,0,.17-.02,.03,0,.07-.01,.1-.02l.04,.17c-.06,.02-.13,.04-.2,.05Z"/><path class="cls-1" d="M99.98,75.09v-2.38h-.26v1.81c-.05,.13-.12,.25-.2,.35-.08,.1-.17,.19-.27,.27-.1,.08-.21,.14-.33,.17-.12,.04-.24,.06-.37,.06-.52,0-.78-.36-.78-1.07v-1.59h-.26v1.66c0,.4,.08,.71,.23,.91,.15,.2,.37,.29,.69,.29,.24,0,.48-.06,.7-.18,.22-.12,.39-.29,.52-.51l.13-.23v.61c0,.08,.02,.15,.07,.19,.05,.05,.1,.07,.18,.07h.06s.03,0,.04,0v-.22c-.09-.03-.14-.1-.14-.22Z"/><path class="cls-1" d="M100.12,75.09v-2.52h-.54v1.92c-.04,.11-.1,.21-.17,.3-.07,.09-.15,.17-.25,.24-.09,.07-.19,.12-.29,.15-.11,.04-.21,.05-.32,.05-.43,0-.64-.3-.64-.93v-1.74h-.54v1.8c0,.44,.09,.77,.26,1,.18,.23,.44,.35,.8,.35,.27,0,.53-.07,.77-.2,.17-.09,.32-.22,.44-.37v.11c0,.12,.04,.22,.11,.29,.07,.07,.16,.11,.28,.12h.06s.07,0,.13-.01h.06v-.48h-.07s-.07,0-.07-.09Zm.07,.5s-.09,.01-.11,.01h-.06c-.09,0-.17-.04-.23-.1-.06-.06-.09-.14-.09-.24v-.34c-.13,.23-.31,.41-.54,.54s-.47,.19-.73,.19c-.33,0-.58-.11-.74-.32-.16-.21-.24-.53-.24-.95v-1.73h.4v1.66c0,.67,.24,1,.71,1,.12,0,.23-.02,.35-.06,.11-.04,.22-.09,.31-.16,.1-.07,.18-.16,.26-.25,.08-.1,.14-.21,.18-.33v-1.86h.4v2.45c0,.11,.05,.16,.14,.16v.34Z"/><path class="cls-1" d="M100.05,75.09v-2.45h-.4v1.86c-.05,.12-.11,.24-.18,.33-.08,.1-.16,.18-.26,.25-.1,.07-.2,.13-.31,.16-.11,.04-.23,.06-.35,.06-.47,0-.71-.33-.71-1v-1.66h-.4v1.73c0,.42,.08,.74,.24,.95,.16,.21,.41,.32,.74,.32,.26,0,.5-.06,.73-.19s.41-.3,.54-.54v.34c0,.1,.03,.18,.09,.24,.06,.06,.13,.09,.23,.1h.06s.07,0,.11-.01v-.34c-.09,0-.14-.05-.14-.16Zm.07,.44s-.03,0-.04,0h-.06c-.08,0-.14-.03-.18-.07-.05-.05-.07-.11-.07-.19v-.61l-.13,.23c-.13,.22-.3,.39-.52,.51-.22,.12-.45,.18-.7,.18-.31,0-.54-.1-.69-.29-.15-.2-.23-.51-.23-.91v-1.66h.26v1.59c0,.71,.26,1.07,.78,1.07,.13,0,.25-.02,.37-.06,.12-.04,.23-.1,.33-.17,.1-.08,.19-.17,.27-.27,.08-.1,.15-.22,.2-.35v-1.81h.26v2.38c0,.12,.05,.19,.14,.22v.22Z"/><path class="cls-1" d="M105.11,75.28c-.18,.07-.44,.1-.62-.03-.09-.06-.14-.16-.15-.29v-2.08h.7v-.16h-.7v-1h-.26v1h-.42v.16h.42v2.18c0,.08,.02,.16,.05,.22,.03,.06,.07,.11,.12,.15,.05,.04,.11,.07,.18,.09,.14,.04,.31,.04,.45,.01,.07-.01,.14-.03,.19-.05,.06-.02,.11-.04,.15-.05l.04-.02-.06-.17s-.06,.02-.1,.04Z"/><path class="cls-1" d="M105.21,75.08s-.05,.03-.15,.07c-.08,.03-.17,.05-.27,.05-.08,0-.15-.02-.21-.06-.05-.04-.08-.1-.09-.18v-1.93h.7v-.45h-.7v-1h-.54v1h-.42v.45h.42v2.04c0,.11,.02,.2,.06,.28,.04,.08,.09,.15,.16,.2,.07,.05,.14,.09,.23,.12,.08,.02,.17,.04,.27,.04,.09,0,.17,0,.25-.02,.08-.02,.15-.03,.21-.05,.06-.02,.11-.04,.16-.06,.05-.02,.08-.03,.11-.05l.06-.03-.16-.46-.08,.05Zm.04,.42s-.1,.04-.16,.06c-.06,.02-.13,.04-.2,.05-.07,.02-.15,.02-.23,.02s-.17-.01-.25-.03c-.08-.02-.15-.06-.21-.1-.06-.05-.11-.11-.14-.18-.04-.07-.05-.15-.05-.25v-2.11h-.42v-.31h.42v-1h.4v1h.7v.31h-.7v2c0,.11,.05,.19,.12,.24,.07,.05,.16,.08,.25,.08,.11,0,.21-.02,.3-.05,.09-.04,.14-.06,.16-.08l.11,.31s-.06,.03-.1,.05Z"/><path class="cls-1" d="M105.09,75.21c-.09,.04-.19,.05-.3,.05-.09,0-.18-.03-.25-.08-.07-.05-.11-.13-.12-.24v-2h.7v-.31h-.7v-1h-.4v1h-.42v.31h.42v2.11c0,.09,.02,.18,.05,.25,.04,.07,.08,.13,.14,.18,.06,.05,.13,.08,.21,.1,.08,.02,.16,.03,.25,.03s.16,0,.23-.02c.07-.02,.14-.03,.2-.05,.06-.02,.11-.04,.16-.06,.04-.02,.08-.03,.1-.05l-.11-.31s-.08,.04-.16,.08Zm.14,.21s-.09,.04-.15,.05c-.06,.02-.12,.03-.19,.05-.14,.03-.3,.03-.45-.01-.07-.02-.13-.05-.18-.09-.05-.04-.09-.09-.12-.15-.03-.06-.05-.13-.05-.22v-2.18h-.42v-.16h.42v-1h.26v1h.7v.16h-.7v2.08c0,.13,.06,.23,.15,.29,.18,.13,.44,.1,.62,.03,.04-.02,.07-.03,.1-.04l.06,.17-.04,.02Z"/><rect class="cls-1" x="108.86" y="72.71" width=".26" height="2.81"/><path class="cls-1" d="M108.72,75.66h.54v-3.09h-.54v3.09Zm.07-3.02h.4v2.95h-.4v-2.95Z"/><path class="cls-1" d="M109.19,72.64h-.4v2.95h.4v-2.95Zm-.07,2.88h-.26v-2.81h.26v2.81Z"/><path class="cls-1" d="M115.35,73.1c-.13-.13-.28-.24-.46-.32-.18-.08-.37-.12-.58-.12s-.4,.04-.58,.12c-.17,.08-.33,.19-.46,.32-.13,.13-.23,.29-.3,.46-.07,.18-.11,.37-.11,.56s.04,.38,.11,.56c.07,.18,.17,.33,.3,.46,.13,.13,.28,.24,.46,.32,.35,.15,.82,.15,1.17,0,.18-.08,.33-.18,.46-.32,.13-.13,.23-.29,.3-.46,.07-.18,.11-.36,.11-.56s-.04-.39-.11-.56c-.07-.18-.17-.33-.3-.46Zm.06,1.51c-.06,.15-.15,.29-.26,.4-.11,.11-.23,.2-.38,.27-.14,.07-.3,.1-.46,.1s-.32-.03-.46-.1c-.14-.06-.27-.15-.38-.27-.11-.11-.19-.25-.25-.39-.06-.15-.09-.31-.09-.49s.03-.34,.09-.49c.06-.15,.15-.29,.25-.4,.11-.12,.23-.21,.37-.27,.28-.13,.63-.13,.92,0,.14,.07,.27,.16,.38,.27,.11,.11,.19,.25,.26,.4,.06,.15,.09,.32,.09,.49s-.03,.34-.09,.49Z"/><path class="cls-1" d="M115.45,73c-.14-.15-.31-.26-.5-.35-.39-.17-.89-.17-1.27,0-.19,.09-.36,.2-.5,.35-.14,.15-.25,.32-.33,.51-.08,.19-.12,.4-.12,.62s.04,.42,.12,.61c.08,.19,.19,.36,.33,.51,.14,.15,.31,.26,.5,.35,.19,.08,.41,.13,.64,.13s.45-.04,.64-.13c.19-.08,.36-.2,.5-.35,.14-.15,.25-.32,.33-.51,.08-.19,.12-.4,.12-.61s-.04-.42-.12-.62c-.08-.19-.19-.36-.33-.51Zm.27,1.71c-.07,.18-.18,.35-.31,.49-.14,.14-.3,.25-.48,.33-.19,.08-.39,.12-.61,.12s-.43-.04-.61-.12c-.18-.08-.34-.19-.48-.33-.14-.14-.24-.3-.31-.49-.07-.18-.11-.38-.11-.58s.04-.4,.11-.59c.08-.18,.18-.35,.32-.49,.14-.14,.29-.25,.48-.33s.39-.12,.6-.12,.42,.04,.61,.12,.35,.19,.48,.33c.14,.14,.24,.3,.32,.49,.08,.19,.11,.38,.11,.59s-.04,.4-.11,.58Z"/><path class="cls-1" d="M115.1,73.28c-.1-.11-.22-.19-.35-.25-.14-.06-.28-.09-.43-.09s-.3,.03-.43,.09-.25,.15-.35,.26c-.1,.11-.18,.24-.24,.38-.06,.15-.09,.3-.09,.47s.03,.32,.09,.46c.06,.14,.14,.27,.24,.37s.22,.19,.35,.25c.14,.06,.28,.09,.43,.09s.3-.03,.43-.09c.13-.06,.25-.15,.35-.25,.1-.11,.18-.23,.24-.38,.06-.14,.09-.3,.09-.46s-.03-.32-.09-.46c-.06-.15-.14-.27-.24-.38Zm.18,1.28c-.06,.13-.13,.25-.23,.36-.09,.1-.21,.18-.33,.24-.25,.12-.55,.11-.8,0-.13-.06-.24-.14-.33-.24-.09-.1-.17-.22-.22-.35-.05-.13-.08-.28-.08-.43s.03-.31,.08-.44c.05-.14,.13-.26,.23-.36,.1-.1,.21-.18,.33-.24,.12-.06,.26-.09,.4-.09s.28,.03,.4,.09c.13,.06,.24,.14,.33,.24,.09,.1,.17,.22,.23,.36,.05,.14,.08,.28,.08,.43s-.03,.3-.08,.44Z"/><path class="cls-1" d="M115.15,73.23c-.11-.11-.23-.2-.38-.27-.29-.13-.64-.13-.92,0-.14,.07-.27,.16-.37,.27-.11,.12-.19,.25-.25,.4-.06,.15-.09,.32-.09,.49s.03,.34,.09,.49c.06,.15,.15,.28,.25,.39,.11,.11,.23,.2,.38,.27,.14,.06,.3,.1,.46,.1s.32-.03,.46-.1c.14-.07,.27-.16,.38-.27,.11-.11,.19-.25,.26-.4,.06-.15,.09-.32,.09-.49s-.03-.33-.09-.49c-.06-.15-.15-.29-.26-.4Zm.19,1.35c-.06,.14-.14,.27-.24,.38-.1,.11-.22,.19-.35,.25-.14,.06-.28,.09-.43,.09s-.3-.03-.43-.09c-.13-.06-.25-.14-.35-.25s-.18-.23-.24-.37c-.06-.14-.09-.3-.09-.46s.03-.32,.09-.47c.06-.15,.14-.27,.24-.38,.1-.11,.22-.2,.35-.26s.28-.09,.43-.09,.3,.03,.43,.09c.13,.06,.25,.15,.35,.25,.1,.11,.18,.23,.24,.38,.06,.15,.09,.3,.09,.46s-.03,.32-.09,.46Z"/><path class="cls-1" d="M115.4,73.05c-.13-.14-.3-.25-.48-.33s-.39-.12-.61-.12-.42,.04-.6,.12-.34,.19-.48,.33c-.13,.14-.24,.3-.32,.49-.08,.19-.11,.38-.11,.59s.04,.4,.11,.58c.07,.18,.18,.35,.31,.49,.13,.14,.29,.25,.48,.33,.18,.08,.39,.12,.61,.12s.43-.04,.61-.12c.19-.08,.35-.19,.48-.33,.13-.14,.24-.3,.31-.49,.07-.18,.11-.38,.11-.58s-.04-.4-.11-.59c-.08-.18-.18-.35-.32-.49Zm.25,1.63c-.07,.18-.17,.33-.3,.46-.13,.13-.28,.24-.46,.32-.35,.15-.82,.15-1.17,0-.17-.08-.33-.18-.46-.32-.13-.13-.23-.29-.3-.46-.07-.18-.11-.36-.11-.56s.04-.39,.11-.56c.07-.18,.17-.33,.3-.46,.13-.13,.28-.24,.46-.32,.17-.08,.37-.12,.58-.12s.4,.04,.58,.12c.18,.08,.33,.19,.46,.32,.13,.13,.23,.29,.3,.46,.07,.17,.11,.36,.11,.56s-.04,.38-.11,.56Z"/><path class="cls-1" d="M121.74,72.97c-.06-.1-.15-.18-.25-.23-.11-.05-.24-.08-.4-.08-.26,0-.5,.06-.73,.19-.22,.13-.39,.29-.51,.49l-.13,.23v-.86h-.22v2.81h.26v-1.75c.04-.13,.1-.25,.18-.36,.08-.11,.18-.2,.28-.28,.11-.08,.22-.14,.35-.19,.12-.04,.25-.07,.38-.07,.25,0,.43,.09,.56,.27,.12,.17,.17,.44,.17,.8v1.58h.26v-1.66c0-.19-.02-.36-.05-.51-.03-.15-.08-.28-.14-.38Z"/><path class="cls-1" d="M121.86,72.9c-.08-.12-.18-.21-.31-.28-.13-.07-.28-.1-.46-.1-.28,0-.55,.07-.8,.21-.17,.1-.31,.22-.43,.36v-.51h-.51v3.09h.54v-1.87c.03-.11,.08-.21,.16-.3,.07-.1,.16-.18,.25-.26,.09-.07,.2-.13,.31-.16,.11-.04,.22-.06,.33-.06,.2,0,.34,.07,.44,.21,.1,.15,.15,.39,.15,.72v1.72h.54v-1.8c0-.2-.02-.38-.05-.54-.03-.17-.09-.31-.16-.43Zm.14,2.69h-.4v-1.65c0-.35-.05-.61-.16-.76-.11-.16-.27-.24-.5-.24-.12,0-.23,.02-.35,.06s-.23,.1-.33,.18c-.1,.08-.19,.17-.27,.27-.08,.1-.13,.22-.17,.34v1.81h-.4v-2.95h.36v.67c.13-.22,.3-.39,.54-.52,.23-.13,.49-.2,.76-.2,.17,0,.31,.03,.43,.09,.12,.06,.21,.15,.28,.25,.07,.11,.12,.24,.15,.4,.03,.16,.05,.33,.05,.53v1.73Z"/><path class="cls-1" d="M121.8,72.94c-.07-.11-.16-.19-.28-.25-.12-.06-.26-.09-.43-.09-.27,0-.53,.07-.76,.2-.23,.13-.41,.31-.54,.52v-.67h-.36v2.95h.4v-1.81c.04-.12,.09-.23,.17-.34,.08-.1,.17-.19,.27-.27,.1-.08,.21-.13,.33-.18s.23-.06,.35-.06c.22,0,.39,.08,.5,.24,.11,.16,.16,.41,.16,.76v1.65h.4v-1.73c0-.19-.02-.37-.05-.53-.03-.16-.08-.29-.15-.4Zm.13,2.58h-.26v-1.58c0-.37-.06-.63-.17-.8-.12-.18-.31-.27-.56-.27-.12,0-.25,.02-.38,.07-.12,.04-.24,.11-.35,.19-.1,.08-.2,.17-.28,.28-.08,.11-.14,.23-.18,.36v1.75h-.26v-2.81h.22v.86l.13-.23c.12-.2,.29-.37,.51-.49,.22-.13,.47-.19,.73-.19,.16,0,.29,.03,.4,.08,.11,.05,.19,.13,.25,.23,.07,.1,.11,.23,.14,.38,.03,.15,.05,.32,.05,.51v1.66Z"/><path class="cls-1" d="M127.66,74.29c-.09-.06-.21-.11-.36-.15-.15-.05-.32-.09-.51-.13-.14-.03-.26-.06-.35-.09-.1-.03-.18-.06-.25-.1-.07-.04-.13-.09-.16-.15-.03-.06-.05-.14-.05-.23,0-.11,.02-.2,.07-.28,.05-.08,.11-.15,.18-.2,.08-.05,.16-.09,.26-.11,.26-.06,.57-.04,.84,.06,.15,.05,.27,.12,.38,.22l.1-.12c-.1-.09-.23-.17-.39-.23-.18-.07-.39-.11-.61-.11-.15,0-.29,.02-.42,.05-.13,.04-.25,.09-.34,.16-.09,.07-.17,.15-.23,.26-.05,.1-.08,.22-.08,.36,0,.1,.02,.19,.05,.26,.03,.07,.09,.12,.16,.17,.08,.05,.18,.09,.3,.13,.13,.04,.28,.08,.45,.12,.15,.03,.29,.07,.4,.1,.12,.03,.22,.07,.3,.12,.09,.05,.15,.1,.2,.17,.05,.07,.07,.15,.07,.25,0,.2-.08,.36-.25,.47-.16,.1-.37,.16-.63,.16-.21,0-.41-.04-.6-.11-.16-.06-.33-.15-.48-.27l-.1,.15c.15,.12,.32,.21,.51,.27,.22,.07,.45,.11,.68,.11,.35,0,.63-.08,.83-.22,.2-.15,.29-.34,.29-.59,0-.11-.02-.21-.07-.28-.04-.08-.11-.14-.2-.2Z"/><path class="cls-1" d="M127.73,74.17c-.1-.06-.24-.12-.39-.17-.15-.05-.33-.09-.52-.14-.13-.03-.25-.06-.34-.09-.09-.03-.17-.06-.22-.09-.05-.03-.09-.06-.11-.1-.02-.04-.03-.09-.03-.16,0-.08,.02-.15,.05-.21,.03-.06,.08-.11,.14-.15,.06-.04,.13-.07,.21-.09,.23-.05,.52-.03,.76,.05,.15,.05,.28,.13,.39,.24l.05,.05,.29-.33-.05-.05c-.12-.13-.29-.23-.49-.31-.2-.08-.42-.12-.67-.12-.16,0-.32,.02-.46,.06-.15,.04-.28,.1-.39,.18-.11,.08-.2,.18-.27,.3-.07,.12-.1,.27-.1,.42,0,.13,.02,.24,.07,.32,.05,.09,.12,.16,.21,.22,.09,.06,.2,.11,.34,.15,.13,.04,.29,.08,.46,.13,.15,.03,.28,.07,.4,.1,.11,.03,.2,.07,.27,.1,.07,.04,.12,.08,.15,.12,.03,.04,.05,.1,.05,.17,0,.15-.06,.27-.19,.35-.13,.09-.32,.13-.55,.13-.19,0-.38-.03-.55-.1-.17-.07-.34-.16-.51-.3l-.06-.05-.26,.37,.05,.04c.17,.15,.38,.26,.61,.34,.23,.08,.48,.12,.72,.12,.38,0,.68-.08,.91-.25,.23-.17,.35-.41,.35-.7,0-.14-.03-.26-.09-.35-.06-.1-.14-.18-.25-.25Zm-.06,1.24c-.21,.16-.5,.24-.87,.24-.24,0-.47-.04-.7-.11s-.42-.18-.59-.33l.18-.26c.17,.14,.35,.24,.53,.31s.37,.1,.57,.1c.25,0,.44-.05,.59-.14,.15-.1,.22-.23,.22-.41,0-.08-.02-.15-.06-.21s-.1-.1-.17-.14c-.08-.04-.17-.08-.29-.11-.12-.03-.25-.07-.4-.1-.18-.04-.33-.08-.46-.12s-.24-.09-.32-.14-.15-.12-.19-.2c-.04-.08-.06-.17-.06-.29,0-.15,.03-.28,.09-.39,.06-.11,.14-.21,.25-.28,.1-.07,.22-.13,.36-.17,.14-.04,.29-.06,.44-.06,.23,0,.45,.04,.64,.11,.19,.07,.35,.17,.46,.29l-.19,.23c-.11-.11-.25-.2-.41-.25-.16-.06-.33-.09-.51-.09-.11,0-.2,.01-.29,.03-.09,.02-.17,.05-.24,.1-.07,.05-.12,.1-.16,.17-.04,.07-.06,.15-.06,.25,0,.08,.01,.14,.04,.19,.03,.05,.07,.09,.13,.13,.06,.04,.14,.07,.24,.1,.1,.03,.21,.06,.35,.09,.2,.05,.37,.09,.52,.14s.27,.1,.37,.16c.1,.06,.18,.13,.23,.22,.05,.09,.08,.19,.08,.32,0,.27-.11,.49-.32,.65Z"/><path class="cls-1" d="M127.7,74.23c-.1-.06-.22-.11-.37-.16s-.32-.09-.52-.14c-.14-.03-.25-.06-.35-.09-.1-.03-.17-.06-.24-.1-.06-.04-.11-.08-.13-.13-.03-.05-.04-.11-.04-.19,0-.09,.02-.18,.06-.25,.04-.07,.09-.13,.16-.17,.07-.05,.15-.08,.24-.1,.09-.02,.19-.03,.29-.03,.18,0,.35,.03,.51,.09,.16,.06,.3,.14,.41,.25l.19-.23c-.12-.12-.27-.22-.46-.29-.19-.07-.4-.11-.64-.11-.16,0-.3,.02-.44,.06-.14,.04-.26,.09-.36,.17-.1,.07-.19,.17-.25,.28-.06,.11-.09,.24-.09,.39,0,.12,.02,.21,.06,.29,.04,.08,.1,.14,.19,.2s.19,.1,.32,.14,.28,.08,.46,.12c.15,.03,.29,.07,.4,.1,.12,.03,.21,.07,.29,.11,.08,.04,.13,.09,.17,.14s.06,.12,.06,.21c0,.18-.07,.31-.22,.41-.15,.1-.34,.14-.59,.14-.2,0-.39-.03-.57-.1s-.35-.17-.53-.31l-.18,.26c.16,.14,.36,.25,.59,.33s.46,.11,.7,.11c.36,0,.65-.08,.87-.24,.22-.16,.32-.37,.32-.65,0-.12-.03-.23-.08-.32-.05-.09-.13-.16-.23-.22Zm-.06,1.13c-.2,.15-.48,.22-.83,.22-.23,0-.46-.04-.68-.11-.19-.06-.37-.16-.51-.27l.1-.15c.16,.12,.32,.21,.48,.27,.19,.07,.39,.11,.6,.11,.26,0,.47-.05,.63-.16,.17-.11,.25-.27,.25-.47,0-.1-.02-.18-.07-.25-.04-.06-.11-.12-.2-.17-.08-.04-.18-.08-.3-.12-.12-.03-.25-.07-.4-.1-.17-.04-.33-.08-.45-.12-.12-.04-.22-.08-.3-.13-.07-.05-.13-.1-.16-.17-.04-.07-.05-.15-.05-.26,0-.13,.03-.26,.08-.36,.06-.1,.13-.19,.23-.26,.1-.07,.21-.12,.34-.16,.13-.04,.27-.05,.42-.05,.22,0,.43,.04,.61,.11,.16,.06,.29,.14,.39,.23l-.1,.12c-.11-.1-.24-.17-.38-.22-.27-.09-.58-.11-.84-.06-.1,.02-.19,.06-.26,.11-.08,.05-.14,.12-.18,.2-.04,.08-.07,.17-.07,.28,0,.09,.02,.17,.05,.23,.03,.06,.09,.11,.16,.15,.07,.04,.15,.07,.25,.1,.1,.03,.22,.06,.35,.09,.19,.04,.36,.09,.51,.13,.14,.04,.26,.09,.36,.15,.09,.05,.16,.12,.2,.2,.04,.08,.07,.17,.07,.28,0,.25-.1,.44-.29,.59Z"/></g></g></svg>