<?xml version="1.0" encoding="UTF-8"?><svg id="Layer_2" xmlns="http://www.w3.org/2000/svg" viewBox="0 0 96.03 102.35"><defs><style>.cls-1{fill:#2d2a26;}</style></defs><g id="Capa_1"><g><path class="cls-1" d="M52.65,44.39c-.08-.33-.17-.66-.23-1-.03-.16-.09-.24-.27-.26-1.25-.15-2.5-.31-3.75-.46-.73-.08-.73-.07-1.16-.67-.18-.25-.36-.49-.54-.74-.08-.11-.16-.18-.31-.18-1.4,0-2.8,.01-4.2,.02-.05,0-.1,.02-.16,.04l-.24,1.73h-.06c-.75-4.64-1.49-9.29-2.25-13.99l-4.96,1.14c.03,.28,.06,.55,.09,.81,.32,2.37,.64,4.74,.96,7.11,.34,2.56,.68,5.12,1.02,7.68,.26,1.98,.53,3.96,.8,5.93,.03,.22-.03,.35-.19,.49-.93,.85-1.84,1.72-2.77,2.57-.18,.17-.23,.32-.19,.56,.3,1.82,.6,3.64,.88,5.46,.04,.26,.13,.42,.39,.54,1.02,.46,2.02,.95,3.03,1.44,.12,.06,.26,.13,.33,.24,.48,.74,1.18,1.01,2.02,1,.73,0,1.45,.09,2.15,.28,1.24,.35,1.87,1.11,2.02,2.39,.1,.86,.05,1.72-.03,2.64-.14,0-.28,0-.41,0-2.4-.13-4.7-.69-6.87-1.72-2.57-1.22-4.74-2.96-6.64-5.06-1.98-2.19-3.56-4.64-4.91-7.25-.82-1.58-1.54-3.21-2.19-4.87-.5-1.3-1.34-2.36-2.36-3.29-.41-.38-.86-.71-1.29-1.07-.07-.06-.15-.12-.27-.22,.55-.09,1.04-.02,1.52,.09,1.02,.24,1.99,.62,2.91,1.12l.37,.2c-.07-.52-.14-.97-.19-1.42-.38-3.77,.31-7.29,2.39-10.5,.33-.51,.71-.99,1.2-1.38,.16-.12,.31-.26,.59-.19-.63,1.43-.91,2.93-.96,4.48,.06-.13,.13-.26,.18-.4,1.31-3.06,2.83-6,4.68-8.77,1.85-2.76,3.97-5.29,6.46-7.5,.24-.22,.48-.45,.81-.58,.1,.17,.01,.31-.03,.45-.14,.43-.3,.86-.43,1.3-.05,.17-.04,.36-.06,.55l.08,.04c.12-.08,.25-.15,.35-.25,.1-.09,.18-.21,.26-.33,.77-1.16,1.54-2.33,2.32-3.5,1.59-2.38,2.57-4.98,2.98-7.81,.4-2.74,.22-5.45-.47-8.13-.02-.08-.04-.17-.06-.26,.18-.16,.34-.07,.5,0,1.02,.41,1.96,.97,2.83,1.64,1.6,1.24,2.85,2.79,3.87,4.53,1.27,2.15,2.13,4.47,2.76,6.88,.63,2.39,.98,4.83,1.17,7.3,.2,2.71,.48,5.42,1.14,8.07,.2,.79,.46,1.56,.76,2.31,.18,.44,.44,.87,.74,1.23,.65,.8,1.55,.85,2.29,.12,.29-.28,.52-.63,.7-.99,.44-.84,.67-1.76,.84-2.68,.25-1.38,.45-2.76,.7-4.14,.1-.56,.23-1.12,.38-1.67,.06-.22,.17-.43,.28-.62,.09-.16,.23-.31,.47-.29,.15,.2,.15,.42,.15,.65,.02,.71,.03,1.42,.06,2.14,.11,2.14,.47,4.24,.97,6.33,.25,1.04,.54,2.07,.82,3.1,.05,.19,.14,.38,.23,.56,.07,.15,.18,.28,.39,.3,1.76-1.92,3.84-3.34,6.39-4.01l.09,.09c-.07,.11-.15,.21-.22,.32-.79,1.09-1.6,2.17-2.36,3.28-.89,1.31-1.57,2.73-1.96,4.28-.33,1.32-.45,2.66-.37,4.01,.13,2.17-.34,4.19-1.37,6.1-.36,.66-.75,1.3-1.1,1.96-.15,.28-.25,.58-.36,.88-.02,.07-.02,.14-.02,.22,.19,.06,.28-.07,.38-.16,.29-.25,.56-.52,.84-.78,.18-.16,.38-.29,.63-.49,.03,.17,.07,.26,.06,.34-.32,2.77-1.3,5.27-3.16,7.39-.76,.86-1.59,1.65-2.46,2.39-.1,.09-.2,.18-.29,.34,.13-.01,.26-.02,.39-.04,.49-.07,.98-.16,1.47-.23,.13-.02,.27,0,.43,0-.04,.21-.2,.27-.31,.36-1.8,1.44-3.79,2.55-5.94,3.39-2.1,.81-4.26,1.36-6.49,1.63-1.02,.12-2.05,.19-3.08,.27-.19,.02-.38,0-.58,0-.02-.08-.05-.15-.05-.23-.06-.9-.11-1.8,.03-2.7,.17-1.05,.75-1.76,1.78-2.08,.77-.24,1.56-.35,2.37-.33,1.2,.03,2.15-.75,2.3-1.88,.3-2.18,.68-4.35,1.02-6.52,.37-2.34,.73-4.67,1.1-7.01,.37-2.35,.75-4.7,1.12-7.04,.25-1.59,.5-3.19,.75-4.79,0-.05,0-.1,0-.19l-4.17-.89c-.4,2.97-.8,5.91-1.19,8.85h-.08Z"/><path class="cls-1" d="M79.19,94.54v-19.69c.1,0,.2-.02,.3-.02,2.76,0,5.52,0,8.28,0,.74,0,1.47,.11,2.18,.34,1.47,.49,2.4,1.49,2.77,2.99,.33,1.35,.31,2.7-.08,4.03-.39,1.34-1.26,2.21-2.65,2.51-.08,.02-.17,.05-.31,.09,.27,.06,.48,.09,.68,.15,1.28,.38,2.04,1.24,2.28,2.55,.14,.78,.15,1.57,.15,2.36,0,.74-.01,1.48,.01,2.21,.01,.44,.08,.89,.14,1.33,.04,.34,.22,.62,.51,.82,.13,.09,.23,.17,.14,.36-.08,0-.18,.03-.28,.03-1.76,0-3.51,0-5.27,0-.34,0-.38,0-.46-.33-.1-.39-.18-.8-.21-1.2-.05-.67-.05-1.35-.07-2.02-.03-.88-.05-1.75-.08-2.63,0-.23-.04-.46-.1-.68-.14-.56-.47-.84-1.04-.91-.2-.02-.41-.02-.61-.02-.24,0-.48,0-.76,0v7.71c-.31,.09-5.12,.1-5.53,.02Zm5.53-11.42c.41,0,.79,.04,1.16,0,.68-.08,1.13-.49,1.34-1.15,.21-.66,.22-1.33,.06-2-.1-.43-.34-.77-.76-.95-.58-.26-1.18-.22-1.8-.21v4.31Z"/><path class="cls-1" d="M30.85,84.75c-.03,1.16-.04,2.31-.08,3.45-.04,.98-.15,1.95-.41,2.9-.52,1.94-1.78,3.12-3.72,3.58-1.32,.31-2.67,.36-4.02,.27-.8-.05-1.59-.17-2.36-.42-1.55-.5-2.58-1.52-3.09-3.07-.32-.98-.46-1.98-.51-3-.12-2.48-.12-4.96,0-7.44,.05-.93,.17-1.85,.43-2.74,.54-1.88,1.76-3.06,3.65-3.51,1.95-.47,3.91-.47,5.86-.02,2.03,.47,3.28,1.74,3.79,3.76,.23,.92,.34,1.85,.38,2.79,.04,1.16,.06,2.31,.08,3.45Zm-8.58-.05h.03c0,.42-.01,.84,0,1.26,.04,1.19,.08,2.39,.16,3.58,.03,.4,.14,.8,.27,1.18,.13,.4,.46,.59,.88,.6,.61,.02,.93-.18,1.12-.76,.07-.2,.13-.42,.15-.63,.07-.58,.14-1.16,.16-1.75,.04-1.69,.07-3.38,.06-5.07,0-1.04-.07-2.08-.14-3.12-.03-.41-.14-.82-.25-1.23-.08-.27-.25-.52-.54-.6-.8-.22-1.3,.02-1.5,.68-.05,.18-.12,.37-.14,.55-.06,.49-.13,.98-.15,1.48-.05,1.27-.07,2.54-.1,3.81Z"/><path class="cls-1" d="M32.3,74.84h5.53v.5c0,4.55,0,9.11,0,13.66,0,.46,.03,.92,.12,1.36,.16,.83,.96,1.2,1.73,.84,.22-.1,.38-.27,.46-.49,.08-.26,.16-.54,.18-.81,.04-.46,.05-.91,.05-1.37,0-4.39,0-8.78,0-13.17v-.51h5.5c.01,.09,.03,.19,.03,.28,0,4.41,0,8.83,0,13.24,0,.91-.13,1.8-.38,2.67-.55,1.91-1.8,3.14-3.72,3.61-1.95,.48-3.91,.44-5.85-.05-1.8-.46-2.88-1.64-3.33-3.42-.24-.94-.33-1.9-.33-2.87,0-4.38,0-8.75,0-13.13v-.35Z"/><path class="cls-1" d="M61.25,81.12h-5.16c0-.14-.01-.28-.02-.41-.02-.46-.05-.91-.08-1.37,0-.11-.04-.22-.08-.33-.2-.63-.58-.91-1.25-.91-.65,0-1.08,.28-1.24,.91-.11,.43-.17,.88-.17,1.32-.01,2.84-.01,5.68,0,8.51,0,.52,.03,1.04,.21,1.54,.16,.48,.46,.82,.98,.91,.79,.15,1.41-.23,1.64-1,.04-.12,.06-.25,.08-.37,.08-.41,.09-1.96,.02-2.44h-1.45c-.08-.31-.11-2.97-.04-3.6,.27-.08,6.34-.09,6.75-.01v10.66c-.29,.08-3.37,.09-3.84,.02l-.16-1.56c-.09,.12-.13,.16-.16,.21-.58,.97-1.46,1.51-2.56,1.68-1.03,.16-2.06,.15-3.07-.08-1.54-.35-2.6-1.27-3.23-2.71-.38-.87-.59-1.79-.69-2.73-.29-2.8-.26-5.62-.07-8.42,.07-.95,.25-1.89,.57-2.79,.64-1.81,1.89-2.96,3.75-3.41,1.83-.45,3.66-.43,5.48,.04,2.07,.53,3.24,1.92,3.61,3.99,.12,.67,.13,1.36,.19,2.05,0,.1-.02,.2-.03,.31Z"/><path class="cls-1" d="M15.4,82.12h-5.32c0-.15-.02-.28-.02-.42-.02-.71-.01-1.42-.06-2.13-.02-.3-.11-.6-.21-.88-.14-.37-.43-.58-.85-.59-.46,0-.89,.09-1.08,.56-.15,.37-.26,.78-.29,1.17-.08,.9-.13,1.8-.13,2.7,0,1.89,.01,3.79,.05,5.68,.01,.6,.09,1.19,.16,1.78,.02,.2,.08,.4,.15,.59,.19,.51,.5,.72,1.05,.73,.5,.01,.81-.2,1.01-.71,.23-.58,.27-1.19,.29-1.8,.02-.65,.01-1.3,.02-1.95,0-.12,0-.25,0-.4h5.33s.04,.07,.04,.1c.02,1.27,.04,2.54-.25,3.8-.05,.24-.11,.47-.18,.7-.67,2.12-2.14,3.35-4.3,3.74-1.67,.31-3.35,.24-5-.16-2.12-.52-3.3-1.93-3.73-4.03-.25-1.24-.32-2.5-.33-3.76,0-1.67,0-3.33,.02-5,.01-1.08,.12-2.16,.37-3.21,.49-2.13,1.79-3.47,3.94-3.93,1.96-.42,3.91-.42,5.86,.11,.69,.19,1.33,.51,1.87,.99,.74,.64,1.17,1.46,1.4,2.4,.23,.93,.34,2.88,.21,3.91Z"/><path class="cls-1" d="M78.29,94.58h-5.71l-.61-2.99h-3.69l-.55,2.95c-.28,.08-5.24,.1-5.71,.02l4.66-19.7h6.97c1.54,6.56,3.09,13.13,4.64,19.73Zm-4.58-11.35c-.35,.05-.57,.28-.83,.48-.22-.55-.26-1.1-.36-1.65-.06,.11-.09,.23-.11,.35-.06,.26-.1,.52-.19,.78-.03,.09-.15,.2-.24,.2-.08,0-.2-.1-.25-.19-.08-.16-.13-.33-.16-.51-.06-.4-.1-.81-.15-1.21-.09-.78-.33-1.49-.88-2.07-.14-.14-.28-.29-.55-.32,.21,1-.01,1.86-.68,2.6l-.09-.15c-.65,.57-1.08,1.29-1.5,2.03v-.34c-.43,.51-.5,1.06-.43,1.68l-.5-.13c.3,.31,.41,.7,.59,1.06,.2,.38,.43,.75,.69,1.09,.32,.42,.75,.74,1.28,.86,1.08,.25,2.09,.1,3.04-.53l-.1-.13c.12-.13,.25-.25,.34-.4,.12-.2,.22-.42,.3-.65,.02-.07-.06-.17-.11-.31,.23-.33,.28-.75,.3-1.21,.01-.3,.17-.6,.29-.89,.06-.15,.17-.27,.29-.44Z"/><path class="cls-1" d="M49.95,48.18c-.04,.09-.1,.27-.18,.43-.04,.09-.13,.16-.2,.23-2.39,2.38-4.77,4.76-7.16,7.15-.25,.25-.53,.4-.89,.31-.65-.15-.91-.89-.49-1.41,.06-.08,.14-.15,.21-.22,2.35-2.35,4.7-4.7,7.05-7.04,.09-.09,.18-.19,.28-.26,.29-.2,.6-.22,.9-.06,.3,.16,.46,.42,.48,.87Z"/><path class="cls-1" d="M52.64,50.81c.01,.21-.07,.4-.22,.57-.06,.07-.12,.13-.19,.19-2.34,2.34-4.68,4.68-7.02,7.02-.09,.09-.18,.18-.28,.26-.36,.27-.84,.22-1.15-.09-.3-.31-.34-.81-.07-1.15,.06-.08,.14-.15,.21-.22,2.37-2.37,4.73-4.73,7.1-7.09,.14-.14,.31-.28,.49-.34,.58-.19,1.12,.24,1.12,.86Z"/><path class="cls-1" d="M40.24,15.78c-.06,.2-.09,.34-.14,.46-.77,2.27-2,4.27-3.58,6.07-.73,.83-1.45,1.67-2.13,2.55-.42,.54-.74,1.15-1.11,1.73-.05,.07-.09,.15-.15,.24-.15-.15-.07-.31-.04-.44,.12-.49,.23-.99,.39-1.47,.23-.67,.48-1.34,.76-1.99,.59-1.41,1.4-2.69,2.47-3.78,1.09-1.12,2.22-2.2,3.33-3.3,.02-.02,.06-.03,.19-.07Z"/><path class="cls-1" d="M41.02,51.7c-.42,0-.68-.14-.85-.45-.18-.32-.15-.64,.05-.94,.06-.08,.13-.15,.2-.23,1.51-1.51,3.02-3.02,4.53-4.53,.19-.19,.4-.35,.69-.35,.35,0,.62,.14,.79,.43,.19,.31,.16,.63-.03,.94-.03,.05-.08,.1-.12,.15-1.57,1.57-3.15,3.15-4.72,4.72-.17,.17-.37,.27-.55,.26Z"/><path class="cls-1" d="M46.09,60.91c.08-.18,.15-.37,.25-.54,.05-.1,.15-.17,.23-.25,1.46-1.46,2.91-2.91,4.37-4.37,.1-.1,.2-.2,.31-.28,.36-.26,.84-.21,1.15,.11,.3,.31,.32,.81,.05,1.15-.05,.07-.12,.13-.18,.19-1.51,1.51-3.02,3.02-4.53,4.53-.26,.26-.54,.41-.92,.33-.41-.09-.68-.43-.73-.87Z"/><path class="cls-1" d="M56.32,15.76c-.04-.12-.1-.19-.1-.27-.02-2.08-.74-3.95-1.69-5.75-.59-1.13-1.29-2.19-2.06-3.2-.08-.11-.16-.22-.28-.39,.16,0,.24-.01,.31,0,.06,.01,.11,.07,.16,.11,1.15,.87,2.18,1.86,3.08,2.99,.62,.78,.92,1.66,1,2.63,.1,1.18,.02,2.36-.22,3.53-.01,.07-.03,.15-.06,.22-.01,.03-.05,.05-.14,.13Z"/><path class="cls-1" d="M64.35,75.33c.05,.1,.1,.19,.13,.29,.44,1.27,.72,2.58,.57,3.93-.09,.86-.3,1.7-.47,2.54-.06,.32-.16,.63-.3,.97-.04-.11-.08-.21-.11-.32-.32-1.38-.32-2.77-.12-4.17,.12-.84,.19-1.69,.26-2.54,.02-.22-.02-.45-.03-.68l.07-.03Z"/><path class="cls-1" d="M44.84,98.73c.42,0,.83,0,1.24,0,.36,.01,.66,.15,.77,.51,.11,.37,.11,.73-.22,1.02-.04,.04-.09,.07-.17,.13,.39,.15,.53,.44,.56,.81,.04,.54-.25,.97-.79,1.04-.45,.05-.91,.01-1.37,.01-.08-.25-.11-2.99-.02-3.52Zm.53,3.13c.2,0,.38,0,.55,0,.35-.02,.53-.22,.53-.6,0-.37-.17-.6-.51-.63-.18-.01-.37,0-.57,0v1.23Zm.01-2.71v1.09c.21-.01,.38,0,.55-.04,.27-.05,.42-.27,.41-.56,0-.28-.15-.45-.44-.48-.16-.02-.33,0-.52,0Z"/><path class="cls-1" d="M20.81,98.74c.53,0,1.01-.02,1.49,0,.32,.02,.53,.22,.62,.54,.14,.47,.02,.87-.43,1.24,.37,.13,.42,.43,.44,.75,.01,.32,.04,.63,.06,.98h-.52c-.03-.11-.06-.21-.08-.32-.02-.13-.01-.25-.01-.38-.01-.77-.17-.91-.99-.78v1.48h-.58c0-1.17,0-2.33,0-3.52Zm.57,.43c0,.39-.03,.76,.02,1.12,.57,.05,.81-.02,.94-.25,.11-.2,.1-.58-.04-.72-.26-.26-.57-.18-.91-.15Z"/><path class="cls-1" d="M73.05,102.26h-.54v-3.53c.52,0,1.04-.05,1.55,.03,.33,.05,.52,.3,.56,.64,.05,.44,0,.84-.46,1.11,.36,.16,.44,.45,.45,.78,0,.31,.02,.63,.03,.97h-.53c-.02-.26-.05-.51-.06-.76-.03-.71-.17-.84-.88-.76-.02,0-.04,.02-.12,.06v1.46Zm.02-1.95c.38,.02,.72,.08,.94-.26,.13-.2,.12-.55-.04-.72-.25-.27-.57-.19-.9-.15v1.13Z"/><path class="cls-1" d="M57.67,100.53c.36,.14,.42,.42,.44,.72,.02,.33,.02,.66,.03,1h-.53c-.03-.27-.05-.52-.07-.77-.01-.13,0-.25-.02-.38-.02-.2-.14-.34-.34-.36-.2-.02-.4,0-.64,0v1.51h-.52v-3.49c.07-.01,.15-.04,.24-.04,.37,0,.74-.01,1.11,0,.45,.02,.72,.29,.77,.74,.04,.47-.04,.69-.46,1.06Zm-1.12-.23c.37,.02,.71,.09,.94-.24,.15-.21,.13-.59-.04-.75-.26-.25-.58-.17-.9-.14v1.14Z"/><path class="cls-1" d="M50.34,98.74h.57c0,.15,0,.29,0,.42,0,.66,0,1.32,0,1.98,0,.13,0,.26,.03,.38,.05,.26,.22,.4,.48,.41,.27,0,.46-.14,.52-.41,.02-.11,.02-.23,.02-.34,0-.67,0-1.35,0-2.02v-.41h.55c0,.11,.02,.21,.02,.31,0,.7,0,1.4,0,2.1,0,.92-.45,1.3-1.36,1.17-.53-.08-.8-.39-.82-.97-.02-.53,0-1.07,0-1.6,0-.33,0-.66,0-1.01Z"/><path class="cls-1" d="M16.84,100.85l-.54-.04-.02-.38h1.11v1.79q-.33,.09-.46-.2c-.25,.27-.55,.37-.92,.32-.32-.05-.55-.21-.67-.5-.08-.2-.13-.41-.16-.62-.09-.53-.07-1.06,.03-1.59,.14-.7,.55-1.02,1.23-.97,.57,.04,.9,.43,.87,1.04h-.46c-.02-.08-.03-.17-.06-.25-.08-.25-.22-.37-.46-.38-.24,0-.41,.09-.5,.33-.06,.15-.1,.32-.11,.48-.01,.42-.01,.84,0,1.26,0,.16,.05,.33,.11,.48,.07,.2,.22,.31,.44,.31,.21,0,.38-.07,.47-.27,.11-.26,.18-.52,.1-.81Z"/><path class="cls-1" d="M63.67,99.7h-.46c-.01-.08-.02-.16-.04-.23-.07-.27-.21-.38-.44-.4-.26-.02-.46,.08-.53,.34-.08,.33-.13,.67-.13,1.01,0,.35,.03,.71,.1,1.06,.06,.32,.23,.44,.49,.45,.27,0,.45-.15,.53-.46,.04-.18,.06-.37,.09-.61l-.6-.06-.03-.37h1.07c.08,.25,.09,1.33,.02,1.79q-.33,.07-.44-.24c-.25,.31-.57,.4-.94,.34-.3-.05-.53-.2-.64-.48-.08-.2-.14-.41-.17-.62-.08-.56-.08-1.12,.04-1.67,.16-.69,.62-1.01,1.32-.91,.52,.08,.82,.48,.77,1.04Z"/><path class="cls-1" d="M80.08,99.63h-.49c-.02-.05-.03-.1-.05-.15-.08-.29-.18-.38-.43-.4-.24-.02-.42,.08-.5,.26-.09,.22-.04,.52,.15,.66,.11,.08,.24,.14,.37,.2,.2,.09,.41,.15,.6,.24,.4,.21,.54,.53,.47,1.07-.05,.41-.31,.71-.72,.79-.21,.04-.43,.05-.64,.03-.62-.07-.92-.47-.83-1.13h.47c.02,.1,.04,.21,.06,.31,.07,.27,.25,.41,.52,.42,.25,.01,.46-.11,.55-.33,.1-.24,.03-.54-.18-.69-.09-.07-.2-.1-.31-.15-.18-.07-.36-.12-.53-.2-.47-.22-.67-.62-.57-1.12,.09-.45,.42-.74,.91-.78,.16-.01,.33-.01,.49,.01,.48,.08,.71,.41,.65,.95Z"/><path class="cls-1" d="M67.22,98.74h1.87l.02,.42h-1.31c-.1,.34-.05,.66-.04,1h1.25v.47h-1.23v1.14h1.34l.02,.47h-1.88c-.09-.25-.12-2.96-.03-3.51Z"/><path class="cls-1" d="M.08,86.11c.06,.12,.12,.24,.18,.36,.42,.92,.66,1.89,.74,2.9,.06,.85,.12,1.7,.37,2.52,.01,.04,.01,.09,.02,.18-.06-.06-.1-.08-.11-.11-.65-1-1.15-2.07-1.24-3.28-.06-.84-.01-1.7-.01-2.55l.06-.03Z"/><path class="cls-1" d="M92.69,83.63c1.08-1.68,1.2-3.57,1.16-5.58,.09,.12,.14,.16,.16,.22,.26,.79,.41,1.59,.45,2.42,.02,.42-.09,.8-.27,1.17-.32,.66-.78,1.21-1.3,1.73-.04,.04-.1,.06-.15,.08l-.06-.05Z"/><path class="cls-1" d="M30.41,98.74c.1,0,.2-.01,.3-.01,.06,0,.12,.01,.22,.03v3.04h1.35v.46h-1.85c-.08-.29-.09-3.12-.02-3.52Z"/><path class="cls-1" d="M35.5,98.75h.54c0,.5,0,1,0,1.5,0,.5,0,1.01,0,1.55h1.35v.46h-1.9c0-1.17,0-2.33,0-3.51Z"/><path class="cls-1" d="M26.92,102.26h-.51v-3.5h.51v3.5Z"/><path class="cls-1" d="M30.37,75.97c-.47,0-.87-.36-.86-.79,0-.4,.34-.72,.77-.74,.48-.02,.87,.32,.87,.76,0,.42-.34,.75-.79,.76Z"/><path class="cls-1" d="M93.35,73.99c0,.37-.26,.64-.6,.65-.35,0-.63-.3-.63-.67,0-.37,.28-.67,.63-.67,.35,0,.61,.31,.61,.69Z"/><path class="cls-1" d="M78.29,85.91c.34,.01,.61,.32,.61,.69,0,.37-.31,.67-.65,.65-.34-.02-.6-.34-.59-.71,.02-.36,.3-.64,.63-.63Z"/><path class="cls-1" d="M61.94,76.59c.38,0,.68,.26,.69,.61,.01,.35-.26,.61-.63,.62-.39,0-.68-.25-.69-.61,0-.35,.26-.62,.63-.63Z"/><path class="cls-1" d="M61.99,24.59c.37,0,.66,.3,.64,.65-.01,.33-.28,.57-.63,.57-.38,0-.67-.28-.67-.63,0-.34,.29-.6,.66-.59Z"/><path class="cls-1" d="M27.41,29.31c.38,0,.68,.28,.68,.62,0,.33-.31,.6-.66,.59-.35,0-.65-.29-.66-.61,0-.33,.28-.6,.65-.6Z"/><path class="cls-1" d="M69.13,54.07c-.38,0-.67-.29-.65-.64,.02-.32,.3-.57,.64-.58,.36,0,.68,.3,.67,.64,0,.34-.29,.59-.66,.58Z"/><path class="cls-1" d="M44.33,0c.38,0,.67,.26,.68,.62,0,.33-.25,.59-.6,.6-.38,.01-.69-.25-.7-.59-.02-.34,.27-.62,.63-.62Z"/><path class="cls-1" d="M12.74,100.86c-.19,0-.34-.14-.35-.32,0-.17,.17-.34,.34-.34,.17,0,.31,.14,.32,.31,.01,.19-.12,.34-.31,.35Z"/><path class="cls-1" d="M1.72,75.97c0,.18-.14,.35-.31,.36-.17,0-.33-.15-.34-.34,0-.19,.13-.35,.31-.36,.18,0,.33,.14,.34,.33Z"/><path class="cls-1" d="M95.72,77.24c-.18,0-.33-.16-.33-.35,0-.2,.15-.35,.33-.34,.17,0,.3,.14,.3,.33,0,.2-.13,.36-.31,.36Z"/><path class="cls-1" d="M83.24,100.2c.18,0,.33,.16,.32,.34,0,.19-.15,.33-.34,.32-.17,0-.3-.14-.31-.32,0-.18,.15-.34,.33-.34Z"/><path class="cls-1" d="M30.68,93.23c0,.18-.18,.32-.37,.3-.2-.01-.34-.17-.32-.35,.01-.17,.15-.29,.34-.28,.2,0,.35,.16,.35,.33Z"/><path class="cls-1" d="M61.47,75.53c0,.18-.17,.31-.37,.3-.19-.01-.32-.14-.32-.31,0-.19,.13-.32,.34-.32,.2,0,.35,.15,.35,.33Z"/><path class="cls-1" d="M29.51,28.92c.19,0,.35,.17,.33,.34-.02,.16-.18,.29-.35,.28-.19,0-.33-.16-.32-.35,.01-.17,.15-.28,.34-.27Z"/><path class="cls-1" d="M68.3,51.47c.19,0,.34,.17,.33,.34-.01,.16-.16,.28-.34,.28-.2,0-.34-.15-.32-.34,.01-.17,.15-.29,.34-.28Z"/><path class="cls-1" d="M48.06,.82c0,.17-.15,.3-.32,.3-.18,0-.34-.16-.34-.33,0-.16,.16-.3,.33-.3,.19,0,.34,.15,.34,.33Z"/><path class="cls-1" d="M65.64,23.39c0,.17-.14,.29-.33,.29-.2,0-.34-.14-.33-.32,0-.17,.15-.29,.33-.29,.19,0,.34,.15,.34,.33Z"/></g></g></svg>