<?xml version="1.0" encoding="UTF-8"?><svg id="Layer_2" xmlns="http://www.w3.org/2000/svg" viewBox="0 0 148.55 20.85"><defs><style>.cls-1{fill:#2d2a26;}</style></defs><g id="Capa_1"><g><path class="cls-1" d="M49.99,20.63c-4.83-4.28-9.65-8.54-14.48-12.82-.34,.38-.21,.74-.21,1.06-.01,3.61-.03,7.22,0,10.83,0,.8-.15,1.11-1.03,1.08-1.87-.06-1.87-.01-1.87-1.92,0-5.62,0-11.24,0-16.85,0-.26-.17-.64,.15-.77,.3-.12,.47,.25,.67,.42,4.36,3.83,8.71,7.67,13.07,11.49,.24,.21,.47,.66,.82,.46,.3-.17,.15-.63,.15-.96,0-3.61,.03-7.22-.01-10.83,0-.82,.2-1.23,1.06-1.42,1.85-.41,1.84-.46,1.84,1.41,0,5.93,0,11.86,0,17.79,0,.3,.11,.62-.19,1.01Z"/><path class="cls-1" d="M60.25,10.84c0-2.98,.02-5.96-.01-8.94,0-.72,.18-.99,.95-.98,2.1,.05,4.2,0,6.3,.02,5.44,.05,9.82,4.44,9.83,9.83,0,5.52-4.3,9.92-9.77,9.98-2.1,.02-4.2-.03-6.3,.02-.78,.02-1.03-.21-1.01-1,.04-2.98,.02-5.96,.02-8.94h0Zm2.79,.03c0,2.1,.02,4.2-.01,6.3,0,.59,.16,.85,.79,.83,1.35-.04,2.7,.03,4.04-.04,3.81-.2,6.72-3.39,6.66-7.25-.05-3.76-3.09-6.87-6.87-6.97-1.25-.03-2.51,.02-3.76-.02-.65-.02-.88,.2-.87,.86,.03,2.1,.01,4.2,.01,6.3Z"/><path class="cls-1" d="M148.55,10.87c-.02,5.56-4.45,9.92-10.04,9.89-5.42-.03-9.81-4.51-9.78-9.97,.03-5.52,4.47-9.93,9.95-9.9,5.51,.03,9.88,4.46,9.86,9.98Zm-17.03,0c.02,3.99,3.22,7.14,7.21,7.11,3.96-.03,7.06-3.24,7.04-7.29-.03-3.88-3.21-7.01-7.12-7.01-3.98,0-7.15,3.19-7.13,7.19Z"/><path class="cls-1" d="M.01,10.84C.01,7.86,.03,4.89,0,1.91,0,1.19,.19,.9,.96,.93c1.6,.05,3.2,0,4.8,.02,3.45,.03,6.03,2.54,6.04,5.87,0,3.33-2.57,5.88-6,5.92-.69,0-1.38,.03-2.07,0-.61-.03-.82,.2-.81,.82,.03,2.04-.02,4.08,.03,6.11,.02,.81-.15,1.18-1.07,1.13-2.03-.12-1.83,.39-1.85-1.86-.02-2.7,0-5.39,0-8.09Zm2.91-3.95q0,3.3,3.06,3.04c1.69-.15,2.95-1.47,2.93-3.09-.02-1.66-1.25-2.98-2.93-3.09-.78-.05-1.57,0-2.35-.02-.54-.02-.72,.2-.71,.72,.02,.81,0,1.63,0,2.44Z"/><path class="cls-1" d="M123.49,20.76c-1.24,0-2.23,0-3.22,0-.38,0-.61-.27-.86-.52-3.24-3.24-6.47-6.49-9.72-9.72-.36-.36-.55-.72-.54-1.24,.02-2.51,.03-5.02,0-7.53,0-.63,.22-.82,.81-.81,1.6,.02,3.2-.01,4.8,.01,2.83,.05,5.2,2.08,5.69,4.84,.49,2.75-1.03,5.48-3.65,6.53-1.19,.48-1.19,.47-.24,1.42,2.11,2.1,4.22,4.21,6.33,6.32,.15,.15,.28,.32,.6,.7Zm-9.76-10.82c.31,0,.63,.01,.94,0,1.73-.07,3.07-1.4,3.08-3.04,0-1.77-1.33-3.11-3.15-3.16-.56-.01-1.13,.02-1.69-.02-.64-.04-.89,.19-.87,.86,.04,1.22,0,2.44,.01,3.66,.02,1.94-.26,1.69,1.67,1.7Z"/><path class="cls-1" d="M92.06,0c1.55,3.24,3.02,6.32,4.49,9.4,1.68,3.51,3.33,7.03,5.04,10.52,.39,.79,.13,.79-.58,.88-1.65,.23-2.48-.39-3.15-1.94-1.66-3.82-3.55-7.55-5.35-11.31-.12-.24-.14-.65-.45-.66-.38-.01-.39,.44-.52,.7-1.96,4.07-3.93,8.13-5.84,12.22-.35,.75-.76,.99-1.56,.97-2.04-.06-2.05-.03-1.17-1.87,2.93-6.14,5.87-12.28,8.8-18.42,.05-.11,.12-.21,.28-.5Z"/><path class="cls-1" d="M22.32,10.47c0,3.11-.03,6.21,.02,9.32,.01,.8-.25,1-1.01,.99-1.92-.03-1.92,0-1.92-1.87,0-5.56,.03-11.11-.03-16.67,0-.99,.28-1.46,1.22-1.75,1.73-.53,1.72-.58,1.72,1.21,0,2.92,0,5.84,0,8.76h0Z"/></g></g></svg>