<?xml version="1.0" encoding="UTF-8"?><svg id="Layer_2" xmlns="http://www.w3.org/2000/svg" viewBox="0 0 137.77 33.1"><defs><style>.cls-1{fill:#1d1d1b;}.cls-2{fill:#2d2d2b;}</style></defs><g id="Capa_1"><g><path class="cls-1" d="M0,.49H6.83c4.03,0,6.63,2.16,6.63,5.87,0,3.91-2.89,5.97-6.86,5.97h-2.19v4.74H0V.49ZM6.52,8.73c1.57,0,2.53-.85,2.53-2.2,0-1.42-.96-2.18-2.55-2.18h-2.07v4.38h2.1Z"/><path class="cls-1" d="M15.34,.49h7.54c2.44,0,4.12,.66,5.19,1.78,.93,.97,1.41,2.25,1.41,3.93,0,2.53-1.3,4.22-3.28,5.09l3.8,5.78h-5.1l-3.21-5.02h-1.94v5.02h-4.42V.49Zm7.34,7.96c1.5,0,2.37-.76,2.37-2.01s-.91-1.97-2.39-1.97h-2.89v3.98h2.92Z"/><path class="cls-1" d="M31.17,8.78C31.17,4.02,34.87,.16,39.79,.16s8.57,3.81,8.57,8.62-3.69,8.62-8.61,8.62-8.57-3.81-8.57-8.62Zm12.67,0c0-2.39-1.66-4.48-4.1-4.48s-4.03,2.04-4.03,4.48,1.66,4.48,4.08,4.48,4.05-2.04,4.05-4.48Z"/><path class="cls-1" d="M53.29,14.43l2.46-3.05c1.57,1.3,3.33,1.99,5.17,1.99,1.18,0,1.82-.43,1.82-1.18,0-.69-.52-1.07-2.69-1.59-3.39-.81-6.01-1.8-6.01-5.26C54.04,2.26,56.39,.03,60.21,.03c2.71,0,4.83,.76,6.56,2.2l-2.21,3.25c-1.46-1.07-3.05-1.63-4.46-1.63-1.07,0-1.59,.47-1.59,1.11,0,.76,.55,1.09,2.76,1.61,3.67,.83,5.95,2.06,5.95,5.21,0,3.39-2.57,5.4-6.45,5.4-2.83,0-5.51-.92-7.47-2.75Z"/><path class="cls-1" d="M91.77,.4h4.42V12.95h7.72v4.03h-12.14V.4Z"/><path class="cls-1" d="M105.14,9.71V.4h4.49V9.61c0,2.39,1.16,3.53,2.94,3.53s2.94-1.09,2.94-3.41V.4h4.49V9.59c0,5.35-2.94,7.7-7.47,7.7s-7.38-2.39-7.38-7.58Z"/><path class="cls-1" d="M122.62,.4h6.15c5.7,0,9,3.41,9,8.24s-3.35,8.34-9.09,8.34h-6.06V.4Zm6.22,12.5c2.64,0,4.4-1.52,4.4-4.24s-1.75-4.24-4.4-4.24h-1.8V12.9h1.8Z"/><polygon class="cls-2" points="83.61 0 90.4 17.13 84.94 17.13 78.41 0 83.61 0"/><polygon class="cls-1" points="85.16 11.15 67.83 11.15 69.94 5.97 87.17 5.97 85.16 11.15"/><polygon class="cls-1" points="78.35 0 71.55 17.13 77.02 17.13 83.55 0 78.35 0"/><path class="cls-1" d="M6.52,30.07c-.13,.27-.32,.5-.55,.69-.23,.19-.51,.34-.83,.44-.32,.11-.68,.16-1.06,.16-.64,0-1.21-.11-1.73-.32-.51-.21-1.01-.53-1.49-.96l.39-.44c.22,.21,.44,.38,.66,.53,.22,.15,.44,.27,.67,.36,.23,.1,.47,.17,.72,.22,.25,.05,.52,.07,.82,.07s.57-.04,.82-.12c.25-.08,.46-.19,.64-.33s.31-.31,.41-.5,.15-.4,.15-.63v-.02c0-.21-.03-.4-.1-.57s-.18-.32-.35-.46-.4-.26-.69-.37c-.29-.11-.66-.21-1.12-.3-.48-.1-.89-.21-1.23-.35s-.62-.29-.84-.47c-.22-.18-.37-.39-.47-.62-.1-.23-.15-.5-.15-.81v-.02c0-.3,.06-.57,.19-.83,.13-.25,.31-.48,.54-.67,.23-.19,.5-.34,.81-.44,.31-.11,.65-.16,1.03-.16,.58,0,1.08,.08,1.5,.24,.42,.16,.83,.4,1.24,.73l-.38,.47c-.38-.33-.76-.56-1.14-.69-.38-.14-.79-.21-1.24-.21-.3,0-.56,.04-.8,.12-.24,.08-.44,.19-.61,.33s-.3,.3-.39,.48c-.09,.18-.14,.38-.14,.58v.02c0,.21,.03,.4,.1,.58s.18,.33,.35,.47,.41,.27,.71,.38c.3,.11,.69,.22,1.16,.32,.93,.19,1.59,.46,2,.8s.62,.81,.62,1.39v.02c0,.32-.07,.61-.2,.88Z"/><path class="cls-1" d="M12.53,31.25v-.97c-.1,.14-.22,.27-.36,.4s-.3,.25-.48,.35c-.18,.1-.39,.19-.62,.25s-.48,.1-.76,.1-.54-.04-.81-.11c-.27-.08-.5-.19-.72-.34-.21-.15-.38-.34-.52-.57-.13-.23-.2-.49-.2-.8v-.02c0-.3,.06-.57,.19-.81s.3-.43,.52-.59c.22-.16,.49-.28,.8-.36,.31-.08,.66-.12,1.04-.12,.41,0,.76,.02,1.06,.07,.3,.04,.58,.11,.87,.18v-.25c0-.59-.17-1.03-.51-1.32-.34-.29-.81-.44-1.41-.44-.36,0-.68,.04-.98,.13-.3,.09-.58,.2-.84,.34l-.21-.49c.32-.16,.64-.28,.97-.37,.33-.09,.69-.14,1.09-.14,.75,0,1.34,.19,1.78,.57,.43,.38,.65,.95,.65,1.71v3.62h-.55Zm.01-2.84c-.24-.06-.53-.12-.85-.18s-.7-.08-1.12-.08c-.62,0-1.09,.12-1.42,.37-.33,.25-.5,.57-.5,.98v.02c0,.21,.05,.4,.14,.56,.09,.16,.21,.3,.37,.41,.16,.11,.34,.2,.54,.26,.2,.06,.42,.09,.64,.09,.3,0,.58-.04,.84-.13s.5-.21,.7-.36,.36-.34,.48-.56c.12-.22,.18-.46,.18-.73v-.66Z"/><path class="cls-1" d="M15.16,31.25v-8.31h.56v8.31h-.56Z"/><path class="cls-1" d="M22.22,31.25v-1.08c-.2,.34-.46,.63-.8,.87-.33,.24-.77,.35-1.3,.35-.36,0-.69-.06-.98-.18-.29-.12-.53-.28-.74-.5s-.35-.46-.46-.76-.15-.61-.15-.96v-3.55h.56v3.45c0,.6,.16,1.08,.48,1.44,.32,.36,.77,.54,1.37,.54,.28,0,.54-.05,.79-.15s.46-.25,.64-.43c.18-.18,.32-.4,.43-.66,.1-.25,.15-.53,.15-.84v-3.36h.56v5.81h-.56Z"/><path class="cls-1" d="M29.73,31.25v-1.3c-.13,.19-.27,.37-.43,.55-.16,.17-.33,.33-.52,.46s-.41,.23-.65,.31c-.24,.08-.5,.12-.79,.12-.35,0-.69-.07-1.03-.21s-.64-.33-.91-.59-.48-.58-.64-.95-.24-.8-.24-1.27v-.02c0-.47,.08-.89,.24-1.27s.38-.69,.64-.96c.27-.26,.57-.46,.91-.6,.34-.14,.68-.21,1.03-.21,.29,0,.55,.04,.8,.11,.24,.08,.46,.18,.66,.31,.19,.13,.37,.28,.52,.44s.29,.34,.42,.52v-3.76h.56v8.31h-.56Zm.03-2.92c0-.37-.07-.71-.2-1.02s-.31-.57-.53-.79c-.22-.22-.47-.38-.76-.51-.29-.12-.58-.18-.88-.18s-.62,.06-.9,.17c-.28,.11-.52,.28-.72,.49-.21,.21-.37,.47-.49,.78s-.18,.65-.18,1.04v.02c0,.38,.06,.72,.18,1.04,.12,.31,.29,.58,.5,.79,.21,.22,.45,.38,.73,.5,.28,.12,.57,.18,.87,.18s.6-.06,.88-.18c.29-.12,.54-.29,.76-.51,.22-.22,.4-.48,.53-.79s.2-.64,.2-1.01v-.02Z"/><path class="cls-1" d="M38.47,31.45c-.26,.61-.54,1.03-.85,1.28-.31,.25-.67,.37-1.09,.37-.22,0-.42-.02-.59-.06s-.36-.11-.56-.19l.19-.5c.15,.08,.3,.13,.44,.17,.14,.03,.33,.05,.55,.05,.15,0,.29-.02,.42-.07,.13-.05,.25-.12,.36-.23,.11-.11,.22-.25,.33-.43,.11-.17,.21-.39,.32-.64l-2.79-5.76h.65l2.41,5.19,2.09-5.19h.62l-2.52,6.01Z"/><path class="cls-1" d="M51.46,29.61c-.16,.38-.38,.69-.64,.96s-.57,.46-.91,.6-.68,.21-1.03,.21c-.29,0-.55-.04-.8-.11-.24-.08-.46-.18-.65-.31-.19-.13-.37-.28-.52-.44s-.29-.34-.42-.52v3.07h-.56v-7.63h.56v1.3c.12-.19,.26-.37,.42-.55,.16-.17,.34-.33,.53-.46s.41-.23,.65-.31c.24-.08,.5-.12,.79-.12,.35,0,.69,.07,1.03,.21s.64,.33,.91,.59,.48,.58,.64,.95c.16,.38,.25,.8,.25,1.27v.02c0,.47-.08,.89-.25,1.27Zm-.35-1.27c0-.38-.06-.72-.18-1.04-.12-.31-.29-.58-.5-.79-.21-.22-.45-.38-.73-.5-.28-.12-.57-.18-.87-.18s-.6,.06-.88,.18c-.29,.12-.54,.29-.76,.51-.22,.22-.4,.48-.53,.79s-.2,.64-.2,1.01v.02c0,.37,.07,.71,.2,1.02s.31,.57,.53,.79c.22,.22,.47,.38,.76,.51,.29,.12,.58,.18,.88,.18s.62-.06,.9-.17c.28-.11,.52-.28,.72-.49,.21-.21,.37-.47,.49-.78s.18-.65,.18-1.04v-.02Z"/><path class="cls-1" d="M56.52,25.96c-.33,0-.65,.06-.96,.19-.3,.13-.57,.31-.8,.56-.23,.25-.42,.55-.55,.91-.14,.36-.2,.78-.2,1.25v2.38h-.56v-5.81h.56v1.65c.11-.26,.26-.5,.43-.72,.17-.22,.37-.41,.59-.56,.22-.16,.46-.27,.72-.35,.26-.08,.54-.12,.83-.11v.61h-.06Z"/><path class="cls-1" d="M58.15,29.53c.14,.28,.31,.52,.51,.71s.44,.35,.7,.45c.26,.1,.54,.15,.83,.15,.46,0,.84-.09,1.16-.26,.32-.17,.6-.39,.84-.65l.39,.34c-.3,.32-.63,.58-1.01,.79-.38,.21-.84,.31-1.4,.31-.38,0-.74-.07-1.09-.22-.35-.14-.65-.35-.91-.61s-.47-.58-.62-.96c-.15-.37-.23-.79-.23-1.24v-.02c0-.42,.07-.81,.21-1.18,.14-.37,.33-.69,.58-.96,.25-.27,.54-.49,.87-.65,.33-.16,.7-.24,1.09-.24s.78,.08,1.1,.23c.33,.16,.6,.37,.84,.64,.23,.27,.41,.59,.54,.96,.12,.37,.19,.77,.19,1.2v.12s0,.06-.01,.1h-4.82c.02,.36,.1,.68,.24,.96Zm4-1.46c-.02-.3-.08-.58-.18-.85-.09-.27-.23-.51-.4-.72-.17-.21-.38-.38-.63-.5-.25-.12-.54-.19-.88-.19-.29,0-.56,.06-.81,.17-.25,.11-.47,.27-.66,.47s-.34,.44-.46,.72c-.12,.28-.19,.58-.22,.89h4.24Z"/><path class="cls-1" d="M66.58,31.29h-.48l-2.61-5.85h.65l2.2,5.18,2.22-5.18h.63l-2.61,5.85Z"/><path class="cls-1" d="M70.8,29.53c.14,.28,.31,.52,.51,.71s.44,.35,.7,.45c.26,.1,.54,.15,.83,.15,.46,0,.84-.09,1.16-.26,.32-.17,.6-.39,.84-.65l.39,.34c-.3,.32-.63,.58-1.01,.79-.38,.21-.84,.31-1.4,.31-.38,0-.74-.07-1.09-.22-.35-.14-.65-.35-.91-.61s-.47-.58-.62-.96c-.15-.37-.23-.79-.23-1.24v-.02c0-.42,.07-.81,.21-1.18,.14-.37,.33-.69,.58-.96,.25-.27,.54-.49,.87-.65,.33-.16,.7-.24,1.09-.24s.78,.08,1.1,.23c.33,.16,.6,.37,.84,.64,.23,.27,.41,.59,.54,.96,.12,.37,.19,.77,.19,1.2v.12s0,.06-.01,.1h-4.82c.02,.36,.1,.68,.24,.96Zm4-1.46c-.02-.3-.08-.58-.18-.85-.09-.27-.23-.51-.4-.72-.17-.21-.38-.38-.63-.5-.25-.12-.54-.19-.88-.19-.29,0-.56,.06-.81,.17-.25,.11-.47,.27-.66,.47s-.34,.44-.46,.72c-.12,.28-.19,.58-.22,.89h4.24Z"/><path class="cls-1" d="M81.44,31.25v-3.45c0-.6-.16-1.08-.48-1.44-.32-.36-.77-.54-1.37-.54-.29,0-.55,.05-.8,.15s-.46,.25-.64,.43c-.18,.18-.32,.4-.43,.66-.1,.25-.15,.53-.15,.84v3.36h-.56v-5.81h.56v1.08c.2-.34,.46-.63,.8-.87s.77-.35,1.3-.35c.36,0,.69,.06,.98,.18,.29,.12,.53,.28,.73,.5,.2,.21,.35,.46,.46,.76s.15,.61,.15,.96v3.55h-.56Z"/><path class="cls-1" d="M87.91,31.05c-.38,.22-.83,.33-1.36,.33-.42,0-.81-.08-1.17-.25s-.67-.38-.94-.65c-.26-.27-.47-.59-.62-.96-.15-.36-.22-.75-.22-1.16v-.02c0-.41,.07-.8,.22-1.16s.36-.69,.62-.97c.27-.28,.58-.5,.94-.67,.36-.16,.75-.25,1.17-.25,.27,0,.52,.03,.75,.09,.22,.06,.43,.14,.62,.24,.19,.1,.36,.22,.52,.35,.16,.13,.3,.27,.44,.41l-.4,.41c-.25-.26-.53-.48-.83-.67-.3-.19-.67-.28-1.1-.28-.33,0-.64,.06-.93,.19-.28,.13-.53,.3-.74,.53s-.37,.49-.5,.79c-.12,.3-.18,.63-.18,.97v.02c0,.35,.06,.67,.19,.98s.3,.57,.51,.8c.22,.23,.47,.4,.76,.53,.29,.13,.6,.19,.93,.19,.41,0,.78-.09,1.1-.28,.32-.19,.61-.42,.85-.69l.39,.34c-.3,.33-.63,.61-1.01,.83Z"/><path class="cls-1" d="M90.51,23.92v-.76h.69v.76h-.69Zm.07,7.32v-5.81h.56v5.81h-.56Z"/><path class="cls-1" d="M98.68,29.5c-.15,.36-.36,.69-.63,.97-.27,.28-.59,.5-.95,.67-.37,.16-.76,.25-1.2,.25s-.83-.08-1.19-.25-.67-.38-.94-.65-.47-.59-.62-.96c-.15-.36-.22-.75-.22-1.16v-.02c0-.41,.07-.8,.22-1.16,.15-.36,.36-.69,.63-.97,.27-.28,.59-.5,.95-.67,.36-.16,.76-.25,1.2-.25s.83,.08,1.19,.25c.36,.16,.67,.38,.94,.65s.47,.59,.62,.96c.15,.36,.22,.75,.22,1.16v.02c0,.41-.07,.8-.22,1.16Zm-.37-1.16c0-.35-.06-.67-.18-.98s-.29-.57-.51-.8c-.22-.23-.47-.4-.77-.53-.29-.13-.61-.19-.94-.19s-.66,.07-.96,.2c-.29,.13-.55,.31-.75,.53-.21,.22-.37,.49-.49,.79-.12,.3-.18,.62-.18,.96v.02c0,.35,.06,.67,.18,.98s.29,.57,.51,.8c.22,.23,.47,.4,.77,.53,.29,.13,.61,.19,.94,.19s.66-.07,.96-.2c.29-.13,.54-.31,.75-.53,.21-.22,.37-.49,.49-.79,.12-.3,.18-.62,.18-.96v-.02Zm-2.62-3.87l1-1.51,.69,.34-1.22,1.17h-.48Z"/><path class="cls-1" d="M105.04,31.25v-3.45c0-.6-.16-1.08-.48-1.44-.32-.36-.77-.54-1.37-.54-.29,0-.55,.05-.8,.15s-.46,.25-.64,.43c-.18,.18-.32,.4-.43,.66-.1,.25-.15,.53-.15,.84v3.36h-.56v-5.81h.56v1.08c.2-.34,.46-.63,.8-.87s.77-.35,1.3-.35c.36,0,.69,.06,.98,.18,.29,.12,.53,.28,.73,.5,.2,.21,.35,.46,.46,.76s.15,.61,.15,.96v3.55h-.56Z"/></g></g></svg>