<?xml version="1.0" encoding="UTF-8"?><svg id="Layer_2" xmlns="http://www.w3.org/2000/svg" viewBox="0 0 200 42.56"><defs><style>.cls-1{fill:#2d2a26;}</style></defs><g id="Capa_1"><g><path class="cls-1" d="M52.48,5.87h-4.53V1.08h4.53V5.87Zm0,22.76h-4.53V8.25h4.53V28.63Z"/><path class="cls-1" d="M74.5,28.63h-4.52V15.89c0-1.35-.3-2.36-.92-3.04-.61-.67-1.34-1.01-2.2-1.01-1.18,0-2.21,.52-3.1,1.57-.89,1.05-1.33,2.63-1.33,4.75v10.47h-4.53V8.25h4.13v4.72c1.44-3.42,3.47-5.14,6.07-5.14,1.76,0,3.27,.57,4.52,1.69,1.25,1.13,1.87,3.11,1.87,5.95v13.16Z"/><path class="cls-1" d="M89.22,25.04v3.59c-1.35,.29-2.4,.44-3.14,.44-1.22,0-2.26-.24-3.14-.74-.88-.49-1.51-1.16-1.91-2.02-.41-.85-.61-2.17-.61-3.94V11.82h-2.5v-3.57h2.76l.42-5.31,3.71-.34v5.65h4.04v3.57h-4.04v9.95c0,1.27,.23,2.14,.69,2.61,.45,.46,1.32,.69,2.59,.69,.36,0,.74-.01,1.14-.04"/><path class="cls-1" d="M105.2,22.13l4.09,.56c-.53,1.84-1.56,3.36-3.1,4.56-1.54,1.2-3.46,1.8-5.77,1.8-2.78,0-5.01-.95-6.71-2.85-1.7-1.9-2.54-4.46-2.54-7.71s.85-5.63,2.56-7.65c1.71-2.02,4.02-3.03,6.95-3.03s5.07,.99,6.63,2.99c1.56,1.99,2.34,4.54,2.34,7.67l-.02,.52h-13.75c0,1.39,.13,2.49,.39,3.33,.26,.83,.77,1.56,1.54,2.18,.77,.62,1.73,.93,2.88,.93,2.24,0,3.74-1.1,4.52-3.31m-.28-6.09c-.01-1.47-.45-2.67-1.3-3.6-.86-.93-1.91-1.39-3.17-1.39s-2.28,.43-3.11,1.3c-.83,.87-1.32,2.1-1.47,3.69h9.05Z"/><path class="cls-1" d="M132.06,4.35v3.53h-1.39c-.61,0-1.14,.07-1.6,.22-.46,.15-.91,.63-1.34,1.43,1.59,1.31,2.38,2.78,2.38,4.4,0,1.8-.75,3.3-2.23,4.48-1.49,1.19-3.46,1.78-5.91,1.78-1.05,0-2.29-.17-3.71-.52-.92,.43-1.39,1.09-1.39,2,0,.5,.22,.96,.68,1.37,.45,.41,1.12,.63,2.04,.63h5.95c2.04,0,3.63,.53,4.79,1.61,1.16,1.07,1.74,2.4,1.74,3.98,0,1.92-.88,3.51-2.63,4.78-1.75,1.26-4.35,1.9-7.79,1.9-6.47,0-9.7-1.84-9.7-5.51,0-1.82,.97-3.19,2.92-4.13-1.25-1.08-1.87-2.2-1.87-3.37,0-1.77,1.07-3.19,3.2-4.23-1.86-1.15-2.78-2.72-2.78-4.72,0-1.7,.68-3.14,2.04-4.34,1.37-1.2,3.43-1.8,6.21-1.8,1.27,0,2.56,.14,3.87,.42,.61-2.6,2.22-3.9,4.82-3.9h1.69Zm-15.25,23.17c-.65,.6-.97,1.19-.97,1.75,0,.93,.54,1.75,1.63,2.45,1.09,.71,2.81,1.06,5.18,1.06,3.48,0,5.22-.91,5.22-2.73,0-.67-.3-1.18-.91-1.52-.61-.35-1.3-.52-2.08-.52h-4.81c-.91,0-1.99-.17-3.25-.5m4.96-10.05c2.46,0,3.69-1.18,3.69-3.53,0-.9-.31-1.66-.93-2.28-.61-.62-1.51-.93-2.69-.93s-2.11,.33-2.77,.97c-.65,.65-.98,1.45-.98,2.42s.33,1.81,.98,2.42c.65,.62,1.55,.93,2.7,.93"/><path class="cls-1" d="M139.36,28.63h-4.53V8.25h4.09v4.86c.58-1.9,1.39-3.28,2.4-4.16,1.02-.87,2.07-1.31,3.14-1.31,.15,0,.34,0,.59,.02v4.94c-2.3,0-3.83,.75-4.58,2.24-.75,1.5-1.12,2.94-1.12,4.34v9.45Z"/><path class="cls-1" d="M165.47,28.63h-4.31c-.38-1.23-.62-2.61-.7-4.12-1.2,3.03-3.47,4.54-6.79,4.54-2,0-3.6-.6-4.82-1.78-1.21-1.19-1.82-2.69-1.82-4.49,0-4.68,4.04-7.02,12.13-7.02,.32,0,.75,.01,1.29,.02v-1.53c0-2.11-1.42-3.17-4.25-3.17s-4.32,1.05-4.69,3.17l-3.85-.59c.21-1.7,1.08-3.09,2.58-4.19,1.51-1.09,3.69-1.64,6.55-1.64,1.55,0,2.81,.13,3.8,.39,.98,.26,1.81,.71,2.48,1.33,.67,.63,1.14,1.3,1.39,2.04,.26,.73,.39,1.97,.39,3.72v9.2c0,1.33,.2,2.71,.6,4.12m-5.01-10.37c-5.85,0-8.77,1.42-8.77,4.26,0,.84,.3,1.57,.88,2.16,.59,.6,1.48,.9,2.67,.9,1.72,0,3.01-.55,3.9-1.67,.88-1.11,1.32-2.37,1.32-3.78v-1.88Z"/><path class="cls-1" d="M179.57,25.04v3.59c-1.35,.29-2.39,.44-3.14,.44-1.21,0-2.26-.24-3.13-.74-.88-.49-1.51-1.16-1.92-2.02-.4-.85-.6-2.17-.6-3.94V11.82h-2.51v-3.57h2.76l.41-5.31,3.71-.34v5.65h4.03v3.57h-4.03v9.95c0,1.27,.23,2.14,.69,2.61,.46,.46,1.32,.69,2.59,.69,.36,0,.73-.01,1.13-.04"/><path class="cls-1" d="M190.49,29.05c-2.96,0-5.23-1.09-6.79-3.25-1.56-2.17-2.34-4.65-2.34-7.44,0-3.02,.87-5.53,2.59-7.53,1.73-2.01,4.01-3.01,6.84-3.01s4.9,.98,6.62,2.92c1.72,1.95,2.59,4.49,2.59,7.61s-.89,5.8-2.69,7.76c-1.79,1.96-4.07,2.94-6.82,2.94m.16-3.79c3.05,0,4.57-2.31,4.57-6.93,0-2.08-.37-3.73-1.09-4.93-.73-1.2-1.85-1.81-3.36-1.81s-2.72,.62-3.47,1.86c-.76,1.24-1.13,2.89-1.13,4.95,0,2.22,.4,3.92,1.2,5.09,.8,1.17,1.9,1.76,3.29,1.76"/><path class="cls-1" d="M141.25,38.69c-.03-.21-.1-.41-.22-.58-.17-.23-.43-.35-.79-.35-.51,0-.85,.25-1.04,.75-.1,.27-.15,.62-.15,1.06s.05,.76,.15,1.01c.18,.48,.52,.71,1.01,.71,.35,0,.6-.09,.75-.28,.15-.19,.24-.43,.27-.74h1.53c-.04,.46-.2,.89-.49,1.29-.47,.66-1.17,.98-2.09,.98s-1.6-.27-2.04-.82-.65-1.26-.65-2.13c0-.98,.24-1.75,.72-2.29,.48-.55,1.14-.82,1.99-.82,.72,0,1.31,.16,1.76,.48,.46,.32,.73,.89,.81,1.71h-1.53Z"/><path class="cls-1" d="M148.59,41.67c-.48,.6-1.22,.9-2.2,.9s-1.72-.3-2.2-.9c-.48-.6-.73-1.32-.73-2.16s.24-1.54,.73-2.15c.48-.61,1.22-.91,2.2-.91s1.72,.3,2.2,.91c.48,.61,.73,1.32,.73,2.15s-.24,1.56-.73,2.16Zm-1.2-.83c.23-.31,.35-.75,.35-1.33s-.12-1.02-.35-1.33c-.23-.31-.57-.46-1.01-.46s-.78,.15-1.01,.46c-.24,.31-.35,.75-.35,1.33s.12,1.02,.35,1.33c.24,.31,.57,.47,1.01,.47s.77-.16,1.01-.47Z"/><path class="cls-1" d="M155.01,36.97c.37,.31,.56,.82,.56,1.54v3.86h-1.53v-3.48c0-.3-.04-.53-.12-.69-.15-.29-.42-.44-.83-.44-.5,0-.85,.22-1.04,.65-.1,.23-.15,.52-.15,.87v3.1h-1.5v-5.72h1.45v.84c.19-.29,.37-.51,.54-.64,.31-.23,.7-.35,1.17-.35,.59,0,1.07,.16,1.45,.47Z"/><path class="cls-1" d="M156.38,37.76v-1.07h.8v-1.6h1.48v1.6h.93v1.07h-.93v3.03c0,.23,.03,.38,.09,.44,.06,.06,.24,.09,.55,.09,.05,0,.09,0,.14,0,.05,0,.1,0,.15,0v1.12l-.71,.03c-.71,.02-1.19-.1-1.45-.37-.17-.17-.25-.44-.25-.79v-3.53h-.8Z"/><path class="cls-1" d="M162.82,38.88c.28-.03,.48-.08,.6-.13,.22-.09,.32-.23,.32-.43,0-.23-.08-.4-.25-.49-.17-.09-.41-.13-.73-.13-.36,0-.61,.09-.76,.26-.11,.13-.18,.3-.21,.53h-1.45c.03-.5,.17-.91,.42-1.24,.4-.5,1.08-.76,2.05-.76,.63,0,1.19,.12,1.68,.37,.49,.25,.73,.72,.73,1.41v2.63c0,.18,0,.4,.01,.66,.01,.2,.04,.33,.09,.4,.05,.07,.12,.13,.22,.17v.22h-1.63c-.05-.12-.08-.22-.09-.33-.02-.1-.03-.22-.04-.35-.21,.22-.45,.42-.72,.57-.32,.19-.69,.28-1.1,.28-.52,0-.95-.15-1.29-.44-.34-.3-.51-.72-.51-1.26,0-.7,.27-1.21,.82-1.53,.3-.17,.74-.29,1.32-.37l.51-.06Zm.92,.7c-.1,.06-.19,.11-.29,.14-.1,.04-.23,.07-.4,.1l-.34,.06c-.32,.06-.55,.12-.69,.2-.24,.14-.35,.35-.35,.64,0,.26,.07,.44,.22,.55,.14,.11,.32,.17,.53,.17,.33,0,.63-.09,.9-.28,.28-.19,.42-.53,.43-1.04v-.56Z"/><path class="cls-1" d="M171.43,37.33c.43,.54,.64,1.24,.64,2.1s-.21,1.63-.63,2.21c-.42,.59-1.01,.88-1.77,.88-.48,0-.86-.09-1.15-.28-.17-.11-.36-.31-.56-.59v.72h-1.48v-7.74h1.5v2.75c.19-.27,.4-.47,.63-.61,.27-.18,.62-.26,1.04-.26,.76,0,1.35,.27,1.78,.81Zm-1.25,3.49c.22-.31,.32-.72,.32-1.23,0-.41-.05-.74-.16-1.01-.2-.5-.57-.76-1.11-.76s-.92,.25-1.13,.74c-.11,.26-.16,.6-.16,1.02,0,.49,.11,.9,.33,1.22,.22,.32,.55,.48,1,.48,.39,0,.69-.16,.91-.47Z"/><path class="cls-1" d="M174.65,35.96h-1.52v-1.38h1.52v1.38Zm-1.52,.68h1.52v5.73h-1.52v-5.73Z"/><path class="cls-1" d="M177.63,42.37h-1.5v-7.75h1.5v7.75Z"/><path class="cls-1" d="M180.63,35.96h-1.52v-1.38h1.52v1.38Zm-1.52,.68h1.52v5.73h-1.52v-5.73Z"/><path class="cls-1" d="M185.12,36.73c.27,.15,.49,.36,.66,.63v-2.73h1.52v7.74h-1.46v-.79c-.21,.34-.46,.59-.73,.74-.27,.15-.61,.23-1.02,.23-.67,0-1.23-.27-1.69-.81-.46-.54-.69-1.24-.69-2.08,0-.98,.23-1.75,.68-2.31,.45-.56,1.05-.84,1.81-.84,.35,0,.66,.08,.93,.23Zm.37,4.08c.22-.32,.33-.72,.33-1.22,0-.7-.18-1.2-.53-1.5-.22-.18-.47-.27-.76-.27-.44,0-.76,.17-.96,.5-.21,.33-.31,.74-.31,1.23,0,.53,.1,.95,.31,1.27s.52,.48,.95,.48,.75-.16,.97-.47Z"/><path class="cls-1" d="M190.93,38.88c.28-.03,.48-.08,.6-.13,.22-.09,.32-.23,.32-.43,0-.23-.08-.4-.25-.49-.17-.09-.41-.13-.73-.13-.36,0-.61,.09-.76,.26-.11,.13-.18,.3-.21,.53h-1.45c.03-.5,.17-.91,.42-1.24,.4-.5,1.08-.76,2.05-.76,.63,0,1.19,.12,1.68,.37,.49,.25,.73,.72,.73,1.41v2.63c0,.18,0,.4,.01,.66,.01,.2,.04,.33,.09,.4,.05,.07,.12,.13,.22,.17v.22h-1.63c-.05-.12-.08-.22-.09-.33-.02-.1-.03-.22-.04-.35-.21,.22-.45,.42-.72,.57-.32,.19-.69,.28-1.1,.28-.52,0-.95-.15-1.29-.44-.34-.3-.51-.72-.51-1.26,0-.7,.27-1.21,.82-1.53,.3-.17,.74-.29,1.32-.37l.51-.06Zm.92,.7c-.1,.06-.19,.11-.29,.14-.1,.04-.23,.07-.4,.1l-.34,.06c-.32,.06-.55,.12-.69,.2-.24,.14-.35,.35-.35,.64,0,.26,.07,.44,.22,.55,.14,.11,.32,.17,.53,.17,.33,0,.63-.09,.9-.28,.28-.19,.42-.53,.43-1.04v-.56Z"/><path class="cls-1" d="M197.69,36.73c.27,.15,.49,.36,.66,.63v-2.73h1.52v7.74h-1.46v-.79c-.21,.34-.46,.59-.73,.74-.27,.15-.61,.23-1.02,.23-.67,0-1.23-.27-1.69-.81-.46-.54-.69-1.24-.69-2.08,0-.98,.23-1.75,.68-2.31,.45-.56,1.05-.84,1.81-.84,.35,0,.66,.08,.93,.23Zm.37,4.08c.22-.32,.33-.72,.33-1.22,0-.7-.18-1.2-.53-1.5-.22-.18-.47-.27-.76-.27-.44,0-.76,.17-.96,.5-.21,.33-.31,.74-.31,1.23,0,.53,.1,.95,.31,1.27s.52,.48,.95,.48,.75-.16,.97-.47Z"/><path class="cls-1" d="M40.13,25.13c-.4-3.06-5.26-23.33-5.31-23.55-.24-.96-1.01-1.59-1.97-1.59H10.44c-1.01,0-1.87,.5-2.25,1.25-.37,.73-.29,1.66,.2,2.31,.94,1.27,1.88,2.53,2.83,3.79H1.98c-.57,0-1.04,.25-1.44,.59-.69,.59-.45,1.45-.45,1.45,.4,3.06,5.26,23.33,5.31,23.55,.24,.96,1.01,1.59,1.97,1.59H29.84c1.01,0,1.8-.5,2.18-1.25,.37-.73,.29-1.66-.2-2.31-.94-1.27-1.88-2.53-2.83-3.79h9.24c.45,0,.83-.16,1.18-.39,.09-.06,.17-.15,.25-.22,.69-.59,.47-1.42,.47-1.42ZM10.41,2.29h0c5.95,.12,11.9,.07,17.86,.03h1.75c-1.25,1.68-2.52,3.36-3.78,5.04H13.98c-1.29-1.68-2.57-3.36-3.86-5.03,0,0,.07-.04,.3-.04Zm14.1,22.66H15.91c-.08,0-.14,0-.17,0,1.44-1.95,2.9-3.89,4.36-5.82,.55,.73,1.1,1.45,1.65,2.17,.47,.62,.94,1.23,1.41,1.85,.45,.6,.9,1.21,1.35,1.81ZM15.7,9.58h8.6c.08,0,.14,0,.17,0-1.44,1.95-2.9,3.89-4.36,5.82-.55-.73-1.1-1.45-1.65-2.17-.47-.62-.94-1.23-1.41-1.85-.45-.6-.9-1.21-1.35-1.81ZM6.49,27.98c-1.71-7.22-3.77-16.41-4.19-18.41H10.75c-.64,2.68-2.96,12.42-4.26,18.41ZM13,9.73c.64,.85,1.29,1.7,1.93,2.54,1.25,1.67,2.51,3.35,3.77,5-.83,1.09-1.66,2.18-2.48,3.27-2.71,3.56-5.51,7.24-8.22,10.9,.81-3.75,3.47-15.42,5.01-21.72Zm16.79,22.51h0l-19.61-.02c1.25-1.69,2.52-3.37,3.78-5.05h12.26c1.29,1.68,2.57,3.36,3.86,5.03,0,0-.07,.04-.3,.04Zm-4.52-9.99c-1.25-1.67-2.51-3.35-3.77-5,.83-1.09,1.66-2.18,2.48-3.27,2.71-3.56,5.51-7.24,8.22-10.9-.81,3.75-3.47,15.42-5.01,21.72-.64-.85-1.29-1.7-1.93-2.54Zm4.18,2.69c.64-2.68,2.96-12.42,4.26-18.41,1.71,7.22,3.77,16.41,4.19,18.41h-8.45Z"/><path class="cls-1" d="M40.16,25.37c0-.33-.38-2.13-.38-2.15l-12.18,11.3s1.15,0,1.16,0c.05,0,.73,.01,1.18,0,.14,0,.25-.02,.32-.03,.87-.14,1.3-.61,1.32-.63,.76-.68,8.13-7.3,8.34-7.56,.28-.36,.24-.93,.24-.93Z"/><path class="cls-1" d="M0,9.02c0,.33,.38,2.26,.38,2.28L12.63,0h-1.2S10.81,0,10.39,0c-.14,0-.25,.01-.32,.02-.27,.03-.51,.1-.71,.18-.43,.18-.68,.41-.68,.41C8.68,.62,.42,8.01,.24,8.22-.05,8.56,0,9.02,0,9.02Z"/></g></g></svg>