<?xml version="1.0" encoding="UTF-8"?><svg id="Layer_2" xmlns="http://www.w3.org/2000/svg" viewBox="0 0 171.58 236.98"><defs><style>.cls-1{fill:none;}.cls-2{fill:#00615c;}.cls-3,.cls-4{fill:#fff;}.cls-5{fill:#fd0;}.cls-6{fill:#00a19b;}.cls-7{fill:#dde2e5;}.cls-8{fill:#2d2a26;}.cls-9{fill:#4cb9e3;}.cls-4{stroke:#fff;stroke-miterlimit:10;stroke-width:2.33px;}</style></defs><g id="Capa_1"><g><path class="cls-3" d="M133.35,157.26H22.54c-10.29,0-18.64,8.34-18.64,18.64h0c0,10.29,8.34,18.64,18.64,18.64h24.21l7.87-6.39,2.6,6.39h76.14v-37.27Z"/><path class="cls-6" d="M149.04,194.54c10.29,0,18.64-8.34,18.64-18.64h0c0-10.29-8.34-18.64-18.64-18.64h-15.69v37.27h15.69Z"/><path class="cls-9" d="M76.73,142.92c-.17-.03-.34-.06-.51-.09,.17,.03,.34,.06,.51,.09Z"/><path class="cls-9" d="M74.4,142.46c-.17-.04-.35-.08-.52-.12,.17,.04,.34,.08,.52,.12Z"/><path class="cls-9" d="M75.57,142.7c-.18-.03-.35-.07-.53-.11,.18,.04,.35,.07,.53,.11Z"/><path class="cls-9" d="M73.19,142.17c-.29-.07-.57-.15-.86-.22,.28,.08,.57,.15,.86,.22Z"/><path class="cls-9" d="M77.9,143.11c-.15-.02-.3-.05-.45-.07,.15,.02,.3,.05,.45,.07Z"/><path class="cls-9" d="M79.19,143.29c-.07,0-.14-.02-.2-.03,.07,0,.14,.02,.2,.03Z"/><path class="cls-9" d="M59.32,136.45c-.26-.16-.53-.32-.79-.48,.26,.16,.52,.32,.79,.48Z"/><path class="cls-9" d="M62.83,138.37c-1.17-.58-2.32-1.2-3.43-1.87,1.12,.67,2.26,1.29,3.43,1.87Z"/><path class="cls-9" d="M113.62,135.37c-.16,.1-.31,.2-.47,.3,.16-.1,.31-.2,.47-.3Z"/><path class="cls-9" d="M63.78,138.82c-.25-.12-.49-.23-.74-.35,.24,.12,.49,.24,.74,.35Z"/><path class="cls-9" d="M64.78,139.28c-.24-.11-.48-.22-.72-.33,.24,.11,.48,.22,.72,.33Z"/><path class="cls-9" d="M57.55,135.34c-1.13-.74-2.24-1.53-3.3-2.35,1.07,.83,2.17,1.61,3.3,2.35Z"/><path class="cls-5" d="M70.17,96.52c-4-4-6.47-9.52-6.47-15.62,0-12.2,9.89-22.09,22.09-22.09s22.09,9.89,22.09,22.09c0,6.1-2.47,11.63-6.47,15.62,9.51,5.43,15.93,15.67,15.93,27.41v8.76c11.92-9.4,19.57-23.96,19.57-40.32,0-28.34-22.97-51.31-51.31-51.31s-51.31,22.97-51.31,51.31c0,16.52,7.81,31.22,19.94,40.61v-9.05c0-11.74,6.42-21.98,15.93-27.41Z"/><path class="cls-9" d="M65.81,139.73c-.25-.11-.5-.22-.75-.32,.25,.11,.5,.22,.75,.32Z"/><path class="cls-9" d="M58.4,135.88c-.26-.17-.53-.33-.79-.5,.26,.17,.52,.34,.79,.5Z"/><path class="cls-9" d="M71.7,141.78c-.2-.06-.4-.11-.59-.17,.2,.06,.39,.12,.59,.17Z"/><path class="cls-9" d="M116.44,133.39c-.15,.12-.31,.23-.46,.34,.15-.11,.31-.23,.46-.34Z"/><path class="cls-9" d="M115.52,134.07c-.16,.11-.31,.22-.47,.34,.16-.11,.32-.22,.47-.34Z"/><path class="cls-9" d="M117.35,132.7c-.14,.11-.29,.22-.43,.33,.14-.11,.29-.22,.43-.33Z"/><path class="cls-9" d="M67.53,140.41c-.56-.21-1.12-.43-1.68-.66,.55,.23,1.11,.45,1.68,.66Z"/><path class="cls-9" d="M114.58,134.73c-.16,.11-.32,.22-.48,.32,.16-.11,.32-.22,.48-.32Z"/><path class="cls-9" d="M68.46,140.75c-.22-.08-.45-.16-.67-.24,.22,.08,.44,.16,.67,.24Z"/><path class="cls-9" d="M69.51,141.11c-.21-.07-.42-.14-.63-.21,.21,.07,.42,.14,.63,.21Z"/><path class="cls-9" d="M70.6,141.45c-.21-.06-.41-.13-.61-.19,.2,.07,.41,.13,.61,.19Z"/><path class="cls-9" d="M93.69,143.05c-.11,.02-.21,.04-.32,.05,.11-.02,.21-.03,.32-.05Z"/><path class="cls-9" d="M99.81,141.69c-.09,.02-.17,.05-.26,.07,.09-.02,.17-.05,.26-.07Z"/><path class="cls-9" d="M101.2,141.27c-.14,.05-.29,.09-.43,.14,.15-.04,.29-.09,.43-.14Z"/><path class="cls-9" d="M102.35,140.89c-.16,.06-.32,.11-.48,.16,.16-.05,.32-.11,.48-.16Z"/><path class="cls-9" d="M97.37,142.33c-.15,.04-.31,.07-.46,.1,.15-.03,.31-.07,.46-.1Z"/><path class="cls-9" d="M103.47,140.49c-.16,.06-.32,.12-.48,.18,.16-.06,.32-.12,.48-.18Z"/><path class="cls-9" d="M98.52,142.05c-.14,.04-.27,.07-.41,.1,.14-.03,.27-.07,.41-.1Z"/><path class="cls-9" d="M112.58,136.03c-.23,.14-.47,.29-.7,.43,.23-.14,.47-.28,.7-.43Z"/><path class="cls-9" d="M96.2,142.59c-.16,.03-.31,.07-.47,.1,.16-.03,.31-.06,.47-.1Z"/><path class="cls-9" d="M108.18,138.46c-.16,.08-.32,.16-.48,.24,.16-.08,.32-.16,.48-.24Z"/><path class="cls-9" d="M111.25,136.83c-.15,.09-.31,.18-.47,.26,.16-.09,.31-.17,.47-.26Z"/><path class="cls-9" d="M105.64,139.63c-.13,.06-.26,.11-.4,.16,.13-.05,.26-.11,.4-.16Z"/><path class="cls-9" d="M109.22,137.94c-.16,.08-.33,.17-.49,.25,.16-.08,.33-.17,.49-.25Z"/><path class="cls-9" d="M110.25,137.39c-.16,.09-.32,.17-.49,.26,.16-.09,.32-.17,.49-.26Z"/><path class="cls-9" d="M107.08,138.99c-.14,.07-.28,.13-.43,.2,.14-.06,.28-.13,.43-.2Z"/><path class="cls-9" d="M83.15,143.63c-.15,0-.3-.02-.45-.02,.15,0,.3,.02,.45,.02Z"/><path class="cls-9" d="M84.38,143.67c-.13,0-.26,0-.39-.01,.13,0,.26,0,.39,.01Z"/><path class="cls-9" d="M81.93,143.55c-.15-.01-.31-.02-.46-.03,.15,.01,.31,.02,.46,.03Z"/><path class="cls-9" d="M94.99,142.83c-.15,.03-.29,.06-.44,.08,.15-.03,.29-.05,.44-.08Z"/><path class="cls-9" d="M80.67,143.45c-.14-.01-.28-.02-.41-.04,.14,.01,.28,.03,.41,.04Z"/><path class="cls-9" d="M87.23,143.66c-.13,0-.26,0-.39,.01,.13,0,.26,0,.39-.01Z"/><path class="cls-9" d="M92.19,143.27c-.1,.01-.2,.02-.3,.04,.1-.01,.2-.02,.3-.04Z"/><path class="cls-9" d="M104.56,140.07c-.15,.06-.31,.12-.47,.18,.16-.06,.31-.12,.47-.18Z"/><path class="cls-9" d="M89.77,143.52c-.15,.01-.31,.02-.47,.03,.16-.01,.31-.02,.47-.03Z"/><path class="cls-9" d="M88.53,143.6c-.15,0-.3,.02-.46,.02,.15,0,.31-.02,.46-.02Z"/><path class="cls-9" d="M90.98,143.41c-.14,.01-.29,.03-.43,.04,.14-.01,.29-.03,.43-.04Z"/><path class="cls-5" d="M46.75,194.54l-10.24,8.32c-1.76,1.43-1.14,4.25,1.05,4.81l4.18,1.07c.27,.07,.43,.34,.36,.61l-5.22,20.32,13.27,3.41,5.22-20.32c.07-.27,.34-.43,.61-.36l4.18,1.07c2.19,.56,4.09-1.61,3.24-3.71l-6.19-15.22-2.6-6.39-7.87,6.39Z"/><path class="cls-2" d="M54.24,132.99c1.07,.83,2.17,1.61,3.3,2.35,.02,.01,.04,.03,.07,.04,.26,.17,.52,.34,.79,.5l.13,.08c.26,.16,.52,.32,.79,.48l.08,.05c1.12,.67,2.26,1.29,3.43,1.87,.07,.03,.14,.07,.21,.1,.24,.12,.49,.24,.74,.35,.09,.04,.18,.09,.28,.13,.24,.11,.48,.22,.72,.33,.09,.04,.18,.08,.28,.12,.25,.11,.5,.22,.75,.32l.04,.02c.55,.23,1.11,.45,1.68,.66,.09,.03,.17,.07,.26,.1,.22,.08,.44,.16,.67,.24,.14,.05,.28,.1,.42,.15,.21,.07,.42,.14,.63,.21,.16,.05,.31,.1,.47,.15,.2,.07,.41,.13,.61,.19,.17,.05,.34,.1,.51,.15,.2,.06,.39,.12,.59,.17,.21,.06,.42,.11,.63,.17,.28,.08,.57,.15,.86,.22,.23,.06,.46,.12,.7,.17,.17,.04,.35,.08,.52,.12,.21,.05,.43,.09,.64,.14,.18,.04,.35,.07,.53,.11,.22,.04,.44,.08,.65,.13,.17,.03,.34,.06,.51,.09,.24,.04,.48,.08,.72,.12,.15,.02,.3,.05,.45,.07,.36,.05,.72,.1,1.08,.15l.2,.03c.36,.04,.71,.09,1.07,.12,.14,.01,.28,.03,.41,.04,.26,.03,.53,.05,.8,.07,.15,.01,.31,.02,.46,.03,.26,.02,.52,.03,.77,.05,.15,0,.3,.02,.45,.02,.28,.01,.56,.02,.84,.03,.13,0,.26,0,.39,.01,.41,0,.82,.02,1.23,.02s.82,0,1.23-.02c.13,0,.26,0,.39-.01,.28,0,.56-.02,.84-.03,.15,0,.31-.02,.46-.02,.26-.01,.52-.03,.78-.05,.16-.01,.31-.02,.47-.03,.26-.02,.52-.04,.78-.07,.14-.01,.29-.03,.43-.04,.3-.03,.6-.07,.91-.1,.1-.01,.2-.02,.3-.04,.4-.05,.79-.11,1.18-.17,.11-.02,.21-.03,.32-.05,.29-.05,.58-.09,.86-.14,.15-.03,.29-.05,.44-.08,.25-.05,.49-.09,.74-.14,.16-.03,.31-.06,.47-.1,.24-.05,.47-.1,.71-.15,.15-.03,.31-.07,.46-.1,.25-.06,.5-.12,.74-.18,.14-.03,.27-.07,.41-.1,.35-.09,.69-.18,1.03-.28,.09-.02,.17-.05,.26-.07,.32-.09,.63-.19,.95-.28,.15-.04,.29-.09,.43-.14,.23-.07,.45-.15,.68-.22,.16-.05,.32-.11,.48-.16,.21-.07,.42-.15,.63-.22,.16-.06,.32-.12,.48-.18,.21-.08,.42-.16,.63-.24,.16-.06,.31-.12,.47-.18,.23-.09,.45-.18,.68-.28,.13-.05,.26-.11,.4-.16,.34-.14,.68-.29,1.02-.44,.14-.06,.28-.13,.43-.2,.21-.1,.41-.19,.62-.29,.16-.08,.32-.16,.48-.24,.18-.09,.37-.18,.55-.27,.16-.08,.33-.17,.49-.25,.18-.09,.36-.19,.54-.28,.16-.09,.32-.17,.49-.26,.18-.1,.36-.2,.54-.3,.16-.09,.31-.17,.47-.26,.21-.12,.42-.25,.63-.37,.23-.14,.47-.28,.7-.43,.19-.12,.38-.23,.57-.35,.16-.1,.31-.2,.47-.3,.16-.11,.33-.21,.49-.32,.16-.11,.32-.22,.48-.32,.16-.11,.31-.21,.47-.32,.16-.11,.32-.22,.47-.34,.15-.11,.31-.22,.46-.33,.15-.11,.31-.23,.46-.34,.16-.12,.31-.24,.47-.36,.14-.11,.29-.22,.43-.33h0v-8.76c0-11.74-6.42-21.98-15.93-27.41-4,4-9.52,6.47-15.62,6.47s-11.62-2.47-15.62-6.47c-9.51,5.43-15.93,15.67-15.93,27.41v9.05h0Z"/><path class="cls-7" d="M107.89,80.89c0-12.2-9.89-22.09-22.09-22.09s-22.09,9.89-22.09,22.09c0,6.1,2.47,11.63,6.47,15.62,4,4,9.52,6.47,15.62,6.47s11.62-2.47,15.62-6.47c4-4,6.47-9.52,6.47-15.62Z"/><path class="cls-8" d="M149.04,198.44c12.43,0,22.54-10.11,22.54-22.54s-10.11-22.54-22.54-22.54H22.54c-12.43,0-22.54,10.11-22.54,22.54s10.11,22.54,22.54,22.54h13.21l-1.71,1.39c-1.96,1.6-2.85,4.12-2.31,6.59,.54,2.47,2.4,4.4,4.85,5.03l.89,.23-4.37,17.03c-.54,2.09,.72,4.21,2.81,4.75l13.27,3.41c.32,.08,.65,.12,.97,.12,.69,0,1.38-.18,1.99-.54,.89-.53,1.54-1.39,1.79-2.39l4.37-17.03,.89,.23c2.45,.63,5.01-.16,6.67-2.07,1.66-1.91,2.11-4.54,1.15-6.89l-4-9.85h86.03Zm-11.79-37.27h11.79c8.12,0,14.73,6.61,14.73,14.73s-6.61,14.73-14.73,14.73h-11.79v-29.47Zm-98.93,47.21h0Zm18.64,.24c-1.14-.29-2.33-.12-3.34,.47-1.01,.6-1.73,1.56-2.02,2.7l-4.25,16.54-5.71-1.47,4.25-16.54c.29-1.14,.12-2.33-.48-3.34-.6-1.01-1.56-1.73-2.7-2.02l-1.98-.51,7.4-6.01,4.86-3.94,1.6,3.94,4.34,10.68-1.97-.51Zm2.89-17.98l-1.61-3.96c-.47-1.15-1.45-2-2.65-2.31-1.2-.31-2.47-.03-3.43,.75l-6.8,5.52H22.54c-8.12,0-14.73-6.61-14.73-14.73s6.61-14.73,14.73-14.73h106.91v29.47H59.84Z"/><path class="cls-8" d="M72.45,174.41c-.1-.23-.22-.46-.36-.67-.14-.22-.3-.41-.48-.59-.91-.91-2.26-1.32-3.52-1.07-.25,.05-.5,.12-.73,.22-.23,.1-.46,.22-.67,.36-.21,.14-.41,.31-.59,.49s-.34,.38-.48,.59c-.14,.21-.26,.44-.36,.67-.1,.24-.18,.48-.22,.73-.05,.25-.08,.51-.08,.76s.03,.51,.08,.76c.05,.25,.12,.5,.22,.73,.1,.24,.22,.46,.36,.68,.14,.21,.3,.41,.48,.59,.18,.18,.38,.34,.59,.48,.21,.14,.44,.26,.68,.36,.23,.1,.48,.17,.73,.22s.51,.08,.76,.08,.51-.03,.76-.08,.5-.12,.73-.22c.24-.1,.46-.22,.68-.36,.21-.14,.41-.3,.59-.48,.18-.18,.34-.38,.48-.59,.14-.21,.26-.44,.36-.68,.1-.23,.17-.48,.22-.73,.05-.25,.08-.51,.08-.76s-.03-.51-.08-.76c-.05-.25-.12-.49-.22-.73Z"/><path class="cls-8" d="M93.2,174.41c-.1-.23-.22-.46-.36-.67-.14-.22-.3-.41-.48-.59-.91-.91-2.26-1.32-3.52-1.07-.25,.05-.5,.12-.73,.22-.24,.1-.46,.22-.68,.36-.21,.14-.41,.31-.59,.49s-.34,.38-.48,.59c-.14,.21-.26,.44-.36,.67-.1,.24-.17,.48-.22,.73-.05,.25-.08,.51-.08,.76s.03,.51,.08,.76c.05,.25,.12,.5,.22,.73,.1,.24,.22,.46,.36,.68,.14,.21,.3,.41,.48,.59,.18,.18,.38,.34,.59,.48,.21,.14,.44,.26,.68,.36,.23,.1,.48,.17,.73,.22,.25,.05,.51,.08,.76,.08s.51-.03,.76-.08,.5-.12,.73-.22c.24-.1,.46-.22,.68-.36,.21-.14,.41-.3,.59-.48,.18-.18,.34-.38,.48-.59,.14-.21,.26-.44,.36-.68,.1-.23,.18-.48,.22-.73,.05-.25,.08-.51,.08-.76s-.03-.51-.08-.76c-.05-.25-.12-.49-.22-.73Z"/><path class="cls-8" d="M113.96,174.41c-.1-.23-.22-.46-.36-.67-.14-.22-.31-.41-.49-.59s-.38-.34-.59-.49c-.21-.14-.44-.26-.67-.36-.24-.1-.48-.17-.73-.22-.5-.1-1.02-.1-1.53,0-.25,.05-.5,.12-.73,.22-.24,.1-.46,.22-.68,.36-.21,.14-.41,.31-.59,.49s-.34,.38-.48,.59c-.14,.21-.26,.44-.36,.67-.1,.24-.17,.48-.22,.73-.05,.25-.08,.51-.08,.76s.03,.51,.08,.76,.12,.5,.22,.73c.1,.24,.22,.46,.36,.68,.14,.21,.3,.41,.48,.59,.18,.18,.38,.34,.59,.48,.21,.14,.44,.26,.68,.36,.23,.1,.48,.17,.73,.22s.51,.08,.76,.08,.51-.03,.76-.08c.25-.05,.49-.12,.73-.22,.23-.1,.46-.22,.67-.36,.21-.14,.41-.3,.59-.48,.18-.18,.34-.38,.49-.59,.14-.21,.26-.44,.36-.68,.1-.23,.17-.48,.22-.73,.05-.25,.07-.51,.07-.76s-.02-.51-.07-.76c-.05-.25-.12-.49-.22-.73Z"/><path class="cls-1" d="M38.23,92.44c0,9.16,2.61,17.72,7.13,24.98l1.33-6.5,8.57-33.98,4.67,1.75c1.15-13.28,12.32-23.73,25.89-23.73,1.97,0,3.93,.22,5.83,.66,2.1,.48,3.41,2.58,2.93,4.68-.48,2.1-2.57,3.42-4.68,2.93-1.33-.31-2.71-.46-4.09-.46-10.03,0-18.19,8.16-18.19,18.19,0,.21,0,.41,.01,.62l4.66,1.74,11.26,11.16,12.46-10.06,.1-21.62,9.96-4.28,6.56-5.01c-7.67-5.33-16.98-8.47-27.01-8.47-26.14,0-47.41,21.27-47.41,47.41Z"/><path class="cls-8" d="M85.9,37.23c-30.45,0-55.21,24.77-55.21,55.22,0,17.4,8.09,32.94,20.71,43.07,.11,.11,.23,.22,.35,.31,9.04,7.13,19.78,11.16,31.21,11.75,.07,0,.14,0,.21,.01,.37,.02,.73,.03,1.1,.04,.1,0,.2,0,.3,0,.44,.01,.89,.02,1.33,.02s.89,0,1.33-.02c.11,0,.21,0,.32,0,.36-.01,.72-.02,1.07-.04,.08,0,.16,0,.24-.01,11.25-.59,21.84-4.51,30.8-11.44,.11-.08,.2-.17,.3-.26,12.87-10.12,21.16-25.83,21.16-43.43,0-30.45-24.77-55.22-55.22-55.22Zm27.47,93.84c-6.17,4.4-13.44,7.36-21.31,8.39-.06,0-.11,.02-.16,.02-.31,.04-.62,.07-.93,.11-.28,.03-.56,.06-.84,.08-.26,.02-.52,.05-.78,.06-.45,.03-.89,.06-1.34,.08-.16,0-.32,.01-.48,.02-.54,.02-1.08,.03-1.62,.03s-1.1-.01-1.65-.03c-.16,0-.32-.01-.48-.02-.47-.02-.94-.05-1.41-.08-.27-.02-.54-.04-.81-.07-.24-.02-.49-.05-.73-.07-8.45-.9-16.23-4.03-22.77-8.79h0v-6.8c0-9.3,4.62-17.53,11.68-22.55,4.41,3.45,9.96,5.51,15.98,5.51s11.56-2.06,15.98-5.51c7.06,5.02,11.68,13.25,11.68,22.55v7.07Zm-45.74-50.1c0-10.01,8.13-18.16,18.14-18.19,10.01,.03,18.14,8.18,18.14,18.19,0,4.02-1.31,7.74-3.53,10.75-1.8,2.45-4.19,4.43-6.97,5.73-2.34,1.1-4.94,1.71-7.69,1.71s-5.35-.62-7.69-1.71c-2.78-1.3-5.17-3.28-6.97-5.73-2.11-2.87-3.4-6.38-3.52-10.18l.11,.04c0-.2-.01-.41-.01-.62Zm53.54,43.12v-.09c0-11.53-5.53-21.79-14.08-28.27,2.91-4.2,4.62-9.29,4.62-14.77,0-12.12-8.34-22.33-19.58-25.2-.15-.06-.31-.11-.48-.14-1.5-.34-3.04-.55-4.59-.62-.08,0-.16,0-.24,0-.33-.01-.67-.03-1-.03-.02,0-.04,0-.06,0-.02,0-.03,0-.05,0-.21,0-.42,.01-.63,.02-.19,0-.38,0-.57,.02-1.56,.07-3.11,.28-4.63,.62-.17,.04-.34,.09-.5,.16-9.7,2.48-17.22,10.43-19.1,20.35-.13,.3-.23,.63-.28,.97-.19,1.27-.28,2.57-.28,3.86,0,5.48,1.71,10.57,4.62,14.77-8.47,6.42-13.97,16.55-14.07,27.94-7.32-8.35-11.77-19.28-11.77-31.23,0-26.14,21.27-47.41,47.41-47.41s47.41,21.27,47.41,47.41c0,12.15-4.6,23.24-12.14,31.64Z"/><path class="cls-4" d="M85,1.66c.13-.29,.43-.5,.77-.5,.47,0,.85,.38,.85,.85l.03,17.93c0,.47-.38,.85-.85,.85-.47,0-.85-.38-.85-.85l-.03-17.93c0-.13,.03-.25,.08-.36Z"/><path class="cls-4" d="M136.61,15.06c.28-.16,.64-.16,.92,.04,.39,.27,.48,.8,.21,1.19l-10.25,14.71c-.27,.39-.8,.48-1.19,.21-.39-.27-.48-.8-.21-1.19l10.25-14.71c.07-.1,.17-.19,.27-.25Z"/></g></g></svg>