<?xml version="1.0" encoding="UTF-8"?><svg id="Layer_2" xmlns="http://www.w3.org/2000/svg" viewBox="0 0 66 59.61"><defs><style>.cls-1{fill:#2d2a26;}.cls-2{stroke:#2d2a26;stroke-miterlimit:10;stroke-width:.93px;}</style></defs><g id="Capa_1"><g><path class="cls-1" d="M41.48,26.15s-3.72,7.51-8.7,10.99c-4.97,3.49-6.4,3.62-10.01,4.13-3.62,.52-8.57-.17-8.57-.17,0,0-1.83,10.31-2.34,13.93-.52,3.62,.45,3.81,.97,3.62,.52-.19,5.94-7.56,5.94-7.56l6.65-.13s-.32,6.56-.19,7.74c.13,1.18,1.42,1.37,2.97-.44,1.55-1.81,4.91-7.43,4.91-7.43l8.59-1.23s-.9,6.52-.78,7.3c.13,.78,1.94-.26,3.23-2.39,1.29-2.13,3.29-5.56,3.29-5.56l2.13-.26s-.71,6.27-.52,7.3c.19,1.03,2.71,.13,4.78-4.91,2.07-5.04,5.1-13.44,5.23-17.51s0-7.43,0-7.43c0,0,.13-1.23,1.29-2.71s1.68-3.04,1.29-4.91-3.1-5.36-2.91-8.85c.19-3.49,.84-4.97,2.65-6.14,1.81-1.16,3.94-.52,4.52-2.07,.58-1.55-2.39-1.87-4.39-1.03s-3.36,1.62-4.78,4.52c-1.42,2.91-1.03,3.94-.9,5.88,.13,1.94,2.2,4.78,2.39,6.85,.19,2.07,.45,3.1-.84,4.72-1.29,1.62-2.33,2-2.33,2,0,0-2.84-1.42-5.75-.78-2.91,.65-7.17,2.39-7.17,2.39l-.67,.12Z"/><path class="cls-1" d="M31.95,30.22l-3.87,2.22-.55,.31c-.54,.31-.05,1.15,.49,.84l3.87-2.22,.55-.31c.54-.31,.05-1.15-.49-.84h0Z"/><path class="cls-1" d="M14.96,30.67l2.58,2.58,.37,.37c.18,.18,.51,.19,.69,0s.19-.49,0-.69l-2.58-2.58-.37-.37c-.18-.18-.51-.19-.69,0s-.19,.49,0,.69h0Z"/><path class="cls-1" d="M42.04,26.01c.14-3.48-.07-7.04-.8-10.45-.1-.49-.85-.28-.75,.21,.71,3.35,.91,6.83,.78,10.25-.02,.5,.75,.5,.78,0h0Z"/><path class="cls-1" d="M40.53,15.4c-3.02,2.52-6.38,4.92-8.6,8.22-.28,.41,.39,.8,.67,.39,1.07-1.58,2.42-2.93,3.85-4.18,1.51-1.33,3.08-2.59,4.63-3.88,.38-.32-.17-.87-.55-.55h0Z"/><path class="cls-1" d="M31.05,23.43c-3.19-.39-6.43-.51-9.65-.35-.5,.02-.5,.8,0,.78,3.21-.16,6.45-.04,9.65,.35,.49,.06,.49-.72,0-.78h0Z"/><path class="cls-1" d="M18.89,14.27c1.05,2.81,1.78,5.67,2.21,8.64,.07,.49,.82,.28,.75-.21-.43-2.97-1.16-5.83-2.21-8.64-.17-.46-.92-.26-.75,.21h0Z"/><path class="cls-1" d="M14.67,40.68c-1.66-1.72-3.77-4.11-3.73-6.68,.03-2.07,.91-4.12,1.78-5.96,2.11-4.45,4.27-8.88,6.44-13.31,.22-.45-.45-.84-.67-.39-2.3,4.7-4.62,9.4-6.83,14.14-.84,1.8-1.68,4.06-1.46,6.07,.28,2.61,2.18,4.87,3.93,6.68,.35,.36,.89-.19,.55-.55h0Z"/><path class="cls-1" d="M21.14,36.47s.03,.02,.05,.03l-.1-.08s.03,.03,.04,.04l-.08-.1s.04,.06,.05,.09l-.05-.12c.08,.21,.13,.44,.19,.65l.2,.7c.07,.24,.35,.42,.6,.34s.41-.33,.34-.6l-.26-.9c-.09-.32-.16-.75-.5-.91-.12-.06-.24-.09-.37-.05-.11,.03-.23,.12-.29,.22-.11,.21-.07,.55,.17,.66h0Z"/><path class="cls-1" d="M20.9,35.9c-.33,.59-.62,1.2-.86,1.83-.04,.11,0,.27,.05,.37s.17,.2,.29,.22c.28,.06,.5-.08,.6-.34,.03-.08,.06-.15,.09-.22,.01-.03,.03-.07,.04-.1l.02-.06c-.03,.07-.03,.08-.01,.03,.06-.14,.12-.27,.19-.41,.13-.28,.28-.56,.43-.83,.13-.22,.06-.54-.17-.66s-.53-.06-.66,.17h0Z"/><ellipse class="cls-2" cx="21.47" cy="35.68" rx=".95" ry=".37" transform="translate(-5.68 4.11) rotate(-9.66)"/><path class="cls-1" d="M31.79,19.44l2.72-8.02,.38-1.14c.16-.47-.59-.68-.75-.21l-2.72,8.02-.38,1.14c-.16,.47,.59,.68,.75,.21h0Z"/><path class="cls-1" d="M34.25,9.91l-3.39,4.32-.48,.61c-.13,.16-.16,.39,0,.55,.13,.13,.42,.17,.55,0l3.39-4.32,.48-.61c.13-.16,.16-.39,0-.55-.13-.13-.42-.17-.55,0h0Z"/><path class="cls-1" d="M30.9,15.36l.24-8.17,.03-1.18c.01-.5-.76-.5-.78,0l-.24,8.17-.03,1.18c-.01,.5,.76,.5,.78,0h0Z"/><path class="cls-1" d="M30.51,5.84c-.95,1.81-1.86,3.66-2.6,5.57-.54,1.4-.96,2.85-1.4,4.29-.14,.48,.6,.68,.75,.21,.43-1.41,.85-2.84,1.37-4.22,.71-1.87,1.62-3.69,2.55-5.45,.23-.44-.44-.83-.67-.39h0Z"/><path class="cls-1" d="M26.99,15.8l-2.26-5.4-.32-.77c-.08-.19-.26-.33-.48-.27-.18,.05-.35,.28-.27,.48l2.26,5.4,.32,.77c.08,.19,.26,.33,.48,.27,.18-.05,.35-.28,.27-.48h0Z"/><path class="cls-1" d="M23.6,9.74l.03,8.94v1.29c0,.5,.78,.5,.78,0l-.03-8.94v-1.29c0-.5-.78-.5-.78,0h0Z"/><path class="cls-1" d="M24.01,20.35c2.44,0,4.88,0,7.32,0,.5,0,.5-.78,0-.78-2.44,0-4.88,0-7.32,0-.5,0-.5,.78,0,.78h0Z"/><path class="cls-1" d="M3,13.9l.83,1.68s.04,.05,.07,.05l1.85,.27c.08,.01,.11,.11,.05,.16l-1.34,1.31s-.03,.05-.03,.08l.32,1.85c.01,.08-.07,.13-.14,.1l-1.66-.87s-.06-.01-.09,0l-1.66,.87c-.07,.04-.15-.02-.14-.1l.32-1.85s0-.06-.03-.08L.03,16.06c-.06-.05-.02-.15,.05-.16l1.85-.27s.06-.02,.07-.05l.83-1.68c.03-.07,.13-.07,.17,0Z"/></g></g></svg>