<?xml version="1.0" encoding="UTF-8"?><svg id="Layer_2" xmlns="http://www.w3.org/2000/svg" viewBox="0 0 57 57"><defs><style>.cls-1{fill:#fd0;}</style></defs><g id="Capa_1"><path class="cls-1" d="M37.48,25.57c1.55,0,3.1-.59,4.28-1.77,1.14-1.14,1.77-2.66,1.77-4.28s-.63-3.14-1.77-4.28c-2.36-2.36-6.2-2.36-8.56,0-1.14,1.14-1.77,2.66-1.77,4.28s.63,3.14,1.77,4.28c1.18,1.18,2.73,1.77,4.28,1.77Zm-3.12-6.05c0-.84,.32-1.62,.91-2.21,1.18-1.18,3.24-1.18,4.42,0,.59,.59,.92,1.38,.92,2.21s-.32,1.62-.92,2.21c-1.18,1.18-3.23,1.18-4.42,0-.59-.59-.91-1.37-.91-2.21Z"/><path class="cls-1" d="M57,1.49c0-.4-.14-.78-.43-1.06-.28-.28-.67-.46-1.06-.43-.29,0-7.12,.18-16,3.97-5.36,2.29-10.37,5.45-14.89,9.4-4.82-2.49-14.57-3.48-22.01,8.08-.15,.24-.23,.51-.23,.79s.07,.54,.22,.77c.29,.47,.83,.74,1.4,.69,1.96-.2,7.45-.27,10.15,1.59-1.05,1.55-2.06,3.17-2.99,4.82-.12,.22-.19,.47-.19,.72,0,.39,.15,.76,.43,1.04l.5,.5-2.49,5.7c-.08,.18-.12,.38-.12,.59,0,.39,.15,.76,.43,1.04l7.62,7.62c.43,.43,1.06,.54,1.62,.3l5.7-2.49,.5,.5c.46,.46,1.18,.56,1.75,.24,1.64-.92,3.25-1.92,4.79-2.97,1.76,2.76,1.69,8.1,1.5,10.01-.06,.56,.22,1.1,.69,1.4,.24,.14,.5,.21,.77,.21s.55-.08,.79-.23c11.42-7.35,10.55-17.05,8.15-21.86C56.56,17.51,56.99,1.65,57,1.49ZM22.06,15.48c-2.27,2.23-4.41,4.69-6.37,7.32-2.57-1.69-6.36-2.08-8.92-2.12,5.88-7.28,12.22-6.31,15.3-5.2ZM53.94,3.07c-.62,5.45-3.77,21.42-19.7,34.29l-.1,.08c-2.38,1.91-4.97,3.7-7.72,5.31l-12.16-12.16C27.71,7.59,48.54,3.7,53.94,3.07Zm-18.32,36.94c.23-.18,.46-.37,.72-.58,.39-.32,.77-.64,1.15-.96,1.41-1.2,2.73-2.43,3.93-3.65,1.11,3.07,2.08,9.41-5.2,15.3-.04-2.57-.43-6.36-2.13-8.93,.52-.39,1.03-.78,1.53-1.17Zm-13.19,2.88l-3.73,1.63-6.2-6.2,1.63-3.73,8.3,8.3Z"/><path class="cls-1" d="M11.6,46.86c0-.39-.15-.76-.43-1.03-.27-.28-.64-.43-1.03-.43h0c-.39,0-.76,.15-1.04,.43l-7.81,7.81c-.27,.28-.43,.65-.43,1.03s.15,.76,.43,1.03c.28,.28,.64,.43,1.04,.43h0c.39,0,.76-.15,1.03-.43l7.81-7.8c.28-.28,.43-.64,.43-1.04Z"/><path class="cls-1" d="M2.5,50.09l5.43-5.43c.28-.28,.43-.64,.43-1.03s-.15-.76-.43-1.03c-.27-.28-.64-.43-1.03-.43h0c-.39,0-.76,.15-1.04,.43L.43,48.01c-.28,.28-.43,.64-.43,1.03s.15,.76,.43,1.04c.29,.29,.66,.43,1.04,.43s.75-.14,1.03-.43Z"/><path class="cls-1" d="M13.38,48.64h0c-.39,0-.76,.15-1.04,.43l-5.43,5.43c-.28,.28-.43,.64-.43,1.03s.15,.76,.43,1.04c.29,.29,.66,.43,1.04,.43s.75-.14,1.03-.43l5.43-5.43c.28-.28,.43-.64,.43-1.04s-.15-.76-.43-1.03c-.27-.28-.64-.43-1.03-.43Z"/></g></svg>