<?xml version="1.0" encoding="UTF-8"?><svg id="Layer_2" xmlns="http://www.w3.org/2000/svg" viewBox="0 0 179.46 62.22"><defs><style>.cls-1{fill:#2d2a26;}</style></defs><g id="Capa_1"><g><path class="cls-1" d="M24.12,43.66c.41-.2,1.11-1.81,.35-2.39s-2.39-.99-3.68-1.05c-1.28-.06-3.04-1.93-3.04-1.93,0,0,.98,.89,.35,3.15-.73,2.62-6.05,7.79-1.15,12.41,4.91,4.61,9.49,3.28,15.22,1.02,6.13-2.41,15.84-2.59,20.21,.93,2.45,1.98,1.17,4.61,1.17,4.61,0,0,2.78-1.87,1.75-4.96-1.26-3.78-6.66-3.97-6.66-3.97,0,0,1.05-.43,2.22-.76,1-.28,2.57,.53,2.57,.53,0,0-.36-1.07-1.64-1.64-.65-.29-1.93-.64-1.93-.64,0,0,1.07-.65,2.57-.88s2.98,1.26,2.98,1.26c0,0-.11-3.33-2.99-3.26-6.74,.16-10.91,3.82-16.69,6.33s-12.33,2.42-14.61-2.53c-2.55-5.53-.57-6.99,.42-7.22s2.47-.23,2.57,.99Z"/><path class="cls-1" d="M20.65,50.6s1.9,1.09,6.67,.68c4.78-.41,10.93-3.57,10.93-3.57,0,0-.96-.27-1.64-.41s-1.91-.82-1.91-.82c0,0,5.29,.4,8.67-1.09,3.41-1.5,6.62-4.91,6.62-4.91,0,0-2.59,1.16-3.89,1.5s-4.03,.14-4.03,.14c0,0,3.83-1.71,5.12-2.66,2.12-1.57,3.69-4.37,3.69-4.37,0,0-1.91,.89-2.94,1.09s-2.73,0-2.73,0c0,0,5.19-3,6.96-5.46,1.77-2.46,2.73-7.03,2.73-7.03,0,0-1.37,1.98-2.53,2.87s-2.94,.68-2.94,.68c0,0,4.95-4.13,6.01-10.99,1.02-6.62-3.69-9.9-3.69-9.9,0,0,1.98,9.9-3.82,16.93-4.76,5.77-12.63,8.26-12.63,8.26,0,0,1.12,9.66-5.79,13.94-5.28,3.27-9.46,1.86-9.65-.27-2.12,1.16,.76,5.39,.76,5.39Z"/><path class="cls-1" d="M17.14,43.48s-2.05,3.47-4.88,1.5c-2.18-1.52-4.19-7.4-.84-12.32,3.34-4.91,6.71-4.75,6.71-4.75,0,0-5.12-5.67-2.39-15.02C18.46,3.55,22.9,0,22.9,0c0,0-6.26,.83-9.95,10.7-3.09,8.27-2.13,15.17-2.13,15.17,0,0-1.5-1.84-1.57-5.05-.07-3.21,.96-6.55,.96-6.55,0,0-3.07,4.57-3.14,9.35-.07,4.78,.82,8.26,.82,8.26,0,0-1.09-.07-1.57-1.5-.48-1.43-.34-4.03-.34-4.03,0,0-2.05,4.3-.96,8.05,1.09,3.75,2.25,4.64,2.25,4.64,0,0-.82-.07-1.43-.55s-1.57-2.46-1.57-2.46c0,0,1.06,6.36,4.1,9.49,2.12,2.18,5.85,3.73,7.07,6.29,1.17,2.45,3.17,1.83,3.17,1.83l-1.46-10.17Z"/><path class="cls-1" d="M67.82,18.69h11.04v2.48h-8.25v5.94h7.97v2.49h-7.97v6.05h8.51v2.48h-11.3V18.69Z"/><path class="cls-1" d="M82.09,18.69h2.79v16.93h8.77v2.54h-11.55V18.69Z"/><path class="cls-1" d="M104.04,18.69h10.38v2.48h-7.6v5.44h7.6v2.48h-7.6v9.07h-2.79V18.69Z"/><path class="cls-1" d="M117.4,18.69h11.04v2.48h-8.25v5.94h7.97v2.49h-7.97v6.05h8.51v2.48h-11.3V18.69Zm8.1-5.62l-3.15,4.18h-1.56l1.88-4.18h2.83Z"/><path class="cls-1" d="M147.14,18.69h2.65v19.47h-2.4l-13.02-14.99v14.99h-2.62V18.69h2.26l13.13,15.12v-15.12Z"/><path class="cls-1" d="M153.98,18.69h2.79v19.47h-2.79V18.69Z"/><path class="cls-1" d="M175.19,18.69h3.37l-7.79,9.39,8.33,10.08h-3.37l-6.63-8.07-6.69,8.07h-3.41l8.38-10.08-7.78-9.39h3.4l6.11,7.44,6.07-7.44Z"/><path class="cls-1" d="M71.58,42.51h.83l3.71,8.33h-1.21l-1.1-2.46h-3.53l-1.04,2.46h-1.22l3.56-8.33Zm1.74,4.82l-1.34-3-1.24,3h2.58Z"/><path class="cls-1" d="M83.11,42.56h1.19v7.21h3.73v1.08h-4.92v-8.28Z"/><path class="cls-1" d="M100.9,42.56h1.19v4.7c0,.64-.05,1.12-.14,1.44-.09,.32-.21,.59-.34,.81-.14,.21-.3,.41-.5,.58-.66,.57-1.51,.85-2.57,.85s-1.95-.28-2.6-.84c-.2-.17-.37-.37-.5-.58-.14-.22-.25-.48-.34-.79s-.13-.8-.13-1.47v-4.69h1.19v4.7c0,.78,.09,1.32,.27,1.62s.45,.55,.81,.73c.36,.18,.79,.28,1.29,.28,.7,0,1.28-.18,1.72-.55,.23-.2,.4-.43,.5-.7,.1-.27,.15-.73,.15-1.38v-4.7Z"/><path class="cls-1" d="M116.4,42.56h1.11v8.28h-1.19v-6.45l-2.55,3.2h-.22l-2.58-3.2v6.45h-1.19v-8.28h1.12l2.75,3.4,2.74-3.4Z"/><path class="cls-1" d="M125.37,42.56h1.19v8.28h-1.19v-8.28Z"/><path class="cls-1" d="M141.06,42.56h1.13v8.28h-1.02l-5.54-6.38v6.38h-1.11v-8.28h.96l5.59,6.43v-6.43Z"/><path class="cls-1" d="M150.04,42.56h1.19v8.28h-1.19v-8.28Z"/><path class="cls-1" d="M163.2,42.44c1.28,0,2.35,.41,3.2,1.22,.85,.81,1.28,1.83,1.28,3.05s-.43,2.23-1.29,3.03c-.86,.8-1.94,1.2-3.25,1.2s-2.29-.4-3.12-1.2c-.83-.8-1.25-1.8-1.25-3.01s.42-2.26,1.26-3.07,1.9-1.22,3.18-1.22Zm.05,1.13c-.95,0-1.73,.3-2.34,.89s-.92,1.35-.92,2.27,.31,1.64,.92,2.23,1.38,.89,2.3,.89,1.7-.3,2.31-.91c.62-.61,.93-1.36,.93-2.26s-.31-1.62-.93-2.21-1.38-.9-2.28-.9Z"/><path class="cls-1" d="M177.26,47.37l-.9-.55c-.57-.35-.97-.68-1.21-1.02-.24-.33-.36-.72-.36-1.15,0-.65,.23-1.18,.68-1.59,.45-.41,1.04-.61,1.76-.61s1.33,.19,1.9,.58v1.35c-.6-.57-1.24-.86-1.93-.86-.39,0-.71,.09-.96,.27-.25,.18-.37,.41-.37,.69,0,.25,.09,.48,.28,.7s.48,.44,.89,.68l.91,.54c1.01,.6,1.52,1.37,1.52,2.3,0,.66-.22,1.2-.67,1.62-.44,.42-1.02,.62-1.73,.62-.82,0-1.56-.25-2.24-.75v-1.51c.64,.81,1.38,1.22,2.22,1.22,.37,0,.68-.1,.93-.31s.37-.47,.37-.78c0-.5-.36-.98-1.09-1.43Z"/><path class="cls-1" d="M19.27,7.32c3.16-1.27,6.6-1.97,10.21-1.97,8.36,0,15.84,3.75,20.86,9.65,.19-.94,.31-1.85,.37-2.7-5.36-5.57-12.89-9.04-21.24-9.04-3.01,0-5.91,.45-8.64,1.29-.5,.78-1.03,1.7-1.56,2.78Z"/><path class="cls-1" d="M45.88,54.67c-4.57,3.42-10.25,5.45-16.4,5.45-15.13,0-27.39-12.26-27.39-27.39,0-7.98,3.42-15.17,8.87-20.17,.23-.76,.48-1.53,.78-2.32,.19-.52,.4-1.01,.61-1.49C4.87,14.11,0,22.85,0,32.74c0,16.28,13.2,29.48,29.48,29.48,7.24,0,13.87-2.62,19-6.95-.79-.25-1.67-.45-2.6-.59Z"/><path class="cls-1" d="M53.95,45.03c.74,.26,1.3,.71,1.71,1.25,2.1-4.06,3.3-8.66,3.3-13.54s-1.09-9.1-3.03-13.03c-.33,.94-.71,1.81-1.12,2.61,1.32,3.21,2.06,6.73,2.06,10.42,0,4.42-1.05,8.6-2.92,12.29Z"/></g></g></svg>