<?xml version="1.0" encoding="UTF-8"?><svg id="Layer_2" xmlns="http://www.w3.org/2000/svg" viewBox="0 0 48.64 46.44"><defs><style>.cls-1{fill:#fd0;stroke:#fd0;stroke-miterlimit:10;stroke-width:1.44px;}</style></defs><g id="Capa_1"><path class="cls-1" d="M38.21,45.72c-.18,0-.36-.04-.52-.13l-13.37-7.03-13.37,7.03c-.38,.2-.84,.17-1.18-.09-.35-.25-.52-.68-.45-1.1l2.55-14.88L1.06,18.98c-.31-.3-.42-.75-.28-1.15,.13-.41,.48-.7,.91-.77l14.94-2.17L23.31,1.35c.19-.38,.58-.63,1.01-.63s.82,.24,1.01,.63l6.68,13.54,14.94,2.17c.42,.06,.78,.36,.91,.77,.13,.41,.02,.85-.28,1.15l-10.81,10.54,2.55,14.88c.06,.33-.03,.66-.25,.92-.21,.25-.53,.4-.86,.4h0Zm-13.89-9.55c.18,0,.36,.04,.52,.13l11.87,6.24-2.27-13.22c-.06-.36,.06-.74,.32-1l9.61-9.36-13.27-1.93c-.37-.05-.68-.28-.85-.62l-5.94-12.03-5.94,12.03c-.16,.33-.48,.56-.85,.62l-13.27,1.93,9.61,9.36c.27,.26,.39,.63,.32,1l-2.27,13.22,11.87-6.24c.16-.09,.34-.13,.52-.13h0Z"/></g></svg>