<?xml version="1.0" encoding="UTF-8"?><svg id="Layer_2" xmlns="http://www.w3.org/2000/svg" viewBox="0 0 53.08 45"><defs><style>.cls-1{fill:#fd0;}</style></defs><g id="Capa_1"><path class="cls-1" d="M53.06,14.77c0-.08-.02-.16-.05-.23-.02-.04-.04-.08-.06-.12-.02-.04-.03-.08-.05-.11L42.65,.37c-.06-.08-.13-.14-.21-.2-.02-.01-.03-.02-.05-.03-.09-.05-.18-.09-.29-.11,0,0-.01,0-.02,0-.01,0-.02,0-.03,0-.04,0-.09-.02-.13-.02H11.16s-.09,0-.13,.02c-.01,0-.02,0-.03,0,0,0-.01,0-.02,0-.1,.02-.2,.06-.29,.11-.02,.01-.03,.02-.05,.03-.08,.05-.15,.12-.21,.2L.17,14.31s-.03,.07-.05,.11c-.02,.04-.04,.08-.06,.12-.03,.08-.04,.15-.05,.23,0,.03-.02,.05-.02,.07,0,0,0,.01,0,.02,0,.11,.02,.22,.07,.32,.01,.03,.03,.05,.05,.08,.03,.06,.06,.12,.11,.18l25.64,29.25c.17,.2,.42,.31,.68,.31h0c.26,0,.51-.11,.68-.31L52.85,15.44c.05-.05,.08-.12,.11-.18,.01-.03,.04-.05,.05-.08,.04-.1,.06-.21,.07-.32,0,0,0-.01,0-.02,0-.03-.01-.05-.02-.07ZM40.84,1.8l-2.04,11.11L28.59,1.8h12.26Zm-14.3,12.15H15.77L26.54,2.23l10.77,11.72h-10.77ZM24.49,1.8L14.28,12.91,12.24,1.8h12.26Zm-13.84,1.31l1.99,10.84H2.68L10.65,3.11ZM2.88,15.75H13.15l11.52,24.85L2.88,15.75Zm23.66,24.65h0L15.12,15.75h22.83l-11.41,24.65Zm1.87,.2l11.52-24.85h10.26l-21.78,24.85Zm12.03-26.65l1.99-10.84,7.97,10.84h-9.96Z"/></g></svg>