<?xml version="1.0" encoding="UTF-8"?><svg id="Layer_2" xmlns="http://www.w3.org/2000/svg" viewBox="0 0 94.35 62.09"><defs><style>.cls-1{fill:#2d2a26;}</style></defs><g id="Capa_1"><g><path class="cls-1" d="M4.83,38.5v-4.27c.47-.04,.94-.05,1.41-.11,1.07-.13,2.09-.4,2.88-1.21,.58-.6,.86-1.35,1.01-2.15,.4-2.1,.41-4.2-.14-6.28-.47-1.76-1.66-2.72-3.41-3.01-.57-.1-1.16-.13-1.78-.19v6.2H0V5.35H4.78v.43c0,3.69,0,7.38,0,11.07,0,.34,.07,.49,.43,.43,.68-.11,1.37-.16,2.03-.33,1.21-.31,2.03-1.1,2.38-2.29,.69-2.36,.77-4.75,.08-7.12-.58-1.99-1.96-2.95-4.04-2.96-.27,0-.54,0-.82,0V.56s.05-.04,.07-.04c1.55-.01,3.1-.11,4.62,.29,2.41,.63,3.94,2.2,4.77,4.51,.48,1.34,.69,2.73,.75,4.15,.06,1.57,.01,3.14-.26,4.69-.42,2.4-1.8,3.96-4.02,4.84-.13,.05-.27,.11-.47,.2,.17,.08,.28,.14,.4,.19,1.2,.53,2.32,1.18,3.21,2.17,.92,1.03,1.34,2.27,1.54,3.6,.36,2.4,.33,4.8-.26,7.17-.48,1.97-1.41,3.67-3.14,4.83-1.23,.83-2.62,1.23-4.08,1.33-1.02,.07-2.05,.01-3.12,.01Z"/><path class="cls-1" d="M42.86,31.15c.38-.79,.76-1.54,1.11-2.31,1.8-3.92,3.62-7.83,5.38-11.77,.84-1.88,1.45-3.84,1.77-5.89,.23-1.46,.29-2.93-.11-4.37-.32-1.19-.97-2.08-2.26-2.35-1.47-.32-2.65,.26-3.27,1.64-.52,1.15-.65,2.37-.67,3.61-.02,.96,0,1.92,0,2.89,0,.07-.01,.13-.02,.22-.1,0-.18,.02-.27,.02-1.45,0-2.9,0-4.35,0-.19,0-.32,0-.33-.25-.1-2.51-.01-4.99,.65-7.43,.42-1.54,1.12-2.91,2.49-3.84,.99-.68,2.11-1.04,3.29-1.18,1.56-.19,3.12-.17,4.65,.22,2.57,.66,4.2,2.3,4.96,4.81,.59,1.94,.68,3.94,.44,5.94-.38,3.13-1.44,6.07-2.63,8.97-1.56,3.77-3.51,7.34-5.43,10.92-.06,.1-.22,.21-.34,.21-1.61,.01-3.22,0-4.82,0-.06,0-.13-.02-.23-.04Z"/><path class="cls-1" d="M20.42,18.88c.06-.52,.11-1.04,.17-1.55,.17-1.43,.35-2.87,.52-4.3,.17-1.4,.34-2.8,.51-4.2,.13-1.05,.26-2.11,.38-3.16,.02-.19,.03-.35,.3-.35,1.32,0,2.65,0,3.97,0,.03,0,.06,.01,.15,.03l-1.17,9.13c.25,0,.44,0,.62,0,1.71-.02,3.36,.28,4.87,1.12,1.95,1.09,3.13,2.8,3.79,4.89,.62,1.94,.74,3.94,.65,5.96-.1,2.09-.4,4.13-1.18,6.09-.81,2.03-2.01,3.76-3.88,4.98-1.24,.8-2.6,1.23-4.06,1.4-2.53,.3-4.89-.31-7.16-1.37-.13-.06-.26-.1-.2-.32,.41-1.39,.79-2.78,1.19-4.17,0-.03,.03-.06,.06-.11,.22,.1,.43,.2,.64,.3,1.05,.49,2.12,.91,3.28,1.02,1.56,.15,2.87-.35,3.92-1.52,.99-1.11,1.51-2.46,1.78-3.9,.38-2.04,.43-4.09-.09-6.12-.64-2.51-2.44-3.99-5.03-4.21-1.26-.11-2.48,.02-3.69,.32-.07,.02-.13,.03-.2,.04-.03,0-.06,0-.13,0Z"/><path class="cls-1" d="M63.95,61.52s-.08,0-.11,0c-1.63,.81-3.33,.6-5.01,.26-1.41-.29-2.15-1.29-2.37-2.68-.05-.34-.09-.7-.09-1.05,0-1.9-.04-3.8,.04-5.7,.07-1.9,1.33-3.15,3.24-3.28,1.25-.09,2.51-.06,3.77-.08,.45,0,.45,0,.45-.47,0-1.45,0-2.9,0-4.35v-.42c.69,0,1.35,0,2.02,0,.05,0,.12,.11,.14,.18,.03,.1,.01,.2,.01,.3,0,5.75,0,11.5,0,17.25q0,.52-.52,.52c-.37,0-.75-.01-1.12,0-.29,.01-.46-.05-.41-.39,0-.04-.02-.08-.03-.13Zm-.09-10.56c-.06-.03-.1-.05-.13-.05-1.26,0-2.51-.03-3.76,.05-.88,.06-1.42,.7-1.43,1.57-.02,1.99-.02,3.98,0,5.97,.01,.87,.54,1.46,1.41,1.55,.81,.08,1.63,.1,2.44,.05,.96-.06,1.47-.69,1.47-1.65,0-2.38,0-4.75,0-7.13v-.36Z"/><path class="cls-1" d="M94.34,55.53c0,1.01,.03,2.02,0,3.02-.07,1.85-1,2.98-2.83,3.33-1.44,.27-2.91,.29-4.34-.08-1.45-.37-2.29-1.38-2.44-2.87-.06-.65-.07-1.31-.07-1.96-.01-1.36-.02-2.72,0-4.07,0-.44,.07-.88,.16-1.31,.29-1.27,1.09-2.08,2.34-2.37,1.53-.36,3.08-.37,4.61-.02,1.68,.39,2.43,1.51,2.55,3.14,.08,1.06,.01,2.13,.01,3.19h0Zm-2.15,0c0-.98,0-1.97,0-2.95,0-.83-.43-1.45-1.25-1.57-.8-.12-1.62-.1-2.43-.08-1.04,.02-1.66,.63-1.68,1.65-.03,1.96-.03,3.91,0,5.87,.01,.95,.51,1.5,1.46,1.6,.75,.08,1.52,.1,2.27,.03,1.17-.11,1.63-.7,1.64-1.87,0-.89,0-1.79,0-2.68Z"/><path class="cls-1" d="M8.31,60.13c0,.59,0,1.13,0,1.67,0,.25-.17,.22-.32,.22-1.3,0-2.6,.01-3.91,0-.46,0-.93-.07-1.38-.16-1.6-.33-2.57-1.38-2.64-3.01C-.02,56.76,0,54.67,0,52.57c0-.38,.09-.76,.17-1.14,.29-1.32,1.14-2.07,2.45-2.31,1.26-.23,2.53-.22,3.78-.05,1.43,.19,2.52,1.33,2.63,2.83,.11,1.41,.07,2.82,.08,4.24,0,.08-.14,.22-.23,.23-.21,.04-.43,.01-.64,.01-1.89,0-3.78,0-5.67,0-.32,0-.45,.08-.43,.42,.03,.47,0,.95,0,1.43,.03,1.24,.62,1.86,1.86,1.89,1.28,.03,2.56,.01,3.84,.01,.13,0,.27,0,.46,0Zm-6.14-5.7c.07,.03,.09,.05,.11,.05,1.5,0,3.01,.01,4.51,0,.08,0,.22-.16,.22-.24,0-.67,.02-1.33-.03-2-.05-.7-.64-1.27-1.34-1.31-.7-.03-1.4-.02-2.1,0-.77,.02-1.28,.53-1.35,1.3-.01,.11-.02,.23-.02,.34,0,.63,0,1.26,0,1.87Z"/><path class="cls-1" d="M51.66,48.99v.42c0,4.06,0,8.12,0,12.18,0,.34-.08,.47-.43,.44-.34-.03-.68,0-1.02,0q-.53,0-.64-.5c-.4,.14-.78,.35-1.19,.4-1.24,.17-2.49,.21-3.7-.16-1.31-.4-1.97-1.38-2.16-2.69-.06-.41-.08-.83-.08-1.25,0-2.78,0-5.57,0-8.35v-.46h2.16v.44c0,2.94,0,5.88,0,8.82,0,.9,.37,1.55,1.09,1.72,.92,.23,1.87,.22,2.79,0,.65-.16,1.01-.76,1.01-1.52,0-1.27,0-2.53,0-3.8,0-1.76,0-3.53,0-5.29,0-.3,.07-.42,.4-.4,.57,.03,1.15,0,1.78,0Z"/><path class="cls-1" d="M22.17,49.03c0,.55,0,1.09,0,1.63,0,.26-.17,.22-.33,.22-1.05,0-2.11,0-3.16,0-.29,0-.59,.03-.87,.1-.58,.15-.86,.54-.87,1.14,0,.32,0,.63,0,.95,.02,.66,.4,1.08,1.06,1.14,.53,.04,1.06,.03,1.59,.06,2.04,.12,3.04,1.25,3.1,3.21,.02,.71,.02,1.43-.09,2.13-.2,1.26-1.13,2.07-2.52,2.3-.36,.06-.72,.1-1.08,.1-1.23,.01-2.47,0-3.7,0-.3,0-.43-.07-.41-.4,.02-.39,.02-.79,0-1.19-.01-.26,.09-.32,.34-.32,1.21,.01,2.42,.01,3.63,0,.3,0,.61-.05,.9-.13,.48-.14,.72-.5,.73-.99,.02-.54,.02-1.09,0-1.63-.02-.62-.36-.99-.98-1.04-.59-.04-1.18,0-1.76-.06-.51-.06-1.03-.18-1.5-.37-.79-.32-1.26-.99-1.37-1.81-.1-.85-.15-1.72-.06-2.57,.14-1.36,.92-2.11,2.31-2.39,.44-.09,.9-.13,1.34-.14,1.19-.02,2.38,0,3.57,0,.02,0,.04,.01,.12,.03Z"/><path class="cls-1" d="M37.13,60.13c0,.6,0,1.15,0,1.7,0,.07-.14,.19-.21,.19-1.22,0-2.45,.04-3.66-.04-.99-.07-1.76-.91-1.99-2-.07-.35-.1-.72-.1-1.08,0-2.51,0-5.02,0-7.53,0-.47,0-.47-.46-.47-.57,0-1.13,0-1.7,0-.24,0-.35-.06-.34-.33,.02-.51,0-1.01,0-1.58h1.41c.23,0,.46-.02,.68,0,.35,.04,.42-.11,.41-.42-.02-.78,0-1.56-.01-2.34,0-.28,.07-.41,.38-.4,.5,.02,1,.01,1.49,0,.24,0,.31,.08,.31,.32-.01,.81,0,1.63-.01,2.44,0,.3,.07,.41,.39,.4,1.12-.02,2.24,0,3.42,0,0,.6,0,1.18-.01,1.76,0,.05-.21,.13-.33,.13-1.01,.01-2.01,0-3.02,0-.44,0-.44,0-.44,.45,0,2.53,0,5.07,0,7.6,0,.82,.31,1.16,1.14,1.18,.87,.02,1.74,0,2.67,0Z"/><path class="cls-1" d="M74.25,50.92c-.18-.01-.32-.03-.47-.03-1.02,0-2.04,0-3.06,0-.25,0-.37-.06-.35-.34,.02-.51,0-1.01,0-1.54h6.06v11.1h3.88c0,.62,0,1.2-.01,1.78,0,.05-.21,.13-.33,.13-1.43,0-2.85,0-4.28,0-.34,0-.68-.02-1.02,0-.33,.02-.44-.07-.44-.43,.02-3.41,0-6.81,0-10.22v-.46Z"/><path class="cls-1" d="M46.64,38.54v-3.62q0-.73,.73-.73h8.62v4.35h-9.35Z"/><path class="cls-1" d="M31.09,4.84c-1.06,0-2.13,0-3.19,0-.29,0-.42-.06-.41-.39,.02-1.21,.02-2.42,0-3.63,0-.29,.09-.36,.37-.36,2.16,0,4.32,0,6.48,0,.28,0,.37,.1,.37,.37-.01,1.21-.01,2.42,0,3.63,0,.31-.11,.38-.4,.38-1.07-.01-2.15,0-3.22,0Z"/><path class="cls-1" d="M74.13,46.04v-2.27c.16,0,.31-.02,.47-.02,.55,0,1.11,0,1.66,0,.22,0,.31,.07,.3,.29,0,.58,0,1.15-.01,1.73,0,.09-.1,.26-.16,.26-.74,.02-1.48,.01-2.26,.01Z"/></g></g></svg>