<?xml version="1.0" encoding="UTF-8"?><svg id="Layer_2" xmlns="http://www.w3.org/2000/svg" viewBox="0 0 113.34 36.59"><defs><style>.cls-1{fill:#2d2a26;}</style></defs><g id="Capa_1"><g><rect class="cls-1" x="73.34" width="9.97" height="4.75" rx=".03" ry=".03"/><path class="cls-1" d="M104.68,6.01c.88-.84,1.95-1.26,3.21-1.26h5.42s.03-.01,.03-.03V.03s-.01-.03-.03-.03h-10.41c-2.61,0-4.85,.89-6.73,2.65-1.88,1.77-2.81,3.87-2.81,6.33v.42h-19.99s-.03,.03-.03,.05v27.1s.01,.03,.03,.03h9.9s.03-.01,.03-.03V14.3s.01-.03,.03-.03h9.99s.03,.01,.03,.03v22.26s.01,.03,.03,.03h9.91s.03-.01,.03-.03V14.3s.01-.03,.03-.03h4.95s.03-.01,.03-.03v-4.8s-.01-.03-.03-.03h-4.99v-.41c0-1.14,.44-2.14,1.34-2.98Z"/><path class="cls-1" d="M55.01,15.97h-10.01s-.03-.01-.03-.03V.03s-.01-.03-.03-.03h-9.9s-.03,.01-.03,.03V31.82s-.01,.03-.03,.03H14.99c-1.39-.01-2.57-.48-3.55-1.41-.98-.93-1.46-2.03-1.46-3.3V9.41c0-1.27,.49-2.37,1.47-3.28,.98-.92,2.18-1.37,3.54-1.37h5.02c2.93,0,4.57,1.54,4.98,4.63,0,.02,.02,.03,.03,.03h4.95s.03-.02,.03-.04c-.38-6.24-3.72-9.37-9.99-9.37H9.98C7.17,0,4.82,.94,2.89,2.81,.96,4.68,0,6.89,0,9.42V27.17c0,2.59,.98,4.79,2.94,6.65,1.96,1.85,4.3,2.77,7.04,2.77h10.03c.13,0,.25-.01,.37-.01h24.56s.03,0,.03-.02v-15.9s.01-.03,.03-.03h10.01s.03,.01,.03,.03v15.9s.01,.03,.03,.03h9.91s.03-.01,.03-.03V.03s-.01-.03-.03-.03h-9.91s-.03,.01-.03,.03V15.94s-.01,.03-.03,.03Z"/><path class="cls-1" d="M109.2,35.22v-3.13h1.33c.33,0,.58,.03,.73,.08,.15,.06,.27,.16,.36,.3,.09,.14,.14,.31,.14,.49,0,.23-.07,.43-.21,.58-.14,.15-.34,.25-.62,.29,.14,.08,.25,.17,.34,.26,.09,.1,.21,.26,.36,.51l.38,.61h-.75l-.46-.68c-.16-.24-.27-.4-.33-.46-.06-.06-.12-.11-.19-.13-.07-.02-.17-.04-.32-.04h-.13v1.31h-.63Zm.63-1.8h.47c.3,0,.49-.01,.57-.04,.08-.03,.13-.07,.18-.13,.04-.06,.06-.14,.06-.23,0-.11-.03-.19-.08-.25-.06-.06-.14-.11-.24-.12-.05,0-.2-.01-.46-.01h-.49v.79Z"/><path class="cls-1" d="M110.41,36.59c-1.62,0-2.93-1.31-2.93-2.93s1.31-2.93,2.93-2.93,2.93,1.31,2.93,2.93-1.31,2.93-2.93,2.93Zm0-5.34c-1.33,0-2.41,1.08-2.41,2.41s1.08,2.41,2.41,2.41,2.41-1.08,2.41-2.41-1.08-2.41-2.41-2.41Z"/></g></g></svg>