<?xml version="1.0" encoding="UTF-8"?><svg id="Layer_2" xmlns="http://www.w3.org/2000/svg" viewBox="0 0 89.9 89.39"><defs><style>.cls-1{fill:#2d2a26;}</style></defs><g id="Capa_1"><g><path class="cls-1" d="M4.92,61.05c.84,0,1.6,.14,2.29,.41,.69,.27,1.29,.67,1.79,1.18,.5,.52,.9,1.15,1.17,1.89,.28,.74,.42,1.58,.42,2.51s-.13,1.78-.38,2.55c-.25,.77-.61,1.43-1.07,1.97-.46,.54-1.02,.97-1.66,1.27-.64,.31-1.36,.46-2.16,.46H.18v-12.24H4.92Zm-2.25,10.15h2.13c1.13,0,1.94-.34,2.44-1.03,.5-.68,.75-1.73,.75-3.14s-.26-2.37-.79-2.97c-.52-.6-1.4-.9-2.62-.9h-1.91v8.02Z"/><path class="cls-1" d="M13.92,69.39c.04,.67,.24,1.21,.6,1.62,.36,.41,.84,.61,1.43,.61,.38,0,.73-.09,1.04-.27,.31-.18,.5-.42,.6-.72h2.47c-.28,.93-.77,1.65-1.47,2.15-.7,.5-1.54,.76-2.51,.76-3.03,0-4.54-1.65-4.54-4.94,0-1.41,.38-2.53,1.13-3.36,.76-.84,1.84-1.25,3.25-1.25,2.84,0,4.26,1.81,4.26,5.42h-6.25Zm3.78-1.51c-.03-.68-.22-1.18-.59-1.5-.37-.33-.79-.49-1.26-.49s-.91,.17-1.25,.52c-.35,.35-.54,.84-.6,1.47h3.7Z"/><path class="cls-1" d="M27.09,67.46c-.07-.46-.26-.83-.57-1.1-.31-.27-.69-.4-1.14-.4-.25,0-.49,.04-.72,.13-.23,.09-.42,.23-.59,.44-.17,.21-.3,.48-.4,.82-.1,.34-.15,.75-.15,1.24,0,1,.18,1.73,.54,2.21,.36,.48,.77,.72,1.23,.72s.86-.13,1.19-.39c.33-.26,.52-.63,.58-1.12h2.41c-.07,.53-.22,1.01-.45,1.44-.23,.43-.53,.8-.91,1.11-.37,.31-.8,.55-1.27,.72-.48,.17-.99,.25-1.53,.25-.62,0-1.19-.1-1.69-.31-.51-.21-.95-.51-1.32-.92-.37-.4-.66-.91-.86-1.52-.2-.61-.3-1.32-.3-2.13s.1-1.51,.31-2.1c.21-.59,.5-1.08,.86-1.45,.37-.38,.82-.66,1.34-.85,.53-.19,1.11-.28,1.74-.28,1.21,0,2.17,.31,2.9,.94,.72,.62,1.12,1.47,1.2,2.55h-2.41Z"/><path class="cls-1" d="M32.87,73.29h-2.39v-12.38h2.39v12.38Z"/><path class="cls-1" d="M38.26,63.97c1.29,0,2.25,.31,2.9,.92,.64,.61,.97,1.5,.97,2.67v5.73h-2.23c-.03-.11-.05-.22-.08-.34-.03-.12-.05-.25-.06-.4-.29,.31-.67,.53-1.13,.69-.46,.15-1,.23-1.61,.23-.92,0-1.65-.23-2.2-.68-.55-.45-.83-1.08-.83-1.87,0-.62,.1-1.12,.31-1.49,.21-.37,.49-.66,.87-.88,.37-.21,.81-.37,1.32-.48,.51-.11,1.07-.2,1.66-.28,.48-.07,.85-.17,1.12-.32,.27-.15,.41-.35,.41-.62,0-.34-.16-.6-.48-.78-.32-.17-.67-.26-1.06-.26-.42,0-.78,.12-1.07,.37-.29,.25-.45,.57-.51,.99h-2.29c.08-1.01,.42-1.79,1.04-2.36,.61-.56,1.59-.85,2.95-.85Zm1.47,4.88c-.24,.2-.66,.36-1.25,.48-.82,.16-1.38,.35-1.67,.57-.29,.22-.44,.52-.44,.91,0,.68,.36,1.02,1.07,1.02,.31,0,.6-.04,.89-.13,.29-.09,.53-.22,.75-.39,.21-.17,.38-.39,.51-.66,.13-.27,.19-.57,.19-.92,0-.11,0-.25,0-.44,0-.19-.02-.33-.03-.44Z"/><path class="cls-1" d="M48.73,66.44c-.23-.04-.44-.06-.66-.06-1.47,0-2.21,.73-2.21,2.19v4.72h-2.39v-9.08h2.25v1.09c.2-.31,.4-.54,.62-.72,.21-.17,.43-.31,.66-.4,.23-.09,.46-.15,.7-.17s.48-.03,.72-.03h.32v2.45Z"/><path class="cls-1" d="M53.39,63.97c1.29,0,2.25,.31,2.9,.92,.64,.61,.97,1.5,.97,2.67v5.73h-2.23c-.03-.11-.05-.22-.08-.34-.03-.12-.05-.25-.06-.4-.29,.31-.67,.53-1.13,.69-.46,.15-1,.23-1.61,.23-.92,0-1.65-.23-2.2-.68-.55-.45-.83-1.08-.83-1.87,0-.62,.1-1.12,.31-1.49,.21-.37,.49-.66,.87-.88,.37-.21,.81-.37,1.32-.48,.51-.11,1.07-.2,1.66-.28,.48-.07,.85-.17,1.12-.32,.27-.15,.41-.35,.41-.62,0-.34-.16-.6-.48-.78-.32-.17-.67-.26-1.06-.26-.42,0-.78,.12-1.07,.37-.29,.25-.45,.57-.51,.99h-2.29c.08-1.01,.42-1.79,1.04-2.36,.61-.56,1.59-.85,2.95-.85Zm1.47,4.88c-.24,.2-.66,.36-1.25,.48-.82,.16-1.38,.35-1.67,.57-.29,.22-.44,.52-.44,.91,0,.68,.36,1.02,1.08,1.02,.31,0,.6-.04,.89-.13,.29-.09,.53-.22,.75-.39,.21-.17,.38-.39,.51-.66,.13-.27,.19-.57,.19-.92,0-.11,0-.25,0-.44,0-.19-.02-.33-.03-.44Z"/><path class="cls-1" d="M64.4,67.46c-.07-.46-.26-.83-.57-1.1-.31-.27-.69-.4-1.14-.4-.25,0-.49,.04-.72,.13-.23,.09-.42,.23-.59,.44-.17,.21-.3,.48-.4,.82-.1,.34-.15,.75-.15,1.24,0,1,.18,1.73,.54,2.21,.36,.48,.77,.72,1.23,.72s.86-.13,1.19-.39,.52-.63,.58-1.12h2.41c-.07,.53-.22,1.01-.45,1.44-.23,.43-.53,.8-.91,1.11-.37,.31-.8,.55-1.27,.72-.48,.17-.99,.25-1.53,.25-.62,0-1.19-.1-1.7-.31-.51-.21-.95-.51-1.32-.92-.37-.4-.66-.91-.86-1.52-.2-.61-.3-1.32-.3-2.13s.1-1.51,.31-2.1c.21-.59,.5-1.08,.86-1.45,.37-.38,.82-.66,1.34-.85,.53-.19,1.11-.28,1.74-.28,1.21,0,2.17,.31,2.9,.94,.72,.62,1.12,1.47,1.2,2.55h-2.41Z"/><path class="cls-1" d="M70.18,63.14h-2.39v-2.25h2.39v2.25Zm0,10.15h-2.39v-9.08h2.39v9.08Z"/><path class="cls-1" d="M75.93,63.97c.72,0,1.36,.11,1.93,.34,.57,.23,1.06,.55,1.45,.97,.4,.42,.7,.92,.92,1.51,.21,.59,.32,1.24,.32,1.96s-.11,1.37-.33,1.96c-.22,.59-.53,1.1-.93,1.51-.4,.42-.88,.74-1.45,.97-.57,.23-1.21,.34-1.91,.34s-1.38-.12-1.96-.35c-.58-.23-1.07-.56-1.46-.98-.4-.42-.7-.92-.92-1.51-.21-.59-.32-1.24-.32-1.94s.11-1.37,.33-1.95c.22-.58,.53-1.08,.93-1.5,.4-.42,.89-.74,1.46-.98,.58-.23,1.22-.35,1.94-.35Zm0,2.03c-1.46,0-2.19,.92-2.19,2.75s.73,2.77,2.19,2.77,2.19-.92,2.19-2.77-.73-2.75-2.19-2.75Zm.28-2.85h-1.73l.78-1.31h2.09l-1.13,1.31Z"/><path class="cls-1" d="M83.99,65.54c.28-.5,.65-.89,1.12-1.16,.47-.27,1.07-.41,1.8-.41,.44,0,.84,.07,1.2,.2,.36,.13,.68,.33,.94,.58,.26,.25,.47,.57,.62,.95,.15,.38,.23,.81,.23,1.3v6.29h-2.39v-5.49c0-.7-.12-1.18-.35-1.42-.23-.25-.63-.37-1.2-.37-1.25,0-1.87,.7-1.87,2.09v5.2h-2.39v-9.08h2.29v1.33Z"/><path class="cls-1" d="M4.28,79.83c1.29,0,2.25,.31,2.9,.92,.64,.61,.97,1.5,.97,2.67v5.73h-2.23c-.03-.11-.05-.22-.08-.34-.03-.12-.05-.25-.06-.4-.29,.31-.67,.53-1.13,.69-.46,.15-1,.23-1.61,.23-.92,0-1.65-.23-2.2-.68-.55-.45-.83-1.08-.83-1.87,0-.62,.1-1.12,.31-1.49,.21-.37,.49-.66,.87-.88,.37-.21,.81-.37,1.32-.48,.51-.11,1.07-.2,1.66-.28,.48-.07,.85-.17,1.12-.32,.27-.15,.41-.35,.41-.62,0-.34-.16-.6-.48-.78-.32-.17-.67-.26-1.06-.26-.42,0-.78,.12-1.07,.37-.29,.25-.45,.57-.51,.99H.3c.08-1.01,.42-1.79,1.04-2.36,.61-.56,1.59-.85,2.95-.85Zm1.47,4.88c-.24,.2-.66,.36-1.25,.48-.82,.16-1.38,.35-1.67,.57-.29,.22-.44,.52-.44,.91,0,.68,.36,1.02,1.07,1.02,.31,0,.6-.04,.89-.13,.29-.09,.53-.22,.75-.39,.21-.17,.38-.39,.51-.66,.13-.27,.19-.57,.19-.92,0-.11,0-.25,0-.44,0-.19-.02-.33-.03-.44Z"/><path class="cls-1" d="M11.79,81.41c.28-.5,.65-.89,1.12-1.16,.47-.27,1.07-.41,1.8-.41,.44,0,.84,.07,1.2,.2,.36,.13,.68,.33,.94,.58,.26,.25,.47,.57,.62,.95,.15,.38,.23,.81,.23,1.3v6.29h-2.39v-5.49c0-.7-.12-1.18-.35-1.42-.23-.25-.63-.37-1.2-.37-1.25,0-1.87,.7-1.87,2.09v5.2h-2.39v-9.08h2.29v1.33Z"/><path class="cls-1" d="M27.25,89.15h-2.29v-1.27c-.6,1.01-1.53,1.51-2.81,1.51-.45,0-.87-.08-1.24-.24-.38-.16-.7-.39-.98-.69-.27-.3-.48-.65-.64-1.06-.15-.4-.23-.86-.23-1.36v-5.97h2.39v5.61c0,1.13,.51,1.69,1.53,1.69,.61,0,1.07-.19,1.39-.58,.32-.38,.48-.88,.48-1.49v-5.24h2.39v9.08Z"/><path class="cls-1" d="M32.63,79.83c1.29,0,2.25,.31,2.9,.92,.64,.61,.97,1.5,.97,2.67v5.73h-2.23c-.03-.11-.05-.22-.08-.34-.03-.12-.05-.25-.06-.4-.29,.31-.67,.53-1.13,.69-.46,.15-1,.23-1.61,.23-.92,0-1.65-.23-2.2-.68-.55-.45-.83-1.08-.83-1.87,0-.62,.1-1.12,.31-1.49,.21-.37,.49-.66,.87-.88,.37-.21,.81-.37,1.32-.48,.51-.11,1.07-.2,1.66-.28,.48-.07,.85-.17,1.12-.32,.27-.15,.41-.35,.41-.62,0-.34-.16-.6-.48-.78-.32-.17-.67-.26-1.06-.26-.42,0-.78,.12-1.07,.37-.29,.25-.45,.57-.51,.99h-2.29c.08-1.01,.42-1.79,1.04-2.36,.61-.56,1.59-.85,2.95-.85Zm1.47,4.88c-.24,.2-.66,.36-1.25,.48-.82,.16-1.38,.35-1.67,.57-.29,.22-.44,.52-.44,.91,0,.68,.36,1.02,1.07,1.02,.31,0,.6-.04,.89-.13,.29-.09,.53-.22,.75-.39,.21-.17,.38-.39,.51-.66,.13-.27,.19-.57,.19-.92,0-.11,0-.25,0-.44,0-.19-.02-.33-.03-.44Z"/><path class="cls-1" d="M40.23,89.15h-2.39v-12.38h2.39v12.38Z"/><path class="cls-1" d="M63.61,43.66c0-.6-.12-.92-.23-1.01-.28-.25-.64-.37-.99-.37-.32,0-.65,.1-.92,.32-1.14,1.17-1.79,2.76-1.79,4.44,0,1.45,.51,2.87,1.41,4,.17-.67,.6-1.27,1.19-1.61,.41-.24,.86-.34,1.32-.31v-5.45Z"/><path class="cls-1" d="M67.03,52.25c0-2.31,1.88-4.19,4.19-4.19,.44,0,.87,.07,1.28,.2v-1.23c0-3.53-2.87-6.41-6.41-6.41-.77,0-1.54,.14-2.25,.41,.22,.11,.42,.25,.6,.42,.51,.45,.77,1.2,.77,2.21v7.92l-1.2-.7c-.35-.2-.66-.23-.92-.07-.27,.16-.46,.5-.46,.83v2.05c0,.69,.16,1.34,.44,1.92h4.77c-.51-1.02-.8-2.16-.8-3.36Zm-.57-7.11c0-.55,.45-.99,.99-.99s.99,.45,.99,.99-.45,.99-.99,.99-.99-.45-.99-.99Z"/><path class="cls-1" d="M73.09,50.45c-.47-.49-1.13-.8-1.86-.8-1.43,0-2.59,1.16-2.59,2.59,0,1.25,.4,2.4,1.07,3.36h3.39v-5.16Z"/><path class="cls-1" d="M61.02,53.69v-.47c-.84-.69-1.55-1.56-2.05-2.53-.58-1.13-.89-2.4-.89-3.67,0-1.83,.62-3.59,1.77-5.01h0l.23-.3c.11-.12,.23-.24,.36-.35,1.49-1.51,3.51-2.35,5.66-2.35,3,0,5.62,1.66,6.99,4.11V0H17.48V55.61H61.33c-.2-.61-.31-1.25-.31-1.92Zm-22.78-11.87c-3.51,0-6.36-2.85-6.36-6.36s2.85-6.36,6.36-6.36,6.36,2.85,6.36,6.36-2.85,6.36-6.36,6.36Zm0-13.68c-3.51,0-6.36-2.85-6.36-6.36s2.85-6.36,6.36-6.36,6.36,2.85,6.36,6.36-2.85,6.36-6.36,6.36Zm13.68-12.72c3.51,0,6.36,2.85,6.36,6.36s-2.85,6.36-6.36,6.36-6.36-2.85-6.36-6.36,2.85-6.36,6.36-6.36Zm4.57,28.08l-3.95-1.71c-.19,.02-.38,.03-.57,.03-3.51,0-6.36-2.85-6.36-6.36s2.85-6.36,6.36-6.36,6.36,2.85,6.36,6.36c0,2.26-1.18,4.24-2.95,5.37l1.11,2.68Z"/></g></g></svg>