<?xml version="1.0" encoding="UTF-8"?><svg id="Layer_2" xmlns="http://www.w3.org/2000/svg" viewBox="0 0 41.69 71.92"><defs><style>.cls-1{fill:#00a19b;}</style></defs><g id="Capa_1"><path class="cls-1" d="M40.64,59.9c.58,0,1.05-.47,1.05-1.05V28.21c0-5.8-1.39-11.59-4.02-16.76,0,0-4.51-8.87-4.52-8.88-1.17-2.3-4.06-3.24-6.36-2.07-2.3,1.17-3.24,4.06-2.07,6.36l3.31,6.5c-2.84-2.61-6.06-4.59-9.64-5.91-2.51-.93-5.39,.39-6.32,2.91-.93,2.52,.4,5.39,2.91,6.32,5.19,1.92,9.27,5.92,12.13,11.9-2.72-1.49-5.81-2.3-8.97-2.3-4.12,0-8.03,1.31-11.3,3.8-3.12,2.36-5.46,5.72-6.6,9.44-.6,1.95,.07,3.98,1.52,5.17-.12,.1-.24,.2-.35,.32-.91,.9-1.41,2.09-1.41,3.36,0,4.29,2.16,8.41,4.06,12.04,1.54,2.93,3.38,5.66,5.05,8.52,1.4,2.4,1.86,3,2.66,3h22.63c4.02,0,7.29-3.27,7.29-7.29v-8.03c0-.58-.47-1.05-1.05-1.05s-1.05,.47-1.05,1.05v8.03c0,2.86-2.32,5.18-5.18,5.18H12.16c-.35-.47-.99-1.56-1.22-1.96-1.61-2.77-3.49-5.54-5.01-8.43-1.79-3.41-3.82-7.28-3.82-11.06,0-1.44,1.21-2.64,2.66-2.62,1.42,.02,2.58,1.21,2.59,2.66,.02,3.98,3.27,7.21,7.25,7.21h3.42c2.94,0,5.43-1.13,7.21-3.26,1.64-1.95,2.55-4.67,2.57-7.66,.03-3.42-1.07-6.42-3.08-8.45-1.71-1.72-3.98-2.63-6.58-2.63-5,0-9.49,3.35-10.9,8.14-.41,1.37-1.92,2.18-3.28,1.76-1.36-.42-2.14-1.97-1.7-3.39,1.01-3.31,3.09-6.28,5.86-8.38,2.91-2.2,6.37-3.37,10.03-3.37,4.92,0,9.62,2.22,12.76,5.97,.54,.65,1,1.5,2.01,1.4,.79-.08,1.44-.79,1.44-1.59v-5.95c0-4.63-1.12-9.29-3.22-13.42,0,0-4.51-8.87-4.52-8.88-.65-1.28-.12-2.88,1.15-3.52,1.28-.65,2.88-.12,3.52,1.15l4.52,8.88c2.48,4.87,3.79,10.33,3.79,15.8v30.63c0,.58,.47,1.05,1.05,1.05h0ZM9.26,42.36c1.15-3.9,4.81-6.63,8.88-6.63,2.02,0,3.78,.69,5.09,2.01,1.61,1.62,2.49,4.09,2.47,6.95-.03,4.39-2.42,8.82-7.68,8.82h-3.42c-2.82,0-5.13-2.29-5.14-5.11,0-1.49-.7-2.82-1.77-3.7,.74-.59,1.3-1.4,1.58-2.34h0Zm21.07-11.57c-.39-1.06-.83-2.1-1.3-3.08-3.11-6.51-7.59-10.89-13.32-13.01-1.43-.53-2.19-2.18-1.66-3.61,.53-1.43,2.19-2.19,3.61-1.66,5.28,1.95,9.74,5.46,13.26,10.41,0,.01,0,.02,.01,.04,.85,2.69,1.3,5.51,1.3,8.34v4.46c-.24-.28-.49-.54-.75-.8-.37-.38-.75-.74-1.15-1.08h0Z"/></g></svg>