<?xml version="1.0" encoding="UTF-8"?><svg id="Layer_2" xmlns="http://www.w3.org/2000/svg" viewBox="0 0 51.46 78.5"><defs><style>.cls-1,.cls-2{fill:#2d2a26;}.cls-3{fill:none;stroke:#2d2a26;stroke-miterlimit:10;stroke-width:1.86px;}.cls-2{font-family:Helvetica, Helvetica;font-size:2.71px;}</style></defs><g id="Capa_1"><g><polygon class="cls-1" points="26.97 15.95 38.09 40.04 22.93 40.01 23.71 38.43 35.99 38.43 28.16 21.49 16.24 47.26 13.5 47.26 26.81 18.21 26.31 17.32 12.43 47.26 11.24 47.26 25.84 15.71 26.97 15.95"/><polygon class="cls-1" points="2.72 61.9 3.28 61.9 3.28 69.67 3.82 69.19 3.82 61.9 5.34 61.9 5.34 67.73 10.91 61.9 11.69 61.9 6.53 67.22 12.07 73.57 11.33 73.57 6.11 67.7 5.22 68.54 5.22 73.57 3.76 73.57 3.76 70.08 3.34 70.5 3.34 73.57 2.78 73.57 2.72 61.9"/><polygon class="cls-1" points="12.73 61.95 12.73 73.54 13.41 73.54 13.41 62.55 13.86 62.55 13.86 73.54 15.29 73.54 15.29 61.95 12.73 61.95"/><rect class="cls-1" x="30.28" y="61.95" width="1.28" height="11.65"/><rect class="cls-1" x="29.09" y="61.95" width=".6" height="11.65"/><rect class="cls-1" x="37.76" y="61.98" width=".6" height="11.65"/><rect class="cls-1" x="29.41" y="67.37" width="8.64" height=".58"/><path class="cls-1" d="M16.85,61.89h4.17c3.94,0,6.66,2.53,6.66,5.85s-2.72,5.85-6.66,5.85h-4.17v-11.71Zm4.27,11.09c3.49,0,5.79-2.41,5.79-5.24s-2.3-5.24-5.79-5.24h-3.71v10.48h3.71Z"/><rect class="cls-1" x="17.94" y="62.19" width="1.4" height="11.08"/><polygon class="cls-1" points="45.86 61.39 51.46 73.51 50.74 73.5 46.46 64.18 40.47 77.15 39.09 77.15 45.78 62.53 45.53 62.08 38.55 77.15 37.95 77.15 45.3 61.27 45.86 61.39"/><polygon class="cls-1" points="44.54 70.07 49.33 70.07 49.33 69.54 44.82 69.54 44.54 70.07"/><text class="cls-2" transform="translate(2.54 77.19)"><tspan x="0" y="0">PRODUCCIONES</tspan></text><rect class="cls-3" x=".93" y=".93" width="47.32" height="55.54" rx="1.86" ry="1.86"/></g></g></svg>