<?xml version="1.0" encoding="UTF-8"?><svg id="Layer_2" xmlns="http://www.w3.org/2000/svg" viewBox="0 0 156.69 52.13"><defs><style>.cls-1{fill:#2d2a26;}</style></defs><g id="Capa_1"><g><path class="cls-1" d="M12.75,22.02c-.7,.7-1.38,1.36-2.04,2.04-.08,.08-.08,.25-.08,.38,.01,.92,.01,1.84,.05,2.76,.05,1.03,.91,1.97,1.95,2.16,.16,.03,.32,.05,.47,.08,.29,.05,.39,.23,.39,.51,0,.3-.17,.43-.44,.47-.08,.01-.16,0-.24,0-4.03,0-8.07,0-12.1,0-.08,0-.16,0-.24,0-.27-.03-.46-.16-.48-.45-.02-.3,.13-.45,.41-.54,.48-.16,.99-.27,1.4-.54,.76-.51,1.07-1.3,1.07-2.21,0-3.4,0-6.81,0-10.21,0-3.87,0-7.74,0-11.61,0-.61-.15-1.16-.57-1.62-.37-.41-.84-.6-1.39-.6-.12,0-.24,0-.36,0C.24,2.61,.02,2.42,0,2.08c-.02-.34,.17-.54,.52-.59,1.2-.18,2.39-.37,3.59-.55C6.14,.63,8.17,.35,10.19,.02c.42-.07,.44,.08,.44,.4,0,3.1,0,6.19,0,9.29,0,3.87,0,7.74,0,11.61,0,.18,.02,.36,.03,.63,.15-.12,.24-.19,.32-.26,2.5-2.47,5-4.93,7.49-7.41,.5-.5,.87-1.09,.92-1.82,.04-.68-.32-1.11-.99-1.24-.22-.04-.45-.08-.67-.08-.32,0-.43-.15-.43-.44,0-.3,.08-.53,.42-.57,.07,0,.13,0,.2,0,2.32,0,4.65,0,6.97,0,.56,0,.84,.41,.59,.9-.06,.12-.22,.24-.35,.26-.75,.09-1.41,.4-2.01,.82-1.84,1.28-3.41,2.86-4.93,4.5-.17,.19-.16,.33-.04,.53,1.92,3.25,3.82,6.51,5.75,9.75,.57,.96,1.27,1.82,2.16,2.5,.36,.27,.76,.48,1.17,.75-.5,.14-1.02,.29-1.55,.42-1.72,.41-3.45,.53-5.18,.09-2.36-.6-3.98-2.15-5.19-4.18-.79-1.33-1.54-2.68-2.3-4.03-.07-.12-.15-.24-.26-.42Z"/><path class="cls-1" d="M76.81,10.13v.57c0,5.24,0,10.49,0,15.73,0,.82,.12,1.59,.72,2.22,.47,.5,1.06,.69,1.71,.77,.35,.05,.48,.23,.46,.57-.02,.34-.25,.43-.52,.43-3.31,0-6.62,0-9.94,0-.04,0-.07-.02-.16-.05v-2.47c-.12,.08-.18,.1-.22,.14-1.41,1.46-3.16,2.18-5.16,2.34-2.56,.2-4.94-.34-7-1.93-1.66-1.28-2.55-2.96-2.53-5.1,.02-2.79,.02-5.58,0-8.37,0-.42-.1-.89-.29-1.26-.32-.62-.93-.85-1.61-.87-.17,0-.35,0-.52,0-.35,.01-.57-.15-.6-.5-.03-.34,.14-.57,.48-.63,.6-.11,1.21-.2,1.81-.29,2.38-.37,4.76-.73,7.14-1.1,.42-.06,.84-.12,1.33-.19v.54c0,4.26,0,8.51,0,12.77,0,.81,.15,1.59,.52,2.32,.76,1.46,2.66,2.13,4.13,1.39,1.61-.8,2.53-2.08,2.52-3.94,0-2.7,0-5.39,0-8.09,0-.28-.03-.56-.08-.83-.15-.85-.87-1.46-1.74-1.48-.15,0-.29,0-.44,0-.5,0-.77-.18-.78-.53,0-.36,.23-.54,.74-.62,2.53-.38,5.05-.77,7.58-1.15,.8-.12,1.59-.25,2.45-.38Z"/><path class="cls-1" d="M117.72,30.39v-2.39c-.11,.07-.17,.09-.21,.13-1.44,1.45-3.23,2.17-5.21,2.47-1.84,.28-3.64,.14-5.37-.57-1.48-.61-2.76-1.53-3.31-3.07-1.05-2.9-.24-6.25,3.65-7.27,1.02-.27,2.09-.38,3.15-.49,1.81-.19,3.64-.29,5.45-.51,.55-.07,1.07-.38,1.59-.61,.12-.05,.27-.23,.27-.36,0-1.16,.12-2.32-.23-3.46-.67-2.18-3.19-3.54-5.36-2.89-.68,.21-1.23,.61-1.5,1.07,.27,.65,.61,1.21,.75,1.81,.34,1.44-.86,2.99-2.31,3.14-1.22,.12-2.15-.28-2.76-1.35-.65-1.13-.56-2.25,.14-3.32,.79-1.21,1.99-1.93,3.33-2.3,4.43-1.23,8.64-.81,12.45,1.95,1.45,1.06,2.54,2.44,2.94,4.25,.09,.42,.14,.87,.14,1.3,.01,2.86,0,5.71,.01,8.57,0,.42,.04,.86,.16,1.26,.29,1.02,1.03,1.6,2.09,1.69,.31,.03,.55,.12,.55,.49,0,.32-.19,.49-.59,.49-3.19,0-6.38,0-9.57,0-.05,0-.1-.02-.22-.04Zm0-10.62c-.95,.24-1.85,.45-2.75,.69-.67,.17-1.35,.31-2,.55-1.18,.44-1.98,1.28-2.15,2.55-.08,.6-.04,1.23,.05,1.83,.28,1.97,2.48,3.18,4.17,2.26,1.68-.91,2.69-2.31,2.68-4.31,0-1.07,0-2.13,0-3.2v-.37Z"/><path class="cls-1" d="M39.22,9.53c4.61,.18,8.29,2.16,10.31,6.54,1.79,3.88,1.13,7.58-1.58,10.87-1.9,2.31-4.41,3.62-7.36,3.94-4.35,.48-8.04-.89-10.8-4.36-3.18-4-2.79-9.84,.81-13.48,1.83-1.85,4.03-2.95,6.58-3.36,.63-.1,1.27-.1,2.05-.15Zm3.52,10.23c-.09-.86-.17-2.21-.37-3.55-.2-1.33-.6-2.62-1.38-3.75-.68-.99-1.72-1.2-2.75-.89-.7,.21-1.09,.77-1.43,1.38-.77,1.37-1.08,2.88-1.25,4.42-.26,2.29-.23,4.57,.15,6.85,.24,1.4,.6,2.76,1.46,3.93,.96,1.31,2.85,1.31,3.78-.02,.32-.47,.6-.98,.81-1.51,.81-2.04,.91-4.2,.99-6.86Z"/><path class="cls-1" d="M96.51,12.42c-.36,.1-.76,.12-1.08,.3-2.18,1.21-3.61,2.94-3.64,5.55-.03,2.66-.01,5.31,0,7.97,0,.42,.02,.86,.11,1.27,.24,1.08,1.04,1.78,2.19,1.92,.36,.04,.59,.16,.57,.55-.02,.41-.32,.44-.63,.44-4.07,0-8.15,0-12.22,0-.31,0-.61-.03-.64-.44-.03-.35,.13-.49,.58-.55,1.38-.18,2.29-1.23,2.3-2.72,.01-1.69,0-3.39,0-5.08,0-2.16,0-4.32,0-6.49,0-1.4-.85-2.28-2.23-2.33-.35-.01-.61-.11-.65-.49-.04-.35,.17-.58,.61-.65,1.06-.17,2.13-.33,3.2-.49,2.17-.34,4.34-.67,6.51-1.01,.08-.01,.15-.01,.3-.02v2.46l.2,.13c.07-.13,.11-.29,.21-.38,1.89-1.86,4.12-2.66,6.75-2.05,1.53,.36,2.7,1.81,2.77,3.39,.02,.54-.02,1.1-.16,1.61-.26,.95-.82,1.68-1.86,1.9-1.21,.26-2.28,.02-3.1-.97-.77-.93-.86-2.33-.22-3.37,.06-.1,.12-.2,.18-.3l-.06-.14Z"/><path class="cls-1" d="M111.54,44.36c-.15-.12-.24-.21-.34-.29-1.61-1.32-1.79-4.04-.35-5.56,.67-.71,1.51-1.07,2.48-1.14,.95-.07,1.86,.06,2.69,.57,.11,.07,.32,.03,.47,0,.62-.13,1.23-.29,1.85-.42,.28-.06,.45,.04,.34,.38-.03,.1-.03,.21-.05,.32-.04,.27-.15,.41-.47,.4-.36-.01-.73,.07-1.18,.11,.14,.22,.22,.34,.3,.47,1.28,1.98,.33,5.29-2.65,5.64-.62,.07-1.27-.01-1.9-.06-.31-.02-.54,.07-.64,.35-.11,.28,.03,.53,.3,.61,.52,.15,1.05,.26,1.59,.36,.89,.17,1.78,.3,2.67,.48,.32,.07,.63,.2,.94,.34,.91,.41,1.42,1.13,1.44,2.12,.03,.97-.33,1.82-1.23,2.26-.69,.34-1.46,.59-2.22,.72-1.11,.19-2.23,.14-3.33-.14-.43-.11-.86-.29-1.26-.5-1.7-.86-1.76-3.25-.07-4.15,.13-.07,.24-.15,.43-.26-.54-.34-.99-.69-.91-1.38,.07-.66,.55-.96,1.11-1.24Zm2.3-.81c1.43,.1,2.38-.96,2.37-2.45,0-1.48-.93-2.42-2.39-2.42-1.43,0-2.32,.94-2.32,2.43,0,1.44,.88,2.53,2.33,2.44Zm.54,7.15l.02-.1c.21,0,.44,.04,.64,0,.55-.12,1.14-.19,1.64-.44,.87-.44,.83-1.47-.04-1.92-.28-.15-.59-.26-.9-.32-.79-.16-1.61-.23-2.39-.44-.64-.17-1.08,.05-1.51,.46-.87,.82-.68,1.95,.45,2.34,.67,.23,1.39,.3,2.09,.44Z"/><path class="cls-1" d="M149.26,46.12v.46c0,1.65,0,3.31,0,4.96,0,.33-.1,.45-.43,.43-.33-.03-.67,.02-1-.02-.1-.01-.2-.17-.28-.27-.03-.04,0-.13,0-.2,0-4.5,0-8.99,0-13.49,0-.36,.08-.49,.46-.48,.9,.02,.89,0,1.01,.91,.01,.11,.05,.22,.08,.4,.14-.12,.23-.19,.31-.27,2.25-2.2,5.76-1.45,6.85,1.5,.62,1.69,.59,3.41-.18,5.05-.68,1.46-1.87,2.2-3.5,2.22-1.24,.02-2.34-.3-3.2-1.26l-.11,.05Zm-.12-3.79c.04,.36,.06,.72,.12,1.07,.23,1.42,1.3,2.39,2.69,2.45,1.42,.06,2.44-.73,2.82-2.2,.2-.77,.22-1.56,.07-2.34-.21-1.09-.7-2.01-1.85-2.35-1.15-.34-2.2-.09-3.02,.83-.64,.72-.79,1.6-.82,2.53Z"/><path class="cls-1" d="M130.47,37.35c2.61-.06,4.43,1.78,4.69,4.19,.17,1.49-.06,2.87-.97,4.08-.82,1.09-1.95,1.62-3.3,1.7-.76,.05-1.52,.01-2.25-.26-1.48-.57-2.39-1.66-2.79-3.17-.3-1.13-.27-2.27,.08-3.38,.57-1.82,2.18-3.23,4.53-3.16Zm-.39,1.48c-.83,.02-1.78,.47-2.3,1.61-.46,1.01-.46,2.07-.23,3.13,.3,1.39,1.36,2.25,2.75,2.28,1.53,.04,2.63-.69,2.97-2.13,.16-.68,.19-1.42,.15-2.13-.09-1.68-1.3-2.77-3.34-2.77Z"/><path class="cls-1" d="M143.27,46.18c-.05,.04-.1,.06-.13,.09-1.03,1.2-2.36,1.25-3.74,.91-1.31-.32-2.19-1.43-2.25-2.92-.09-2.14-.07-4.29-.1-6.44,0-.23,.1-.3,.31-.29,.35,.01,.7,.02,1.04,0,.3-.02,.36,.11,.36,.38,0,1.64-.01,3.28,0,4.92,0,.38,.05,.77,.12,1.15,.31,1.63,1.52,2.12,2.96,1.77,.26-.06,.51-.17,.74-.3,.48-.27,.76-.62,.74-1.24-.04-2.08,0-4.16-.02-6.24,0-.33,.08-.46,.42-.43,.32,.03,.64,.02,.96,0,.24,0,.33,.07,.33,.32,0,3,0,6,0,9,0,.21-.06,.33-.3,.31-.01,0-.03,0-.04,0-.35,0-.77,.11-1.02-.05-.22-.14-.25-.59-.39-.94Z"/><path class="cls-1" d="M121.88,39.13c.31-.33,.56-.61,.82-.86,.57-.55,1.22-.94,2.06-.91,.26,0,.4,.08,.37,.37-.04,.4-.06,.8-.09,1.19-.02,.28-.18,.35-.44,.32-.78-.06-1.47,.17-2.1,.63-.3,.22-.45,.47-.44,.87,.02,2,0,4,.02,6,0,.33-.1,.45-.43,.43-.36-.03-.72-.03-1.08,0-.34,.02-.36-.15-.36-.41,0-1.75,0-3.49,0-5.24,0-1.2,0-2.4,0-3.6,0-.3,.1-.39,.39-.38,1.31,.03,.94-.17,1.16,1.04,.03,.15,.06,.3,.12,.55Z"/></g></g></svg>