<?xml version="1.0" encoding="UTF-8"?><svg id="Layer_2" xmlns="http://www.w3.org/2000/svg" viewBox="0 0 397.55 87.04"><defs><style>.cls-1{fill:#fff;}</style></defs><g id="Capa_1"><g><g><path class="cls-1" d="M121.91,56.73v1.27h-9.62v4.03h9.33v1.27h-9.33v4.42h9.62v1.27h-10.9v-12.26h10.9Z"/><path class="cls-1" d="M135.63,56.73l9.45,10.99v-10.99h1.27v12.26h-1.84l-9.73-11.29h-.69v11.29h-1.27v-12.26h2.81Z"/><path class="cls-1" d="M178.52,58h-5.99v10.99h-1.27v-10.99h-5.99v-1.27h13.25v1.27Z"/><path class="cls-1" d="M196.85,67.7c1.11,0,1.98-.04,2.63-.12,.65-.08,1.14-.27,1.48-.57,.34-.3,.56-.74,.66-1.31s.15-1.35,.15-2.32v-6.64h1.27v6.64c0,1.17-.08,2.11-.25,2.84-.16,.73-.47,1.3-.93,1.71s-1.08,.69-1.88,.84c-.8,.15-1.84,.22-3.13,.22h-1.91c-1.29,0-2.35-.07-3.15-.22-.81-.15-1.44-.43-1.89-.84s-.76-.98-.93-1.71-.25-1.68-.25-2.84v-6.64h1.27v6.64c0,.98,.05,1.75,.15,2.32,.1,.57,.32,1.01,.66,1.31,.34,.3,.84,.49,1.49,.57,.65,.08,1.53,.12,2.64,.12h1.89Z"/><path class="cls-1" d="M223.82,56.73c1.37,0,2.4,.29,3.11,.86,.71,.57,1.06,1.44,1.06,2.61h-1.29c-.01-.34-.07-.65-.17-.92s-.27-.5-.51-.69c-.24-.19-.57-.33-.97-.43s-.91-.15-1.51-.15h-6.2c-.49,0-.9,.04-1.21,.13-.31,.09-.56,.22-.74,.39-.18,.17-.31,.38-.37,.64-.07,.25-.1,.54-.1,.87,0,.38,.04,.69,.12,.93,.08,.24,.25,.44,.51,.58,.26,.15,.63,.26,1.11,.33,.48,.07,1.12,.11,1.91,.12l3.8,.09c1.12,.02,2.05,.1,2.78,.23,.74,.13,1.32,.33,1.75,.6,.43,.27,.73,.62,.91,1.04,.18,.42,.26,.95,.26,1.57s-.08,1.19-.23,1.63c-.15,.44-.4,.8-.72,1.07-.33,.27-.75,.46-1.25,.58-.51,.12-1.11,.18-1.82,.18h-6.3c-1.22,0-2.2-.28-2.92-.85-.72-.57-1.09-1.44-1.09-2.63h1.27c.01,.34,.07,.65,.17,.93,.1,.28,.27,.51,.51,.7,.24,.19,.57,.33,.97,.43s.91,.15,1.51,.15h5.81c.97,0,1.68-.16,2.14-.49,.46-.32,.69-.9,.69-1.74,0-.39-.05-.72-.15-.98-.1-.27-.3-.48-.59-.64-.29-.17-.71-.29-1.24-.36-.54-.08-1.23-.13-2.09-.15l-4.29-.11c-1-.02-1.81-.1-2.44-.23-.62-.13-1.11-.32-1.47-.58s-.59-.59-.71-.99c-.12-.4-.19-.88-.19-1.43,0-1.15,.31-1.99,.93-2.51,.62-.52,1.56-.78,2.83-.78h6.43Z"/><path class="cls-1" d="M250.39,56.73l6.04,10.46,6.2-10.46h2.74v12.26h-1.27v-11.29h-.69l-6.59,11.29h-.88l-6.46-11.29h-.69v11.29h-1.27v-12.26h2.88Z"/><path class="cls-1" d="M283.63,56.73l6.36,12.26h-1.48l-1.52-2.95h-8.73l-1.52,2.95h-1.43l6.36-12.26h1.96Zm-4.68,8.04h7.38l-3.69-7.14-3.69,7.14Z"/><path class="cls-1" d="M302.72,56.73l9.45,10.99v-10.99h1.27v12.26h-1.84l-9.73-11.29h-.69v11.29h-1.27v-12.26h2.81Z"/><path class="cls-1" d="M327.14,68.77c-.81-.15-1.44-.43-1.89-.84-.45-.41-.76-.98-.93-1.71-.17-.73-.25-1.68-.25-2.84v-1.06c0-1.17,.08-2.12,.25-2.85,.16-.74,.47-1.31,.93-1.73,.45-.42,1.08-.7,1.89-.85,.81-.15,1.86-.22,3.15-.22h1.94c1.28,0,2.33,.07,3.13,.22,.8,.15,1.43,.43,1.88,.85s.76,1,.93,1.73c.16,.74,.25,1.69,.25,2.85v1.06c0,1.17-.08,2.11-.25,2.84-.17,.73-.47,1.3-.93,1.71s-1.08,.69-1.88,.84c-.8,.15-1.84,.22-3.13,.22h-1.94c-1.3,0-2.35-.07-3.15-.22Zm10.01-6.46c0-.66-.02-1.22-.06-1.7-.04-.47-.12-.87-.24-1.19-.12-.32-.29-.58-.51-.78-.22-.19-.52-.34-.88-.44-.37-.1-.81-.17-1.34-.2-.53-.04-1.16-.05-1.89-.05h-1.92c-1.11,0-1.99,.04-2.64,.12-.65,.08-1.15,.27-1.49,.57-.34,.3-.56,.74-.66,1.32-.1,.58-.15,1.36-.15,2.35v1.06c0,.98,.05,1.75,.15,2.32,.1,.57,.32,1.01,.66,1.31,.34,.3,.84,.49,1.49,.57,.65,.08,1.53,.12,2.64,.12h1.92c1.11,0,1.98-.04,2.63-.12,.65-.08,1.14-.27,1.48-.57,.34-.3,.56-.74,.66-1.31,.1-.57,.15-1.35,.15-2.32v-1.06Z"/><path class="cls-1" d="M359.12,56.73c1.37,0,2.4,.29,3.11,.86,.71,.57,1.06,1.44,1.06,2.61h-1.29c-.01-.34-.07-.65-.17-.92s-.27-.5-.51-.69c-.24-.19-.57-.33-.97-.43s-.91-.15-1.51-.15h-6.2c-.49,0-.9,.04-1.21,.13-.31,.09-.56,.22-.74,.39-.18,.17-.31,.38-.37,.64-.06,.25-.1,.54-.1,.87,0,.38,.04,.69,.12,.93,.08,.24,.25,.44,.51,.58,.26,.15,.63,.26,1.11,.33s1.12,.11,1.91,.12l3.8,.09c1.12,.02,2.05,.1,2.78,.23,.74,.13,1.32,.33,1.75,.6,.43,.27,.73,.62,.91,1.04,.18,.42,.26,.95,.26,1.57s-.08,1.19-.23,1.63c-.15,.44-.39,.8-.72,1.07s-.75,.46-1.25,.58c-.51,.12-1.11,.18-1.82,.18h-6.31c-1.22,0-2.2-.28-2.92-.85-.72-.57-1.09-1.44-1.09-2.63h1.27c.01,.34,.07,.65,.17,.93,.1,.28,.27,.51,.51,.7s.57,.33,.97,.43,.91,.15,1.51,.15h5.81c.97,0,1.68-.16,2.14-.49,.46-.32,.69-.9,.69-1.74,0-.39-.05-.72-.15-.98s-.3-.48-.59-.64-.71-.29-1.25-.36c-.54-.08-1.23-.13-2.09-.15l-4.29-.11c-1-.02-1.81-.1-2.44-.23-.62-.13-1.11-.32-1.47-.58-.35-.26-.59-.59-.71-.99s-.19-.88-.19-1.43c0-1.15,.31-1.99,.93-2.51,.62-.52,1.56-.78,2.83-.78h6.43Z"/></g><g><path class="cls-1" d="M101.42,22.29v4.9h-19.26v4.54h18.66v4.93h-18.66v10.25h-5.92V22.29h25.19Z"/><path class="cls-1" d="M120.93,22.29l12.7,24.62h-6.92l-2.98-5.92h-14.93l-3.02,5.92h-6.88l12.7-24.62h9.33Zm-4.72,4.61l-4.86,9.15h9.83l-4.68-9.15h-.28Z"/><path class="cls-1" d="M139.57,46.48c-1.48-.31-2.65-.85-3.51-1.63-.86-.78-1.47-1.84-1.83-3.17-.35-1.34-.53-3.02-.53-5.06v-3.12c0-2.41,.18-4.35,.55-5.82,.37-1.47,.99-2.6,1.88-3.39,.89-.79,2.08-1.32,3.58-1.6,1.5-.27,3.4-.41,5.69-.41h5.25c2.41,0,4.4,.11,5.96,.34,1.56,.23,2.79,.64,3.69,1.26,.9,.62,1.53,1.47,1.88,2.55,.35,1.09,.53,2.5,.53,4.22h-6.1c0-.47-.07-.89-.2-1.26-.13-.37-.41-.67-.83-.92-.43-.25-1.05-.43-1.88-.55-.83-.12-1.94-.18-3.33-.18h-4.54c-1.33,0-2.39,.05-3.21,.16-.82,.11-1.44,.35-1.88,.73-.44,.38-.73,.95-.87,1.7s-.21,1.79-.21,3.09v2.7c0,1.21,.07,2.16,.21,2.87s.43,1.26,.85,1.65c.42,.39,1.03,.64,1.81,.76,.78,.12,1.81,.18,3.09,.18h4.82c1.3,0,2.36-.04,3.18-.11,.81-.07,1.45-.22,1.9-.46,.45-.24,.75-.57,.91-.99,.15-.43,.23-.98,.23-1.67h6.1c0,1.63-.14,3-.41,4.1-.27,1.1-.84,1.98-1.7,2.64s-2.1,1.14-3.71,1.42c-1.61,.28-3.72,.43-6.35,.43h-5.39c-2.27,0-4.14-.15-5.62-.46Z"/><path class="cls-1" d="M191.98,27.29h-10.36v19.62h-5.89V27.29h-10.36v-5h26.61v5Z"/><path class="cls-1" d="M200.35,37.58c0,.85,.09,1.56,.28,2.13,.19,.57,.49,1.02,.9,1.35,.41,.33,.96,.57,1.65,.71,.69,.14,1.53,.21,2.52,.21h6.39c.95,0,1.75-.07,2.41-.21,.66-.14,1.19-.38,1.6-.73,.4-.34,.7-.8,.89-1.37,.19-.57,.28-1.28,.28-2.13v-15.25h5.92v15.86c0,1.63-.17,3-.5,4.12-.33,1.11-.89,2.01-1.67,2.7-.78,.69-1.82,1.18-3.1,1.49-1.29,.31-2.88,.46-4.77,.46h-8.73c-1.82,0-3.36-.16-4.61-.48s-2.28-.83-3.09-1.54c-.8-.71-1.38-1.62-1.74-2.73-.35-1.11-.53-2.45-.53-4.01v-15.86h5.89v15.29Z"/><path class="cls-1" d="M254.17,46.91h-5.92v-3.83c0-1.21-.33-2.09-.98-2.66-.65-.57-1.66-.85-3.03-.85h-11.63v7.34h-5.92V22.29h18.27c1.58,0,2.94,.14,4.08,.43,1.14,.28,2.07,.74,2.8,1.37,.73,.63,1.27,1.44,1.6,2.45,.33,1.01,.5,2.22,.5,3.64v1.7c0,1.4-.13,2.5-.39,3.3-.26,.8-.78,1.45-1.56,1.95,.69,.26,1.22,.74,1.61,1.44,.39,.7,.59,1.78,.59,3.25v5.11Zm-6.14-16.18c0-.97-.21-1.64-.64-2-.43-.37-1.2-.55-2.31-.55h-12.59v5.53h12.74c1.04,0,1.77-.18,2.18-.55,.41-.37,.62-1.01,.62-1.93v-.5Z"/><path class="cls-1" d="M278.43,22.29l12.7,24.62h-6.92l-2.98-5.92h-14.94l-3.01,5.92h-6.88l12.7-24.62h9.33Zm-4.72,4.61l-4.86,9.15h9.83l-4.68-9.15h-.28Z"/><path class="cls-1" d="M297.07,46.48c-1.48-.31-2.65-.85-3.51-1.63-.86-.78-1.47-1.84-1.83-3.17-.36-1.34-.53-3.02-.53-5.06v-3.12c0-2.41,.18-4.35,.55-5.82,.37-1.47,.99-2.6,1.88-3.39,.89-.79,2.08-1.32,3.58-1.6,1.5-.27,3.4-.41,5.69-.41h5.25c2.41,0,4.4,.11,5.96,.34,1.56,.23,2.79,.64,3.69,1.26,.9,.62,1.53,1.47,1.88,2.55,.36,1.09,.53,2.5,.53,4.22h-6.1c0-.47-.07-.89-.2-1.26-.13-.37-.41-.67-.83-.92-.43-.25-1.05-.43-1.88-.55-.83-.12-1.94-.18-3.33-.18h-4.54c-1.32,0-2.39,.05-3.21,.16s-1.44,.35-1.88,.73c-.44,.38-.73,.95-.87,1.7-.14,.76-.21,1.79-.21,3.09v2.7c0,1.21,.07,2.16,.21,2.87,.14,.71,.43,1.26,.85,1.65,.42,.39,1.03,.64,1.81,.76,.78,.12,1.81,.18,3.09,.18h4.82c1.3,0,2.36-.04,3.18-.11,.82-.07,1.45-.22,1.9-.46,.45-.24,.75-.57,.91-.99,.15-.43,.23-.98,.23-1.67h6.1c0,1.63-.14,3-.41,4.1-.27,1.1-.84,1.98-1.7,2.64s-2.1,1.14-3.71,1.42-3.72,.43-6.35,.43h-5.39c-2.27,0-4.14-.15-5.62-.46Z"/><path class="cls-1" d="M325.05,22.29h5.89v24.62h-5.89V22.29Z"/><path class="cls-1" d="M346.75,46.91c-2.37,0-4.3-.14-5.82-.43-1.51-.28-2.7-.82-3.57-1.6s-1.46-1.84-1.79-3.19c-.33-1.35-.5-3.09-.5-5.21v-2.98c0-2.29,.16-4.17,.48-5.64,.32-1.47,.91-2.62,1.77-3.46s2.06-1.42,3.6-1.74c1.54-.32,3.51-.48,5.92-.48h5.21c2.53,0,4.6,.17,6.21,.5,1.61,.33,2.87,.92,3.78,1.76,.91,.84,1.54,1.99,1.88,3.44,.34,1.45,.51,3.29,.51,5.52v2.98c0,2.27-.17,4.1-.51,5.48-.34,1.38-.98,2.45-1.9,3.19-.92,.74-2.19,1.24-3.81,1.49-1.62,.25-3.71,.37-6.26,.37h-5.21Zm.64-19.16c-1.4,0-2.51,.08-3.35,.23-.84,.15-1.48,.44-1.92,.87-.44,.43-.73,1.02-.87,1.77-.14,.76-.21,1.75-.21,2.98v2.55c0,1.11,.07,2.01,.21,2.7,.14,.69,.43,1.22,.85,1.61s1.04,.66,1.84,.8c.8,.14,1.88,.21,3.23,.21h4.68c1.44,0,2.6-.06,3.48-.18,.87-.12,1.55-.37,2.02-.76,.47-.39,.79-.94,.94-1.65s.23-1.66,.23-2.84v-2.55c0-1.23-.08-2.22-.23-2.98-.15-.76-.47-1.34-.94-1.76-.47-.41-1.15-.69-2.04-.82-.89-.13-2.08-.2-3.57-.2h-4.36Zm1.92-6.99l-1.21-1.03,4.75-5.43,2.45,2.34-5.99,4.12Z"/><path class="cls-1" d="M377.19,22.29l14.44,16.85V22.29h5.92v24.62h-7.06l-16.21-18.41v18.41h-5.89V22.29h8.8Z"/></g><rect class="cls-1" x="35.6" y="35.5" width="16.04" height="16.04" transform="translate(-18 43.59) rotate(-45)"/><polygon class="cls-1" points="26.68 43.52 56.86 13.34 43.52 0 0 43.52 43.52 87.04 56.86 73.69 26.68 43.52"/></g></g></svg>