<?xml version="1.0" encoding="UTF-8"?><svg id="Layer_2" xmlns="http://www.w3.org/2000/svg" xmlns:xlink="http://www.w3.org/1999/xlink" viewBox="0 0 157.1 50.95"><defs><style>.cls-1{fill:url(#linear-gradient);}.cls-1,.cls-2,.cls-3{fill-rule:evenodd;}.cls-4,.cls-2{fill:#2d2a26;}.cls-3{fill:#414141;}</style><linearGradient id="linear-gradient" x1="16.17" y1=".42" x2="16.17" y2="48.63" gradientTransform="matrix(1, 0, 0, 1, 0, 0)" gradientUnits="userSpaceOnUse"><stop offset="0" stop-color="#2cb4bb"/><stop offset=".34" stop-color="#00a599"/><stop offset=".93" stop-color="#026760"/><stop offset="1" stop-color="#008079"/></linearGradient></defs><g id="Capa_1"><g><g><path class="cls-3" d="M56.71,18.02C53.52,7.59,43.82,0,32.35,0V3.81c11.97,0,21.67,9.7,21.67,21.67s-9.7,21.67-21.67,21.67v3.81c13.73,0,24.89-10.87,25.42-24.47l6.92-3.93-7.98-4.53Z"/><path class="cls-2" d="M56.71,18.02C53.52,7.59,43.82,0,32.35,0V3.81c11.97,0,21.67,9.7,21.67,21.67s-9.7,21.67-21.67,21.67v3.81c13.73,0,24.89-10.87,25.42-24.47l6.92-3.93-7.98-4.53Z"/></g><g><path class="cls-1" d="M10.68,25.48C10.68,13.51,20.38,3.81,32.35,3.81V0C20.87,0,11.17,7.59,7.99,18.02L0,22.56l6.92,3.93c.53,13.59,11.7,24.47,25.43,24.47v-3.81c-11.97,0-21.67-9.7-21.67-21.67Z"/><path class="cls-2" d="M10.68,25.48C10.68,13.51,20.38,3.81,32.35,3.81V0C20.87,0,11.17,7.59,7.99,18.02L0,22.56l6.92,3.93c.53,13.59,11.7,24.47,25.43,24.47v-3.81c-11.97,0-21.67-9.7-21.67-21.67Z"/></g><path class="cls-4" d="M10.53,38.58c1.04-.72,2.08-1.44,3.12-2.16-1.89-3.21-2.97-6.95-2.97-10.94C10.68,13.51,20.38,3.81,32.35,3.81c7.43,0,13.98,3.74,17.88,9.44,1.14-.59,2.28-1.17,3.42-1.74C49.09,4.58,41.26,0,32.35,0,20.87,0,11.17,7.59,7.99,18.02L0,22.56l6.92,3.93c.17,4.41,1.47,8.53,3.61,12.09Z"/><path class="cls-4" d="M72.71,40.32h2.42v.23h-2.17v1.34h1.95v.23h-1.95v1.37h2.19v.23h-2.45v-3.4Z"/><path class="cls-4" d="M77.21,43.23l.17-.19c.37,.35,.72,.51,1.22,.51s.86-.29,.86-.68h0c0-.37-.19-.58-.96-.73-.82-.17-1.15-.44-1.15-.96h0c0-.52,.46-.9,1.09-.9,.5,0,.82,.14,1.17,.41l-.16,.2c-.32-.28-.64-.38-1.02-.38-.5,0-.83,.29-.83,.64h0c0,.37,.18,.59,.99,.75,.79,.16,1.12,.44,1.12,.94h0c0,.56-.47,.94-1.13,.94-.54,0-.96-.18-1.37-.54Z"/><path class="cls-4" d="M82.87,40.55h-1.19v-.23h2.62v.23h-1.19v3.17h-.25v-3.17Z"/><path class="cls-4" d="M86.48,42.31v-1.99h.25v1.96c0,.8,.43,1.26,1.15,1.26s1.13-.42,1.13-1.24v-1.99h.25v1.96c0,.98-.57,1.5-1.39,1.5s-1.4-.52-1.4-1.47Z"/><path class="cls-4" d="M91.69,40.32h1.13c1.07,0,1.81,.73,1.81,1.69h0c0,.97-.74,1.71-1.81,1.71h-1.13v-3.4Zm1.13,3.17c.95,0,1.55-.65,1.55-1.46h0c0-.82-.6-1.48-1.55-1.48h-.88v2.94h.88Z"/><path class="cls-4" d="M96.99,40.32h.25v3.4h-.25v-3.4Z"/><path class="cls-4" d="M99.59,42.03h0c0-.94,.69-1.77,1.72-1.77s1.71,.82,1.71,1.75h0c0,.94-.69,1.77-1.72,1.77s-1.71-.82-1.71-1.75Zm3.16,0h0c0-.85-.61-1.54-1.45-1.54s-1.44,.68-1.44,1.52h0c0,.85,.61,1.54,1.45,1.54s1.44-.68,1.44-1.52Z"/><path class="cls-4" d="M109.55,40.29h.24l1.58,3.43h-.28l-.43-.95h-2.01l-.43,.95h-.26l1.58-3.43Zm1.01,2.25l-.89-1.97-.9,1.97h1.79Z"/><path class="cls-4" d="M113.38,42.31v-1.99h.25v1.96c0,.8,.43,1.26,1.15,1.26s1.13-.42,1.13-1.24v-1.99h.25v1.96c0,.98-.57,1.5-1.4,1.5s-1.4-.52-1.4-1.47Z"/><path class="cls-4" d="M118.59,40.32h1.13c1.07,0,1.81,.73,1.81,1.69h0c0,.97-.74,1.71-1.81,1.71h-1.13v-3.4Zm1.13,3.17c.95,0,1.55-.65,1.55-1.46h0c0-.82-.6-1.48-1.55-1.48h-.88v2.94h.88Z"/><path class="cls-4" d="M123.88,40.32h.25v3.4h-.25v-3.4Z"/><path class="cls-4" d="M126.49,42.03h0c0-.94,.69-1.77,1.72-1.77s1.71,.82,1.71,1.75h0c0,.94-.69,1.77-1.72,1.77s-1.71-.82-1.71-1.75Zm3.16,0h0c0-.85-.61-1.54-1.45-1.54s-1.44,.68-1.44,1.52h0c0,.85,.61,1.54,1.45,1.54s1.44-.68,1.44-1.52Z"/><path class="cls-4" d="M131.75,40.32h.28l1.33,3.13,1.34-3.13h.27l-1.5,3.43h-.22l-1.5-3.43Z"/><path class="cls-4" d="M137.18,40.32h.25v3.4h-.25v-3.4Z"/><path class="cls-4" d="M139.72,43.23l.17-.19c.37,.35,.72,.51,1.22,.51s.86-.29,.86-.68h0c0-.37-.19-.58-.96-.73-.82-.17-1.15-.44-1.15-.96h0c0-.52,.46-.9,1.09-.9,.5,0,.82,.14,1.17,.41l-.16,.2c-.32-.28-.64-.38-1.02-.38-.5,0-.83,.29-.83,.64h0c0,.37,.18,.59,.99,.75,.79,.16,1.12,.44,1.12,.94h0c0,.56-.47,.94-1.13,.94-.54,0-.96-.18-1.37-.54Z"/><path class="cls-4" d="M144.46,42.31v-1.99h.25v1.96c0,.8,.43,1.26,1.15,1.26s1.13-.42,1.13-1.24v-1.99h.25v1.96c0,.98-.57,1.5-1.4,1.5s-1.4-.52-1.4-1.47Z"/><path class="cls-4" d="M150.84,40.29h.24l1.58,3.43h-.28l-.43-.95h-2.01l-.43,.95h-.26l1.58-3.43Zm1.01,2.25l-.89-1.97-.9,1.97h1.79Z"/><path class="cls-4" d="M154.84,40.32h.25v3.17h2v.23h-2.25v-3.4Z"/><path class="cls-4" d="M108.82,7.17V31.38c0,2.55-2.07,4.62-4.62,4.62h0v-13.19h-25.83v8.61c0,2.53-2.05,4.58-4.58,4.58h0V11.75c0-2.53,2.05-4.58,4.58-4.58h0v11.06h25.83v-6.45c0-2.55,2.07-4.62,4.62-4.62h0Z"/><path class="cls-4" d="M116.27,36v-7.7c0-.92,.17-1.75,.52-2.52,.35-.76,.82-1.44,1.41-2.04s1.28-1.09,2.06-1.48c.78-.39,1.59-.65,2.45-.79,1.39-.22,2.88-.46,4.49-.73,1.61-.26,3.26-.53,4.95-.79,1.69-.26,3.38-.52,5.05-.77,1.68-.25,3.29-.49,4.83-.73,1.54-.24,2.96-.44,4.26-.62,1.3-.18,2.43-.34,3.37-.48,.39-.06,.75-.22,1.08-.5,.03-.11,.05-.28,.06-.52,.01-.24,.02-.59,.02-1.06v-2.04c-.06-.42-.34-.78-.85-1.1-.51-.32-1.1-.48-1.77-.48h-24.96c-.22,0-.51,.02-.85,.06-.35,.04-.66,.17-.94,.4-.22,.19-.39,.41-.5,.64-.11,.24-.17,.58-.17,1.02h0c0,2.3-1.86,4.16-4.16,4.16h-.29v-4.62c0-.92,.19-1.75,.56-2.5,.37-.75,.87-1.39,1.5-1.93,.62-.54,1.33-.96,2.12-1.27,.79-.3,1.59-.46,2.39-.46h25.29c.86,0,1.71,.12,2.56,.37,.85,.25,1.61,.62,2.29,1.1,.68,.49,1.23,1.08,1.64,1.77,.42,.69,.62,1.5,.62,2.41v4.2c0,.83-.17,1.54-.52,2.12-.35,.58-.8,1.07-1.35,1.46-.56,.39-1.17,.69-1.85,.92-.68,.22-1.37,.37-2.06,.46-.72,.08-1.46,.18-2.23,.29-.76,.11-1.55,.24-2.35,.37-1.77,.25-3.63,.52-5.55,.81-1.93,.29-3.84,.58-5.74,.85-1.9,.28-3.72,.55-5.45,.81-1.73,.26-3.28,.52-4.64,.77-.69,.14-1.35,.42-1.96,.85-.61,.43-.92,.92-.92,1.48v3.33h30.32c2.46,0,4.45,1.99,4.45,4.45h-39.23Z"/></g></g></svg>