<?xml version="1.0" encoding="UTF-8"?><svg id="Layer_2" xmlns="http://www.w3.org/2000/svg" viewBox="0 0 61.2 61.2"><defs><style>.cls-1{fill:#00a19b;}</style></defs><g id="Capa_1"><path class="cls-1" d="M59.92,61.2H1.28c-.7,0-1.28-.57-1.28-1.28V1.27C0,.57,.57,0,1.28,0s1.27,.57,1.27,1.27V58.65H59.92c.7,0,1.28,.57,1.28,1.28s-.57,1.28-1.28,1.28h0Z"/><path class="cls-1" d="M8.92,53.55c-.23,0-.47-.06-.68-.19-.6-.37-.78-1.16-.41-1.76l6.37-10.2c.22-.36,.61-.58,1.03-.6,.5-.01,.82,.17,1.08,.51l2.69,3.58,14.32-23.87c.22-.37,.6-.6,1.03-.62,.39-.02,.83,.17,1.09,.51l6.5,8.66L58.82,.63c.35-.61,1.14-.81,1.74-.46,.61,.35,.81,1.13,.46,1.74l-17.85,30.6c-.21,.37-.6,.6-1.03,.63-.42,.02-.84-.16-1.1-.51l-6.51-8.68-14.32,23.87c-.22,.36-.61,.6-1.03,.62-.36,.04-.83-.17-1.08-.51l-2.71-3.61-5.39,8.62c-.25,.39-.66,.6-1.08,.6h0Z"/></g></svg>