<?xml version="1.0" encoding="UTF-8"?><svg id="Layer_2" xmlns="http://www.w3.org/2000/svg" viewBox="0 0 60.57 76.04"><defs><style>.cls-1{fill:#00a19b;}</style></defs><g id="Capa_1"><path class="cls-1" d="M52.78,30.22h-.45v-7.78C52.34,10.07,42.43,0,30.21,0S8.08,10.07,8.08,22.44v7.78h-.29c-4.29,0-7.77,3.48-7.78,7.78v30.21c0,4.28,3.5,7.83,7.78,7.83H52.78c4.28,0,7.78-3.54,7.78-7.83v-30.21c-.01-4.29-3.49-7.77-7.78-7.78h0ZM11.18,22.44C11.18,11.78,19.7,3.11,30.21,3.11s19.02,8.67,19.02,19.33v7.78h-3.11v-7.78c0-8.95-7.12-16.23-15.92-16.23s-15.92,7.28-15.92,16.23v7.78h-3.11v-7.78Zm31.84,7.78H17.39v-7.78c0-7.23,5.73-13.12,12.81-13.12s12.81,5.89,12.81,13.12v7.78Zm14.44,38.05c0,2.57-2.09,4.66-4.66,4.66H7.76c-2.57,0-4.66-2.09-4.66-4.66v-30.28c0-2.57,2.09-4.66,4.66-4.66H52.8c2.57,0,4.66,2.09,4.66,4.66v30.28Z"/><path class="cls-1" d="M30.26,44.44c-3.06,0-5.64,2.29-6.02,5.33-.38,3.04,1.55,5.88,4.51,6.65v6.68c0,.86,.7,1.55,1.55,1.55s1.55-.7,1.55-1.55v-6.68c2.67-.7,4.53-3.12,4.52-5.89-.01-3.37-2.75-6.09-6.11-6.09h0Zm0,9.08c-1.65,0-2.98-1.34-2.98-2.99s1.34-2.98,2.98-2.98,2.99,1.34,2.99,2.98c0,1.65-1.34,2.98-2.99,2.99h0Z"/></g></svg>