<?xml version="1.0" encoding="UTF-8"?><svg id="Layer_2" xmlns="http://www.w3.org/2000/svg" viewBox="0 0 140.29 76.42"><defs><style>.cls-1{fill:#2d2a26;}</style></defs><g id="Capa_1"><g><path class="cls-1" d="M52.04,35.15c1.45-3.32,5.08-4.74,8.38-3.26,3.38,1.52,4.78,5.03,3.33,8.37-1.42,3.25-5.08,4.68-8.4,3.28-3.31-1.4-4.76-5.07-3.31-8.39Z"/><path class="cls-1" d="M72.17,14.46c1.15-2.63,4.03-3.76,6.64-2.58,2.68,1.2,3.79,3.99,2.64,6.64-1.12,2.58-4.03,3.71-6.66,2.6-2.62-1.11-3.77-4.02-2.63-6.65Z"/><path class="cls-1" d="M87.48,38.5c1.7-4.64-.58-9.54-5.21-11.18-.37-.13-.75-.23-1.13-.31-.37-.1-.76-.18-1.16-.24-6.41-.85-10.46-4.18-12.64-10.11-.37-1.02-.95-1.76-1.65-2.28-.57-.58-1.28-1.05-2.12-1.34-2.95-1.04-6.05,.39-7.11,3.28-.99,2.71,.09,5.43,2.59,6.74,.49,.31,1.05,.59,1.69,.86,5.38,2.22,8.9,6.05,9.65,12.06,.06,.46,.15,.89,.27,1.3,.56,2.8,2.56,5.19,5.64,6.35,4.62,1.75,9.47-.48,11.17-5.13Z"/><path class="cls-1" d="M96.35,42.8c-.38,1.03-1.45,1.52-2.47,1.13-1.05-.4-1.53-1.43-1.15-2.46,.37-1,1.45-1.5,2.47-1.14,1.02,.36,1.53,1.44,1.15,2.47Z"/><path class="cls-1" d="M43.94,42.17c.31-.71,1.08-1.01,1.79-.69,.72,.32,1.02,1.07,.71,1.78-.3,.69-1.08,1-1.79,.7-.7-.3-1.01-1.08-.71-1.79Z"/><path class="cls-1" d="M67.42,1.79c.67-1.55,2.37-2.21,3.9-1.52,1.58,.71,2.23,2.34,1.55,3.9-.66,1.51-2.37,2.18-3.91,1.53-1.54-.65-2.22-2.36-1.54-3.91Z"/><path class="cls-1" d="M6.5,63.13c-.28-.08-.59-.14-.94-.18-.35-.04-.84-.08-1.46-.12h-.08c-.58-.02-1.03-.05-1.34-.09-.31-.03-.58-.09-.82-.16-.28-.08-.48-.19-.61-.33-.13-.14-.19-.32-.19-.53,0-.41,.2-.75,.63-1.02,.42-.27,1-.42,1.73-.45,.06,0,.17,0,.3,0,.66,0,1.27,.11,1.83,.32s.95,.49,1.19,.83c.07,.09,.16,.13,.26,.13,.05,0,.11-.02,.17-.05,.1-.06,.15-.14,.15-.24,0-.06-.02-.11-.05-.15-.29-.43-.76-.78-1.4-1.04-.64-.26-1.36-.39-2.13-.39-.15,0-.26,0-.33,0-.59,.02-1.11,.12-1.56,.3s-.79,.41-1.04,.71c-.25,.3-.37,.64-.37,1.02,0,.36,.1,.65,.31,.89,.2,.24,.52,.42,.94,.56,.27,.07,.56,.13,.87,.16,.31,.03,.8,.07,1.46,.11h.08c.62,.04,1.08,.08,1.39,.11,.31,.04,.59,.09,.83,.17,.29,.1,.5,.23,.63,.38,.13,.15,.19,.35,.19,.6,0,.3-.12,.57-.37,.8-.25,.23-.59,.42-1.04,.54-.45,.13-.97,.19-1.56,.19-.56,0-1.09-.06-1.58-.17-.49-.11-.9-.27-1.23-.46-.33-.19-.53-.41-.62-.65-.03-.06-.07-.11-.12-.15-.06-.03-.12-.05-.19-.05-.04,0-.07,0-.09,0-.07,.03-.12,.06-.16,.12-.04,.05-.06,.11-.06,.17,0,.04,0,.07,0,.08,.12,.33,.38,.63,.76,.88,.38,.26,.86,.45,1.43,.6,.57,.14,1.19,.21,1.85,.21,.73,0,1.37-.09,1.91-.27,.54-.18,.96-.43,1.25-.75,.29-.32,.44-.7,.44-1.13,0-.72-.42-1.23-1.25-1.53Z"/><path class="cls-1" d="M4.15,66.92c-.67,0-1.3-.07-1.87-.21-.58-.14-1.07-.35-1.46-.61-.4-.27-.67-.58-.8-.93-.01-.03-.02-.07-.02-.12,0-.08,.03-.16,.08-.24,.05-.07,.12-.12,.2-.15,.1-.03,.26-.02,.37,.05,.07,.05,.13,.11,.16,.19,.08,.22,.27,.42,.57,.6,.32,.19,.72,.34,1.2,.45,.48,.11,1.01,.17,1.56,.17,.58,0,1.1-.06,1.54-.19,.43-.12,.76-.3,1-.52,.23-.22,.34-.45,.34-.72,0-.22-.06-.39-.17-.53-.12-.14-.31-.25-.58-.35-.23-.07-.5-.13-.8-.16-.31-.04-.78-.08-1.38-.11h-.07c-.67-.04-1.16-.07-1.47-.11-.32-.03-.62-.09-.89-.17-.44-.14-.77-.34-.99-.6-.22-.26-.33-.58-.33-.96,0-.41,.13-.77,.39-1.09,.26-.31,.62-.56,1.08-.74,.46-.18,.99-.28,1.59-.31,.07,0,.18,0,.33,0,.79,0,1.52,.13,2.17,.4,.66,.27,1.15,.63,1.45,1.08,.04,.05,.07,.12,.07,.21,0,.14-.07,.26-.2,.34-.09,.04-.16,.06-.23,.06-.14,0-.25-.06-.35-.17-.23-.33-.61-.6-1.14-.8-.54-.21-1.14-.31-1.79-.31-.13,0-.23,0-.29,0-.71,.04-1.27,.18-1.68,.44-.39,.25-.58,.55-.58,.92,0,.19,.05,.35,.17,.46,.12,.12,.31,.22,.56,.3,.23,.07,.5,.13,.8,.16,.31,.03,.76,.06,1.33,.09h.07c.63,.04,1.12,.08,1.47,.12,.35,.04,.67,.1,.96,.19h0c.88,.32,1.32,.87,1.32,1.63,0,.46-.16,.86-.46,1.21-.3,.34-.74,.6-1.3,.78-.55,.18-1.21,.27-1.95,.27Zm-3.74-2.07s-.05,0-.06,0c-.04,.02-.07,.04-.1,.08-.03,.03-.04,.07-.04,.11,0,.04,0,.05,0,.05,.11,.31,.36,.59,.72,.83,.37,.25,.84,.44,1.39,.58,.56,.14,1.17,.21,1.82,.21,.72,0,1.35-.09,1.88-.26,.52-.17,.93-.42,1.21-.72,.27-.3,.41-.66,.41-1.06,0-.67-.39-1.14-1.18-1.43-.27-.08-.58-.14-.92-.18-.35-.04-.84-.08-1.45-.12h-.07c-.59-.03-1.04-.06-1.35-.09-.32-.04-.6-.09-.84-.17-.29-.08-.51-.21-.66-.36-.15-.16-.22-.36-.22-.61,0-.45,.22-.82,.68-1.11,.44-.27,1.04-.43,1.78-.47,.06,0,.17,0,.31,0,.67,0,1.3,.11,1.87,.33,.58,.22,.99,.51,1.24,.87,.07,.08,.15,.12,.3,.05,.06-.03,.09-.08,.09-.15,0-.04,0-.06-.02-.08-.29-.42-.74-.76-1.36-1.01-.63-.25-1.33-.38-2.09-.38-.14,0-.25,0-.32,0-.58,.02-1.09,.12-1.53,.29-.43,.17-.76,.4-1,.68-.23,.28-.35,.59-.35,.95,0,.33,.09,.6,.28,.82,.19,.22,.49,.4,.89,.53,.26,.07,.54,.13,.85,.16,.31,.03,.8,.07,1.46,.11h.07c.62,.04,1.09,.08,1.4,.11,.32,.04,.6,.1,.84,.17,.31,.11,.54,.25,.68,.41,.15,.17,.22,.4,.22,.66,0,.33-.14,.62-.4,.88-.26,.25-.62,.44-1.08,.57-.45,.13-.99,.2-1.59,.2-.57,0-1.11-.06-1.61-.17-.5-.11-.93-.27-1.26-.47-.35-.21-.57-.44-.66-.7-.02-.04-.04-.07-.08-.09-.04-.02-.08-.04-.13-.04Z"/><path class="cls-1" d="M22.45,60.65c0,1.5,0,3.13,0,4.87v.91c0,.08,.03,.15,.1,.21,.06,.06,.14,.09,.22,.09,.09,0,.17-.03,.22-.09,.06-.06,.09-.13,.09-.21,0-.09,0-.43,0-1.01,0-.86,0-1.6,0-2.22v-3.25s-.03-.09-.07-.15c-.05-.07-.13-.1-.24-.1-.09,0-.16,.03-.21,.07l-1.82,1.47h0s-.06,.05-.11,.09c-.05,.04-.12,.1-.21,.18l-.42,.34-.35,.29-.17,.13-.62,.51-3.79-2.99c-.06-.04-.14-.07-.22-.07-.11,0-.19,.03-.25,.1-.05,.05-.07,.14-.07,.26v6.35c-.02,.09,.01,.16,.07,.22,.06,.06,.14,.09,.23,.09,.08,0,.16-.03,.22-.08,.06-.06,.1-.12,.1-.21,0-.63,0-2.56,0-5.79l3.48,2.74s.07,.05,.15,.07c.02,0,.05,0,.09,0,.08,0,.15-.02,.2-.07l.27-.23,.54-.44,.16-.13,1.08-.87h.02l.62-.52c.23-.18,.46-.37,.68-.56Z"/><path class="cls-1" d="M14.83,66.85c-.12,0-.22-.04-.3-.12-.08-.08-.12-.19-.12-.31v-6.34c0-.15,.04-.26,.1-.33,.08-.09,.19-.14,.33-.14,.11,0,.2,.03,.28,.08l3.73,2.94,1.49-1.21c.09-.07,.16-.13,.2-.17,.05-.05,.09-.08,.12-.1l.03-.02,1.79-1.45c.07-.06,.16-.1,.28-.1,.14,0,.25,.05,.33,.15,.05,.08,.08,.15,.08,.21v3.25c.02,.62,.02,1.37,.02,2.22,0,.58,0,.92-.01,1.02,0,.1-.04,.2-.12,.28-.15,.16-.42,.17-.6,0-.09-.08-.13-.18-.13-.29v-.91c0-1.66,0-3.21,0-4.64-.17,.14-.34,.28-.51,.41l-2.69,2.18c-.08,.07-.17,.1-.27,.1-.05,0-.09,0-.12-.01-.09-.02-.15-.05-.19-.09l-3.3-2.59c0,3.02,0,4.95,0,5.57,0,.12-.05,.21-.14,.28-.08,.07-.18,.11-.29,.11Zm.02-7.02c-.1,0-.15,.04-.17,.07-.01,.02-.04,.06-.04,.19v6.35c-.01,.06,0,.11,.04,.14,.08,.08,.21,.08,.3,0,.04-.04,.06-.08,.07-.14,0-.63,0-2.64,0-5.79v-.22l3.65,2.87s.03,.03,.11,.05c.02,0,.13,.02,.19-.04l.97-.8,1.72-1.39c.23-.18,.46-.37,.68-.56l.18-.15v.23c0,1.5,.01,3.13,.01,4.88v.91c0,.05,.02,.09,.06,.13,.09,.09,.23,.08,.3,0,.04-.04,.06-.08,.06-.14,0-.07,0-.3,0-1.01,0-.86,0-1.6,0-2.22v-3.25s-.01-.04-.05-.09c-.02-.02-.06-.06-.16-.06-.06,0-.11,.01-.14,.05l-1.86,1.5s-.05,.04-.08,.07c-.05,.04-.12,.1-.21,.18l-1.62,1.32-3.86-3.04s-.09-.04-.16-.04Z"/><path class="cls-1" d="M38.06,66.27c-.25-.44-.46-.81-.65-1.12-.1-.18-.17-.29-.18-.32l-.17-.3s-.19-.29-.47-.76l-.26-.44-.4-.67c-.11-.19-.35-.58-.71-1.19-.36-.61-.68-1.15-.94-1.63-.06-.11-.15-.17-.27-.17s-.22,.05-.28,.15l-.17,.29c-.13,.19-.33,.53-.59,1-.54,.9-1.41,2.36-2.59,4.37l-.45,.76c-.03,.05-.05,.1-.05,.16,0,.1,.05,.18,.16,.24,.05,.03,.11,.05,.17,.05,.05,0,.1-.01,.16-.04,.05-.03,.09-.06,.12-.11l1.03-1.74h4.99l.02,.04h0l.37,.62,.64,1.09h0c.03,.05,.08,.09,.13,.12,.05,.03,.11,.04,.16,.04s.1-.01,.15-.04c.1-.06,.16-.15,.16-.25,0-.06-.01-.11-.04-.15Zm-4.05-2.05h-.97c-.35,0-.74,0-1.19,0l1.65-2.8,.48-.8c.32,.56,.87,1.5,1.67,2.82l.47,.79h-2.11Z"/><path class="cls-1" d="M37.8,66.82c-.07,0-.14-.02-.21-.05-.07-.04-.13-.08-.17-.14l-.02-.04-.99-1.66h-4.86l-1,1.68c-.04,.06-.09,.11-.16,.15-.14,.08-.3,.07-.43,0-.17-.1-.21-.24-.21-.34,0-.08,.02-.15,.07-.22l.44-.75c1.18-2,2.05-3.47,2.6-4.37,.27-.48,.46-.81,.6-1.01l.16-.28c.09-.14,.22-.2,.37-.2s.29,.08,.37,.23c.27,.48,.58,1.03,.94,1.63,.36,.61,.6,1,.71,1.19l.66,1.11c.37,.62,.44,.73,.46,.74l.19,.32s.08,.14,.19,.32c.19,.3,.4,.67,.65,1.12,.04,.06,.05,.13,.05,.2,0,.1-.04,.24-.21,.34-.07,.04-.13,.05-.2,.05Zm-.19-.3s.04,.04,.07,.05c.08,.04,.15,.04,.21,0,.09-.05,.1-.11,.1-.16,0-.04,0-.07-.02-.1h0c-.25-.45-.46-.81-.65-1.11-.1-.18-.16-.29-.18-.32l-.18-.3s-.04-.05-.47-.76l-.66-1.11c-.11-.19-.35-.58-.71-1.19-.36-.6-.68-1.15-.94-1.63-.04-.08-.1-.11-.18-.11s-.15,.03-.19,.1l-.16,.29c-.13,.2-.33,.53-.59,1-.54,.9-1.42,2.37-2.6,4.37l-.45,.76s-.03,.07-.03,.11c0,.04,.01,.1,.1,.15,.07,.04,.14,.04,.21,0,.03-.02,.06-.04,.08-.07l1.06-1.8h5.1l.07,.12,.35,.58,.66,1.11Zm-1.31-2.2h-3.26c-.35,0-.74,0-1.19,0h-.18l2.32-3.92,.09,.16c.32,.55,.88,1.5,1.67,2.82l.56,.95Zm-4.27-.22c.37,0,.71,0,1.01,0h2.89l-.37-.63c-.72-1.2-1.25-2.1-1.58-2.66l-.38,.64-1.56,2.64Z"/><path class="cls-1" d="M50.46,65.5c.39,.58,.63,.93,.73,1.05,.07,.08,.16,.12,.26,.12,.06,0,.13-.02,.18-.06,.08-.07,.13-.15,.13-.24,0-.06-.02-.12-.06-.18-.13-.17-.37-.52-.71-1.03l-.03-.04-.58-.83c.17-.06,.32-.15,.47-.26,.32-.24,.55-.54,.71-.9,.15-.34,.22-.7,.22-1.08,0-.41-.09-.81-.27-1.19-.18-.37-.42-.64-.72-.83-.3-.18-.73-.31-1.28-.38-.51-.07-1.13-.1-1.87-.1-.43,0-.9,0-1.41,.03l-1.02,.03c-.08,0-.15,.02-.21,.07-.06,.05-.09,.1-.1,.17-.01,.04-.02,.07-.02,.09,0,.69,0,1.73,0,3.14,0,1.41,0,2.53-.01,3.38,0,.09,.03,.16,.1,.22,.06,.06,.14,.09,.22,.09,.09,0,.16-.03,.22-.09,.06-.06,.09-.13,.09-.22,0-.14,0-.75,0-1.85l.89,.02h1.08c.83,0,1.49-.03,1.98-.11l.27-.05c.14,.18,.38,.5,.7,.98l.03,.04Zm-1.1-1.57c-.45,.08-1.07,.11-1.86,.11h-1.1l-.9-.03c0-1.22,0-2.49,0-3.81l.74-.02c.49-.02,.96-.03,1.39-.03,.71,0,1.3,.03,1.78,.1,.46,.06,.8,.16,1.02,.28,.22,.13,.39,.33,.52,.6,.13,.28,.19,.58,.19,.91,0,.29-.06,.56-.17,.82-.14,.31-.33,.55-.57,.71-.25,.16-.6,.27-1.06,.34Z"/><path class="cls-1" d="M45.18,66.89c-.11,0-.21-.04-.3-.12-.09-.08-.13-.18-.13-.3,0-.85,.01-1.98,.01-3.38,0-1.41,0-2.45,0-3.14,0-.04,0-.08,.03-.13,.01-.08,.06-.16,.13-.22,.07-.06,.17-.1,.28-.1l1.02-.03c1.35-.05,2.49-.03,3.29,.08,.57,.08,1.01,.21,1.32,.4,.31,.19,.57,.48,.76,.87,.19,.4,.28,.81,.28,1.24,0,.39-.08,.76-.23,1.12-.16,.38-.41,.69-.74,.94-.11,.09-.24,.16-.37,.22l.53,.76c.35,.53,.58,.86,.71,1.03,.05,.08,.08,.16,.08,.24,0,.13-.06,.24-.17,.33-.22,.14-.44,.09-.59-.08-.1-.13-.34-.48-.74-1.06l-.03-.03c-.3-.44-.52-.75-.66-.93l-.21,.04c-.5,.08-1.17,.12-2,.12l-1.87-.03c0,1.02,0,1.61,0,1.74,0,.11-.04,.21-.12,.29-.08,.08-.18,.12-.3,.12Zm2.46-7.23c-.43,0-.91,0-1.41,.03l-1.02,.03c-.06,0-.11,.01-.14,.04-.04,.03-.06,.07-.07,.11-.02,.05-.02,.07-.02,.07,0,.69,0,1.73,0,3.14,0,1.41,0,2.53-.01,3.39,0,.06,.02,.1,.06,.14,.09,.09,.22,.08,.3,0,.04-.04,.06-.09,.06-.15,0-.1,0-.5,0-1.85v-.11l1,.02h1.08c.82,0,1.48-.03,1.96-.11l.33-.06,.04,.05c.14,.18,.38,.5,.71,.99l.03,.04c.39,.57,.63,.92,.72,1.04,.08,.09,.2,.11,.3,.04,.05-.04,.08-.09,.08-.15,0-.04-.01-.08-.04-.12-.13-.17-.36-.51-.71-1.03l-.02-.03-.67-.95,.13-.05c.16-.06,.3-.14,.44-.25,.3-.23,.53-.52,.68-.86,.14-.33,.21-.68,.21-1.04,0-.39-.09-.78-.26-1.14-.17-.35-.4-.61-.68-.78-.28-.17-.7-.3-1.24-.37-.5-.07-1.12-.1-1.85-.1Zm-.14,4.49l-2.11-.03v-.11c0-1.22,.01-2.49,.01-3.81v-.1l.84-.02c1.29-.05,2.41-.04,3.19,.08,.48,.06,.82,.16,1.06,.29,.24,.14,.43,.35,.57,.65,.14,.29,.2,.62,.2,.95,0,.3-.06,.59-.17,.87-.14,.33-.35,.59-.61,.76-.26,.17-.63,.29-1.1,.36-.46,.08-1.09,.11-1.87,.11Zm-1.89-.24l.8,.02h1.1c.77,0,1.39-.03,1.84-.1h0c.44-.07,.78-.18,1.02-.33,.23-.15,.41-.37,.53-.66,.1-.25,.16-.51,.16-.78,0-.31-.06-.6-.18-.86-.12-.25-.28-.44-.48-.55-.21-.12-.54-.21-.98-.27-.77-.11-1.87-.12-3.15-.07l-.64,.02c0,1.24,0,2.44,0,3.6Z"/><path class="cls-1" d="M65.99,59.79h-4.69c-.87,0-1.85,0-2.94,.02-.08,0-.16,.03-.22,.09-.06,.06-.09,.13-.08,.21,0,.08,.03,.15,.09,.22,.06,.06,.13,.09,.22,.09,1.43-.02,2.6-.03,3.51-.03,0,2.72,0,4.76,.03,6.11,0,.09,.03,.16,.09,.22,.06,.06,.14,.08,.23,.08s.17-.03,.22-.09c.06-.06,.09-.13,.09-.22-.02-1.34-.03-3.38-.03-6.1h3.48c.08,0,.16-.02,.22-.08,.06-.06,.09-.13,.09-.22s-.03-.15-.09-.21c-.06-.06-.13-.09-.22-.09Z"/><path class="cls-1" d="M62.23,66.91c-.12,0-.22-.04-.3-.11-.08-.08-.13-.18-.13-.29-.02-1.32-.03-3.34-.03-6.01-.9,0-2.05,.01-3.4,.03-.12,0-.21-.04-.3-.13-.08-.08-.12-.18-.12-.29,0-.1,.03-.21,.11-.29,.08-.08,.18-.12,.29-.12,1.08-.02,2.07-.03,2.94-.03l3.22,.02h1.48c.11,0,.21,.03,.29,.11,.08,.08,.13,.18,.13,.29s-.04,.21-.12,.29c-.08,.08-.18,.13-.29,.13h-3.37c0,2.65,.01,4.67,.03,5.99,0,.12-.04,.22-.12,.3-.08,.08-.18,.12-.3,.12Zm-.35-6.63h.11v.11c0,2.72,0,4.78,.03,6.11,0,.06,.02,.1,.06,.14,.08,.08,.23,.08,.3,0,.04-.04,.06-.09,.06-.15-.02-1.33-.03-3.39-.03-6.1v-.11h3.59c.06,0,.1-.01,.14-.05,.04-.04,.06-.09,.06-.14s-.02-.09-.06-.13c-.04-.04-.09-.06-.14-.06h-4.7c-.87,0-1.85,0-2.93,.02-.06,0-.1,.02-.15,.06-.04,.04-.05,.08-.05,.13,0,.06,.02,.11,.06,.15,.04,.04,.09,.06,.14,.06,1.41-.02,2.59-.03,3.51-.03Z"/><path class="cls-1" d="M89.4,60.01v-.07s-.02-.09-.06-.15c-.05-.07-.13-.1-.24-.1-.09,0-.16,.03-.21,.07l-1.82,1.47h0s-.06,.05-.11,.09c-.05,.04-.12,.1-.21,.18l-.42,.34-.35,.29-.17,.13-.62,.51-3.79-2.99c-.07-.04-.14-.07-.22-.07-.11,0-.19,.03-.25,.1-.05,.05-.07,.14-.07,.26v6.35c-.02,.09,.01,.16,.07,.22,.06,.06,.14,.09,.23,.09,.08,0,.16-.03,.22-.08,.06-.06,.1-.12,.1-.21,0-.63,0-2.56,0-5.79l3.48,2.74s.07,.05,.15,.07c.02,0,.05,0,.09,0,.08,0,.15-.02,.2-.07l.27-.23,.54-.44,.16-.13,1.08-.87h.02l.62-.52c.23-.18,.46-.37,.68-.56,0,1.5,0,3.13,0,4.87v.91c0,.08,.03,.15,.1,.21,.06,.06,.14,.09,.22,.09,.09,0,.17-.03,.22-.09,.06-.06,.09-.13,.09-.21,0-.09,0-.43,0-1.01,0-.86,0-1.6,0-2.22v-3.19Z"/><path class="cls-1" d="M81.15,66.85c-.12,0-.22-.04-.3-.12-.08-.08-.12-.19-.12-.31v-6.34c0-.15,.04-.26,.11-.33,.08-.09,.19-.14,.33-.14,.11,0,.2,.03,.28,.08l3.73,2.94,1.49-1.21c.09-.07,.16-.13,.2-.17,.05-.05,.09-.08,.12-.1l.03-.02,1.79-1.45c.07-.06,.16-.1,.28-.1,.14,0,.25,.05,.33,.15,.05,.08,.08,.15,.08,.21v3.25c.02,.62,.02,1.37,.02,2.22,0,.58,0,.92,0,1.02,0,.1-.04,.2-.12,.28-.15,.15-.42,.17-.6,0-.09-.08-.13-.18-.13-.29v-.91c0-1.66,0-3.21,0-4.64-.17,.14-.34,.28-.51,.41l-2.69,2.18c-.08,.07-.17,.1-.27,.1-.05,0-.09,0-.12-.01-.09-.02-.15-.05-.19-.09l-3.3-2.59c0,3.14,0,4.96,0,5.57,0,.12-.06,.21-.14,.28-.08,.07-.18,.11-.29,.11Zm.02-7.02c-.1,0-.15,.04-.17,.07-.01,.02-.04,.06-.04,.19v6.35c-.01,.06,0,.11,.04,.14,.08,.08,.21,.08,.3,0,.04-.04,.06-.08,.07-.14,0-.62,0-2.51,0-5.79v-.22l3.65,2.87s.03,.03,.11,.05c.02,0,.13,.02,.2-.04l.97-.8,1.72-1.39c.23-.18,.46-.37,.68-.56l.18-.15v.23c0,1.5,.01,3.13,.01,4.88v.91c0,.05,.02,.09,.06,.13,.09,.09,.23,.08,.3,0,.04-.04,.06-.08,.06-.14,0-.07,0-.3,0-1.01,0-.86,0-1.6,0-2.22v-3.25s-.01-.04-.05-.09c-.02-.02-.06-.06-.16-.06-.06,0-.11,.01-.14,.05l-1.86,1.5s-.05,.04-.08,.07c-.05,.04-.12,.1-.21,.18l-1.62,1.32-3.86-3.04s-.09-.04-.16-.04Z"/><path class="cls-1" d="M100.09,60.39h2.57c.08,0,.16-.04,.22-.1,.06-.06,.09-.13,.09-.22,0-.09-.03-.16-.09-.22-.06-.06-.14-.08-.23-.08h-4.04c-.51,0-1.04,.01-1.57,.02-.1,0-.18,.03-.24,.08-.06,.05-.1,.12-.1,.2v.12c0,1.86,0,3.88,0,6.07,0,.09,0,.15,0,.19,.04,.14,.16,.21,.35,.21,.21,0,.4,0,.57,0h5.01c.09,0,.17-.03,.23-.09,.06-.06,.09-.13,.09-.22s-.03-.15-.09-.21c-.06-.06-.13-.09-.22-.09h-5.32v-1.94h1.85c.25,0,.57,0,.95,0,.3,0,.51,0,.6,0,.08,0,.16-.03,.22-.09,.06-.06,.1-.13,.1-.22,0-.09-.03-.16-.09-.22-.06-.06-.14-.08-.23-.08-.1,0-.3,0-.6,0-.38,0-.7,0-.95,0h-1.85c0-1.32,0-2.35,0-3.09,.64,0,1.56,0,2.77,0Z"/><path class="cls-1" d="M97.03,66.77c-.31,0-.42-.15-.45-.28,0-.05-.01-.12-.01-.22,0-2.19,0-4.22,0-6.08v-.12c0-.11,.05-.21,.14-.28,.08-.07,.19-.1,.31-.1,.54,0,1.06,0,1.57,0h4.04c.12,0,.22,.03,.3,.1,.08,.08,.13,.18,.13,.29,0,.11-.04,.21-.12,.29-.08,.08-.18,.13-.29,.13h-2.57c-1.15,0-2.03,.01-2.66,.02,0,.71,0,1.67,0,2.88h1.74c.25,0,.57,0,.95,0,.31,0,.51,0,.61,0h0c.11,0,.21,.04,.29,.11,.08,.08,.13,.18,.13,.29,0,.12-.05,.21-.13,.29-.08,.08-.18,.13-.29,.13-.07,0-.23,0-.6,0s-.7,0-.95,0h-1.74v1.73h5.21c.11,0,.21,.04,.29,.12,.08,.08,.13,.18,.13,.29s-.04,.21-.12,.29c-.08,.08-.18,.13-.3,.13h-5c-.17,0-.36,0-.57,0Zm1.56-6.88c-.51,0-1.04,0-1.57,0-.07,0-.13,.02-.18,.06-.04,.03-.06,.07-.06,.12v.12c0,1.86,0,3.88,0,6.07,0,.08,0,.14,0,.17,0,.03,.03,.12,.24,.12s.4,0,.57,0h5.01c.06,0,.11-.02,.15-.06,.04-.04,.06-.09,.06-.14s-.02-.09-.06-.13c-.04-.04-.09-.06-.14-.06h-5.42v-2.15h1.95c.25,0,.57,0,.95,0,.3,0,.51,0,.61,0,.05,0,.09-.02,.14-.06,.04-.04,.07-.09,.07-.15,0-.05-.02-.09-.06-.13-.04-.04-.09-.06-.16-.06-.1,0-.3,0-.6,0-.38,0-.7,0-.95,0h-1.96v-.11c0-1.32,0-2.35,0-3.09v-.1h.11c.64,0,1.56-.01,2.77-.01h2.57c.06,0,.1-.03,.14-.07,.04-.04,.06-.09,.06-.14,0-.06-.02-.1-.06-.14-.04-.04-.09-.06-.16-.06h-4.04Z"/><path class="cls-1" d="M115.4,60.24c-.27-.12-.53-.22-.77-.27-.23-.06-.47-.1-.71-.13-.24-.02-.57-.03-.98-.03-.47,0-.87,0-1.19,0-.4,0-.92,0-1.56,0-.1,0-.18,.03-.23,.1-.06,.07-.09,.15-.09,.23l.05,6.24c0,.09,.04,.17,.11,.24,.07,.07,.16,.11,.26,.13h.77c1.38,0,2.36-.02,2.93-.07,.62-.04,1.13-.14,1.52-.3,.49-.21,.89-.6,1.2-1.17,.3-.57,.46-1.22,.46-1.95s-.16-1.33-.47-1.87c-.31-.54-.74-.93-1.28-1.18Zm.75,4.7c-.16,.3-.33,.53-.52,.68-.19,.15-.42,.26-.68,.33-.26,.07-.6,.11-1.03,.15-.65,.05-1.59,.08-2.81,.08h-.57l-.04-5.73c.52,0,.94,0,1.25,0,.4,0,.85,0,1.34,0s.87,.03,1.16,.09c.29,.06,.58,.15,.88,.29,.47,.21,.82,.55,1.06,1.03,.21,.44,.32,.93,.32,1.49,0,.59-.12,1.13-.37,1.62Z"/><path class="cls-1" d="M111.06,66.89h-.77c-.13-.02-.24-.07-.33-.16-.1-.09-.14-.2-.14-.32l-.05-6.24c0-.11,.04-.22,.11-.3,.08-.09,.19-.14,.31-.14,.64,0,1.16,0,1.56,0,.32,0,.71,0,1.19,0,.41,0,.75,.01,.99,.03,.25,.02,.49,.07,.73,.13,.24,.06,.51,.15,.78,.28,.56,.25,1.01,.66,1.33,1.22,.32,.55,.48,1.2,.48,1.92s-.16,1.41-.47,2c-.31,.59-.73,1-1.25,1.22-.4,.16-.92,.26-1.55,.31-.57,.05-1.56,.08-2.93,.08Zm1.89-6.97c-.47,0-.87,0-1.18,0-.4,0-.92,0-1.57,0-.07,0-.11,.02-.15,.07-.04,.05-.06,.1-.06,.17l.05,6.24c0,.06,.03,.11,.08,.16,.06,.06,.12,.09,.2,.1h.75c1.37,0,2.35-.03,2.92-.08,.61-.04,1.11-.14,1.49-.29,.47-.19,.85-.57,1.14-1.12,.29-.55,.44-1.19,.44-1.9s-.15-1.29-.45-1.82c-.3-.52-.71-.9-1.23-1.13h0c-.27-.12-.52-.21-.75-.27-.23-.06-.46-.1-.69-.12-.24-.02-.57-.03-.97-.03Zm-1.83,6.36h-.68l-.04-5.94h.11c.52,0,.93,0,1.25,0,.4,0,.85,0,1.34,0s.89,.03,1.18,.09c.29,.06,.6,.16,.9,.29,.49,.22,.86,.58,1.11,1.08,.22,.45,.33,.97,.33,1.54,0,.61-.13,1.17-.38,1.67h0c-.16,.31-.35,.55-.55,.71-.2,.16-.44,.28-.72,.35-.26,.07-.62,.12-1.05,.15-.65,.05-1.6,.08-2.82,.08Zm-.47-.21h.47c1.21,0,2.15-.03,2.8-.08,.42-.03,.76-.08,1.01-.14,.24-.06,.46-.17,.63-.31,.18-.14,.34-.36,.49-.64,.24-.47,.36-1,.36-1.57,0-.54-.1-1.02-.31-1.44-.23-.46-.57-.79-1.01-.98-.3-.13-.59-.22-.86-.28-.28-.06-.66-.09-1.13-.09s-.94,0-1.34,0c-.3,0-.68,0-1.15,0l.04,5.51Z"/><path class="cls-1" d="M124.67,59.71c-.09,0-.17,.03-.23,.09-.06,.06-.09,.13-.08,.22v.56c-.02,.24-.02,.65-.02,1.21v.67c-.02,.18-.02,.42-.02,.75l-.02,2.17v.73c0,.19,0,.32,.02,.39,.01,.06,.05,.11,.11,.15,.06,.04,.12,.06,.19,.06,.04,0,.07,0,.09,0,.15-.03,.22-.15,.22-.37v-.97l.02-2.17c0-.32,0-.57,0-.74v-.32c0-.26,0-.46,0-.62,0-.3,0-.53,0-.68,0-.29,0-.48,0-.59v-.26c0-.08-.04-.15-.1-.21-.06-.06-.13-.08-.22-.08Z"/><path class="cls-1" d="M124.63,66.83c-.09,0-.18-.03-.26-.08-.08-.06-.13-.13-.15-.22-.01-.09-.02-.22-.02-.42v-.73l.02-2.17c0-.33,0-.58,0-.75v-.67c0-.56,.01-.97,.02-1.21v-.56c0-.11,.04-.21,.13-.3,.16-.15,.42-.16,.59,0,.08,.07,.13,.17,.14,.28v.27c0,.11,0,.31,0,.59,0,.16,0,.39,0,.68,0,.16,0,.36,0,.62v.32c0,.18,0,.42,0,.74l-.02,3.13c0,.33-.17,.44-.31,.47-.02,0-.06,.01-.11,.01Zm.05-7.01c-.06,0-.11,.02-.15,.06-.04,.04-.05,.08-.05,.14v.57c-.02,.24-.02,.65-.02,1.21v.68c-.02,.18-.02,.43-.02,.75l-.02,2.9c0,.22,0,.33,.02,.38,0,.03,.03,.06,.06,.09,.07,.05,.19,.04,.19,.04,.05-.01,.15-.03,.15-.26v-.97l.02-2.17c0-.32,0-.57,0-.74v-.31c0-.26,0-.47,0-.62,0-.3,0-.53,0-.68,0-.28,0-.48,.01-.59v-.26s-.03-.09-.07-.13c-.04-.04-.09-.06-.15-.06Z"/><path class="cls-1" d="M140.15,66.27c-.25-.44-.46-.81-.65-1.12-.1-.18-.17-.29-.18-.32l-.17-.3s-.19-.29-.47-.76l-.26-.44-.4-.67c-.11-.19-.35-.58-.71-1.19-.36-.61-.68-1.15-.94-1.63-.06-.11-.15-.17-.27-.17s-.22,.05-.28,.15l-.17,.29c-.13,.19-.33,.53-.59,1-.54,.9-1.41,2.36-2.6,4.37l-.45,.76c-.03,.05-.05,.1-.05,.16,0,.1,.05,.18,.16,.24,.05,.03,.11,.05,.17,.05,.05,0,.1-.01,.16-.04,.05-.03,.09-.06,.12-.11l1.03-1.74h4.99l.02,.04h0l.37,.62,.64,1.09h0c.03,.05,.08,.09,.13,.12,.05,.03,.11,.04,.16,.04s.1-.01,.15-.04c.1-.06,.16-.15,.16-.25,0-.06-.01-.11-.04-.15Zm-4.05-2.05h-.97c-.35,0-.74,0-1.19,0l1.65-2.8,.48-.8c.32,.56,.87,1.5,1.67,2.82l.47,.79h-2.11Z"/><path class="cls-1" d="M139.88,66.82c-.07,0-.14-.02-.21-.05-.07-.04-.13-.08-.17-.14l-.02-.04-.99-1.66h-4.86l-1,1.68c-.04,.06-.09,.11-.16,.15-.14,.08-.3,.07-.43,0-.17-.1-.21-.24-.21-.34,0-.08,.02-.15,.07-.22l.44-.75c1.2-2.04,2.05-3.47,2.6-4.37,.26-.47,.46-.81,.6-1.01l.16-.28c.09-.14,.22-.2,.37-.2s.29,.08,.37,.23c.26,.47,.58,1.02,.94,1.63,.36,.61,.6,1,.71,1.19l.66,1.11c.37,.62,.44,.73,.46,.74l.19,.32s.08,.14,.19,.32c.19,.3,.41,.68,.65,1.12,.04,.06,.05,.13,.05,.2,0,.1-.04,.24-.21,.34-.07,.04-.13,.05-.2,.05Zm-.19-.3s.04,.04,.07,.05c.08,.04,.14,.04,.21,0,.09-.05,.1-.11,.1-.16,0-.04,0-.07-.02-.1h0c-.24-.44-.46-.81-.65-1.11-.1-.18-.17-.29-.18-.32l-.18-.3s-.04-.05-.47-.76l-.66-1.11c-.11-.19-.35-.58-.71-1.19-.36-.61-.68-1.16-.94-1.63-.04-.08-.1-.11-.18-.11s-.15,.03-.19,.1l-.16,.29c-.13,.2-.33,.53-.59,1-.54,.9-1.39,2.33-2.6,4.37l-.45,.76s-.03,.07-.03,.11c0,.04,.01,.1,.1,.15,.07,.04,.14,.04,.22,0,.03-.02,.06-.04,.08-.07l1.06-1.8h5.1l.07,.12,.35,.58,.66,1.11Zm-1.31-2.2h-3.26c-.35,0-.74,0-1.19,0h-.18l2.32-3.92,.09,.16c.32,.56,.88,1.5,1.67,2.82l.56,.95Zm-4.27-.22c.37,0,.71,0,1.01,0h2.89l-.37-.63c-.72-1.2-1.25-2.09-1.58-2.66l-.38,.64-1.56,2.64Z"/><polygon class="cls-1" points="9.33 74.92 7.73 72.22 7.32 72.22 7.32 76.17 7.72 76.17 7.72 72.93 9.22 75.44 9.45 75.44 10.94 72.93 10.94 76.17 11.35 76.17 11.35 72.22 10.94 72.22 9.33 74.92"/><path class="cls-1" d="M11.54,76.36h-.79v-2.74l-1.19,2h-.45l-1.19-2v2.74h-.79v-4.33h.72l1.49,2.52,1.5-2.52h.71v4.33Zm-.4-.38h.02v-3.56h-.02v3.56Zm-3.63,0h.02v-3.56h-.02v3.56Z"/><path class="cls-1" d="M17.44,75.68v-1.31c0-.36-.11-.64-.32-.84-.22-.2-.51-.31-.89-.31s-.74,.13-1.13,.38l.14,.25c.17-.11,.33-.2,.49-.26,.16-.06,.32-.09,.47-.09,.27,0,.47,.08,.62,.23,.15,.15,.22,.35,.22,.61v.26c-.12-.05-.26-.09-.42-.11s-.31-.04-.47-.04c-.18,0-.35,.02-.51,.06-.15,.04-.29,.1-.4,.18-.11,.08-.2,.17-.26,.28-.06,.11-.09,.22-.09,.35s.02,.24,.08,.35c.05,.11,.12,.2,.21,.29,.09,.08,.2,.15,.32,.19,.12,.05,.25,.07,.39,.07,.24,0,.47-.05,.68-.14,.21-.09,.38-.23,.52-.4v.23c.02,.09,.04,.15,.1,.2s.13,.07,.23,.07c.03,0,.08,0,.15-.02v-.33c-.1,0-.14-.05-.14-.16Zm-.39-.37s0,.07-.03,.11c-.02,.04-.04,.08-.08,.11-.09,.12-.22,.22-.39,.29-.17,.07-.36,.11-.56,.11-.1,0-.19-.02-.28-.05-.09-.03-.16-.08-.23-.14-.06-.06-.11-.12-.15-.2-.04-.08-.05-.16-.05-.25,0-.18,.09-.33,.26-.44,.17-.11,.4-.17,.67-.17,.15,0,.29,.01,.43,.04,.14,.03,.28,.06,.41,.11v.47Z"/><path class="cls-1" d="M15.9,76.42c-.17,0-.32-.03-.46-.08-.14-.05-.27-.13-.38-.23-.11-.1-.2-.22-.26-.35-.06-.13-.09-.28-.09-.43s.04-.31,.12-.45c.08-.13,.18-.25,.32-.34,.13-.09,.28-.16,.46-.21,.31-.08,.68-.09,1.06-.03,.07,.01,.14,.02,.2,.04h0c0-.21-.06-.36-.17-.47-.18-.18-.52-.23-.89-.09-.15,.05-.3,.13-.45,.23l-.17,.12-.33-.59,.15-.1c.42-.27,.83-.41,1.23-.41,.42,0,.77,.12,1.02,.36,.25,.24,.38,.57,.38,.98v1.27h.14v.69l-.15,.03c-.08,.01-.14,.02-.18,.02-.15,0-.27-.04-.36-.12-.05-.05-.09-.1-.12-.17-.09,.07-.19,.12-.3,.17-.23,.1-.49,.16-.75,.16Zm1.4-.54v.02s.02,.06,.02,.07c.01,.01,.04,.02,.07,.02v-.02s-.07-.06-.09-.09Zm-1.09-1c-.24,0-.43,.05-.57,.14-.15,.1-.17,.2-.17,.28,0,.06,.01,.12,.04,.17,.03,.06,.06,.1,.11,.14,.05,.04,.1,.07,.17,.1,.22,.08,.49,.03,.7-.06,.14-.06,.24-.14,.31-.23,.04-.04,.05-.06,.06-.07l.2-.03h-.19v-.34c-.08-.02-.17-.04-.25-.06-.13-.02-.26-.04-.39-.04Zm1.03,0v.32h0v-.83c0-.14-.02-.27-.06-.38,.03,.11,.05,.22,.05,.35v.54Z"/><polygon class="cls-1" points="23.69 73.28 23.25 73.28 21.56 74.87 21.56 72.11 21.17 72.11 21.17 76.17 21.56 76.17 21.56 75.26 22.21 74.68 23.31 76.17 23.74 76.17 22.47 74.46 23.69 73.28"/><path class="cls-1" d="M24.12,76.36h-.9l-1.04-1.39-.43,.38v1.01h-.77v-4.44h.77v2.51l1.42-1.34h.99l-1.45,1.4,1.4,1.88Zm-2.76-.38h0v0Z"/><path class="cls-1" d="M29.31,73.67c-.13-.14-.29-.25-.47-.33-.18-.08-.38-.12-.6-.12s-.41,.04-.6,.12c-.18,.08-.34,.19-.48,.32-.13,.14-.24,.29-.31,.47-.08,.18-.11,.37-.11,.58s.04,.4,.11,.58c.07,.18,.18,.34,.31,.48,.13,.14,.29,.25,.48,.33,.18,.08,.38,.12,.6,.12,.15,0,.29-.02,.42-.05s.26-.09,.37-.15c.11-.06,.21-.14,.29-.23,.08-.09,.15-.18,.2-.29l-.34-.09c-.03,.08-.08,.15-.15,.21-.07,.06-.14,.12-.22,.16-.08,.04-.17,.08-.27,.11s-.19,.04-.29,.04c-.15,0-.28-.03-.41-.08-.13-.05-.24-.13-.34-.23-.1-.1-.18-.21-.24-.34-.06-.13-.1-.28-.11-.43h2.57s0-.03,0-.06v-.09c0-.2-.04-.39-.11-.57-.07-.18-.18-.34-.31-.47Zm-2.17,.9c.01-.15,.05-.29,.11-.42,.06-.13,.14-.24,.24-.33,.1-.09,.21-.17,.34-.22,.13-.05,.27-.08,.41-.08s.28,.03,.41,.08c.13,.05,.24,.12,.34,.22,.1,.09,.18,.2,.24,.33,.06,.13,.1,.27,.11,.43h-2.21Z"/><path class="cls-1" d="M28.25,76.42c-.24,0-.47-.05-.68-.14-.2-.09-.39-.21-.54-.37-.15-.16-.27-.34-.35-.54-.08-.2-.13-.42-.13-.66s.04-.45,.13-.65c.08-.2,.2-.38,.35-.53,.15-.15,.33-.28,.54-.36,.42-.18,.95-.18,1.35,0,.21,.09,.38,.21,.53,.37h0c.15,.15,.26,.33,.34,.53,.08,.2,.12,.42,.12,.64v.09c0,.05,0,.09-.01,.12l-.04,.13h-2.48c.02,.05,.03,.11,.06,.16,.05,.11,.12,.21,.21,.29,.08,.08,.18,.14,.28,.19,.17,.07,.38,.09,.58,.03,.08-.02,.16-.05,.22-.09,.06-.04,.12-.08,.18-.13,.05-.05,.08-.1,.11-.16l.07-.15,.71,.19-.09,.2c-.05,.13-.13,.25-.23,.35-.1,.1-.21,.19-.33,.26-.13,.07-.27,.13-.42,.17-.15,.04-.31,.06-.47,.06Zm-1.26-2.09c-.04,.12-.06,.25-.06,.38,0,.18,.03,.35,.1,.5-.04-.11-.06-.22-.07-.35l-.02-.11v-.09h0v-.12c.01-.08,.03-.15,.04-.22Zm.38,.05h1.76c-.01-.05-.03-.1-.06-.15-.05-.11-.12-.2-.2-.28-.08-.08-.17-.14-.28-.18-.21-.08-.47-.08-.68,0-.11,.04-.2,.1-.28,.18-.08,.07-.14,.17-.19,.27-.02,.05-.04,.1-.05,.15Z"/><path class="cls-1" d="M40.21,72.61c-.11-.12-.24-.21-.38-.28-.15-.07-.31-.11-.49-.11h-1.69v3.95h.4v-1.46h1.33c.18,0,.34-.03,.48-.11,.14-.07,.27-.16,.37-.28,.1-.11,.18-.25,.24-.4,.06-.15,.09-.31,.09-.47,0-.15-.03-.3-.09-.45-.06-.15-.15-.28-.25-.4Zm-.12,1.19c-.04,.11-.09,.21-.16,.29-.07,.08-.15,.15-.25,.2-.1,.05-.21,.08-.33,.08h-1.31v-1.8h1.27c.11,0,.22,.02,.32,.07,.1,.05,.19,.11,.27,.19,.07,.08,.13,.18,.18,.29,.04,.11,.07,.23,.07,.35s-.02,.23-.06,.34Z"/><path class="cls-1" d="M38.24,76.36h-.79v-4.33h1.89c.2,0,.4,.04,.57,.13,.17,.08,.32,.19,.44,.33,.12,.13,.22,.28,.29,.45,.07,.17,.11,.35,.11,.52,0,.19-.03,.37-.1,.54-.07,.17-.16,.33-.28,.46-.12,.13-.26,.24-.43,.32-.17,.08-.36,.13-.57,.13h-1.13v1.46Zm-.4-.38h.02v-3.56h-.02v3.56Zm.4-1.8h1.12c.09,0,.17-.02,.24-.05,.08-.04,.14-.09,.19-.15,.05-.06,.1-.14,.13-.23h0c.03-.09,.05-.18,.05-.28s-.02-.19-.05-.28c-.04-.09-.08-.16-.14-.23-.06-.06-.13-.11-.2-.15-.08-.04-.16-.05-.24-.05h-1.08v1.42Zm1.99-1.22s.03,.05,.04,.08c.05,.13,.08,.27,.08,.42s-.02,.28-.07,.41h0c-.03,.09-.07,.18-.13,.26,.06-.08,.11-.17,.14-.26,.05-.13,.07-.26,.07-.4,0-.13-.03-.25-.08-.38-.02-.04-.04-.08-.06-.12Z"/><path class="cls-1" d="M46.33,73.67c-.13-.14-.29-.25-.47-.33-.18-.08-.38-.12-.6-.12s-.41,.04-.59,.12c-.18,.08-.34,.19-.47,.33-.13,.14-.24,.3-.31,.48s-.11,.37-.11,.58,.04,.39,.11,.57c.07,.18,.18,.34,.31,.48,.13,.14,.29,.25,.47,.33,.18,.08,.38,.12,.6,.12s.42-.04,.6-.12c.18-.08,.34-.19,.47-.33,.13-.14,.24-.3,.31-.48s.11-.37,.11-.57-.04-.4-.11-.58c-.07-.18-.18-.34-.31-.48Zm-.06,1.51c-.06,.14-.14,.26-.24,.37-.1,.11-.22,.19-.35,.25-.13,.06-.27,.09-.42,.09s-.29-.03-.42-.09c-.13-.06-.25-.14-.35-.25-.1-.11-.18-.23-.23-.37-.06-.14-.09-.29-.09-.45s.03-.32,.09-.46c.06-.14,.14-.27,.24-.38,.1-.11,.22-.19,.35-.25,.13-.06,.27-.09,.42-.09s.29,.03,.42,.09c.13,.06,.25,.14,.35,.25,.1,.11,.18,.23,.24,.37,.06,.14,.09,.29,.09,.45s-.03,.32-.09,.46Z"/><path class="cls-1" d="M45.26,76.42c-.24,0-.47-.05-.68-.14-.2-.09-.38-.21-.53-.37-.15-.15-.27-.34-.35-.54-.08-.2-.12-.42-.12-.64s.04-.45,.13-.65c.08-.2,.2-.38,.35-.54,.15-.15,.33-.28,.53-.37,.41-.18,.93-.18,1.35,0,.2,.09,.38,.22,.53,.37h0c.15,.15,.27,.34,.35,.54,.08,.2,.13,.42,.13,.65s-.04,.44-.12,.64c-.08,.2-.2,.39-.35,.54s-.33,.28-.53,.37c-.21,.09-.43,.14-.68,.14Zm0-2.67c-.12,0-.24,.02-.34,.07-.11,.05-.2,.12-.29,.21-.08,.09-.15,.2-.2,.32-.05,.12-.07,.25-.07,.39s.02,.26,.07,.38c.05,.12,.12,.22,.2,.31,.08,.09,.18,.15,.28,.2,.21,.1,.47,.1,.69,0,.11-.05,.21-.12,.29-.21,.08-.09,.15-.19,.2-.31h0c.05-.12,.07-.25,.07-.38s-.02-.26-.07-.38c-.05-.12-.12-.23-.2-.31-.08-.09-.18-.16-.29-.21-.11-.05-.22-.07-.34-.07Zm1.19,1.5c-.05,.12-.11,.23-.19,.33,.09-.1,.16-.22,.21-.35,.06-.16,.1-.33,.1-.5s-.03-.35-.1-.51c-.03-.07-.06-.13-.1-.2,.03,.05,.06,.11,.08,.17,.07,.16,.1,.34,.1,.52s-.03,.36-.1,.53h0Zm-2.25-1.28c-.05,.08-.1,.16-.14,.25-.07,.16-.1,.33-.1,.51s.03,.34,.1,.5c.04,.09,.09,.18,.14,.26-.05-.07-.09-.15-.12-.23-.07-.16-.1-.34-.1-.53s.03-.37,.1-.53c.03-.08,.07-.16,.12-.23Z"/><path class="cls-1" d="M51.43,75.8c-.08,.04-.18,.05-.29,.05-.09,0-.17-.02-.24-.08-.07-.05-.11-.13-.12-.24v-1.97h.69v-.3h-.69v-.98h-.39v.98h-.41v.3h.41v2.07c0,.09,.02,.17,.05,.24,.03,.07,.08,.13,.14,.18,.06,.05,.12,.08,.2,.1,.08,.02,.16,.03,.24,.03s.16,0,.23-.02c.07-.01,.14-.03,.2-.05,.06-.02,.11-.04,.15-.06,.04-.02,.08-.03,.1-.04l-.1-.31s-.08,.04-.16,.08Z"/><path class="cls-1" d="M51.01,76.39c-.1,0-.2-.01-.3-.04-.1-.03-.19-.08-.27-.14-.08-.06-.14-.14-.19-.24-.05-.1-.07-.21-.07-.33v-1.88h-.41v-.68h.41v-.98h.77v.98h.69v.68h-.69v1.78c0,.06,.03,.07,.04,.08,.1,.07,.26,.04,.35,0h0c.07-.03,.11-.05,.13-.06l.2-.12,.24,.69-.15,.07s-.06,.03-.11,.05c-.05,.02-.1,.04-.17,.06-.06,.02-.14,.04-.22,.06-.08,.02-.17,.03-.27,.03Zm-.44-3.01v2.27c0,.06,.01,.12,.03,.16,.02,.05,.05,.08,.09,.11,.04,.03,.08,.05,.14,.07,.03,0,.06,.01,.09,.02-.05-.02-.09-.04-.13-.07-.08-.06-.18-.17-.2-.38v-2.17Z"/><path class="cls-1" d="M57.35,73.67c-.13-.14-.29-.25-.47-.33-.18-.08-.38-.12-.6-.12s-.41,.04-.6,.12c-.18,.08-.34,.19-.48,.32-.13,.14-.24,.29-.31,.47-.07,.18-.11,.37-.11,.58s.04,.4,.11,.58c.08,.18,.18,.34,.31,.48,.13,.14,.29,.25,.48,.33,.18,.08,.38,.12,.6,.12,.15,0,.29-.02,.42-.05s.26-.09,.37-.15c.11-.06,.21-.14,.29-.23,.08-.09,.15-.18,.2-.29l-.34-.09c-.03,.08-.08,.15-.15,.21-.07,.06-.14,.12-.22,.16-.08,.04-.17,.08-.27,.11s-.19,.04-.29,.04c-.15,0-.28-.03-.41-.08-.13-.05-.24-.13-.34-.23-.1-.1-.18-.21-.24-.34-.06-.13-.1-.28-.11-.43h2.57s0-.03,0-.06v-.09c0-.2-.04-.39-.11-.57-.07-.18-.17-.34-.31-.47Zm-2.17,.9c.01-.15,.05-.29,.11-.42,.06-.13,.14-.24,.24-.33,.1-.09,.21-.17,.34-.22,.13-.05,.27-.08,.42-.08s.28,.03,.41,.08c.13,.05,.24,.12,.34,.22,.1,.09,.18,.2,.24,.33,.06,.13,.1,.27,.11,.43h-2.21Z"/><path class="cls-1" d="M56.29,76.42c-.24,0-.47-.05-.68-.14-.2-.09-.38-.21-.54-.37-.15-.16-.27-.34-.35-.54-.08-.2-.13-.43-.13-.66s.04-.45,.13-.65c.08-.2,.2-.38,.35-.53,.15-.15,.33-.28,.54-.36,.42-.18,.95-.18,1.35,0,.2,.09,.38,.21,.53,.37h0c.15,.15,.26,.33,.34,.53,.08,.2,.12,.42,.12,.64v.09c0,.05,0,.09-.02,.12l-.04,.13h-2.48c.02,.05,.03,.11,.06,.16,.05,.11,.12,.21,.21,.29,.08,.08,.18,.14,.28,.19,.17,.07,.38,.09,.58,.03,.08-.02,.16-.05,.22-.09,.06-.04,.12-.08,.18-.13,.05-.05,.08-.1,.11-.16l.07-.15,.71,.19-.09,.2c-.06,.13-.13,.25-.23,.35-.1,.1-.21,.19-.34,.26-.13,.07-.27,.13-.42,.17-.15,.04-.31,.06-.47,.06Zm-1.26-2.09c-.04,.12-.06,.25-.06,.39,0,.18,.03,.35,.1,.51-.04-.11-.06-.23-.07-.35l-.02-.11v-.08h0v-.12c.01-.08,.03-.15,.04-.23Zm.38,.05h1.76c-.01-.05-.03-.1-.06-.15-.05-.11-.12-.2-.2-.28-.08-.08-.17-.14-.28-.18-.21-.09-.47-.09-.69,0-.11,.04-.2,.1-.28,.18-.08,.08-.15,.17-.19,.27-.02,.05-.04,.1-.05,.15Z"/><path class="cls-1" d="M63.58,73.56c-.07-.11-.16-.19-.28-.25-.12-.06-.26-.09-.42-.09-.27,0-.52,.07-.75,.19-.23,.13-.4,.3-.53,.51v-.66h-.36v2.9h.39v-1.77c.03-.12,.09-.23,.17-.33,.08-.1,.16-.19,.26-.26,.1-.07,.2-.13,.32-.17,.12-.04,.23-.06,.35-.06,.22,0,.38,.08,.49,.23,.11,.16,.16,.41,.16,.75v1.62h.39v-1.7c0-.19-.02-.36-.05-.52-.03-.16-.08-.29-.15-.39Z"/><path class="cls-1" d="M63.97,76.36h-.77v-1.81c0-.38-.07-.56-.13-.64-.04-.06-.13-.15-.33-.15-.09,0-.19,.02-.28,.05-.1,.03-.19,.08-.27,.14-.08,.06-.16,.14-.23,.23-.06,.08-.1,.16-.13,.24v1.94h-.77v-3.28h.74v.33c.07-.06,.15-.12,.24-.16,.26-.15,.54-.22,.84-.22,.2,0,.37,.04,.51,.11,.15,.07,.26,.18,.35,.32,.08,.13,.14,.28,.18,.46,.03,.17,.05,.36,.05,.55v1.89Zm-.39-.38h0v-1.5c0-.17-.01-.34-.04-.48-.03-.13-.07-.24-.12-.33h0c-.05-.08-.12-.14-.2-.18-.05-.03-.11-.04-.17-.05,.17,.06,.28,.17,.34,.27,.13,.19,.19,.47,.19,.86v1.43Zm-2.13,0h0v0Z"/><path class="cls-1" d="M68.64,75.8c-.08,.04-.18,.05-.29,.05-.09,0-.17-.02-.24-.08-.07-.05-.11-.13-.12-.24v-1.97h.69v-.3h-.69v-.98h-.39v.98h-.42v.3h.42v2.07c0,.09,.02,.17,.05,.24s.08,.13,.14,.18c.06,.05,.12,.08,.2,.1,.08,.02,.16,.03,.24,.03s.16,0,.23-.02c.07-.01,.14-.03,.2-.05,.06-.02,.11-.04,.15-.06,.04-.02,.08-.03,.1-.04l-.1-.31s-.08,.04-.16,.08Z"/><path class="cls-1" d="M68.23,76.39c-.1,0-.2-.01-.3-.04-.1-.03-.19-.08-.27-.14-.08-.06-.14-.14-.19-.24-.05-.1-.07-.21-.07-.33v-1.88h-.42v-.68h.42v-.98h.77v.98h.69v.68h-.69v1.78c0,.06,.03,.07,.04,.08,.1,.07,.26,.04,.36,0h0c.07-.03,.11-.05,.13-.06l.2-.12,.24,.69-.15,.07s-.06,.03-.11,.05c-.05,.02-.1,.04-.17,.06-.06,.02-.14,.04-.22,.06-.08,.02-.17,.03-.27,.03Zm-.44-3.01v2.27c0,.06,.01,.12,.03,.16,.02,.05,.05,.08,.09,.11,.04,.03,.08,.05,.14,.07,.03,0,.06,.01,.09,.02-.05-.02-.09-.04-.13-.07-.08-.06-.18-.17-.2-.38v-2.17Z"/><rect class="cls-1" x="72.28" y="72.11" width=".39" height=".56"/><path class="cls-1" d="M72.86,72.86h-.77v-.94h.77v.94Zm-.39-.38h0v0Z"/><rect class="cls-1" x="72.28" y="73.27" width=".39" height="2.9"/><path class="cls-1" d="M72.86,76.36h-.77v-3.28h.77v3.28Zm-.39-.38h0v0Z"/><path class="cls-1" d="M78.71,75.68v-1.31c0-.36-.11-.64-.32-.84-.22-.2-.51-.31-.89-.31s-.74,.13-1.13,.38l.14,.25c.17-.11,.33-.2,.49-.26,.16-.06,.32-.09,.47-.09,.27,0,.47,.08,.62,.23,.15,.15,.22,.35,.22,.61v.26c-.12-.05-.26-.09-.42-.11-.16-.03-.31-.04-.47-.04-.18,0-.35,.02-.51,.06-.15,.04-.29,.1-.4,.18-.11,.08-.2,.17-.26,.28-.06,.11-.09,.22-.09,.35s.02,.24,.07,.35c.05,.11,.12,.2,.21,.29,.09,.08,.2,.15,.32,.19,.12,.05,.25,.07,.39,.07,.24,0,.47-.05,.68-.14,.21-.09,.38-.23,.52-.4v.23c.02,.09,.05,.15,.1,.2,.06,.05,.13,.07,.23,.07,.03,0,.08,0,.15-.02v-.33c-.1,0-.14-.05-.14-.16Zm-.39-.37s0,.07-.03,.11c-.02,.04-.04,.08-.08,.11-.09,.12-.22,.22-.39,.29-.17,.07-.36,.11-.56,.11-.1,0-.19-.02-.28-.05-.09-.03-.16-.08-.23-.14-.06-.06-.11-.12-.15-.2-.04-.08-.05-.16-.05-.25,0-.18,.09-.33,.26-.44,.17-.11,.4-.17,.67-.17,.15,0,.29,.01,.43,.04,.14,.03,.28,.06,.41,.11v.47Z"/><path class="cls-1" d="M77.17,76.42c-.17,0-.32-.03-.46-.08-.14-.05-.27-.13-.38-.23-.11-.1-.2-.22-.26-.35-.06-.13-.09-.28-.09-.43s.04-.31,.12-.44c.08-.13,.18-.25,.32-.34,.13-.09,.28-.16,.46-.21,.31-.09,.68-.09,1.06-.03,.07,.01,.13,.02,.2,.04h0c0-.21-.06-.36-.17-.47-.18-.18-.52-.23-.89-.09-.15,.05-.3,.13-.45,.23l-.17,.12-.33-.59,.15-.1c.42-.27,.83-.41,1.23-.41,.42,0,.77,.12,1.02,.36,.25,.24,.38,.57,.38,.98v1.27h.14v.69l-.15,.03c-.08,.01-.14,.02-.18,.02-.15,0-.27-.04-.36-.12-.05-.05-.09-.1-.12-.17-.09,.07-.19,.12-.3,.17-.23,.1-.49,.16-.75,.16Zm1.4-.53v.02s.02,.06,.02,.07c.01,.01,.04,.02,.07,.02v-.02s-.07-.05-.09-.09Zm-1.09-1c-.24,0-.43,.05-.57,.14-.15,.1-.17,.2-.17,.28,0,.06,.01,.12,.04,.17,.03,.05,.06,.1,.11,.14,.05,.04,.1,.07,.17,.1,.22,.08,.49,.03,.7-.06,.14-.06,.24-.14,.31-.23,.04-.04,.05-.06,.06-.07v-.37c-.07-.02-.16-.04-.24-.06-.13-.02-.26-.04-.39-.04Zm1.03,0v.32h0v-.83c0-.14-.02-.27-.06-.38,.03,.11,.05,.22,.05,.35v.54Z"/><path class="cls-1" d="M83.35,75.84c-.06,.01-.11,.02-.15,.02-.11,0-.2-.03-.26-.09-.06-.06-.09-.15-.09-.25v-3.4h-.39v3.53c0,.18,.05,.32,.16,.41,.1,.1,.25,.15,.43,.15,.08,0,.17,0,.27-.03,.11-.02,.19-.04,.27-.07l-.07-.31c-.05,.02-.1,.03-.16,.04Z"/><path class="cls-1" d="M83.04,76.39c-.23,0-.42-.07-.56-.2-.14-.14-.22-.32-.22-.55v-3.72h.77v3.59c0,.08,.03,.11,.04,.12,.04,.04,.11,.05,.24,.02h0s.09-.02,.13-.04l.2-.08,.15,.68-.15,.06c-.09,.03-.19,.06-.31,.08-.12,.02-.22,.03-.31,.03Zm-.39-4.09v3.34c0,.12,.03,.21,.1,.28,.05,.05,.13,.08,.22,.09-.06-.02-.12-.06-.16-.11-.1-.1-.15-.23-.15-.39v-3.21Z"/><path class="cls-1" d="M93.71,72.61c-.11-.12-.24-.21-.38-.28-.15-.07-.31-.11-.49-.11h-1.69v3.95h.4v-1.46h1.33c.18,0,.34-.03,.48-.11,.14-.07,.27-.16,.37-.28,.1-.11,.18-.25,.24-.4,.06-.15,.09-.31,.09-.47,0-.15-.03-.3-.09-.45-.06-.15-.15-.28-.25-.4Zm-.12,1.19c-.04,.11-.09,.21-.16,.29-.07,.08-.15,.15-.25,.2-.1,.05-.21,.08-.33,.08h-1.31v-1.8h1.27c.11,0,.22,.02,.32,.07,.1,.05,.19,.11,.27,.19,.07,.08,.13,.18,.18,.29,.04,.11,.07,.23,.07,.35s-.02,.23-.06,.34Z"/><path class="cls-1" d="M91.74,76.36h-.79v-4.33h1.89c.21,0,.4,.04,.57,.13,.17,.08,.32,.19,.44,.33h0c.12,.13,.22,.29,.29,.45,.07,.17,.11,.35,.11,.52,0,.19-.03,.37-.1,.54-.07,.17-.16,.33-.28,.46-.12,.13-.26,.24-.43,.32-.17,.08-.36,.13-.57,.13h-1.13v1.46Zm-.4-.38h.02v-3.56h-.02v3.56Zm.4-1.8h1.12c.09,0,.17-.02,.24-.05,.08-.04,.14-.09,.19-.15,.05-.07,.1-.14,.13-.23,.03-.09,.05-.18,.05-.28s-.02-.19-.05-.28c-.04-.09-.08-.16-.14-.23-.06-.06-.12-.11-.2-.15-.08-.04-.16-.05-.24-.05h-1.08v1.42Zm1.99-1.21s.02,.05,.04,.08c.05,.13,.08,.27,.08,.42s-.02,.28-.07,.41c-.03,.09-.07,.18-.13,.26,.06-.08,.11-.17,.14-.26,.05-.13,.07-.26,.07-.4,0-.13-.03-.25-.08-.38-.02-.04-.04-.08-.06-.12Z"/><path class="cls-1" d="M99.83,73.67c-.13-.14-.29-.25-.47-.33-.18-.08-.38-.12-.6-.12s-.41,.04-.59,.12c-.18,.08-.34,.19-.47,.33-.13,.14-.24,.3-.31,.48-.07,.18-.11,.37-.11,.58s.04,.39,.11,.57c.07,.18,.18,.34,.31,.48,.13,.14,.29,.25,.47,.33,.18,.08,.38,.12,.6,.12s.42-.04,.6-.12c.18-.08,.34-.19,.47-.33,.13-.14,.24-.3,.31-.48,.07-.18,.11-.37,.11-.57s-.04-.4-.11-.58c-.07-.18-.18-.34-.31-.48Zm-.06,1.51c-.06,.14-.14,.26-.24,.37-.1,.11-.22,.19-.35,.25-.13,.06-.27,.09-.42,.09s-.29-.03-.42-.09c-.13-.06-.25-.14-.35-.25-.1-.11-.18-.23-.23-.37-.06-.14-.09-.29-.09-.45s.03-.32,.09-.46c.06-.14,.14-.27,.24-.38,.1-.11,.22-.19,.35-.25,.13-.06,.27-.09,.42-.09s.29,.03,.42,.09c.13,.06,.25,.14,.35,.25,.1,.11,.18,.23,.24,.37,.06,.14,.09,.29,.09,.45s-.03,.32-.09,.46Z"/><path class="cls-1" d="M98.76,76.42c-.24,0-.47-.05-.68-.14-.2-.09-.38-.21-.53-.37-.15-.15-.27-.34-.35-.54-.08-.2-.12-.42-.12-.64s.04-.45,.13-.65c.08-.2,.2-.38,.35-.54,.15-.15,.33-.28,.53-.37,.41-.18,.93-.18,1.35,0,.2,.09,.38,.22,.53,.37,.15,.15,.27,.34,.35,.54,.08,.2,.13,.42,.13,.65s-.04,.44-.12,.64c-.08,.2-.2,.39-.35,.54-.15,.15-.33,.28-.53,.37-.21,.09-.44,.14-.68,.14Zm0-2.67c-.12,0-.24,.02-.34,.07-.11,.05-.2,.12-.29,.21-.08,.09-.15,.2-.2,.32-.05,.12-.07,.25-.07,.39s.02,.26,.07,.38c.05,.12,.11,.22,.2,.31,.08,.09,.18,.15,.28,.2,.21,.1,.47,.1,.69,0,.11-.05,.21-.12,.29-.21,.08-.09,.15-.19,.2-.31h0c.05-.12,.07-.25,.07-.38s-.02-.26-.07-.38c-.05-.12-.12-.23-.2-.31-.08-.09-.18-.16-.29-.21-.11-.05-.22-.07-.34-.07Zm1.19,1.5c-.05,.12-.11,.23-.19,.33,.09-.1,.16-.22,.21-.35,.06-.16,.1-.33,.1-.5s-.03-.35-.1-.51c-.03-.07-.06-.13-.1-.2,.03,.05,.06,.11,.08,.17,.07,.16,.1,.34,.1,.52s-.03,.37-.1,.53h0Zm-2.25-1.28c-.05,.08-.1,.16-.14,.25-.06,.16-.1,.33-.1,.51s.03,.34,.1,.5c.04,.09,.09,.18,.14,.26-.05-.07-.09-.15-.12-.23-.07-.16-.1-.34-.1-.53s.03-.37,.1-.53c.03-.08,.07-.16,.12-.23Z"/><path class="cls-1" d="M105.66,74.83c-.1-.06-.22-.11-.37-.16-.15-.04-.32-.09-.51-.13-.13-.03-.25-.06-.34-.09-.09-.03-.17-.06-.23-.09-.06-.04-.11-.08-.13-.13s-.04-.11-.04-.19c0-.09,.02-.17,.06-.24,.04-.07,.09-.13,.16-.17s.14-.08,.23-.1c.09-.02,.18-.03,.29-.03,.17,0,.34,.03,.5,.08,.16,.06,.29,.14,.41,.25l.19-.22c-.12-.12-.27-.21-.46-.29-.19-.07-.4-.11-.63-.11-.15,0-.3,.02-.43,.06-.14,.04-.26,.09-.36,.16-.1,.07-.18,.16-.24,.28-.06,.11-.09,.24-.09,.38,0,.11,.02,.21,.06,.29,.04,.08,.1,.14,.18,.19,.08,.05,.19,.1,.31,.14,.13,.04,.28,.08,.45,.12,.15,.03,.28,.07,.39,.1,.11,.03,.21,.07,.28,.11,.07,.04,.13,.09,.17,.14,.04,.05,.06,.12,.06,.2,0,.17-.07,.31-.22,.4-.14,.09-.34,.14-.58,.14-.2,0-.39-.03-.56-.1-.17-.07-.35-.17-.52-.3l-.18,.26c.16,.14,.35,.25,.58,.32,.22,.07,.45,.11,.69,.11,.36,0,.64-.08,.85-.23,.21-.16,.32-.37,.32-.63,0-.12-.03-.23-.08-.31s-.12-.16-.22-.22Z"/><path class="cls-1" d="M104.79,76.42c-.25,0-.5-.04-.75-.12-.25-.08-.46-.2-.64-.36l-.13-.11,.39-.56,.16,.13c.15,.12,.31,.21,.47,.27,.33,.13,.76,.11,.97-.02,.09-.06,.13-.13,.13-.24,0-.04,0-.07-.02-.09-.02-.03-.06-.06-.11-.08-.06-.03-.14-.06-.24-.09-.11-.03-.24-.06-.39-.09-.18-.04-.34-.08-.47-.13-.14-.04-.26-.1-.36-.16-.11-.07-.2-.16-.25-.26-.06-.1-.08-.23-.08-.38,0-.18,.04-.34,.11-.47,.07-.14,.17-.25,.3-.34,.12-.08,.26-.15,.42-.19,.38-.1,.83-.08,1.18,.06,.21,.08,.39,.19,.52,.33l.12,.13-.44,.51-.15-.15c-.09-.09-.2-.16-.33-.2-.22-.08-.48-.09-.68-.05-.07,.02-.12,.04-.17,.07-.04,.03-.07,.06-.1,.1-.02,.04-.03,.09-.03,.15s.01,.09,.02,.1c0,.02,.03,.04,.06,.05,.05,.03,.11,.05,.19,.08,.09,.03,.2,.05,.33,.08,.2,.05,.37,.09,.52,.14,.16,.05,.3,.11,.41,.17h0c.13,.08,.22,.17,.29,.28,.07,.11,.1,.25,.1,.41,0,.33-.13,.59-.39,.79-.24,.18-.57,.27-.97,.27Zm.91-1.3c.04,.06,.06,.13,.06,.21,0-.07-.02-.14-.05-.19l-.02-.03Zm-1.84-.94s.02,.08,.03,.11c0,0,.01,.02,.02,.03-.02-.04-.04-.09-.05-.14Z"/><path class="cls-1" d="M111.35,74.83c-.1-.06-.22-.11-.37-.16-.15-.04-.32-.09-.51-.13-.13-.03-.25-.06-.34-.09-.09-.03-.17-.06-.23-.09-.06-.04-.11-.08-.13-.13s-.04-.11-.04-.19c0-.09,.02-.17,.06-.24,.04-.07,.09-.13,.16-.17s.14-.08,.23-.1c.09-.02,.18-.03,.29-.03,.17,0,.34,.03,.5,.08,.16,.06,.29,.14,.41,.25l.19-.22c-.12-.12-.27-.21-.46-.29-.19-.07-.4-.11-.63-.11-.15,0-.3,.02-.43,.06-.14,.04-.26,.09-.36,.16-.1,.07-.18,.16-.24,.28-.06,.11-.09,.24-.09,.38,0,.11,.02,.21,.06,.29,.04,.08,.1,.14,.18,.19,.08,.05,.19,.1,.31,.14,.13,.04,.28,.08,.45,.12,.15,.03,.28,.07,.39,.1,.11,.03,.21,.07,.28,.11,.07,.04,.13,.09,.17,.14,.04,.05,.06,.12,.06,.2,0,.17-.07,.31-.22,.4-.14,.09-.34,.14-.58,.14-.2,0-.39-.03-.56-.1-.17-.07-.35-.17-.52-.3l-.18,.26c.16,.14,.35,.25,.58,.32,.22,.07,.45,.11,.69,.11,.36,0,.64-.08,.85-.23,.21-.16,.32-.37,.32-.63,0-.12-.03-.23-.08-.31s-.12-.16-.22-.22Z"/><path class="cls-1" d="M110.48,76.42c-.25,0-.5-.04-.75-.12-.25-.08-.46-.2-.64-.36l-.13-.11,.39-.56,.16,.13c.15,.12,.31,.21,.47,.27,.33,.13,.76,.11,.97-.02,.09-.06,.13-.13,.13-.24,0-.04,0-.07-.02-.09-.02-.03-.06-.06-.11-.09-.06-.03-.14-.06-.24-.09-.11-.03-.24-.06-.39-.09-.18-.04-.34-.08-.47-.13-.14-.04-.26-.1-.36-.16-.11-.07-.2-.16-.25-.26-.06-.1-.08-.23-.08-.38,0-.18,.04-.34,.11-.47,.07-.14,.17-.25,.3-.34,.12-.08,.26-.15,.42-.19,.38-.1,.83-.08,1.18,.06,.21,.08,.39,.19,.52,.33l.12,.13-.44,.51-.15-.15c-.09-.09-.2-.16-.33-.2-.22-.08-.48-.09-.68-.05-.07,.02-.12,.04-.17,.07-.04,.03-.07,.06-.1,.1-.02,.04-.03,.09-.03,.15s.01,.09,.02,.1c0,.02,.03,.04,.06,.05,.05,.03,.11,.05,.19,.08,.09,.03,.2,.05,.33,.08,.2,.05,.37,.09,.52,.14,.16,.05,.3,.11,.41,.17h0c.13,.08,.22,.17,.29,.28,.07,.11,.1,.25,.1,.41,0,.33-.13,.59-.39,.79-.24,.18-.57,.27-.97,.27Zm.91-1.3c.04,.06,.06,.13,.06,.21,0-.07-.02-.14-.05-.18l-.02-.02Zm-1.84-.94s.02,.08,.03,.11c0,0,.01,.02,.02,.03-.02-.04-.04-.09-.05-.14Z"/><rect class="cls-1" x="115.17" y="72.11" width=".39" height=".56"/><path class="cls-1" d="M115.75,72.86h-.77v-.94h.77v.94Zm-.39-.38h0v0Z"/><rect class="cls-1" x="115.17" y="73.27" width=".39" height="2.9"/><path class="cls-1" d="M115.75,76.36h-.77v-3.28h.77v3.28Zm-.39-.38h0v0Z"/><path class="cls-1" d="M121.83,73.69c-.12-.14-.26-.26-.43-.34-.17-.09-.36-.13-.57-.13-.25,0-.47,.06-.66,.18-.19,.12-.35,.28-.48,.48v-1.77h-.39v4.06h.35v-.56c.11,.18,.27,.33,.46,.44,.2,.12,.42,.17,.65,.17,.2,0,.39-.04,.56-.12,.17-.08,.33-.19,.45-.32,.13-.14,.23-.29,.3-.48,.07-.18,.11-.37,.11-.58,0-.19-.03-.37-.1-.55-.06-.18-.15-.34-.27-.48Zm-.12,1.47c-.06,.14-.13,.26-.23,.37-.1,.11-.22,.2-.35,.26-.14,.07-.29,.1-.45,.1-.1,0-.2-.02-.31-.06-.11-.04-.21-.09-.31-.15-.09-.06-.17-.14-.24-.23-.07-.09-.11-.18-.12-.28v-.9c.05-.1,.1-.19,.17-.28,.07-.09,.15-.16,.24-.23,.09-.07,.18-.12,.29-.16,.1-.04,.22-.06,.33-.06,.16,0,.3,.03,.44,.1,.13,.06,.25,.15,.34,.26,.09,.11,.17,.23,.22,.38,.05,.14,.08,.29,.08,.44s-.03,.29-.08,.43Z"/><path class="cls-1" d="M120.78,76.42c-.27,0-.52-.07-.75-.2-.06-.04-.12-.08-.18-.12v.26h-.73v-4.44h.77v1.46c.06-.05,.12-.1,.19-.14,.4-.26,.99-.28,1.41-.06,.19,.1,.35,.23,.49,.39h0c.13,.16,.23,.34,.3,.54,.07,.2,.11,.41,.11,.62,0,.23-.04,.45-.12,.65-.08,.2-.19,.38-.34,.53-.14,.15-.32,.28-.51,.37-.2,.09-.42,.14-.64,.14Zm.57-2.88c.11,.07,.21,.15,.3,.25,.11,.13,.19,.27,.25,.43,.06,.16,.09,.33,.09,.51s-.03,.34-.1,.5h0c-.06,.16-.15,.3-.27,.43-.05,.05-.09,.1-.15,.14,.06-.04,.12-.09,.17-.15,.11-.12,.2-.26,.26-.42,.06-.16,.1-.33,.1-.51,0-.17-.03-.33-.08-.49-.06-.16-.14-.3-.24-.43h0c-.09-.11-.21-.21-.34-.28Zm-1.46,.79v.86s.04,.1,.08,.16c.05,.07,.12,.13,.2,.18,.08,.05,.17,.1,.26,.13,.25,.08,.45,.05,.62-.03,.11-.05,.21-.13,.29-.22,.08-.09,.15-.2,.2-.32h0c.05-.12,.07-.24,.07-.36,0-.13-.02-.25-.07-.37-.04-.12-.11-.23-.18-.32-.08-.09-.17-.16-.28-.21-.19-.09-.43-.1-.62-.03-.09,.03-.17,.08-.24,.13-.07,.06-.14,.12-.2,.2-.05,.06-.09,.13-.13,.2Zm-.39,.66v-.48h0v.48Z"/><path class="cls-1" d="M126.66,75.84c-.06,.01-.11,.02-.15,.02-.11,0-.2-.03-.26-.09-.06-.06-.09-.15-.09-.25v-3.4h-.39v3.53c0,.18,.05,.32,.16,.41,.1,.1,.25,.15,.43,.15,.08,0,.17,0,.27-.03,.11-.02,.19-.04,.27-.07l-.07-.31c-.05,.02-.1,.03-.16,.04Z"/><path class="cls-1" d="M126.34,76.39c-.23,0-.42-.07-.56-.2-.14-.14-.22-.32-.22-.55v-3.72h.77v3.59c0,.07,.02,.1,.04,.12,.04,.04,.11,.05,.24,.02h0s.09-.02,.13-.04l.2-.08,.15,.68-.15,.06c-.09,.03-.19,.06-.31,.08-.12,.02-.22,.03-.31,.03Zm-.39-4.09v3.34c0,.12,.03,.21,.1,.28,.05,.05,.13,.08,.22,.09-.06-.02-.12-.06-.16-.11-.1-.1-.15-.23-.15-.39v-3.21Z"/><path class="cls-1" d="M132.56,73.67c-.13-.14-.29-.25-.47-.33-.18-.08-.38-.12-.6-.12s-.42,.04-.6,.12c-.18,.08-.34,.19-.48,.32-.13,.14-.24,.29-.31,.47-.07,.18-.11,.37-.11,.58s.04,.4,.11,.58c.08,.18,.18,.34,.31,.48,.13,.14,.29,.25,.48,.33,.18,.08,.38,.12,.6,.12,.15,0,.29-.02,.42-.05s.26-.09,.37-.15c.11-.06,.21-.14,.29-.23,.08-.09,.15-.18,.2-.29l-.34-.09c-.03,.08-.08,.15-.15,.21-.07,.06-.14,.12-.22,.16-.08,.04-.17,.08-.26,.11-.1,.03-.19,.04-.29,.04-.15,0-.28-.03-.41-.08-.13-.05-.24-.13-.34-.23-.1-.1-.18-.21-.24-.34s-.1-.28-.11-.43h2.57s0-.03,0-.06v-.09c0-.2-.04-.39-.11-.57-.07-.18-.18-.34-.31-.47Zm-2.17,.9c.01-.15,.05-.29,.11-.42,.06-.13,.14-.24,.24-.33,.1-.09,.21-.17,.34-.22,.13-.05,.27-.08,.41-.08s.28,.03,.41,.08c.13,.05,.24,.12,.34,.22,.1,.09,.18,.2,.24,.33,.06,.13,.1,.27,.11,.43h-2.21Z"/><path class="cls-1" d="M131.49,76.42c-.24,0-.47-.05-.68-.14-.2-.09-.39-.21-.54-.37-.15-.16-.27-.34-.35-.54-.08-.2-.13-.43-.13-.66s.04-.45,.13-.65c.08-.2,.2-.38,.35-.53,.15-.15,.33-.28,.54-.36,.42-.18,.94-.18,1.35,0,.21,.09,.38,.21,.53,.37h0c.15,.15,.26,.33,.34,.53,.08,.2,.12,.42,.12,.64v.09c0,.05,0,.09-.02,.12l-.04,.13h-2.48c.02,.05,.03,.11,.06,.16,.05,.11,.12,.21,.21,.29,.08,.08,.18,.14,.28,.19,.18,.07,.38,.09,.58,.03,.08-.02,.16-.05,.22-.09,.06-.04,.12-.08,.18-.13,.05-.05,.08-.1,.11-.16l.07-.15,.71,.19-.09,.2c-.06,.13-.13,.25-.23,.35-.1,.1-.21,.19-.33,.26-.13,.07-.27,.13-.42,.17-.15,.04-.31,.06-.47,.06Zm-1.26-2.09c-.04,.12-.06,.25-.06,.39,0,.18,.03,.35,.1,.51-.04-.11-.06-.23-.07-.35l-.02-.11v-.09h0v-.12c.01-.08,.03-.15,.04-.23Zm.38,.05h1.75c-.01-.05-.03-.1-.06-.15-.05-.11-.12-.2-.2-.28-.08-.08-.17-.14-.28-.18-.21-.09-.47-.08-.69,0-.11,.04-.2,.1-.28,.18-.08,.08-.14,.17-.19,.27-.02,.05-.04,.1-.05,.15Z"/></g></g></svg>